<svg xmlns="http://www.w3.org/2000/svg" fill="none" viewBox="0 0 268 232">
  <path d="M126.265 186.525l9.225 7.641s-19.549 34.763-22.39 29.606c-1.376-2.494 1.812-19.796 1.812-19.796" fill="#fff"/>
  <path d="M113.914 224.791c4.78 0 20.261-27.27 22.003-30.378a.5.5 0 00-.109-.623l-9.225-7.691a.476.476 0 00-.17-.092.48.48 0 00-.377.034.51.51 0 00-.151.122.5.5 0 00.065.698l8.908 7.424c-6.533 11.571-17.817 29.516-20.944 29.516a.425.425 0 01-.377-.267c-.989-1.712.594-12.571 1.861-19.45a.497.497 0 00-.396-.574.517.517 0 00-.584.396c-.326 1.791-3.167 17.53-1.752 20.103a1.384 1.384 0 001.248.782z" fill="#231F20"/>
  <path d="M23.421 137.083l15.64-6.503-20.965-50.382c-1.98-4.85-10.819-12.462-13.858-11.205C1.2 70.25.418 81.861 2.437 86.711l20.984 50.372z" fill="#fff"/>
  <path d="M23.42 137.577a.426.426 0 00.187 0l15.64-6.503a.506.506 0 00.267-.267.525.525 0 000-.386L18.549 80.049C16.57 75.367 7.661 67.092 4.07 68.577.476 70.061.05 82.257 2 86.937l20.955 50.373a.489.489 0 00.465.267zm14.995-7.265l-14.778 6.127L2.851 86.522c-1.98-4.84-.99-16.005 1.534-17.064 2.524-1.06 11.175 6.087 13.194 10.888l20.836 49.966z" fill="#231F20"/>
  <path d="M25.282 136.284l11.497-4.783 1.042 2.504-11.497 4.783-1.042-2.504z" fill="#fff"/>
  <path d="M26.33 139.3a.471.471 0 00.199 0l11.492-4.781a.487.487 0 00.307-.462.492.492 0 00-.04-.191l-1.04-2.494a.473.473 0 00-.267-.267.49.49 0 00-.376 0l-11.502 4.78a.503.503 0 00-.27.271.497.497 0 00.003.383l1.04 2.474a.502.502 0 00.267.267c.06.021.124.028.188.02zm10.889-5.543l-10.591 4.405-.654-1.594 10.532-4.404.713 1.593z" fill="#231F20"/>
  <path d="M5.194 93.322l15.646-6.51 13.787 33.138-15.646 6.509L5.194 93.322z" fill="#D1D3D4"/>
  <path d="M18.997 126.967a.507.507 0 00.198 0l15.64-6.514a.46.46 0 00.266-.267.495.495 0 000-.376L21.313 86.67a.504.504 0 00-.267-.267.524.524 0 00-.386 0L5.02 92.916a.495.495 0 00-.267.644l13.789 33.139a.506.506 0 00.455.268zm14.996-7.276l-14.729 6.137L5.822 93.6l14.729-6.127 13.442 32.218z" fill="#231F20"/>
  <path d="M45.506 128.728l-7.226-.039-3.118-7.483 8.582 3.286 1.762 4.236z" fill="#fff"/>
  <path d="M45.501 129.224a.505.505 0 00.416-.218.483.483 0 000-.465l-1.762-4.237a.478.478 0 00-.277-.277l-8.582-3.286a.503.503 0 00-.534.119.482.482 0 00-.1.534l3.119 7.483a.473.473 0 00.445.307h7.236l.04.04zm-2.138-4.346l1.396 3.356h-6.157l-2.544-6.117 7.305 2.761z" fill="#231F20"/>
  <path d="M17.57 140.359l5.059-5.157-3.108-7.483-3.722 8.404 1.772 4.236z" fill="#fff"/>
  <path d="M17.565 140.854a.507.507 0 00.357-.149l5.068-5.157a.502.502 0 00.109-.534l-3.118-7.493a.5.5 0 00-.456-.297.487.487 0 00-.455.287l-3.712 8.413a.478.478 0 000 .386l1.762 4.237a.512.512 0 00.366.297l.08.01zm4.494-5.801l-4.315 4.385-1.396-3.355 3.158-7.157 2.553 6.127z" fill="#231F20"/>
  <path d="M177.488 24.946l-94.607 2.82-68.674 65.131 12.521 30.081L190.01 55.027l-12.522-30.081z" fill="#fff"/>
  <path d="M26.725 123.473a.426.426 0 00.188 0l163.322-67.952a.478.478 0 00.267-.267.5.5 0 000-.376l-12.521-30.08a.528.528 0 00-.466-.308l-94.607 2.821a.485.485 0 00-.327.129L13.858 92.49a.505.505 0 00-.11.555l12.512 30.13c.051.12.147.216.267.267a.48.48 0 00.198.03zm162.639-68.714L26.983 122.334 14.788 93.016l68.298-64.764 94.033-2.802 12.245 29.31z" fill="#231F20"/>
  <path d="M67.609 30.677L95.702 18.99c9.095-3.784 19.535.522 23.319 9.617l14.647 35.203c3.784 9.095-.522 19.535-9.617 23.32L95.958 98.816c-9.095 3.784-19.535-.522-23.32-9.617L57.993 53.997c-3.784-9.095.522-19.535 9.617-23.32z" fill="#D1D3D4"/>
  <path d="M89.12 100.707a18.361 18.361 0 007.047-1.416l28.101-11.69a18.34 18.34 0 009.898-23.963L119.517 28.42a18.343 18.343 0 00-23.964-9.898l-28.101 11.7a18.342 18.342 0 00-9.898 23.963l14.65 35.208a18.39 18.39 0 0016.915 11.294v.02zm13.451-82.591a17.47 17.47 0 016.612 1.316 17.252 17.252 0 019.403 9.374l14.65 35.208a17.344 17.344 0 01-9.344 22.667l-28.111 11.75a17.343 17.343 0 01-22.647-9.404l-14.65-35.208a17.362 17.362 0 019.324-22.697L95.9 19.462a17.194 17.194 0 016.671-1.346z" fill="#231F20"/>
  <path d="M187.308 68.884l15.649-6.513-20.945-50.372C180.033 7.149 171.193-.463 168.155.794c-3.039 1.257-3.831 12.868-1.812 17.718l20.965 50.372z" fill="#fff"/>
  <path d="M187.306 69.379a.404.404 0 00.188 0l15.649-6.583a.506.506 0 00.267-.653l-20.964-50.372c-.99-2.346-3.603-5.523-6.682-8.087-1.603-1.326-5.563-4.315-7.8-3.385-2.237.93-2.91 5.85-3.098 7.919-.356 3.959 0 8.096.99 10.442l20.965 50.372a.5.5 0 00.485.347zm14.995-7.275l-14.728 6.136-20.786-49.916c-.921-2.218-1.297-6.127-.99-9.978.307-3.85 1.326-6.602 2.494-7.097 1.168-.495 3.831.782 6.79 3.237 2.96 2.455 5.484 5.493 6.404 7.71l20.816 49.908z" fill="#231F20"/>
  <path d="M189.185 68.096l11.497-4.783 1.041 2.504-11.496 4.783-1.042-2.504z" fill="#fff"/>
  <path d="M190.226 71.1a.406.406 0 00.188 0l11.502-4.78a.506.506 0 00.267-.654l-.989-2.504a.503.503 0 00-.268-.267.524.524 0 00-.386 0l-11.492 4.79a.478.478 0 00-.267.268.5.5 0 000 .376l1.04 2.504c.051.12.146.216.267.267a.405.405 0 00.138 0zm10.888-5.553l-10.581 4.415-.663-1.594 10.591-4.404.653 1.583z" fill="#231F20"/>
  <path d="M169.089 25.128l15.645-6.51 13.787 33.138-15.645 6.51-13.787-33.138z" fill="#D1D3D4"/>
  <path d="M182.893 58.768a.43.43 0 00.189 0l15.649-6.513a.48.48 0 00.267-.267.5.5 0 000-.376L185.2 18.472a.477.477 0 00-.268-.267.495.495 0 00-.376 0l-15.639 6.513a.498.498 0 00-.27.265.492.492 0 00.003.378l13.788 33.1a.494.494 0 00.455.307zm14.957-7.275l-14.729 6.127-13.412-32.22 14.768-6.157 13.373 32.249z" fill="#231F20"/>
  <path d="M209.4 60.529l-7.235-.04-3.108-7.483 8.581 3.287 1.762 4.236z" fill="#fff"/>
  <path d="M209.398 61.025a.494.494 0 00.455-.683l-1.762-4.236a.486.486 0 00-.287-.278l-8.571-3.286a.506.506 0 00-.535.119.48.48 0 00-.099.535l3.108 7.483a.494.494 0 00.455.306h7.226l.01.04zm-2.138-4.345l1.396 3.355h-6.157l-2.544-6.147 7.305 2.792z" fill="#231F20"/>
  <path d="M181.455 72.16l5.068-5.157-3.118-7.483-3.711 8.404 1.761 4.236z" fill="#fff"/>
  <path d="M181.458 72.695a.544.544 0 00.356-.149l5.068-5.157a.48.48 0 00.099-.534l-3.118-7.493a.48.48 0 00-.711-.22.482.482 0 00-.18.21l-3.732 8.394a.552.552 0 000 .396l1.782 4.206a.5.5 0 00.366.297l.07.05zm4.513-5.81l-4.315 4.394-1.396-3.355 3.138-7.107 2.573 6.068z" fill="#231F20"/>
  <path d="M125.324 32.666l41.751-1.9a.495.495 0 00.475-.515.516.516 0 00-.524-.475l-41.741 1.9a.494.494 0 100 .99h.039zM19.75 94.193a.505.505 0 00.337-.138l35.515-32.981a.497.497 0 10-.683-.723L19.414 93.332a.495.495 0 000 .703c.089.093.209.15.337.158z" fill="#D1D3D4"/>
  <path d="M62.39 53.74S7.633 98.696 30.399 102.022c19.014 2.771 36.287-7.374 36.287-7.374L61.25 82.72s-17.51 8.127-16.906 4.563c.604-3.563 24.37-17.816 24.37-17.816L62.39 53.739zm48.766-18.154s55.104-6.068 56.539 2.336c1.435 8.404-22.31 26.993-22.894 25.864-.584-1.128-13.175-8.542-13.175-8.542l10.997-8.82-26.349 5.94-5.118-16.778z" fill="#FEBE10"/>
  <path d="M64.014 23.53c-1.583-2.97-.475-6.692 1.317-9.542A22.657 22.657 0 0186.879 3.802c3.831.495 7.77 2.208 9.75 5.534a19.718 19.718 0 00-6.335-.228 18.015 18.015 0 019.898 10.888 2.17 2.17 0 01.08 1.534c-.396.851-1.604.881-2.505.624-.9-.258-1.91-.654-2.731-.198a11.147 11.147 0 016.008 5.85 5.796 5.796 0 01.465 3.761 5.138 5.138 0 01-1.485 2.306 15.063 15.063 0 01-5.939 2.97c-3.86 1.247-7.918 2.365-11.878 1.85-4.85-.613-8.849-3.503-12.392-6.68-1.633-1.465-3.217-1.505-4.95-2.594a4.106 4.106 0 01-1.83-2.97c.222-1.005.55-1.983.98-2.92z" fill="#fff"/>
  <path d="M84.248 39.338a32.952 32.952 0 009.997-1.98 15.603 15.603 0 006.177-3.128 5.686 5.686 0 001.613-2.534 6.15 6.15 0 00-.485-4.098 11.661 11.661 0 00-4.375-5.127h.168l.337.099c1.099.307 2.563.267 3.088-.89a2.544 2.544 0 00-.059-1.891 18.501 18.501 0 00-8.572-10.364 19.3 19.3 0 014.395.376.495.495 0 00.524-.742c-1.83-3.078-5.523-5.187-10.116-5.77A23.004 23.004 0 0064.907 13.69c-1.06 1.703-3.306 6.018-1.426 9.849-.42.928-.732 1.9-.93 2.9a4.534 4.534 0 002.049 3.385c.682.419 1.405.767 2.158 1.04.987.32 1.902.831 2.692 1.504 3.138 2.821 7.414 6.147 12.67 6.81.705.097 1.416.15 2.128.159zm11.65-18.114a2.197 2.197 0 00-1.099.267.494.494 0 00.05.89 10.621 10.621 0 015.741 5.593 5.218 5.218 0 01.445 3.435 4.628 4.628 0 01-1.346 2.079 14.71 14.71 0 01-5.77 2.91c-3.732 1.197-7.721 2.336-11.7 1.831-4.95-.633-8.909-3.672-12.126-6.563a8.798 8.798 0 00-2.969-1.692 11.043 11.043 0 01-1.98-.99 3.624 3.624 0 01-1.603-2.633c.232-.894.537-1.768.91-2.613a.475.475 0 000-.475c-1.81-3.415.307-7.473 1.297-9.057a22.28 22.28 0 0121.064-9.908c3.8.485 6.928 2.049 8.74 4.355a20.4 20.4 0 00-5.326 0 .495.495 0 00-.366.738c.054.095.137.17.238.212a17.45 17.45 0 019.67 10.562c.17.365.206.779.1 1.168-.248.544-1.169.564-1.92.356l-.318-.099a6.036 6.036 0 00-1.732-.366z" fill="#231F20"/>
  <path d="M96.68 110.041s-17.896 39.593-14.848 47.334c3.049 7.74 33.1 46.62 33.1 46.62l15.946-13.511s-28.101-37.029-26.943-39.593c1.158-2.563 15.065-29.388 15.065-29.388l75.593 82.433 7.622-19.797-61.27-87.926-44.265 13.828z" fill="#6495D3"/>
  <path d="M114.912 204.49a.54.54 0 00.317-.109l15.966-13.531a.496.496 0 00.069-.673c-10.581-13.957-27.23-36.921-26.864-39.138.99-2.286 12.611-24.637 14.709-28.705l75.118 81.908a.49.49 0 00.831-.148l7.622-19.797c.029-.075.039-.156.029-.235a.478.478 0 00-.089-.22l-61.27-87.936a.49.49 0 00-.554-.188l-44.265 13.857a.492.492 0 00-.307.268c-.732 1.623-17.945 39.86-14.847 47.719 3.098 7.859 31.912 45.146 33.139 46.779a.462.462 0 00.337.188l.059-.039zm15.283-14.096l-15.214 12.868c-3.226-4.177-29.902-38.91-32.664-46.086-2.761-7.176 13.393-43.691 14.758-46.749l43.711-13.67 60.914 87.411-7.246 18.807-75.088-81.779a.475.475 0 00-.435-.159.48.48 0 00-.366.258c-.575 1.099-13.927 26.854-15.075 29.408-1.149 2.553 19.766 30.536 26.705 39.691z" fill="#6495D3"/>
  <path d="M96.678 110.04l44.265-13.857L99.42 42.01s-20.677 9.898-23.192 13.937c-2.514 4.038 20.45 54.093 20.45 54.093z" fill="#fff"/>
  <path d="M96.676 110.536c.05.009.1.009.149 0l44.265-13.858a.486.486 0 00.326-.326.483.483 0 00-.079-.446L99.854 41.674a.505.505 0 00-.614-.149c-.851.406-20.786 10.087-23.39 14.155-2.603 4.068 18.055 49.412 20.41 54.559a.504.504 0 00.416.297zm43.444-14.6l-43.177 13.501c-8.839-19.311-22.013-50.48-20.29-53.233 2.226-3.543 19.855-12.264 22.617-13.61l40.85 53.342z" fill="#231F20"/>
  <path d="M88.316 41.436c.812 0 4.84 9.127 5.256 9.899 3.96 7.354 7.632 15.035 11.779 22.201 8.216 14.194 26.092 22.766 39.969 30.14 1.841.99 3.87 1.98 5.939 1.604a8.41 8.41 0 003.831-2.247 45.06 45.06 0 0011.165-15.174 4.371 4.371 0 00.544-2.445 3.543 3.543 0 00-2.672-2.87c-7.345-1.277-18.173-2.128-24.102-5.94-9.899-6.304-21.301-24.824-28.844-41.057-9.195 2.257-17.193 4.603-22.865 5.89zM62.388 53.74c-.228.178 8.908 21.954 9.334 23.013 3.405 7.988 15.332 22.647 22.508 27.23-4.592-8.196-5.939-21.162-6.265-30.407-.149-4.494-3.85-12.393-5.553-16.54-.168-.406-1.614-13.403-1.425-13.521-.02.02-12.809 5.612-18.6 10.224z" fill="#FEBE10"/>
  <path d="M78.08 44.673l2.563 8.73s2.306 3.653 7.75.584c5.444-3.068 5.167-7.345 5.167-7.345l-5.365-16.114s-4.385-1.445-5.78-11.214c0 0-8.246 5.335-17.253 6.7 0 0 2.91 10.68 4.9 15.016 1.99 4.336 8.017 3.643 8.017 3.643z" fill="#fff"/>
  <path d="M84.385 55.7a8.72 8.72 0 004.256-1.288c5.642-3.187 5.424-7.621 5.414-7.81v-.118L88.69 30.37a.485.485 0 00-.316-.307s-4.118-1.544-5.444-10.829a.494.494 0 00-.763-.336c-.079.05-8.255 5.295-17.044 6.631a.466.466 0 00-.337.218.475.475 0 00-.07.396c.12.446 2.97 10.78 4.95 15.095 1.831 3.96 6.651 4.029 8.116 3.96l2.445 8.343c.01.044.03.085.06.12a5.04 5.04 0 004.098 2.038zm8.68-8.969c0 .515-.108 4.108-4.949 6.82-4.652 2.633-6.75.06-7.047-.366l-2.544-8.65a.504.504 0 00-.525-.357c-.06 0-5.701.594-7.522-3.356-1.703-3.692-4.108-12.194-4.722-14.402 7.374-1.237 14.204-5.058 16.283-6.295 1.346 8.146 4.8 10.324 5.75 10.77l5.276 15.836z" fill="#231F20"/>
  <path d="M85.295 30.855a4.028 4.028 0 01.713-2.415 7.208 7.208 0 011.762-1.614 2.971 2.971 0 011.168-.574 2.33 2.33 0 01.91.07A3.05 3.05 0 0191.68 27.4c.318.497.508 1.065.554 1.653.089.63.089 1.27 0 1.9a4.811 4.811 0 01-5.444 4.158" fill="#fff"/>
  <path d="M87.504 35.656a5.315 5.315 0 005.276-4.642 7.152 7.152 0 00-.06-1.98 4.059 4.059 0 00-.633-1.87 3.573 3.573 0 00-2.128-1.327 2.83 2.83 0 00-1.109-.07c-.502.11-.973.333-1.376.654a7.503 7.503 0 00-1.87 1.732 4.435 4.435 0 00-.802 2.712.515.515 0 00.514.485.505.505 0 00.476-.515 3.474 3.474 0 01.623-2.108 6.535 6.535 0 011.633-1.495c.29-.233.628-.4.99-.485a1.61 1.61 0 01.723.06c.603.102 1.15.414 1.544.88.257.445.407.943.435 1.456.102.585.122 1.181.06 1.772a4.337 4.337 0 01-4.89 3.731.495.495 0 00-.554.416.505.505 0 00.416.564c.243.025.487.034.732.03z" fill="#231F20"/>
  <path d="M74.389 30.132s-1.98 5.375-.99 5.999c.99.623 2.86-.416 2.86-.416" fill="#fff"/>
  <path d="M74.119 36.774a5.662 5.662 0 002.326-.673.486.486 0 00.198-.663.495.495 0 00-.674-.208c-.544.297-1.83.782-2.345.445-.248-.386.306-2.97 1.207-5.424a.484.484 0 00-.287-.634.495.495 0 00-.633.297c-.99 2.623-1.871 5.94-.842 6.583.316.191.68.287 1.05.277zm3.96 7.899s4.504-1.435 6.206-3.326c0 0-.099 5.702-4.573 8.552l-1.633-5.226z" fill="#231F20"/>
  <path d="M79.71 50.394a.554.554 0 00.268-.08c4.642-2.969 4.8-8.71 4.8-8.908a.475.475 0 00-.306-.465.485.485 0 00-.554.129c-1.594 1.771-5.94 3.167-5.989 3.177a.486.486 0 00-.317.623l1.624 5.227a.523.523 0 00.297.316c.06.003.12-.003.178-.02zm3.96-7.83a10.343 10.343 0 01-3.672 6.543L78.7 44.979c1.747-.588 3.41-1.4 4.95-2.415h.02z" fill="#231F20"/>
  <path d="M79.947 26.47s-2.365-1.682-3.454 1.347l3.454-1.346z" fill="#fff"/>
  <path d="M76.494 28.311a.505.505 0 00.465-.327 2.058 2.058 0 011.119-1.425 2.03 2.03 0 011.534.317.495.495 0 00.708-.664.484.484 0 00-.134-.138 2.969 2.969 0 00-2.405-.465 2.97 2.97 0 00-1.802 2.039.495.495 0 00.466.663h.05z" fill="#231F20"/>
  <path d="M72.138 30.24s-2.088-2.573-3.424.466l3.424-.465z" fill="#fff"/>
  <path d="M68.716 31.202a.495.495 0 00.455-.297c.217-.505.584-1.109 1.089-1.178.504-.07 1.286.564 1.504.822a.496.496 0 00.874-.452.495.495 0 00-.112-.172 2.97 2.97 0 00-2.365-1.178c-.773.1-1.396.693-1.871 1.762a.505.505 0 00.257.653c.054.02.11.034.169.04z" fill="#231F20"/>
  <path d="M71.455 38.19s9.898 5.8 9.898-4.514l-9.898 4.514z" fill="#fff"/>
  <path d="M76.83 40.318a4.95 4.95 0 002.485-.603c1.683-.99 2.544-2.97 2.554-6.029a.495.495 0 00-.495-.504.505.505 0 00-.495.495c0 2.672-.703 4.414-2.049 5.176-2.643 1.505-7.077-1.059-7.127-1.089a.496.496 0 10-.495.862c1.72.99 3.643 1.569 5.623 1.692zm10.73 15.817l4.643 1.356-1.574 2.97s11.878 15.203 19.301 15.837a21.013 21.013 0 0012.284-2.97l7.919 3.712s-7.206 6.166-7.671 6.651c-.466.486-12.403 3.96-20.5-4.949a121.511 121.511 0 01-12.867-16.965l-2.762-1.208 1.227-4.434z" fill="#231F20"/>
  <path d="M107.437 72.695a.495.495 0 00.485-.426l2.177-14.67a.492.492 0 00-.336-.534l-7.414-2.415 5.177-4.721a.492.492 0 00.032-.691.499.499 0 00-.211-.14l-11.135-3.851a.498.498 0 00-.327.94l10.354 3.573-5.177 4.752a.498.498 0 00-.148.475.488.488 0 00.326.366l7.81 2.544-2.108 14.253a.496.496 0 00.415.554l.08-.01zm26.954 15.926h.108c.099 0 10.275-2.059 15.788-3.316a.476.476 0 00.311-.213.484.484 0 00.065-.37.485.485 0 00-.218-.313.498.498 0 00-.376-.064c-5.503 1.247-15.659 3.286-15.767 3.306a.498.498 0 00-.388.39.502.502 0 00.001.194.505.505 0 00.476.386zM83.236 73.853a.495.495 0 00.336-.861L72.427 62.797l4.949-4.385a.476.476 0 00.158-.416.485.485 0 00-.237-.386l-6.978-4.018 4.553-3.663a.495.495 0 00.079-.693.514.514 0 00-.703-.07l-5.078 4.148a.515.515 0 00-.178.426.494.494 0 00.248.386l6.998 4.038-4.87 4.296a.515.515 0 00-.218.337.475.475 0 00.168.366L82.91 73.685c.084.095.2.155.327.168z" fill="#231F20"/>
  <path d="M109.755 101.518a.49.49 0 00.237-.059.505.505 0 00.198-.673c-.109-.198-10.937-19.797-16.272-30.378a.495.495 0 10-.881.446c5.335 10.61 16.173 30.209 16.282 30.407a.482.482 0 00.436.257z" fill="#D1D3D4"/>
  <path d="M202.212 184.12l8.79 10.888s-6.137 28.705-10.017 25.527c-3.88-3.177-6.394-16.589-6.394-16.589l7.621-19.826z" fill="#fff"/>
  <path d="M201.622 221.257c.166-.001.33-.031.485-.089 3.959-1.385 8.849-23.567 9.384-26.091a.495.495 0 00-.099-.416l-8.79-10.888a.477.477 0 00-.455-.178.492.492 0 00-.386.306l-7.632 19.797a.485.485 0 000 .267c.099.554 2.593 13.59 6.563 16.887.251.242.581.386.93.405zm8.909-26.151c-1.98 9.344-6.108 24.231-8.701 25.132a.448.448 0 01-.475-.109c-3.494-2.9-5.939-14.758-6.196-16.174l7.265-18.856 8.107 10.007zM105.647 33.419s7.503 25.419 14.383 32.16c6.879 6.74 21.776 14.956 19.974 11.066-1.801-3.89-10.472-7.078-16.569-18.243-6.098-11.165-10.077-26.725-10.077-26.725s.545-2.752-3.504-1.831c-4.048.92-4.207 3.573-4.207 3.573zM81.388 91.433a75.48 75.48 0 01-12.412-16.075c-4.325-7.582-7.631-18.094-8.82-22.143a2.089 2.089 0 011.1-2.464l1.356-.683a2.098 2.098 0 012.969 1.316c1.88 6.87 7.71 26.518 15.807 40.049z" fill="#231F20"/>
  <path d="M135.421 56.284c-.683.772-7.236 4.949-7.236 4.949s-2.87-4.019-5.731-4.633l1.792 3.227-9.087.129s0 8.592 7.988 10.353c7.988 1.762 21.658-6.522 21.658-6.522" fill="#fff"/>
  <path d="M125.59 71.042c8.097 0 18.955-6.562 19.46-6.87a.492.492 0 00.231-.304.494.494 0 00-.371-.599.496.496 0 00-.375.063c-.128.079-13.55 8.175-21.291 6.483-6.553-1.435-7.463-7.582-7.582-9.384l8.582-.118a.486.486 0 00.479-.495.521.521 0 00-.063-.248l-1.139-1.98a15.686 15.686 0 014.247 3.96.473.473 0 00.663.129c.683-.436 6.632-4.247 7.344-5.049a.487.487 0 00-.049-.692.477.477 0 00-.693 0c-.446.494-4.217 2.969-6.741 4.622-.821-1.05-3.246-3.96-5.761-4.454a.486.486 0 00-.494.198.489.489 0 000 .534l1.385 2.475-8.255.119a.485.485 0 00-.485.485c0 .099 0 9.027 8.374 10.888.834.169 1.683.248 2.534.237z" fill="#231F20"/>
  <path d="M61.637 84.276l5.939-3.613 1.406-5.306 2.751 3.128s3.96-3.266 6.454-2.078c1.98.99 2.97 6.057.99 8.611-1.98 2.554-13.393 8.602-13.393 8.602" fill="#fff"/>
  <path d="M65.793 94.114c.08 0 .158-.02.228-.06.475-.247 11.58-6.117 13.55-8.74 1.356-1.781 1.337-4.444.901-6.176a4.562 4.562 0 00-2.078-3.178c-2.337-1.088-5.514.99-6.613 1.842l-2.444-2.772a.494.494 0 00-.852.198l-1.346 5.117-5.76 3.504a.495.495 0 00-.159.683.487.487 0 00.673.169l5.94-3.613a.475.475 0 00.217-.297l1.118-4.415 2.138 2.435a.505.505 0 00.693 0c.99-.851 4.088-2.87 5.94-1.98a3.73 3.73 0 011.543 2.525 6.78 6.78 0 01-.722 5.345c-1.851 2.444-13.115 8.403-13.234 8.463a.485.485 0 00-.198.663.485.485 0 00.465.287z" fill="#231F20"/>
  <path d="M266.967 169.915a.545.545 0 00.277-.069.526.526 0 00.159-.713l-61.637-97.428a.525.525 0 00-.712-.159.517.517 0 00-.159.703l61.647 97.448a.48.48 0 00.425.218zm-39.829-5.839c.059.013.12.013.178 0a.513.513 0 00.33-.458.506.506 0 00-.033-.196l-33.278-86.768a.508.508 0 00-.264-.284.509.509 0 00-.674.257.515.515 0 00-.012.394l33.268 86.738a.528.528 0 00.485.317zM94.846 231.314a.49.49 0 00.258-.079.515.515 0 00.178-.703L41.149 141.25a.504.504 0 00-.931.139.515.515 0 00.06.386L94.4 231.067a.526.526 0 00.445.247zm-40.522-3.325h.149a.523.523 0 00.336-.643c-2.583-8.444-25.22-82.512-25.616-83.324a.506.506 0 00-.933.049.515.515 0 00.012.387c.495 1.257 16.926 54.945 25.567 83.145a.493.493 0 00.485.386zm12.571-4.614a.426.426 0 00.188 0 .523.523 0 00.287-.663L48.247 175.2a.524.524 0 00-.663-.287.521.521 0 00-.284.277.516.516 0 00-.003.396l19.123 47.512a.5.5 0 00.475.277zm171.941-75.572a.48.48 0 00.248-.069.51.51 0 00.244-.305.496.496 0 00-.046-.388l-23.677-42.414a.498.498 0 00-.31-.245.506.506 0 00-.393.047.522.522 0 00-.198.703l23.726 42.414a.52.52 0 00.406.257zm4.445 31.971a.426.426 0 00.188 0 .514.514 0 00.282-.278.499.499 0 00-.005-.395l-6.186-14.848a.527.527 0 00-.673-.277.525.525 0 00-.268.673l6.187 14.848a.512.512 0 00.196.209.514.514 0 00.279.068zM84.018 231.829a.45.45 0 00.247-.069.51.51 0 00.26-.504.5.5 0 00-.062-.189l-10.185-18.47a.507.507 0 00-.693-.198.506.506 0 00-.198.692l10.195 18.471a.505.505 0 00.436.267z" fill="#D1D3D4"/>
</svg>
