<svg xmlns="http://www.w3.org/2000/svg" fill="none" viewBox="0 0 132 46">
  <g clip-path="url(#XF0xyTgs-a)">
    <path d="M119.753 1.541H11.078c-.675 0-1.35.113-2.025.225-.787.113-1.462.338-2.025.675-.562.338-1.237.788-1.8 1.238-.45.562-.9 1.125-1.125 1.687-.225.563-.562 1.35-.675 2.025-.225.788-.225 1.463-.225 2.138v26.549c0 .675.113 1.463.225 2.138a7.15 7.15 0 00.675 2.025c.338.675.675 1.237 1.238 1.688.45.45 1.125.9 1.687 1.237.563.338 1.35.563 2.025.675.675.112 1.35.225 2.138.225h110.7c.675 0 1.35-.113 2.137-.225a7.15 7.15 0 002.025-.675 6.557 6.557 0 001.688-1.237c.45-.45.9-1.126 1.237-1.688a7.12 7.12 0 00.675-2.025c.113-.675.225-1.35.225-2.138V9.529c0-.675-.112-1.463-.225-2.138a7.12 7.12 0 00-.675-2.025 7.316 7.316 0 00-2.925-2.925 7.15 7.15 0 00-2.025-.675c-.675-.225-1.35-.225-2.025-.225h-2.25z" stroke="#11253E" stroke-width="1.134" stroke-miterlimit="10"/>
    <path d="M29.641 22.691c0-1.912 1.013-3.6 2.588-4.612-1.013-1.463-2.7-2.363-4.388-2.363-1.8-.225-3.6 1.125-4.612 1.125-1.013 0-2.475-1.125-3.938-1.012-2.025 0-3.937 1.237-4.95 3.037-2.137 3.713-.562 9.113 1.463 12.15 1.012 1.463 2.25 3.15 3.825 3.038 1.575 0 2.137-1.013 3.937-1.013 1.8 0 2.363 1.013 3.938.9 1.575-.112 2.7-1.462 3.6-2.925.675-1.012 1.35-2.25 1.687-3.375-1.912-1.012-3.15-2.925-3.15-4.95zm-3.037-9c.9-1.125 1.35-2.475 1.238-3.825-1.35.113-2.588.788-3.488 1.8a4.983 4.983 0 00-1.237 3.713c1.35.112 2.7-.563 3.487-1.688zm21.376 16.65h-4.95l-1.238 3.6h-2.138l4.725-13.275h2.25l4.725 13.163h-2.25l-1.125-3.488zm-4.5-1.687h3.937l-1.913-5.738-2.025 5.738zm18.111.45c0 2.925-1.575 4.95-4.05 4.95-1.237 0-2.475-.563-3.037-1.688v4.725h-2.026V24.266h1.913v1.575c.675-1.125 1.8-1.8 3.038-1.687 2.587 0 4.162 1.912 4.162 4.95zm-2.025 0c0-1.913-1.013-3.15-2.475-3.15-1.462 0-2.475 1.35-2.475 3.15 0 1.912 1.013 3.262 2.475 3.262 1.462 0 2.475-1.35 2.475-3.262zm12.601 0c0 2.925-1.575 4.95-4.05 4.95-1.237 0-2.475-.563-3.037-1.688v4.725h-2.025V24.266h1.912v1.575c.675-1.125 1.8-1.8 3.038-1.687 2.475 0 4.162 1.912 4.162 4.95zm-2.025 0c0-1.913-1.012-3.15-2.475-3.15-1.462 0-2.475 1.35-2.475 3.15 0 1.912 1.013 3.262 2.475 3.262 1.463 0 2.475-1.35 2.475-3.262zm9.001 1.125c.112 1.35 1.35 2.137 3.15 2.137 1.687 0 2.812-.9 2.812-2.025 0-1.012-.675-1.575-2.475-2.025l-1.687-.45c-2.475-.562-3.6-1.687-3.6-3.6 0-2.25 2.025-3.825 4.725-3.825 2.812 0 4.725 1.575 4.725 3.825h-2.025c-.113-1.35-1.238-2.137-2.813-2.137-1.575 0-2.7.787-2.7 2.025 0 .9.675 1.462 2.363 1.912l1.462.338c2.7.675 3.825 1.687 3.825 3.6 0 2.475-2.025 4.05-5.062 4.05-2.925 0-4.95-1.463-4.95-3.825h2.25zm12.261-8.212v2.25h1.8v1.575h-1.8v5.287c0 .788.338 1.238 1.125 1.238h.675v1.575c-.337 0-.675.112-1.125.112-1.912 0-2.7-.675-2.7-2.587v-5.4h-1.35v-1.575h1.35v-2.25l2.025-.225zm2.926 7.087c0-3.038 1.8-4.95 4.5-4.95 2.813 0 4.5 1.912 4.5 4.95 0 3.037-1.8 4.95-4.5 4.95s-4.5-1.913-4.5-4.95zm7.088 0c0-2.025-.9-3.263-2.475-3.263-1.575 0-2.475 1.238-2.475 3.263s.9 3.262 2.475 3.262c1.462 0 2.475-1.237 2.475-3.262zm3.599-4.838h1.912v1.575c.225-1.012 1.238-1.8 2.25-1.687.225 0 .45 0 .675.112v1.8c-.225-.112-.562-.112-.9-.112-1.125 0-2.025.787-2.025 1.912v5.963h-2.025l.113-9.563zm13.95 6.75c-.225 1.8-2.025 2.925-4.162 2.925-2.813 0-4.5-1.912-4.5-4.837 0-3.038 1.8-4.95 4.5-4.95s4.275 1.8 4.275 4.725v.675h-6.75v.112c-.113 1.35.9 2.588 2.25 2.7h.337c.9.113 1.8-.45 2.25-1.35h1.8zm-6.637-2.812h4.725c.112-1.238-.9-2.363-2.138-2.475h-.225c-1.237 0-2.362 1.125-2.362 2.475zM43.254 10.766c1.575-.113 2.925 1.012 2.925 2.588v.562c0 2.025-1.125 3.15-2.925 3.15h-2.25v-6.3h2.25zm-1.35 5.513h1.125c1.125 0 2.025-.788 2.137-1.8v-.45c.113-1.126-.675-2.138-1.687-2.25h-1.575v4.5zm5.4-1.463c-.112-1.238.788-2.363 2.025-2.475 1.238-.112 2.363.788 2.475 2.025v.45c.113 1.237-.787 2.362-2.025 2.475-1.237.113-2.362-.788-2.475-2.025v-.45zm3.6 0c0-1.013-.45-1.575-1.237-1.575-.788 0-1.238.563-1.238 1.575s.45 1.575 1.238 1.575c.787 0 1.237-.562 1.237-1.575zm6.862 2.362h-1.012l-.9-3.487h-.113l-1.013 3.487h-.9l-1.35-4.837h.9l.9 3.6h.113l1.013-3.6h.9l1.012 3.6h.112l.9-3.6h.9l-1.462 4.837zm2.476-4.837h.9v.788h.113c.225-.563.787-.9 1.462-.9.9 0 1.575.562 1.688 1.462v3.487h-.9v-2.812c0-.787-.338-1.125-1.013-1.125-.562 0-1.125.45-1.125 1.013v3.037h-.9l-.225-4.95zm5.512-1.8h.9v6.637h-.9v-6.637zm2.25 4.275c-.113-1.238.787-2.363 2.025-2.475 1.237-.112 2.362.788 2.475 2.025v.45c.112 1.237-.788 2.362-2.025 2.475-1.238.113-2.363-.788-2.475-2.025v-.45zm3.6 0c0-1.013-.45-1.575-1.238-1.575-.787 0-1.237.563-1.237 1.575s.45 1.575 1.237 1.575c.675 0 1.238-.562 1.238-1.575zm1.912 1.012c0-.9.675-1.35 1.8-1.462l1.35-.113v-.337c0-.45-.338-.788-1.013-.788-.562 0-.9.225-1.012.563h-.9c.112-.788.9-1.35 1.912-1.35 1.238 0 1.913.562 1.913 1.575v3.262h-.9v-.675h-.113c-.337.45-.9.788-1.462.788-.788 0-1.463-.563-1.575-1.463 0 .113 0 0 0 0zm3.037-.45v-.337l-1.125.112c-.675 0-.9.225-.9.675 0 .45.338.675.9.675.45 0 1.125-.45 1.125-1.125zm2.138-.562c0-1.463.788-2.475 2.025-2.475.675 0 1.125.338 1.463.9h.112v-2.7h.9v6.637h-.9v-.787h-.112c-.338.563-.9.9-1.463.788-1.237.112-2.025-.9-2.025-2.363zm1.013 0c0 1.012.45 1.575 1.237 1.575.788 0 1.35-.675 1.35-1.575 0-1.013-.45-1.575-1.35-1.575-.787-.112-1.237.563-1.237 1.575zm7.425 0c-.113-1.238.787-2.363 2.025-2.475 1.237-.112 2.362.788 2.475 2.025v.45c.112 1.237-.788 2.362-2.025 2.475-1.238.113-2.363-.788-2.475-2.025v-.45zm3.487 0c0-1.013-.45-1.575-1.237-1.575-.788 0-1.238.563-1.238 1.575s.45 1.575 1.238 1.575c.787 0 1.237-.562 1.237-1.575zm2.251-2.475h.9v.788h.113c.225-.563.787-.9 1.462-.9.9 0 1.575.562 1.688 1.462v3.487h-1.013v-2.812c0-.787-.337-1.125-1.012-1.125-.563 0-1.125.45-1.125 1.013v3.037h-.9l-.113-4.95zm9.336-1.125v1.238h1.013v.787h-1.013v2.475c0 .45.225.675.675.675h.338v.675h-.45c-1.013 0-1.463-.337-1.463-1.35v-2.7h-.787v-.787h.787v-1.125l.9.112zm2.363-.675h.9v2.588h.113c.225-.563.9-.9 1.462-.9.9 0 1.575.675 1.688 1.462v3.375h-.9v-2.812c0-.788-.338-1.125-1.013-1.125-.675 0-1.125.45-1.237 1.012v3.038h-.9l-.113-6.638zm9.562 5.288c-.225.9-1.125 1.462-2.025 1.35-1.238 0-2.25-.9-2.25-2.138v-.338c-.225-1.237.675-2.25 1.912-2.474h.338c1.35 0 2.137.9 2.137 2.362v.45h-3.375c0 .675.45 1.35 1.125 1.35h.113c.45 0 .9-.225 1.125-.562h.9zm-3.375-1.463h2.475c0-.675-.45-1.125-1.125-1.237h-.113c-.562-.113-1.237.45-1.237 1.237z" fill="#11253E"/>
  </g>
  <defs>
    <clipPath id="XF0xyTgs-a">
      <path fill="#fff" transform="translate(.729 .416)" d="M0 0h130.5v45H0z"/>
    </clipPath>
  </defs>
</svg>
