<svg xmlns="http://www.w3.org/2000/svg" fill="none" viewBox="0 0 124 41">
  <path d="M19.945 39.86c10.704 0 19.382-8.677 19.382-19.382 0-10.704-8.678-19.382-19.382-19.382C9.24 1.096.562 9.774.562 20.478c0 10.705 8.678 19.383 19.383 19.383z" fill="#FDBD10"/>
  <path d="M26.25 24.1c-1.275 2.213-3.622 3.622-6.305 3.622-4.024 0-7.243-3.287-7.243-7.243 0-3.957 3.286-7.244 7.243-7.244 2.683 0 5.03 1.476 6.304 3.622l4.158-2.548c-2.146-3.555-5.968-5.902-10.395-5.902-6.707 0-12.139 5.432-12.139 12.139a12.022 12.022 0 0012.072 12.072c4.56 0 8.517-2.482 10.596-6.17L26.25 24.1z" fill="#fff"/>
  <path d="M47.375 22.02c0-4.09 3.622-7.578 7.914-7.578 2.347 0 4.292.94 5.7 2.482l-2.75 2.28c-.737-.805-1.877-1.341-3.017-1.341-2.146 0-3.89 1.878-3.89 4.09 0 2.281 1.81 4.159 3.957 4.159 1.14 0 2.28-.537 3.085-1.408l2.683 2.28a7.733 7.733 0 01-5.768 2.548c-4.292.067-7.914-3.42-7.914-7.511zm14.352 0c0-4.09 3.621-7.578 7.913-7.578 4.293 0 7.847 3.42 7.847 7.579 0 4.091-3.554 7.578-7.847 7.578-4.292 0-7.913-3.487-7.913-7.578zm11.87 0c0-2.212-1.81-4.09-3.957-4.09-2.213 0-4.024 1.878-4.024 4.09 0 2.214 1.811 4.159 4.024 4.159 2.147 0 3.957-1.945 3.957-4.158zm18.779-1.407v8.651H88.42V27.79c-1.006 1.207-2.682 1.81-4.225 1.81-3.085 0-5.432-1.877-5.432-4.627 0-2.884 2.682-4.829 6.036-4.829 1.207 0 2.481.268 3.688.738v-.268c0-1.543-.939-2.884-3.353-2.884-1.341 0-2.616.47-3.756 1.006l-1.341-2.683c2.012-1.006 4.024-1.61 6.036-1.61 3.756 0 6.304 2.415 6.304 6.17zm-3.957 4.09v-1.34a9.314 9.314 0 00-3.085-.537c-1.475 0-2.682.872-2.682 2.012 0 1.207 1.006 1.878 2.414 1.878 1.61.067 3.085-.671 3.353-2.012zm5.901-2.683c0-4.09 3.622-7.578 7.914-7.578 2.347 0 4.292.94 5.701 2.482l-2.683 2.347c-.738-.805-1.878-1.341-3.018-1.341-2.146 0-3.89 1.878-3.89 4.09 0 2.281 1.811 4.159 3.957 4.159 1.14 0 2.28-.537 3.085-1.408l2.683 2.28a7.732 7.732 0 01-5.768 2.548c-4.36 0-7.98-3.487-7.98-7.578zm29.242-1.944v9.188h-3.957v-8.316c0-1.811-1.14-3.018-2.75-3.018-1.677 0-3.018 1.207-3.018 2.817v8.517h-4.091V9.681h4.091v6.84c.872-1.274 2.482-2.079 4.359-2.079 3.086 0 5.366 2.348 5.366 5.634z" fill="#000"/>
</svg>
