<svg xmlns="http://www.w3.org/2000/svg" fill="none" viewBox="0 0 210 155">
  <path d="M160.617 64.87s3.635-5.085 4.342-6.255c1.77-3.754 2.233-6.394 4.223-6.338.988 0-.388 2.227-1.189 5.28 0 0 8.239-5.85 9.534-4.235 1.296 1.614 1.377 5.293 0 6.588-1.376 1.295-6.737 3.64-7.188 4.341-.45.701-3.128 5.631-3.128 5.631l-6.594-5.011z" fill="#fff"/>
  <path d="M167.186 70.202a.307.307 0 01-.188-.063l-6.575-5.005a.313.313 0 01-.063-.431c.038-.05 3.635-5.093 4.336-6.207.4-.863.751-1.708 1.063-2.446 1.008-2.427 1.683-4.047 3.36-4.047h.069a.628.628 0 01.532.262c.287.432 0 1.176-.482 2.503-.213.588-.469 1.251-.701 2.04 2.296-1.577 7.995-5.225 9.234-3.673 1.239 1.552 1.527 5.55-.031 7.007a25.195 25.195 0 01-4.217 2.552c-1.251.626-2.746 1.464-2.915 1.733-.444.688-3.128 5.543-3.128 5.593a.315.315 0 01-.207.15l-.087.032zm-6.137-5.393l6.043 4.61c.626-1.1 2.596-4.698 2.984-5.305.25-.388 1.308-.963 3.128-1.945a26.168 26.168 0 004.085-2.459c1.252-1.151 1.214-4.604-.031-6.162-.463-.576-3.591.381-9.109 4.298a.31.31 0 01-.356 0 .291.291 0 01-.125-.332c.294-1.12.663-2.127.957-2.94.294-.813.625-1.77.55-1.965h-.037c-1.251 0-1.802 1.195-2.828 3.666-.313.751-.663 1.596-1.095 2.503-.613 1.032-3.428 4.967-4.166 6.03z" fill="#11253E"/>
  <path d="M159.031 65.31l1.433-2.234 7.526 6.356-1.364 2.402-7.595-6.525z" fill="#11253E"/>
  <path d="M166.629 72.147a.348.348 0 01-.201-.075l-7.619-6.532a.316.316 0 01-.063-.406l1.433-2.227a.307.307 0 01.095-.092.323.323 0 01.374.023l7.507 6.356a.307.307 0 01.075.394l-1.364 2.396a.318.318 0 01-.219.157l-.018.006zm-7.195-6.9l7.101 6.099 1.045-1.877-7.051-5.956-1.095 1.733zm-70.331-9.579h27.609a19.306 19.306 0 0119.3 19.338v38.1H69.797v-38.1a19.307 19.307 0 0119.306-19.338z" fill="#11253E"/>
  <path d="M136.008 113.387H69.793a.31.31 0 01-.313-.312V75.006A19.644 19.644 0 0189.1 55.387h27.608a19.637 19.637 0 0119.613 19.62v38.099a.313.313 0 01-.313.281zm-65.902-.625h65.589V75.006a19.014 19.014 0 00-18.987-18.993H89.1a19.018 19.018 0 00-18.994 18.993v37.756z" fill="#11253E"/>
  <path d="M96.168 49.393s-17.174 5.38-19.05 9.49c-1.352 2.953-5.068 26.32-5.512 37.881-.457 11.931-3.797 17.411-3.797 17.411l15.496.538s1.251-12.399 1.426-16.923c.2-3.336.57-6.66 1.108-9.96 0 0 1.508 7.746 1.407 10.56-.1 2.816-1.013 16.323-1.013 16.323h40.039s-2.014-17.83-1.814-20.245c.2-2.415 2.502-12.675 2.502-12.675l4.824-25.45S115.461 49.7 113.516 49c-1.946-.7-17.348.394-17.348.394z" fill="#FEBE10"/>
  <path d="M106.785 115.046a.314.314 0 01-.312-.313V93.462c0-.083.033-.163.091-.221a.314.314 0 01.221-.092.318.318 0 01.313.313v21.271a.317.317 0 01-.313.313zm-8.757-69.8l14.789.044-.263 5.649h-10.441l-5.074-2.428.989-3.265z" fill="#11253E"/>
  <path d="M112.556 51.232h-10.442a.311.311 0 01-.131 0l-5.074-2.427a.313.313 0 01-.169-.376l.989-3.265a.312.312 0 01.3-.22l14.789.05a.302.302 0 01.226.095.299.299 0 01.087.231l-.263 5.63a.31.31 0 01-.312.282zm-10.373-.625h10.079l.231-5.005-14.233-.044-.838 2.784 4.761 2.265z" fill="#11253E"/>
  <path d="M116.662 30.9a19.78 19.78 0 001.307-5.987c.066-.686.066-1.378 0-2.064a21.32 21.32 0 00-.769-2.74 4.494 4.494 0 00.726-1.984c.08-.71-.01-1.428-.263-2.096l-.989 1.34a7.335 7.335 0 00-1.595-5.925 8.763 8.763 0 01-4.667 2.878 4.626 4.626 0 001.745-4.017c-1.22 1.208-3.065 1.514-4.779 1.54-1.715.024-3.466-.176-5.124.262a8.39 8.39 0 00-4.06 2.578c-.876.994-.889 2.108-1.946 2.94-2.502 1.983-2.728 3.816-2.34 6.925.35 2.847 1.326 5.63 1.608 8.459 3.284.2 6.6.481 9.922.431 2.634-.018 9.816.563 11.224-2.54z" fill="#fff"/>
  <path d="M108.132 33.797h-2.672c-2.702.037-5.418-.138-8.051-.313l-1.877-.119a.319.319 0 01-.294-.281 36.788 36.788 0 00-.814-4.38 40.473 40.473 0 01-.794-4.079c-.407-3.253-.138-5.161 2.459-7.213.464-.401.823-.91 1.044-1.483a5.69 5.69 0 01.857-1.414 8.758 8.758 0 014.186-2.696 14.24 14.24 0 013.879-.282h1.32c2.114 0 3.609-.5 4.567-1.445a.31.31 0 01.531.194 4.944 4.944 0 01-.957 3.41 8.385 8.385 0 003.303-2.421.328.328 0 01.238-.113.308.308 0 01.238.113 7.616 7.616 0 011.777 5.005l.312-.426a.309.309 0 01.294-.125.304.304 0 01.152.062.3.3 0 01.099.132 4.761 4.761 0 01-.407 4.235c.318.867.565 1.759.738 2.666.07.707.07 1.42 0 2.127a19.598 19.598 0 01-1.332 6.08c-1.108 2.49-5.474 2.766-8.796 2.766zm-2.384-.626h.97c2.978.038 8.521.113 9.653-2.39a19.258 19.258 0 001.251-5.887c.067-.667.067-1.34 0-2.008 0-.225-.55-2.202-.701-2.565a.31.31 0 010-.375c.318-.466.537-.99.644-1.544a4.131 4.131 0 00-.018-1.672l-.626.838a.31.31 0 01-.374.097.313.313 0 01-.182-.34 6.984 6.984 0 00-1.302-5.38 9.01 9.01 0 01-4.56 2.72.314.314 0 01-.364-.168.306.306 0 01-.02-.213.308.308 0 01.121-.175 4.331 4.331 0 001.633-3.128c-1.064.77-2.534 1.157-4.473 1.182h-1.345a13.597 13.597 0 00-3.71.263 8.132 8.132 0 00-3.904 2.502c-.312.38-.569.8-.763 1.252-.27.664-.7 1.25-1.252 1.707-2.377 1.877-2.608 3.566-2.227 6.645.17 1.338.482 2.696.782 4.01.342 1.382.609 2.78.801 4.191l1.627.1c2.621.175 5.336.35 8.007.313l.332.025z" fill="#11253E"/>
  <path d="M99.055 31.381c-.45-3.61-6.375-4.698-6.256-.462a6.254 6.254 0 001.482 4.047 3.692 3.692 0 003.96 1.07" fill="#fff"/>
  <path d="M97.102 36.55a4.216 4.216 0 01-3.053-1.395 6.575 6.575 0 01-1.558-4.223c-.075-2.096 1.252-2.953 2.503-3.053a4.135 4.135 0 014.38 3.466.313.313 0 01-.276.344.325.325 0 01-.35-.27 3.522 3.522 0 00-3.692-2.915c-1.25.1-1.958.976-1.908 2.41a5.98 5.98 0 001.364 3.822 3.358 3.358 0 003.61.994.312.312 0 01.406.17.326.326 0 01-.168.412 3.452 3.452 0 01-1.258.238z" fill="#11253E"/>
  <path d="M111.953 31.381c.451-3.61 6.375-4.698 6.225-.462a6.261 6.261 0 01-1.445 4.047 3.702 3.702 0 01-3.96 1.07" fill="#fff"/>
  <path d="M113.906 36.55a3.4 3.4 0 01-1.252-.238.321.321 0 01-.175-.413.314.314 0 01.407-.169 3.36 3.36 0 003.616-.994 5.987 5.987 0 001.364-3.823c.05-1.433-.626-2.308-1.908-2.409a3.522 3.522 0 00-3.692 2.916.325.325 0 01-.35.269.311.311 0 01-.206-.116.314.314 0 01-.055-.108.326.326 0 01-.008-.12 4.14 4.14 0 014.379-3.466c1.252.1 2.559.957 2.503 3.053a6.51 6.51 0 01-1.533 4.223 4.198 4.198 0 01-3.09 1.395z" fill="#11253E"/>
  <path d="M98.598 49.319s2.734 1.4 7.432 1.563c4.698.163 5.48-1.113 5.48-1.113l-.112-2.502-.257-5.844-.244-5.461-10.729-.37-.513 4.442-.156 1.446-.901 7.839z" fill="#fff"/>
  <path d="M106.839 51.233h-.814c-4.717-.162-7.457-1.539-7.57-1.595a.32.32 0 01-.168-.313l1.57-13.764a.3.3 0 01.325-.275l10.723.376a.321.321 0 01.307.294l.625 13.826a.284.284 0 01-.043.175c-.101.112-.926 1.276-4.955 1.276zm-7.908-2.077a20.02 20.02 0 007.113 1.439c3.754.131 4.905-.682 5.149-.913l-.594-13.407-10.154-.35-1.514 13.231z" fill="#11253E"/>
  <path d="M99.5 41.46a9.627 9.627 0 003.416 3.21c2.265 1.358 5.668 2.915 8.483 2.584l-.256-5.843a26.478 26.478 0 01-6.188-.176 17.684 17.684 0 01-5.299-1.25L99.5 41.46z" fill="#11253E"/>
  <path d="M110.634 47.61c-2.928 0-6.118-1.632-7.851-2.67a9.746 9.746 0 01-3.529-3.329.319.319 0 01-.037-.188l.156-1.451a.32.32 0 01.156-.238.312.312 0 01.288 0 17.384 17.384 0 005.205 1.189c2.025.303 4.08.362 6.119.175a.333.333 0 01.238.075c.063.059.101.14.106.225l.256 5.844a.311.311 0 01-.275.325c-.276.03-.554.045-.832.044zm-10.785-6.218a9.19 9.19 0 003.259 3.01c1.77 1.063 5.105 2.765 7.995 2.57l-.231-5.217a27.235 27.235 0 01-5.925-.206 19.398 19.398 0 01-5.005-1.077l-.093.92z" fill="#11253E"/>
  <path d="M114.895 21.654l-.451 13.019a7.935 7.935 0 01-.225 1.652 8.232 8.232 0 01-8.277 6.256l-.938-.013a8.228 8.228 0 01-7.683-6.174 8.409 8.409 0 01-.25-2.328l.45-13.013s2.008 2.653 7.833 2.653c3.292.025 6.55-.676 9.541-2.052z" fill="#fff"/>
  <path d="M106.253 42.925h-.294l-.963-.038a8.54 8.54 0 01-8.233-8.827l.45-13.013a.325.325 0 01.22-.288.325.325 0 01.343.107s1.996 2.502 7.445 2.502h.157a22.443 22.443 0 009.384-1.983.31.31 0 01.313 0 .316.316 0 01.143.275l-.45 13.019a8.33 8.33 0 01-.232 1.714 8.554 8.554 0 01-8.283 6.532zm-8.44-21.146l-.425 12.3a7.817 7.817 0 00.244 2.233 7.947 7.947 0 007.37 5.943l.964.038a7.944 7.944 0 007.964-6.044 8.106 8.106 0 00.212-1.589l.432-12.512a23.666 23.666 0 01-9.209 1.833h-.169c-4.235.006-6.45-1.401-7.413-2.202h.03z" fill="#11253E"/>
  <path d="M105.834 28.948s2.703 5.962 1.508 6.068c-1.195.107-2.897-.782-2.897-.782" fill="#fff"/>
  <path d="M107.135 35.342a7.504 7.504 0 01-2.834-.826.318.318 0 01-.154-.185.316.316 0 01.1-.336.311.311 0 01.23-.07.32.32 0 01.118.035s1.62.85 2.715.75c.263-.344-.538-2.928-1.764-5.63a.311.311 0 01.164-.396.312.312 0 01.405.14c.55 1.207 2.29 5.223 1.72 6.212a.625.625 0 01-.469.294l-.231.012zm.369 3.428a11.365 11.365 0 01-4.454-1.031.305.305 0 01-.171-.171.315.315 0 01.002-.242.317.317 0 01.413-.163c3.972 1.702 6.106.626 6.124.626a.314.314 0 01.42.137.316.316 0 01.022.238.31.31 0 01-.154.181 5.048 5.048 0 01-2.202.426zm-5.168-9.446c.311 0 .564-.572.564-1.277 0-.704-.253-1.276-.564-1.276-.31 0-.563.572-.563 1.276 0 .705.253 1.277.563 1.277zm7.543 0c.311 0 .564-.572.564-1.277 0-.704-.253-1.276-.564-1.276-.311 0-.563.572-.563 1.276 0 .705.252 1.277.563 1.277zM96.531 48.18l10.054 43.911 2.283-10.916 5.318-32.995-8.158 2.702-9.497-2.702z" fill="#11253E"/>
  <path d="M106.588 92.404a.317.317 0 01-.307-.243L96.247 48.249a.307.307 0 01.228-.372.313.313 0 01.16.003l9.384 2.677 8.064-2.671a.308.308 0 01.391.186c.019.05.024.105.016.158l-5.312 32.995-2.296 10.93a.32.32 0 01-.3.25h.006zM96.96 48.612l9.616 42.035 1.989-9.516 5.23-32.47-7.664 2.503a.299.299 0 01-.181 0l-8.99-2.552z" fill="#11253E"/>
  <path d="M102.502 52.253l1.683 3.416-1.802 17.485 4.36 17.299 3.504-17.286-2.747-17.699 1.37-2.684-2.84-1.901-3.528 1.37z" fill="#fff"/>
  <path d="M106.749 90.766a.317.317 0 01-.306-.238l-4.38-17.292a.354.354 0 010-.113l1.789-17.392-1.632-3.34a.332.332 0 01.071-.365.292.292 0 01.11-.067l3.522-1.37a.314.314 0 01.288 0l2.84 1.877a.32.32 0 01.107.4l-1.327 2.596 2.728 17.668c.01.034.01.071 0 .106l-3.497 17.292a.32.32 0 01-.3.25l-.013-.012zm-4.048-17.636l4.011 15.903 3.221-15.903-2.74-17.636a.304.304 0 01.032-.194l1.251-2.434-2.503-1.658-3.059 1.189 1.527 3.128a.28.28 0 01.031.175l-1.771 17.43z" fill="#11253E"/>
  <path d="M112.815 45.296c-.206 0-6.881 5.586-6.881 5.586l4.11 4.786 4.104-7.507-1.333-2.865z" fill="#fff"/>
  <path d="M110.076 55.981a.307.307 0 01-.238-.106l-4.11-4.792a.324.324 0 01-.075-.225.3.3 0 01.112-.213c6.732-5.63 6.882-5.63 7.051-5.63a.313.313 0 01.282.175l1.37 2.89a.3.3 0 010 .281l-4.104 7.508a.32.32 0 01-.244.162l-.044-.05zm-3.666-5.06l3.61 4.203 3.81-6.95-1.145-2.421c-.939.713-4.117 3.353-6.275 5.167z" fill="#11253E"/>
  <path d="M98.026 45.246c.22 0 8.002 5.63 8.002 5.63l-4.748 4.786-4.749-7.507 1.495-2.91z" fill="#fff"/>
  <path d="M101.278 55.98h-.031a.32.32 0 01-.232-.143l-4.748-7.507a.313.313 0 010-.307l1.495-2.94a.3.3 0 01.275-.17c.125 0 .32 0 8.189 5.694a.334.334 0 01.126.231.326.326 0 01-.088.244l-4.748 4.793a.335.335 0 01-.238.106zm-4.38-7.813l4.442 7.007 4.217-4.254c-2.665-1.927-6.388-4.592-7.395-5.243l-1.263 2.49z" fill="#11253E"/>
  <path d="M96.532 48.18s8.665 38.844 10.254 42.767c0 0-18.23-30.98-18.33-31.588-.1-.607 2.615-3.128 2.615-3.128l-2.215-.994 1.996-3.604 5.68-3.453z" fill="#FEBE10"/>
  <path d="M106.786 91.272a.32.32 0 01-.269-.15c-4.285-7.283-18.268-31.087-18.374-31.7-.106-.613 1.164-1.946 2.371-3.128l-1.777-.788a.325.325 0 01-.175-.188.32.32 0 010-.25l1.996-3.604a.416.416 0 01.112-.119l5.681-3.434a.332.332 0 01.288 0 .319.319 0 01.181.218c.088.388 8.677 38.864 10.235 42.724a.307.307 0 01-.15.394.275.275 0 01-.119.025zM89.269 55.086l1.877.851a.32.32 0 01.088.52c-1.195 1.113-2.503 2.54-2.503 2.883.282.757 11.292 19.557 16.942 29.16-2.503-8.971-8.502-35.897-9.385-39.814l-5.205 3.172-1.814 3.228z" fill="#11253E"/>
  <path d="M114.184 48.18s-5.806 38.844-7.395 42.767c0 0 15.378-30.98 15.478-31.588.1-.607-2.615-3.128-2.615-3.128l2.214-.994-1.995-3.604-5.687-3.453z" fill="#FEBE10"/>
  <path d="M106.783 91.272a.325.325 0 01-.131 0 .317.317 0 01-.163-.4c1.558-3.848 7.326-42.31 7.382-42.699a.315.315 0 01.059-.14.327.327 0 01.41-.097l5.687 3.434c.045.03.082.071.107.119l2.002 3.604a.335.335 0 010 .25.307.307 0 01-.169.187l-1.783.801c1.201 1.158 2.465 2.503 2.364 3.128-.1.626-12.931 26.495-15.502 31.681a.318.318 0 01-.263.132zm7.639-42.542c-.626 3.991-4.542 30.067-6.569 39.414 4.83-9.747 13.876-28.06 14.107-28.779-.037-.3-1.338-1.726-2.502-2.84a.33.33 0 01-.082-.129.328.328 0 01-.012-.152.31.31 0 01.182-.238l1.876-.85-1.795-3.298-5.205-3.128zm-28.086 62.599a.311.311 0 01-.288-.332c0-.106.782-10.272.913-12.618.107-1.927-.319-4.33-.963-7.964l-.444-2.503c-.864-5.036-7.401-25.65-7.464-25.875a.313.313 0 01.594-.194c.27.851 6.613 20.883 7.508 25.963.156.907.3 1.746.444 2.534.626 3.678 1.082 6.106.97 8.102-.138 2.358-.907 12.512-.914 12.631a.312.312 0 01-.356.256z" fill="#11253E"/>
  <path d="M40.778 103.39h128.451l20.614 29.748H20.164l20.614-29.748z" fill="#fff"/>
  <path d="M189.842 133.451H20.164a.326.326 0 01-.161-.046.32.32 0 01-.114-.123.306.306 0 010-.319l20.645-29.748a.31.31 0 01.256-.138h128.438a.31.31 0 01.257.138l20.601 29.748c.03.048.045.103.045.159a.3.3 0 01-.045.16.308.308 0 01-.244.169zm-169.078-.626h168.478l-20.176-29.122H40.94l-20.176 29.122z" fill="#11253E"/>
  <path d="M189.834 133.138H20.356v5.774h169.478v-5.774z" fill="#fff"/>
  <path d="M189.84 139.226H20.356a.312.312 0 01-.313-.313v-5.775a.318.318 0 01.313-.312H189.84a.32.32 0 01.313.312v5.775a.314.314 0 01-.313.313zM20.669 138.6h168.859v-5.149H20.668v5.149z" fill="#11253E"/>
  <path d="M186.194 138.913H24.004v5.774h162.19v-5.774z" fill="#11253E"/>
  <path d="M186.198 145H24.008a.312.312 0 01-.313-.313v-5.774c0-.083.033-.163.092-.222a.315.315 0 01.221-.091h162.19a.313.313 0 01.313.313v5.774a.316.316 0 01-.094.219.316.316 0 01-.219.094zm-161.896-.626h161.583v-5.149H24.302v5.149zm60.482-19.163l8.04-14.964H52.852l-14.22 14.964h46.151z" fill="#11253E"/>
  <path d="M84.786 125.524H38.635a.307.307 0 01-.29-.191.31.31 0 01.065-.341l14.22-14.952a.304.304 0 01.225-.1h39.97a.313.313 0 01.276.463l-8.04 14.959a.318.318 0 01-.115.119.32.32 0 01-.16.043zm-45.425-.625h45.238l7.707-14.339h-39.32l-13.625 14.339z" fill="#11253E"/>
  <path d="M84.784 99.405c0 9.234-10.817 18.843-10.817 18.843l-14.483-3.553 12.125-17.95s13.175-6.556 13.175 2.66z" fill="#FEBE10"/>
  <path d="M30.676 95.282h46.151l7.958 29.929H38.634l-7.958-29.929z" fill="#fff"/>
  <path d="M84.784 125.525H38.633a.323.323 0 01-.307-.232l-7.958-29.93a.319.319 0 01.307-.393H76.85a.319.319 0 01.3.237l7.958 29.923a.303.303 0 01-.056.27.318.318 0 01-.269.125zm-45.914-.626h45.49l-7.795-29.304H31.082L38.87 124.9z" fill="#11253E"/>
  <path d="M131.809 56.344s14.002 22.278 15.697 24.612c4.379-6.188 10.986-16.116 10.986-16.116l9.353 8.04s-12.7 28.152-21.822 25.374c-9.121-2.778-23.773-21.703-23.773-21.703l9.559-20.207z" fill="#FEBE10"/>
  <path d="M125.649 88.326h-.075a.315.315 0 01-.226-.375l5.005-20.433a.304.304 0 01.254-.234.303.303 0 01.122.009.314.314 0 01.231.375l-5.005 20.426a.314.314 0 01-.306.232z" fill="#11253E"/>
  <path d="M78.579 16.524H31.352v35.785h47.227V16.524z" fill="#fff"/>
  <path d="M78.58 52.615H31.351a.313.313 0 01-.313-.313V16.523a.313.313 0 01.313-.312h47.227a.312.312 0 01.313.313v35.778a.312.312 0 01-.313.313zm-46.922-.626H78.26V16.825H31.665l-.007 35.165z" fill="#C9C9C8"/>
  <path d="M45.44 44.463a.931.931 0 01-.226-.03l-.569-.163-1.52-.439a1.667 1.667 0 01-.3-.13.907.907 0 01-.526-.895l.144-1.396v-.387a.427.427 0 00-.156-.37 45.151 45.151 0 01-1.064-.838l-.119-.094a.507.507 0 00-.525-.081l-.92.294-.413.125h-.063a1.044 1.044 0 01-1.432-.582 30.242 30.242 0 01-.951-1.789.92.92 0 01.244-1.251c.4-.357.738-.626 1.064-.889a.776.776 0 00.344-.813c-.05-.306-.088-.626-.126-.913l-.062-.532a.282.282 0 00-.2-.2l-.526-.282-.726-.406a1.615 1.615 0 01-.825-.764.526.526 0 010-.094v-.175a.63.63 0 010-.106l.112-.444c.088-.344.175-.695.27-1.045.074-.257.156-.52.237-.776a1.039 1.039 0 011.032-.744c.27 0 .532 0 .801.062h.564c.136.012.275.012.412 0a.463.463 0 00.219-.075 31.17 31.17 0 001.182-1.407.376.376 0 000-.344 13.954 13.954 0 00-.187-.626l-.232-.776a2.058 2.058 0 01-.106-.625.777.777 0 01.281-.626 8.83 8.83 0 012.328-1.295.888.888 0 011.026.281l.356.407c.22.244.432.494.626.75a.625.625 0 00.663.351c.332-.056.67-.094 1.007-.131l.544-.069a.27.27 0 00.213-.156l.276-.507.269-.5c.112-.207.225-.413.35-.626a.906.906 0 011.038-.444 34.47 34.47 0 012.209.625.932.932 0 01.663.964c0 .275-.038.544-.063.82l-.037.393v.545a.452.452 0 00.169.387l.287.232c.313.25.626.5.933.763a.538.538 0 00.563.113l.726-.232.775-.237a.982.982 0 011.252.481c.346.588.677 1.183.994 1.783a1.032 1.032 0 01-.281 1.427c-.15.137-.307.269-.47.4l-.306.257c-.175.156-.344.312-.513.481a.357.357 0 00-.106.294l.037.332c.038.425.081.845.138 1.251a.531.531 0 00.313.438l.387.188.532.262c.2.107.4.207.588.332a.939.939 0 01.426 1.095c-.182.663-.376 1.326-.57 1.99a1.759 1.759 0 01-.144.325.907.907 0 01-.894.513L55.462 38h-.125a.701.701 0 00-.732.332c-.17.238-.363.463-.55.689l-.232.275a.708.708 0 00-.125.732c.156.444.3.888.431 1.345a.964.964 0 01-.506 1.289c-.55.319-1.158.625-1.877 1.02a.939.939 0 01-1.251-.22 6.908 6.908 0 01-.626-.757l-.144-.169c-.488-.581-.507-.587-1.251-.487l-1.001.13a.626.626 0 00-.513.357l-.169.345c-.119.244-.238.481-.363.72-.11.198-.237.386-.381.562a.794.794 0 01-.607.3zm-4.674-5.486c.256-.001.504.087.701.25l.119.1 1.057.839a1.038 1.038 0 01.4.838v.457l-.118 1.395c0 .1 0 .187.175.275a.958.958 0 00.206.1l1.514.438.576.163c.05 0 .106 0 .188-.082.121-.14.228-.294.319-.456.119-.232.237-.47.35-.701l.175-.35a1.25 1.25 0 01.989-.695l1-.138c.964-.125 1.195 0 1.821.714l.138.168c.206.244.413.495.625.733a.331.331 0 00.488.087 47.509 47.509 0 001.833-1c.294-.176.32-.239.22-.583-.126-.444-.276-.876-.42-1.314a1.306 1.306 0 01.232-1.326l.231-.281c.181-.213.363-.426.526-.626a1.313 1.313 0 011.332-.588h.088l1.407.125a.27.27 0 00.282-.175.84.84 0 00.106-.219c.194-.663.382-1.32.57-1.983a.332.332 0 00-.17-.407 7.126 7.126 0 00-.525-.294l-.525-.256-.395-.194a1.171 1.171 0 01-.625-.914c-.05-.425-.094-.85-.138-1.25v-.333a.956.956 0 01.282-.8c.175-.182.356-.35.544-.513l.325-.27c.15-.124.294-.243.438-.375.263-.244.282-.356.12-.67a25.143 25.143 0 00-.983-1.763.382.382 0 00-.532-.194l-.757.231-.744.232a1.146 1.146 0 01-1.151-.232c-.294-.256-.626-.506-.914-.75l-.281-.232a1.075 1.075 0 01-.407-.876v-.625c0-.232 0-.27.044-.407 0-.257.05-.513.056-.77.006-.256-.069-.312-.219-.35-.725-.219-1.451-.413-2.183-.626-.107-.03-.232-.03-.35.163-.12.194-.226.388-.332.588l-.27.494-.28.52a.908.908 0 01-.676.475l-.55.063c-.333.037-.664.075-.99.125a1.251 1.251 0 01-1.25-.5c-.2-.25-.413-.495-.626-.733l-.363-.413a.276.276 0 00-.344-.1 8.443 8.443 0 00-2.165 1.208.623.623 0 000 .125c.002.158.03.314.082.463.075.256.15.513.231.763l.188.626a.963.963 0 01-.138.913 35.2 35.2 0 01-1.201 1.439 1 1 0 01-.626.275 2.42 2.42 0 01-.538 0h-.156l-.407-.037c-.25 0-.507-.05-.757-.057a.394.394 0 00-.419.313c-.081.25-.156.495-.225.745-.094.344-.182.694-.27 1.038l-.1.394v.07c.133.181.313.324.52.412l.745.394.525.275a.926.926 0 01.488.72l.069.538c.031.294.069.626.112.895a1.402 1.402 0 01-.575 1.407c-.313.238-.626.513-1.026.857-.213.188-.225.257-.106.495.362.719.625 1.25.932 1.764.225.388.275.406.732.281l.45-.144.913-.287c.116-.05.238-.082.363-.094zm6.47-.882a4.886 4.886 0 01-4.632-6.39c.2-.609.52-1.172.94-1.656a4.855 4.855 0 018.57 2.766 4.66 4.66 0 01-1.044 3.403 4.855 4.855 0 01-3.46 1.814l-.375.063zm-.038-9.197h-.345a4.291 4.291 0 00-2.834 1.514 4.23 4.23 0 00-.097 5.42 4.267 4.267 0 006.654.01 4.054 4.054 0 00.907-2.984 4.26 4.26 0 00-4.285-3.96zM65.007 48.03h-.1a12.641 12.641 0 01-.832-.132l-.338-.062a.625.625 0 01-.538-.626v-.645a.575.575 0 000-.18 1.107 1.107 0 00-1.213-.558l-.2.107c-.138.069-.27.144-.414.2a.625.625 0 01-.625-.063 3.43 3.43 0 01-.989-1.307l-.037-.138a.544.544 0 010-.225v-.044a.782.782 0 01.1-.231c.088-.135.188-.26.3-.376a.913.913 0 00.175-1.213 1.32 1.32 0 00-.406-.332 3.703 3.703 0 00-.394-.181l-.232-.094a.625.625 0 01-.382-.676v-.219c.05-.35.094-.694.163-1.038a.676.676 0 01.463-.463 2.86 2.86 0 01.626-.063.832.832 0 00.732-.431.8.8 0 00.081-1.014c-.457-.782-.338-1 .35-1.533.12-.1.244-.187.37-.275l.268-.194a.557.557 0 01.732 0l.376.313.3.25a.407.407 0 00.357.1l.237-.056.226-.05a.626.626 0 00.538-.526c.269-.944.55-1.063 1.25-.932h.176l.4.088.282.056a.625.625 0 01.55.626l.038.369c0 .181.044.356.056.538.013.181 0 .112.082.156l.162.1c.626.388.626.388 1.252.075l.093-.043a.757.757 0 011.076.225c.163.188.307.388.45.588l.182.244a.625.625 0 010 .838l-.043.05c-.207.257-.42.507-.626.776.02.2.061.398.125.588l.05.188a.407.407 0 00.307.3c.263.08.517.189.757.325a.75.75 0 01.35.626c-.02.398-.064.795-.131 1.189a.713.713 0 01-.732.625c-.065.006-.13.006-.194 0a1.095 1.095 0 00-1.139.745.475.475 0 00-.031.444l.081.2.188.426a.719.719 0 01-.232.944c-.294.213-.582.432-.87.626a.626.626 0 01-.863-.044l-.244-.206-.356-.313a.3.3 0 00-.307-.1h-.119a3.92 3.92 0 00-.594.156.363.363 0 00-.15.157 2.642 2.642 0 00-.2.556.845.845 0 01-.77.789zm-2.871-2.866c.258.003.512.063.744.175a1.478 1.478 0 01.832.889c.022.1.035.203.038.306v.62l.375.112c.257.05.52.1.782.125.056 0 .175 0 .238-.218a3.75 3.75 0 01.25-.689.988.988 0 01.476-.444c.226-.08.458-.143.694-.188h.113a.951.951 0 01.87.25c.112.107.224.2.337.295l.25.219h.07l.881-.626c.063-.05.088-.063.032-.188-.057-.125-.132-.287-.194-.438l-.082-.194a1.12 1.12 0 01.044-.975A1.727 1.727 0 0170.7 43.1h.138c.113 0 .119-.038.125-.094a9.48 9.48 0 00.125-1.126l-.044-.063a3.725 3.725 0 00-.625-.263 1.008 1.008 0 01-.713-.725l-.057-.188a7.086 7.086 0 01-.15-.625.745.745 0 01.125-.532c.207-.276.426-.538.626-.795l.044-.056v-.063l-.188-.25a7.09 7.09 0 00-.42-.55c-.15-.176-.13-.138-.143-.144a1.947 1.947 0 00-.188.075l-.094.05c-.9.425-1.02.419-1.876-.113l-.163-.1a.77.77 0 01-.375-.626c0-.169-.032-.337-.05-.5-.02-.163-.032-.263-.044-.388a2.38 2.38 0 00-.344-.1c-.12 0-.244-.056-.37-.075l-.187-.038c-.388-.069-.394-.069-.55.488a1.251 1.251 0 01-.964.932l-.213.044-.256.063a1.013 1.013 0 01-.883-.232l-.3-.25-.356-.3-.257.181a7.03 7.03 0 00-.35.25 1.767 1.767 0 00-.376.345c.037.139.098.27.182.387a1.42 1.42 0 01-.1 1.683 1.483 1.483 0 01-1.252.701 2.108 2.108 0 00-.494.044 9.928 9.928 0 00-.162.976l-.032.225.226.1c.164.062.323.138.475.225.252.13.467.322.626.557a1.526 1.526 0 01-.27 1.958 1.78 1.78 0 00-.23.294v.044c.164.399.424.751.756 1.026a2.1 2.1 0 00.357-.163l.225-.118c.15-.07.315-.107.482-.107zm3.234-.763a2.834 2.834 0 01-.044-5.668 2.851 2.851 0 012.828 2.884 2.797 2.797 0 01-2.784 2.784zm-.088-5.055a2.208 2.208 0 10.082 4.417 2.165 2.165 0 002.146-2.165 2.233 2.233 0 00-2.209-2.252h-.019z" fill="#6495D3"/>
  <path d="M73.665 24.713h-9.59a.313.313 0 110-.626h9.59a.313.313 0 010 .626zm0 2.358h-9.59a.313.313 0 110-.625h9.59a.313.313 0 010 .625zm0 2.366h-9.59a.313.313 0 110-.626h9.59a.313.313 0 010 .626z" fill="#C9C9C8"/>
  <path d="M189.623 18.369h-53.646v31.68h53.646V18.37z" fill="#fff"/>
  <path d="M189.629 50.363h-53.652a.32.32 0 01-.313-.313V18.37a.32.32 0 01.313-.313h53.652a.32.32 0 01.313.312V50.05a.317.317 0 01-.313.313zm-53.339-.626h53.027V18.701h-53.034l.007 31.036z" fill="#C9C9C8"/>
  <path d="M162.802 39.258h-1.482a1.353 1.353 0 01-1.539-1.095 8.196 8.196 0 00-1.708-3.071 6.57 6.57 0 01-1.521-4.755c.282-3.566 3.128-5.756 6.776-5.45 5.405.451 7.013 6.026 4.241 9.942a9.825 9.825 0 00-1.776 3.372 1.296 1.296 0 01-1.439 1.02c-.544.012-1.039.03-1.552.037z" fill="#fff"/>
  <path d="M161.175 39.602a1.645 1.645 0 01-1.701-1.332 7.847 7.847 0 00-1.646-2.953 6.882 6.882 0 01-1.589-5.005 6.096 6.096 0 012.096-4.28 6.807 6.807 0 015.005-1.457 6.147 6.147 0 015.293 3.51 7.038 7.038 0 01-.814 6.982 9.579 9.579 0 00-1.72 3.26 1.63 1.63 0 01-1.752 1.251h-3.009l-.163.024zm1.489-14.407a6.003 6.003 0 00-3.922 1.338 5.475 5.475 0 00-1.33 1.737 5.474 5.474 0 00-.547 2.117 6.253 6.253 0 001.445 4.536 8.294 8.294 0 011.745 3.172 1.056 1.056 0 00.827.875c.14.03.285.03.425 0h3.059a.974.974 0 001.126-.782 10.09 10.09 0 011.827-3.478 6.413 6.413 0 00.75-6.356 5.46 5.46 0 00-4.76-3.09 2.544 2.544 0 00-.645-.07z" fill="#6495D3"/>
  <path d="M164.79 39.225l-3.997.05a.644.644 0 00-.636.653l.002.213c.005.356.297.64.653.636l3.997-.05a.644.644 0 00.636-.653l-.002-.213a.645.645 0 00-.653-.636z" fill="#fff"/>
  <path d="M160.807 41.11a.966.966 0 01-.963-.95v-.188a.943.943 0 01.271-.68.965.965 0 01.674-.29l3.991-.056a.944.944 0 01.682.275.952.952 0 01.294.676v.206a.961.961 0 01-.579.893.963.963 0 01-.366.077l-3.991.057-.013-.02zm3.998-1.557l-3.991.056a.325.325 0 00-.332.338v.207a.34.34 0 00.338.331l3.991-.056a.325.325 0 00.332-.338v-.206a.343.343 0 00-.338-.332z" fill="#6495D3"/>
  <path d="M164.814 40.733l-3.998.05a.645.645 0 00-.636.653l.003.213c.004.356.296.64.652.636l3.998-.051a.645.645 0 00.636-.653l-.003-.212a.644.644 0 00-.652-.636z" fill="#fff"/>
  <path d="M160.827 42.612a.934.934 0 01-.67-.276.951.951 0 01-.294-.675v-.207a.961.961 0 01.945-.97l3.991-.056c.255.002.499.1.682.276a.939.939 0 01.294.675v.207a.967.967 0 01-.944.976l-3.992.05h-.012zm3.997-1.558l-3.991.056a.325.325 0 00-.332.338v.206a.34.34 0 00.027.126c.017.04.042.076.074.106a.485.485 0 00.237.1l3.992-.05a.342.342 0 00.237-.103.331.331 0 00.094-.241v-.207a.354.354 0 00-.1-.231.347.347 0 00-.25-.1h.012z" fill="#6495D3"/>
  <path d="M164.877 42.243c0 .569-.907 1.038-2.039 1.05-1.132.013-2.058-.431-2.065-.994l4.104-.056z" fill="#fff"/>
  <path d="M162.782 43.606c-1.314 0-2.309-.556-2.321-1.307a.31.31 0 01.313-.313l4.098-.056a.318.318 0 01.312.313 1.207 1.207 0 01-.75 1.013 3.627 3.627 0 01-1.583.35h-.069zm-1.476-1a2.5 2.5 0 001.526.375 3.04 3.04 0 001.308-.282l.219-.131-3.053.037z" fill="#6495D3"/>
  <path d="M161.866 38.514a14.4 14.4 0 00-.176-4.798 5.432 5.432 0 00-.969-2.102 1.17 1.17 0 00-.866-.314 1.165 1.165 0 00-.823.414 1.246 1.246 0 00-.076 1.207c.187.381.469.707.82.945a4.637 4.637 0 005.042.188 3.02 3.02 0 001.183-1.252 1.837 1.837 0 000-1.676c-.319-.557-.901-.188-1.251.169-.682.77-.782 2.02-.883 2.996a15.462 15.462 0 00.163 4.154" fill="#fff"/>
  <path d="M161.863 38.827a.313.313 0 01-.294-.332v-.15c.116-1.127.129-2.262.038-3.39a4.827 4.827 0 01-2.008-.84 2.64 2.64 0 01-.926-1.069 1.553 1.553 0 01-.146-.77c.019-.266.106-.522.252-.744a1.414 1.414 0 011.064-.544 1.382 1.382 0 011.113.419 5.469 5.469 0 011.039 2.227c.069.25.125.5.169.757a4.45 4.45 0 001.407-.137v-.107c.1-1 .232-2.24.951-3.053a1.479 1.479 0 011.095-.557.817.817 0 01.626.445 2.15 2.15 0 010 1.958 3.31 3.31 0 01-1.295 1.376 4.697 4.697 0 01-.832.407 15.63 15.63 0 00.193 3.678.315.315 0 01-.498.307.316.316 0 01-.127-.207 16.24 16.24 0 01-.219-3.59 5.15 5.15 0 01-1.251.106c.077 1.123.06 2.251-.05 3.372v.15a.312.312 0 01-.301.288zm-1.933-7.214h-.056a.777.777 0 00-.594.282.948.948 0 00-.044.9c.164.33.412.611.719.814.462.335.988.569 1.545.688a6.914 6.914 0 00-.112-.5 5.012 5.012 0 00-.901-1.958.748.748 0 00-.557-.226zm5.631-.45a.92.92 0 00-.545.344 4.546 4.546 0 00-.775 2.503c.147-.072.292-.152.431-.238a2.748 2.748 0 001.064-1.108 1.524 1.524 0 000-1.388c-.069-.12-.125-.125-.15-.125l-.025.012z" fill="#6495D3"/>
  <path d="M151.863 38.977h-7.601a.313.313 0 010-.625h7.601a.311.311 0 01.313.312.312.312 0 01-.313.313zm0 2.202h-7.601a.313.313 0 010-.626h7.601a.311.311 0 01.313.313.312.312 0 01-.313.313zm0 2.196h-7.601a.313.313 0 010-.626h7.601a.311.311 0 01.313.313.312.312 0 01-.313.313zm-1.994 2.227h-5.63a.315.315 0 01-.222-.092.315.315 0 010-.442.315.315 0 01.222-.092h5.63a.311.311 0 01.22.532.32.32 0 01-.22.094zm32.434-20.852h-10.01a.313.313 0 010-.625h10.01a.311.311 0 01.313.313.312.312 0 01-.313.313zm0 2.203h-10.01a.313.313 0 010-.626h10.01a.311.311 0 01.313.313.312.312 0 01-.313.313zm0 2.196h-10.01a.313.313 0 010-.626h10.01a.311.311 0 01.313.313.312.312 0 01-.313.313zm-2.633 2.195h-7.388a.315.315 0 01-.222-.091.315.315 0 010-.443.315.315 0 01.222-.091h7.388a.318.318 0 01.313.313.312.312 0 01-.313.312z" fill="#C9C9C8"/>
  <path d="M181.615 37.112h-9.334v5.956h9.334v-5.956z" fill="#fff"/>
  <path d="M181.609 43.375h-9.327a.315.315 0 01-.222-.092.315.315 0 01-.091-.22v-5.95c0-.083.033-.163.091-.222a.315.315 0 01.222-.091h9.327c.083 0 .163.033.222.091a.315.315 0 01.091.222v5.95a.308.308 0 01-.091.22.314.314 0 01-.222.092zm-9.015-.626h8.734v-5.324h-8.759l.025 5.324z" fill="#6495D3"/>
  <path d="M172.28 43.062l-1.589 2.96h12.5l-1.583-2.96h-9.328z" fill="#fff"/>
  <path d="M183.205 46.334h-12.513a.318.318 0 01-.275-.463L172 42.918a.313.313 0 01.282-.169h9.327a.302.302 0 01.276.17l1.582 2.952a.297.297 0 010 .307.308.308 0 01-.262.156zm-11.975-.626h11.455l-1.251-2.333h-8.971l-1.233 2.334z" fill="#6495D3"/>
  <path d="M142.863 24.156v7.97c0 .757 2.24 1.37 5.005 1.37 2.765 0 5.005-.625 5.005-1.37v-7.97h-10.01z" fill="#fff"/>
  <path d="M147.862 33.81c-2.559 0-5.311-.526-5.311-1.684v-7.97c0-.083.033-.162.091-.221a.315.315 0 01.222-.092h10.009a.315.315 0 01.313.313v7.97c-.012 1.158-2.765 1.683-5.324 1.683zm-4.698-9.341v7.657c0 .357 1.651 1.058 4.686 1.058 3.034 0 4.698-.72 4.698-1.058V24.47h-9.384z" fill="#6495D3"/>
  <path d="M147.862 25.533c2.761 0 4.999-.616 4.999-1.376 0-.76-2.238-1.377-4.999-1.377-2.761 0-4.999.616-4.999 1.377 0 .76 2.238 1.376 4.999 1.376z" fill="#fff"/>
  <path d="M147.862 25.84c-2.559 0-5.311-.526-5.311-1.684 0-1.157 2.752-1.689 5.311-1.689s5.312.526 5.312 1.69c0 1.163-2.753 1.682-5.312 1.682zm0-2.747c-3.034 0-4.686.7-4.686 1.063s1.652 1.058 4.686 1.058 4.686-.701 4.686-1.058c0-.356-1.652-1.076-4.686-1.076v.013z" fill="#6495D3"/>
  <path d="M152.861 26.358c0 .764-2.239 1.377-5.005 1.377-2.765 0-5.004-.626-5.004-1.377" fill="#fff"/>
  <path d="M147.862 28.048c-2.559 0-5.311-.526-5.311-1.683 0-.083.033-.163.091-.221a.315.315 0 01.443 0 .315.315 0 01.091.22c0 .357 1.652 1.058 4.686 1.058s4.686-.7 4.686-1.057a.312.312 0 01.313-.313.313.313 0 01.313.313c0 1.157-2.753 1.683-5.312 1.683z" fill="#6495D3"/>
  <path d="M152.861 28.823c0 .763-2.239 1.376-5.005 1.376-2.765 0-5.004-.625-5.004-1.376" fill="#fff"/>
  <path d="M147.862 30.512c-2.559 0-5.311-.525-5.311-1.682 0-.083.033-.163.091-.221a.315.315 0 01.443 0 .315.315 0 01.091.22c0 .357 1.652 1.058 4.686 1.058s4.686-.7 4.686-1.057a.312.312 0 01.313-.313.313.313 0 01.313.313c0 1.132-2.753 1.683-5.312 1.683z" fill="#6495D3"/>
  <path d="M167.988 57.589s3.397 1.526 2.065 4.698z" fill="#fff"/>
  <path d="M170.066 62.6a.269.269 0 01-.119 0 .321.321 0 01-.169-.406c1.208-2.86-1.77-4.235-1.877-4.292a.317.317 0 01-.178-.172.311.311 0 01.078-.351.321.321 0 01.235-.081.313.313 0 01.122.035c.037 0 3.66 1.69 2.221 5.099a.32.32 0 01-.313.169z" fill="#11253E"/>
  <path d="M57.726 115.245c2.239 0 4.054-1.523 4.054-3.403 0-1.88-1.815-3.403-4.054-3.403-2.24 0-4.054 1.523-4.054 3.403 0 1.88 1.815 3.403 4.054 3.403z" fill="#6495D3"/>
  <path d="M127.283 107.676h-23.154l2.659 19.725h29.929l-9.434-19.725z" fill="#fff"/>
  <path d="M136.716 127.714h-29.929a.32.32 0 01-.313-.269l-2.659-19.726a.316.316 0 01.313-.356h23.147a.313.313 0 01.282.175l9.434 19.732a.315.315 0 010 .3.302.302 0 01-.275.144zm-29.654-.626h29.16l-9.141-19.1h-22.597l2.578 19.1z" fill="#C9C9C8"/>
  <path d="M128.151 123.723h-17.905a.312.312 0 01-.312-.313.313.313 0 01.312-.313h17.905a.314.314 0 01.313.313.313.313 0 01-.313.313zm1.876-3.848h-20.57a.313.313 0 010-.625h20.57a.313.313 0 01.313.312.317.317 0 01-.091.222.317.317 0 01-.222.091zm-2.121-3.841h-19.394a.31.31 0 01-.221-.092.31.31 0 010-.442.31.31 0 01.221-.092h19.394a.31.31 0 01.221.092.31.31 0 010 .442.31.31 0 01-.221.092zm-1.493-3.842H110.91a.314.314 0 010-.626h15.503a.312.312 0 01.313.313.324.324 0 01-.093.22.324.324 0 01-.22.093z" fill="#C9C9C8"/>
</svg>
