<svg xmlns="http://www.w3.org/2000/svg" fill="none" viewBox="0 0 210 155">
  <path d="M35.012 101.752h128.474l20.617 29.754H14.394l20.618-29.754z" fill="#fff"/>
  <path d="M184.103 131.818H14.394a.312.312 0 01-.275-.169.305.305 0 010-.319l20.649-29.753a.31.31 0 01.256-.138h128.461a.31.31 0 01.257.138l20.605 29.753a.308.308 0 010 .319.314.314 0 01-.244.169zm-169.108-.625h168.507l-20.179-29.128H35.175l-20.18 29.128z" fill="#11253E"/>
  <path d="M184.098 131.505H14.59v5.775h169.508v-5.775z" fill="#fff"/>
  <path d="M184.101 137.594H14.586a.312.312 0 01-.313-.313v-5.775a.32.32 0 01.313-.313h169.515a.317.317 0 01.313.313v5.775a.312.312 0 01-.313.313zm-169.202-.626h168.889v-5.149H14.899v5.149z" fill="#11253E"/>
  <path d="M180.457 137.281H18.238v5.775h162.219v-5.775z" fill="#11253E"/>
  <path d="M180.453 143.369H18.235a.313.313 0 01-.313-.312v-5.776a.313.313 0 01.313-.313h162.218a.314.314 0 01.313.313v5.776a.317.317 0 01-.313.312zm-161.924-.625H180.14v-5.15H18.529v5.15z" fill="#11253E"/>
  <path d="M80.573 32.001h47.254a22.593 22.593 0 0122.483 24.797l-4.44 45.365H62.53l-4.447-45.365A22.601 22.601 0 0180.573 32z" fill="#fff"/>
  <path d="M145.871 102.475h-83.34a.313.313 0 01-.311-.281l-4.447-45.365a22.909 22.909 0 0122.801-25.14h47.255a22.891 22.891 0 0121.749 15.712 22.903 22.903 0 011.046 9.428l-4.441 45.365a.317.317 0 01-.312.281zm-83.059-.624h82.779l4.415-45.084a22.276 22.276 0 00-5.671-17.14 22.282 22.282 0 00-16.506-7.314H80.574a22.277 22.277 0 00-22.177 24.454l4.415 45.084z" fill="#C9C9C8"/>
  <path d="M163.963 66.359c-3.629 1.995-23.699 3.879-26.755 5.294a12.69 12.69 0 00-1.571.898c-4.877 3.219-8.108 11.002.393 11.707 2.6.218 25.476-8.239 34.575-12.056 2.009-.835 8.663-4.278 8.152-5.613-.512-1.334-2.638-4.802-3.462-4.552-.823.249-7.028 3.187-7.028 3.187s1.727-5.177 0-4.99c-1.728.187-4.304 6.125-4.304 6.125z" fill="#fff"/>
  <path d="M136.122 84.582h-.119c-3.848-.324-5.07-2.033-5.426-3.411-.773-3.038 1.871-6.904 4.877-8.888a12.86 12.86 0 011.616-.916c1.409-.661 6.062-1.366 11.45-2.19 6.156-.935 13.097-1.995 15.192-3.049.425-.985 2.707-6.075 4.503-6.237a.879.879 0 01.817.325c.661.83.119 3.118-.243 4.365 1.628-.773 5.719-2.7 6.411-2.887 1.248-.337 3.474 3.742 3.855 4.764.748 1.965-8.233 6-8.326 6.038-8.289 3.48-31.377 12.086-34.607 12.086zm32.212-24.067h-.056c-1.129.112-3.062 3.742-4.017 5.969a.316.316 0 01-.143.155c-2.052 1.13-8.887 2.17-15.504 3.175-5.114.78-9.979 1.515-11.27 2.133-.532.253-1.045.545-1.534.873-3.162 2.09-5.233 5.763-4.609 8.189.43 1.69 2.108 2.7 4.858 2.93h.1c2.913 0 25.171-8.194 34.301-12.03 3.156-1.322 8.283-4.403 7.971-5.22-.624-1.621-2.551-4.365-3.069-4.365-.661.174-5.251 2.345-6.966 3.162a.323.323 0 01-.451-.209.315.315 0 01.008-.184c.506-1.528 1.023-3.93.574-4.49a.216.216 0 00-.193-.088z" fill="#11253E"/>
  <path d="M141.416 70.325s-1.871-4.603-10.783-14.968c-4.279-4.99-15.76-6.86-18.841-7.022.673.068 2.6-.992-10.521 0-6.748.511-11.064.848-15.037 5.076-7.484 7.977-23.699 24.947-23.699 24.947l17.12 4.883s2.775-1.946 3.791-3.293l-2.457 18.26 46.232 2.695-.387-20.936 4.74 3.867 9.842-13.509z" fill="#FEBE10"/>
  <path d="M111 48.316h.792c-.274-.037-.792 0-.792 0z" fill="#FEBE10"/>
  <path d="M98.93 50.287l.417 46.824h12.954V47.724L98.93 50.287z" fill="#fff"/>
  <path d="M112.305 97.398h-12.96a.286.286 0 01-.287-.28l-.417-46.831a.287.287 0 01.23-.28l13.372-2.564a.28.28 0 01.343.274v49.394a.289.289 0 01-.281.287zm-12.673-.568h12.386V48.066l-12.81 2.451.424 46.313zm-3.228-16.6a.28.28 0 01-.256-.163l-5.613-11.768a.293.293 0 010-.287l3.642-5.358-3.574-2.632a.287.287 0 01-.068-.386l5.613-8.295a.28.28 0 01.393-.075.286.286 0 01.075.4l-5.482 8.063 3.567 2.626a.287.287 0 01.069.393l-3.667 5.45 5.569 11.626a.287.287 0 01-.138.38.28.28 0 01-.13.025zm17.971-.001a.28.28 0 01-.125 0 .286.286 0 01-.137-.38l5.569-11.626-3.698-5.45a.285.285 0 01-.045-.21.283.283 0 01.113-.183l3.568-2.626-5.482-8.064a.264.264 0 01-.044-.103.282.282 0 01.119-.296.276.276 0 01.212-.045.28.28 0 01.18.12l5.645 8.294a.29.29 0 01.042.207.29.29 0 01-.111.18l-3.574 2.613 3.643 5.358a.299.299 0 010 .287l-5.613 11.768a.283.283 0 01-.262.156z" fill="#11253E"/>
  <path d="M117.294 45.142c-.081 0 1.416-8.002 1.547-8.675.879-4.522 1.559-8.625 1.147-12.28-1.079.524-1.341 2.127-2.239 2.912a93.732 93.732 0 01-.436-10.246c-5.863 2.077-12.037 4.365-15.898 9.249l-.461-7.29c-2.707 4.365-5.457 8.83-6.91 13.788-1.453 4.958-.45 9.58.754 14.47l22.496-1.928z" fill="#fff"/>
  <path d="M94.799 47.368a.324.324 0 01-.312-.25c-1.247-5.101-2.152-9.722-.723-14.605 1.49-5.108 4.365-9.76 6.947-13.87a.324.324 0 01.52-.038.32.32 0 01.073.187l.399 6.48c4.072-4.665 10.396-6.91 15.516-8.731a.325.325 0 01.431.305 93.539 93.539 0 00.368 9.455c.137-.218.268-.455.399-.699a3.692 3.692 0 011.447-1.715.333.333 0 01.299 0 .345.345 0 01.162.25c.431 3.742-.299 8.008-1.154 12.38-.162.847-1.49 8-1.54 8.58a.246.246 0 010 .138.306.306 0 01-.274.212l-22.514 1.921h-.044zm5.925-27.535c-2.395 3.86-4.99 8.19-6.343 12.86-1.353 4.672-.518 9.1.667 14.008l22.009-1.871c.075-.792.406-2.87 1.491-8.438.798-4.104 1.49-8.108 1.197-11.632a5.115 5.115 0 00-.754 1.142 5.006 5.006 0 01-1.004 1.428.31.31 0 01-.331.056.324.324 0 01-.142-.104.324.324 0 01-.064-.164 97.62 97.62 0 01-.443-9.823c-5.188 1.871-11.5 4.179-15.317 8.993a.327.327 0 01-.349.106.331.331 0 01-.154-.11.327.327 0 01-.07-.176l-.393-6.274z" fill="#11253E"/>
  <path d="M113.984 44.774c.624-3.83 6.973-4.771 6.661-.256a6.678 6.678 0 01-1.696 4.241 3.936 3.936 0 01-4.266.998" fill="#fff"/>
  <path d="M116.009 50.349a3.52 3.52 0 01-1.46-.3.325.325 0 01-.19-.301.314.314 0 01.101-.224.318.318 0 01.351-.06 3.593 3.593 0 003.904-.93 6.357 6.357 0 001.603-4.041c.106-1.528-.623-2.495-1.958-2.65a3.78 3.78 0 00-4.06 2.987.325.325 0 01-.13.207.313.313 0 01-.238.055.323.323 0 01-.268-.368 4.396 4.396 0 014.771-3.524c1.322.156 2.681 1.11 2.494 3.336a7.025 7.025 0 01-1.783 4.447 4.523 4.523 0 01-3.137 1.366z" fill="#11253E"/>
  <path d="M98.137 44.774c-.624-3.83-6.973-4.771-6.661-.256a6.71 6.71 0 001.696 4.241 3.936 3.936 0 004.266.998" fill="#fff"/>
  <path d="M96.09 50.35a4.522 4.522 0 01-3.175-1.367 7.023 7.023 0 01-1.758-4.409c-.156-2.233 1.203-3.187 2.494-3.343a4.403 4.403 0 014.771 3.524.313.313 0 01-.268.368.317.317 0 01-.368-.262 3.786 3.786 0 00-4.06-2.987c-1.353.156-2.064 1.122-1.958 2.65a6.361 6.361 0 001.603 4.041 3.599 3.599 0 003.904.93.32.32 0 11.262.586c-.458.19-.951.282-1.447.268z" fill="#11253E"/>
  <path d="M99.05 62.423l6.381 5.245 6.848-3.81.455-15.872-13.683-.43v14.867z" fill="#fff"/>
  <path d="M105.445 67.993a.304.304 0 01-.199-.075l-6.4-5.258a.306.306 0 01-.111-.25V47.556a.33.33 0 01.093-.23.337.337 0 01.237-.088l13.683.424a.324.324 0 01.312.33l-.461 15.873a.31.31 0 01-.163.274l-6.86 3.811a.268.268 0 01-.131.044zm-6.055-5.72l6.093 4.99 6.492-3.617.443-15.373-13.029-.4v14.4z" fill="#11253E"/>
  <path d="M99.484 53.929c.125.723 4.017 5.55 12.997 6.1v-6.1c-2.145.305-4.989 1.353-7.303 1.141a18.789 18.789 0 01-5.694-1.104c-.274-.143.287.15 0-.037z" fill="#11253E"/>
  <path d="M112.478 60.365c-8.5-.517-12.691-4.926-13.227-6.186a.293.293 0 01-.125-.393c.062-.125.2-.25.499-.112a18.874 18.874 0 005.613 1.079c1.635.04 3.267-.171 4.839-.624.848-.2 1.653-.387 2.389-.493a.306.306 0 01.326.18c.018.04.028.082.029.126v6.137a.29.29 0 01-.099.224.303.303 0 01-.244.063zm-12.267-5.812c1.179 1.434 4.858 4.64 11.956 5.164v-5.438c-.624.106-1.279.261-1.984.424a16.695 16.695 0 01-5.033.66 22.928 22.928 0 01-4.939-.81z" fill="#11253E"/>
  <path d="M105.257 56.48h1.023a8.783 8.783 0 008.781-8.788V37.364c0-2.157-3.019-3.48-4.777-3.741a18.583 18.583 0 00-5.719.274c-4.64.717-8.139 2.413-8.108 7.634v6.199a8.782 8.782 0 008.8 8.75z" fill="#fff"/>
  <path d="M106.281 56.804h-1.023a9.117 9.117 0 01-9.105-9.112v-6.199c-.05-5.894 4.44-7.347 8.363-7.952a18.586 18.586 0 015.825-.274c2.089.35 5.039 1.87 5.039 4.091v10.334a9.112 9.112 0 01-9.099 9.112zm2.283-23.02c-1.32.033-2.636.167-3.936.4-5.52.854-7.858 3.037-7.82 7.309v6.205a8.476 8.476 0 008.463 8.463h1.022a8.47 8.47 0 008.445-8.469V37.364c0-1.87-2.688-3.155-4.503-3.455a10.923 10.923 0 00-1.671-.124z" fill="#11253E"/>
  <path d="M108.815 45.33c.352-.022.594-.696.54-1.503-.053-.807-.381-1.443-.733-1.42-.352.023-.594.697-.541 1.504.053.807.382 1.443.734 1.42zm-7.194-.449c.353-.024.593-.7.536-1.51-.056-.809-.388-1.445-.741-1.42-.353.025-.593.7-.536 1.51.057.81.388 1.445.741 1.42zm1.702 8.264l-.503-.046a.321.321 0 01-.177-.353.323.323 0 01.296-.263 11.129 11.129 0 007.845-2.108.331.331 0 01.45.079.322.322 0 01-.079.45 11.947 11.947 0 01-7.832 2.24z" fill="#11253E"/>
  <path d="M111.961 51.503a.278.278 0 01-.138 0c-1.596-.736-1.421-2.538-1.103-3.386a.31.31 0 01.411-.187.323.323 0 01.194.411c-.032.075-.686 1.908.773 2.582a.324.324 0 01.156.424.327.327 0 01-.293.156zm-7.534-.449a.69.69 0 01-.543-.268c-.823-1.017.044-5.482.231-6.368a.323.323 0 01.553-.077.328.328 0 01.071.208c-.431 2.077-.824 5.258-.362 5.825 1.154 0 2.027-1.366 2.033-1.378a.314.314 0 01.443-.1.326.326 0 01.106.443c-.038.069-1.073 1.715-2.532 1.715z" fill="#11253E"/>
  <path d="M152.842 94.087l-25.57-6.405s-12.816 20.219-19.221 24.322l30.609 8.825s12.642-20.194 14.182-26.742z" fill="#fff"/>
  <path d="M138.631 121.166h-.087l-30.603-8.837a.319.319 0 01-.081-.568c6.274-4.041 18.996-24.042 19.127-24.248a.303.303 0 01.337-.13l25.626 6.404a.307.307 0 01.225.375c-1.559 6.523-13.758 26.031-14.276 26.854a.29.29 0 01-.114.111.297.297 0 01-.154.039zm-29.892-9.236l29.761 8.556c1.297-2.083 12.261-19.813 13.995-26.193l-25.102-6.28c-1.366 2.151-12.399 19.283-18.654 23.917z" fill="#C9C9C8"/>
  <path d="M141.419 115.428h-.106c-8.071-2.875-20.357-7.241-21.124-7.328a.313.313 0 01-.268-.355.318.318 0 01.122-.208.32.32 0 01.233-.061c1.073.144 19.184 6.605 21.249 7.341a.317.317 0 01-.106.624v-.013zm2.495-4.122a.32.32 0 01-.107 0c-8.07-2.882-20.356-7.21-21.123-7.31a.316.316 0 01-.268-.349.318.318 0 01.355-.268c1.073.143 19.184 6.604 21.249 7.34a.32.32 0 01.205.129.319.319 0 01-.075.441.316.316 0 01-.236.054v-.037zm3.346-5.171a.314.314 0 01-.106 0c-8.07-2.9-20.356-7.228-21.129-7.303a.31.31 0 01-.148-.553.318.318 0 01.229-.064c1.079.143 19.19 6.604 21.254 7.34a.316.316 0 01-.106.624l.006-.044zm2.266-5.531h-.106c-8.07-2.882-20.356-7.204-21.117-7.31a.318.318 0 01-.209-.118.302.302 0 01-.059-.23.31.31 0 01.349-.27c1.073.144 19.184 6.605 21.248 7.341a.332.332 0 01.106.062.305.305 0 01.081.338.3.3 0 01-.293.187z" fill="#6495D3"/>
  <path d="M133.895 100.903s3.417 17.937 5.98 21.997c0 0 24.878-1.179 31.283-5.875 0 0-10.359-13.989-12.068-20.394l-25.195 4.272z" fill="#fff"/>
  <path d="M139.875 123.211a.323.323 0 01-.268-.15c-2.563-4.06-5.881-21.366-6.018-22.102a.297.297 0 01.05-.237.289.289 0 01.09-.084.316.316 0 01.116-.041l25.196-4.272a.312.312 0 01.355.225c1.671 6.274 11.912 20.15 12.012 20.287a.316.316 0 01-.063.437c-6.411 4.702-30.434 5.887-31.457 5.937h-.013zm-5.612-22.052c.461 2.369 3.473 17.462 5.781 21.416 2.258-.118 24.323-1.391 30.671-5.613-1.434-1.958-10.059-13.883-11.849-19.957l-24.603 4.154z" fill="#C9C9C8"/>
  <path d="M88.276 92.633L80.23 115.26l40.001 1.509-7.496-24.136h-24.46z" fill="#fff"/>
  <path d="M120.231 117.081l-40.001-1.509a.317.317 0 01-.244-.137.3.3 0 01-.037-.281l8.033-22.626a.311.311 0 01.293-.206h24.46a.312.312 0 01.299.218l7.484 24.136a.301.301 0 01-.05.28.3.3 0 01-.237.125zm-39.565-2.114l39.122 1.472-7.297-23.494h-24.01l-7.815 22.022z" fill="#11253E"/>
  <path d="M98.545 85.23l6.306 11.532.068.555.337 2.725-2.114-1.752-.431-.356-6.305-11.537 2.14-1.166z" fill="#11253E"/>
  <path d="M105.256 100.354a.293.293 0 01-.2-.074l-2.544-2.108a.336.336 0 01-.075-.088l-6.305-11.537a.306.306 0 01.124-.418l2.14-1.173a.312.312 0 01.237 0 .304.304 0 01.18.15l6.312 11.531a.266.266 0 010 .113l.405 3.28a.289.289 0 01-.156.306.264.264 0 01-.118.018zm-2.308-2.625l1.871 1.571-.299-2.444-6.13-11.226-1.597.873 6.155 11.226z" fill="#11253E"/>
  <path d="M95.134 83.399l1.57-.859a.624.624 0 01.847.248l2.992 5.472-2.627 1.436-2.992-5.472a.624.624 0 01.248-.846l-.038.021z" fill="#11253E"/>
  <path d="M97.893 90.008h-.088a.3.3 0 01-.187-.15l-3-5.482a.923.923 0 01.091-1.012.905.905 0 01.277-.229l1.566-.86a.93.93 0 011.247.367l2.994 5.482a.326.326 0 01.037.114.306.306 0 01-.156.304l-2.638 1.44a.286.286 0 01-.143.026zm-.898-7.235c-.05 0-.1.013-.144.038l-1.565.854a.261.261 0 00-.144.18.282.282 0 000 .225l2.844 5.208 2.089-1.141-2.844-5.208a.3.3 0 00-.236-.156z" fill="#11253E"/>
  <path d="M96.464 89.989a.312.312 0 01-.28-.162c-.07-.119-1.578-2.85-1.76-3.256-.18-.405.038-1.87.15-2.413a.325.325 0 01.636-.007.318.318 0 010 .125 7.273 7.273 0 00-.2 2.033c.144.318 1.298 2.42 1.735 3.206a.317.317 0 01-.281.474z" fill="#11253E"/>
  <path d="M74.261 80.915c-5.183-2.427-13.234-5.308-15.33 2.326a7.677 7.677 0 004.852 9.355c9.268 3.449 34.925 6.997 34.925 6.997s2.495-.43 3.387-2.045c.892-1.616 3.118.106 4.366-.973 1.247-1.08.367-3.15-.817-4.796-1.185-1.647-5.046-1.828-6.025-1.64-.98.187-3.449 1.64-3.455 1.646-2.326 1.36-7.914-3.436-9.823-4.534a197.812 197.812 0 00-11.15-5.894l-.93-.442z" fill="#fff"/>
  <path d="M98.75 99.893h-.037c-.256-.037-25.813-3.592-35.006-7.01a7.964 7.964 0 01-5.04-9.717c.624-2.232 1.784-3.742 3.468-4.534 3.58-1.652 8.732.362 12.261 2.021.331.15.655.306.96.455a191.382 191.382 0 0111.17 5.906c.437.25 1.055.686 1.772 1.192 2.289 1.608 6.112 4.303 7.764 3.336 0 0 2.495-1.472 3.543-1.678.91-.174 4.989-.05 6.311 1.76 1.647 2.276 1.927 4.165.774 5.175-.624.574-1.547.468-2.333.375-.992-.119-1.615-.156-1.977.511-.917 1.721-3.48 2.177-3.586 2.195l-.044.013zm-33.509-21.31a6.784 6.784 0 00-2.862.567c-1.529.705-2.589 2.108-3.119 4.166a7.397 7.397 0 004.678 9.024c8.943 3.33 33.602 6.804 34.837 6.98.318-.07 2.414-.531 3.119-1.872.555-1.048 1.609-.923 2.544-.81.73.087 1.422.168 1.871-.238 1.322-1.16-.324-3.673-.861-4.415-1.06-1.472-4.758-1.715-5.737-1.528a17.551 17.551 0 00-3.368 1.609c-1.965 1.147-5.675-1.46-8.382-3.362-.705-.498-1.31-.929-1.727-1.166A180.652 180.652 0 0075.1 81.651l-.954-.455c-2.545-1.223-5.95-2.614-8.906-2.614zm37.896-12.861l1.453 2.414s-.986 8.488 2.494 13.371c3.481 4.883 23.219-7.128 23.219-7.128l.624-6.71h-7.035s-9.517 12.273-13.97 9.354c-3.916-2.576-3.555-9.355-3.555-9.355l2.557-1.946-3.155-2.812-2.632 2.812z" fill="#11253E"/>
  <path d="M110.033 82.96c-1.44 0-2.582-.367-3.218-1.247-3.324-4.683-2.65-12.435-2.544-13.483l-1.397-2.32a.306.306 0 01-.044-.194.307.307 0 01.081-.18l2.626-2.813a.31.31 0 01.436 0l3.156 2.813a.319.319 0 01.106.243.32.32 0 01-.125.237l-2.438 1.87c0 .974 0 6.693 3.424 8.938 4.153 2.731 13.458-9.162 13.546-9.28a.3.3 0 01.249-.125h7.035a.322.322 0 01.23.104.321.321 0 01.082.24l-.624 6.71a.292.292 0 01-.15.23c-.698.35-13.795 8.258-20.431 8.258zm-6.511-17.181l1.335 2.208a.305.305 0 01.044.193c0 .087-.936 8.432 2.419 13.16 2.688 3.785 17.139-3.793 22.664-7.136l.624-6.236h-6.567c-1.067 1.353-9.842 12.224-14.288 9.299-4.023-2.645-3.711-9.355-3.692-9.63a.28.28 0 01.031-.126.283.283 0 01.087-.098l2.258-1.721-2.651-2.364-2.264 2.45zm4.38-3.743c-5.613 0-8.563-2.32-8.731-2.444a.32.32 0 11.399-.5c.05.032 4.471 3.474 12.623 1.872a.32.32 0 01.332.133.321.321 0 01.001.358.322.322 0 01-.202.139c-1.456.292-2.937.44-4.422.442zM83.45 80.266a.312.312 0 01-.3-.206l-3.218-8.232a.335.335 0 01.322-.452.333.333 0 01.302.215l3.218 8.239a.324.324 0 01-.187.418.357.357 0 01-.138.018z" fill="#11253E"/>
  <path d="M167.429 34.01l-3.605 12.866s15.66.187 21.111-6.549l2.046-13.315s-15.03 7.615-19.552 6.998z" fill="#fff"/>
  <path d="M163.918 47.193h-.1a.283.283 0 01-.243-.124.292.292 0 01-.056-.268l3.611-12.873a.323.323 0 01.343-.224c4.365.623 19.215-6.86 19.364-6.96a.307.307 0 01.325 0 .31.31 0 01.124.299l-2.014 13.334a.287.287 0 01-.069.143c-2.307 2.857-6.604 4.846-12.785 5.912a53.632 53.632 0 01-8.5.761zm3.742-12.847l-3.424 12.218c2.494 0 15.554-.493 20.4-6.368l1.946-12.635c-2.72 1.347-14.55 7.072-18.922 6.785z" fill="#C9C9C8"/>
  <path d="M68.032 116.738l14.856-13.914-39.94-3.218-14.393 12.741 39.477 4.391z" fill="#11253E"/>
  <path d="M68.027 117.044l-39.478-4.366a.313.313 0 01-.261-.212.305.305 0 01.093-.324L42.775 99.4a.317.317 0 01.23-.08l39.915 3.217a.333.333 0 01.268.206.324.324 0 01-.08.331l-14.856 13.913a.344.344 0 01-.225.057zm-38.748-4.927l38.667 4.29 14.244-13.333-39.11-3.15-13.8 12.193z" fill="#11253E"/>
  <path d="M68.032 116.737l-7.44-31.232-38.748-3.031 6.71 29.873 39.478 4.39z" fill="#fff"/>
  <path d="M68.025 117.043l-39.478-4.365a.322.322 0 01-.268-.244l-6.71-29.873a.335.335 0 01.068-.274.324.324 0 01.262-.106l38.748 3.03a.312.312 0 01.274.244l7.44 31.226a.313.313 0 01-.068.281.319.319 0 01-.268.081zm-39.222-4.989l38.817 4.316-7.291-30.56-38.1-2.98 6.574 29.224z" fill="#11253E"/>
  <path d="M113.19 111.767l-28.476-.717a.322.322 0 01-.119-.028.317.317 0 01-.087-.511.326.326 0 01.1-.064.335.335 0 01.118-.021l28.47.718a.31.31 0 01.221.093.304.304 0 01.085.225.316.316 0 01-.312.305zm-19.172-5.631c-4.103 0-7.247 0-7.39-.038a.317.317 0 11.112-.623c.624.056 16.976 0 25.57 0 .083 0 .162.033.221.091a.315.315 0 010 .441.31.31 0 01-.221.091c-3.586.019-12.055.038-18.292.038zm15.943-5.358h-.031l-4.702-.424a.328.328 0 01-.118-.035.321.321 0 01-.152-.186.334.334 0 01.022-.239.304.304 0 01.304-.164l4.702.425a.31.31 0 110 .623h-.025z" fill="#6495D3"/>
  <path d="M165.832 77.004s.518-14.812 8.488-22.452l21.279 6.175s-11.575 12.566-11.425 23l-18.342-6.723z" fill="#fff"/>
  <path d="M184.174 84.052a.295.295 0 01-.106 0l-18.348-6.723a.326.326 0 01-.212-.312c0-.15.624-15.03 8.588-22.67a.334.334 0 01.312-.075l21.285 6.174a.33.33 0 01.218.225.301.301 0 01-.075.306c-.112.124-11.462 12.585-11.338 22.763a.329.329 0 01-.137.268.338.338 0 01-.187.044zm-18.011-7.266l17.693 6.455c.106-5.338 3.118-11.145 5.713-15.117a65.941 65.941 0 015.45-7.241l-20.611-5.981c-7.123 6.998-8.133 19.988-8.245 21.884z" fill="#11253E"/>
  <path d="M188.877 62.804h-.088l-14.625-4.241a.319.319 0 01-.157-.496.304.304 0 01.21-.116.308.308 0 01.122.013l14.625 4.24a.316.316 0 01.268.356.315.315 0 01-.355.268v-.024zm-2.11 4.272h-.087l-14.625-4.241a.32.32 0 01-.184-.15.323.323 0 01-.028-.237.302.302 0 01.148-.188.305.305 0 01.239-.024l14.625 4.241a.314.314 0 01-.088.624v-.025zm-1.799 4.503h-.087l-14.625-4.241a.305.305 0 01-.186-.15.317.317 0 01.029-.346.3.3 0 01.21-.116.304.304 0 01.121.013l14.625 4.24a.308.308 0 01.186.15.317.317 0 01.026.237.304.304 0 01-.299.213zm-6.243 4.028a.223.223 0 01-.087 0l-10.396-3.018a.31.31 0 01-.189-.148.301.301 0 01-.023-.239.313.313 0 01.386-.212l10.397 3.019a.317.317 0 01.186.149.31.31 0 01.026.237.305.305 0 01-.3.212zm2.715-34.07h-.063c-.087 0-.299-.069-.287-.412a.28.28 0 01.081-.193c.244-1.11 1.173-6.86 1.778-10.765a.311.311 0 01.362-.262.31.31 0 01.205.127.312.312 0 01.057.235c-1.678 10.677-1.79 11.27-2.133 11.27z" fill="#6495D3"/>
  <path d="M178.319 43.127h-.063c-.093 0-.299-.062-.287-.412a.28.28 0 01.081-.193c.244-1.11 1.173-6.86 1.778-10.764a.31.31 0 01.124-.203.3.3 0 01.231-.053.31.31 0 01.262.356c-1.671 10.677-1.783 11.269-2.126 11.269zm-3.356.667h-.062c-.088 0-.3-.062-.287-.405a.308.308 0 01.081-.2c.243-1.11 1.172-6.86 1.777-10.764a.319.319 0 01.476-.214.304.304 0 01.142.314c-1.672 10.677-1.796 11.27-2.127 11.27zm-3.172 1.653h-.062c-.094 0-.3-.068-.287-.411a.27.27 0 01.081-.193c.237-1.117 1.172-6.86 1.777-10.765a.32.32 0 01.356-.262.32.32 0 01.262.356c-1.678 10.677-1.784 11.276-2.127 11.276zm-3.359.443h-.063c-.093 0-.299-.069-.286-.412a.297.297 0 01.081-.2c.237-1.11 1.172-6.86 1.777-10.757a.313.313 0 01.356-.262.317.317 0 01.262.355c-1.659 10.684-1.765 11.276-2.127 11.276z" fill="#C9C9C8"/>
  <path d="M155.045 23.744s-.175 3.317 2.738 7.758c0 0 6.199-9.554 9.978-11.02 3.78-1.466-9.972-2.869-12.716 3.262z" fill="#fff"/>
  <path d="M157.78 31.814a.32.32 0 01-.262-.144c-2.931-4.472-2.806-7.802-2.806-7.945a.367.367 0 01.031-.113c1.927-4.31 8.993-5.101 12.348-4.565 1.048.162 1.584.45 1.628.867.044.418-.624.767-.854.854-3.655 1.416-9.779 10.808-9.842 10.902a.314.314 0 01-.262.143h.019zm-2.445-8.002c0 .43.069 3.33 2.433 7.116 1.247-1.871 6.442-9.411 9.872-10.74.153-.047.296-.121.424-.218-.349-.262-2.101-.592-4.596-.361-1.933.174-6.605.947-8.133 4.203z" fill="#C9C9C8"/>
  <path d="M168.992 28.21s-4.796-8.002-13.945-4.466a68.015 68.015 0 016.661-11.5s5.045-1.759 11.793 3.891c0 0-2.189 8.438-4.509 12.074z" fill="#fff"/>
  <path d="M168.99 28.521a.324.324 0 01-.262-.156c-.194-.318-4.778-7.727-13.565-4.365a.299.299 0 01-.337-.075.302.302 0 01-.062-.337 68.863 68.863 0 016.698-11.557.312.312 0 01.15-.118c.212-.069 5.288-1.746 12.092 3.954a.309.309 0 01.095.145.31.31 0 01.005.173c-.087.343-2.226 8.526-4.546 12.161a.326.326 0 01-.268.175zm-9.436-5.987c5.282 0 8.488 3.817 9.417 5.095 1.983-3.411 3.848-10.16 4.172-11.382-5.975-4.927-10.558-3.929-11.226-3.742a70.248 70.248 0 00-6.236 10.69 12.473 12.473 0 013.873-.661z" fill="#C9C9C8"/>
  <path d="M168.155 23.825a.276.276 0 01-.1 0 .314.314 0 01-.211-.278.313.313 0 01.018-.121l2.525-7.334a.314.314 0 01.393-.194.317.317 0 01.194.4l-2.539 7.321a.312.312 0 01-.28.206zm-2.951-1.852a.28.28 0 01-.1 0 .312.312 0 01-.194-.393l2.495-7.247a.309.309 0 01.276-.246.314.314 0 01.317.19.314.314 0 01-.007.256l-2.494 7.246a.308.308 0 01-.293.194zm-3.632-.961a.3.3 0 01-.125 0 .322.322 0 01-.165-.169.322.322 0 01-.003-.236c2.875-6.891 3.081-6.916 3.293-6.947a.325.325 0 01.349.268.3.3 0 01-.118.287c-.312.442-1.965 4.278-2.944 6.63a.307.307 0 01-.287.168z" fill="#6495D3"/>
  <path d="M47.302 59.299s-12.074-1.516-15.187-6.505c-2.008-3.23 2.95-14.176 2.95-14.176s1.66 6.312 6.081 7.26c4.422.947 7.26 1.34 7.26 1.34s-3.393 8.925-1.104 12.08z" fill="#fff"/>
  <path d="M47.3 59.61h-.037c-.5-.062-12.261-1.59-15.417-6.654-2.07-3.33 2.725-14.013 2.931-14.469a.299.299 0 01.312-.18.306.306 0 01.274.23c0 .063 1.665 6.143 5.844 7.035 4.365.936 7.216 1.335 7.24 1.341a.3.3 0 01.244.156.311.311 0 010 .268c-.031.087-3.306 8.8-1.142 11.787a.324.324 0 010 .343.312.312 0 01-.249.144zm-12.286-20.1c-1.06 2.495-4.235 10.546-2.638 13.097 2.594 4.166 11.85 5.881 14.344 6.274-1.49-3.218.686-9.791 1.247-11.425-.916-.144-3.442-.55-6.904-1.291-3.598-.761-5.425-4.877-6.05-6.655z" fill="#C9C9C8"/>
  <path d="M34.023 52.401a.306.306 0 01-.306-.28c-.324-2.988 1.572-8.158 1.653-8.376a.312.312 0 01.575-.02c.035.074.039.16.01.238 0 .05-1.926 5.251-1.62 8.107a.312.312 0 01-.275.343l-.037-.012z" fill="#6495D3"/>
  <path d="M33.723 54.553S33.5 51.696 34.84 49.8l-2.676-2.875s-2.046 5.083 1.56 7.628z" fill="#fff"/>
  <path d="M33.723 54.89a.324.324 0 01-.18-.057c-3.742-2.682-1.69-7.945-1.672-7.995a.324.324 0 01.23-.194.317.317 0 01.288.094l2.675 2.875a.312.312 0 01.031.393c-1.247 1.777-1.06 4.522-1.06 4.547a.299.299 0 01-.156.293.281.281 0 01-.156.043zm-1.434-7.341c-.35 1.197-1.004 4.365 1.11 6.355a8.189 8.189 0 011.041-4.048l-2.15-2.306z" fill="#C9C9C8"/>
  <path d="M36.841 54.89a.313.313 0 01-.306-.325c0-.218.194-5.382 1.447-8.475a.305.305 0 01.406-.169.312.312 0 01.174.406c-1.21 2.987-1.403 8.207-1.403 8.263a.312.312 0 01-.318.3zm3.239.96a.318.318 0 01-.312-.306c-.069-3.448 1.403-7.783 1.465-7.964a.314.314 0 01.593.206c0 .038-1.503 4.41-1.434 7.746a.312.312 0 01-.306.318h-.006zm3.236.798a.304.304 0 01-.312-.305c-.01-1.953.155-3.902.493-5.825a.318.318 0 01.482-.198.306.306 0 01.13.322 31.87 31.87 0 00-.481 5.694.312.312 0 01-.312.312z" fill="#6495D3"/>
</svg>
