<svg xmlns="http://www.w3.org/2000/svg" fill="none" viewBox="0 0 210 155">
  <path d="M62.983 3.006H4.62v47.637h58.362V3.006z" fill="#fff"/>
  <path d="M62.995 51.148H4.623a.516.516 0 01-.506-.506V3.005a.506.506 0 01.506-.505h58.372a.506.506 0 01.506.505v47.637a.516.516 0 01-.506.506zM5.129 50.136h57.33V3.511H5.129v46.625z" fill="#C9C9C8"/>
  <path d="M62.983 3.006H4.62v7.427h58.362V3.006z" fill="#fff"/>
  <path d="M62.995 10.938H4.623a.516.516 0 01-.506-.506V3.005a.506.506 0 01.506-.505h58.372a.506.506 0 01.506.505v7.427a.516.516 0 01-.506.506zM5.129 9.926h57.33V3.511H5.129v6.415zm45.284 28.857H38.365a1.27 1.27 0 01-.62-.149c-.164-.095-.257-.223-.257-.357 0-.135.093-.263.257-.358.165-.095.388-.148.62-.148h12.048c.233 0 .456.053.62.148.165.095.257.224.257.358 0 .134-.092.262-.257.357a1.27 1.27 0 01-.62.149zm-2.919 3.105h-8.86a1.95 1.95 0 01-.782-.149c-.208-.094-.325-.223-.325-.357 0-.134.117-.263.325-.358a1.95 1.95 0 01.783-.148h8.859c.293 0 .575.053.783.148.207.095.324.224.324.358 0 .134-.117.263-.324.357a1.95 1.95 0 01-.783.149zM26.242 28.674H12.076a.506.506 0 010-1.012h14.166a.506.506 0 110 1.012zm-5.836 3.116h-8.338a.506.506 0 110-1.011h8.338a.506.506 0 110 1.011zm8.56-12.331H12.068a.506.506 0 110-1.012h16.898a.506.506 0 110 1.012zm-6.982 3.101h-9.916a.506.506 0 110-1.011h9.916a.506.506 0 010 1.011z" fill="#C9C9C8"/>
  <path fill-rule="evenodd" clip-rule="evenodd" d="M58.013 30.372H36.635a.537.537 0 01-.259 0h-.005a.665.665 0 01-.393-.132h-.002a.641.641 0 01-.261-.523V14.631c0-.328.262-.656.656-.656h21.642c.328 0 .656.262.656.656v9.346a.708.708 0 010 .27v5.468c0 .394-.262.656-.656.656zm-.656-6.043v4.797H37.734l7.227-9.774 4.233 4.999a.69.69 0 00.138.163l1.794 2.118a.597.597 0 00.787.066c.328-.197.393-.59.197-.919l-1.441-1.709 2.692-3.863 3.996 4.122zm0-1.876v-7.1h-20.33V27.73l7.344-9.886c.13-.131.328-.263.524-.263.197 0 .394.066.525.263l4.313 5.116 2.972-4.26c.13-.132.262-.263.459-.263s.393.065.524.197l3.67 3.82z" fill="#6495D3"/>
  <path d="M36.635 30.372v-.206h-.025l-.025.007.05.199zm-.259 0l.048-.2-.024-.006h-.024v.206zm-.398-.132l.123-.165-.015-.01-.016-.008-.092.183zm-.002 0l-.123.163.015.012.016.008.092-.184zm-.041-.035l.137-.152-.002-.002-.136.154zm22.734-6.227h-.205v.02l.003.02.202-.04zm0 .27l-.202-.04-.003.02v.02h.205zm-1.312 4.878v.205h.206v-.205h-.206zm0-4.797h.206v-.083l-.058-.06-.148.143zm-19.623 4.797l-.165-.122-.242.327h.407v-.205zm7.227-9.774l.157-.132-.168-.198-.154.208.165.122zm4.233 4.999l.176-.106-.009-.015-.01-.012-.157.133zm.138.163l.157-.133-.011-.012-.013-.011-.133.156zm1.794 2.118l-.157.133.005.006.007.006.145-.145zm.787.066l-.106-.177-.009.006-.009.006.124.165zm.197-.919l.176-.105-.009-.014-.01-.013-.158.133zm-1.441-1.709l-.169-.117-.09.129.102.12.157-.132zm2.692-3.863l.147-.143-.173-.178-.143.204.169.117zm3.996 2.246l-.148.142.354.369v-.51h-.206zm0-7.1h.206v-.205h-.206v.205zm-20.33 0v-.205h-.206v.205h.206zm0 12.377h-.206v.621l.37-.498-.165-.123zm7.344-9.886l-.146-.145-.01.01-.01.012.166.123zm1.049 0l-.17.114.006.01.007.008.157-.132zm4.313 5.116l-.157.133.172.204.154-.22-.169-.117zm2.972-4.26l-.145-.146-.013.013-.01.015.168.117zm.983-.066l.149-.143-.003-.003-.146.146zM36.635 30.577h21.378v-.41H36.635v.41zm-.306-.005c.127.03.247.026.356 0l-.1-.4a.332.332 0 01-.161 0l-.096.4zm.042.005h.005v-.41h-.005v.41zm-.515-.172a.87.87 0 00.515.172v-.41a.46.46 0 01-.27-.092l-.245.33zm.028.018l.003.001.183-.367-.002-.002-.184.368zm-.087-.066a.785.785 0 00.056.046l.246-.328a.362.362 0 01-.027-.022l-.275.304zm-.287-.64c0 .267.117.49.289.642l.271-.308a.436.436 0 01-.15-.335h-.41zm0-15.085v15.084h.41V14.632h-.41zm.86-.861a.863.863 0 00-.86.86h.41c0-.227.184-.45.45-.45v-.41zm21.643 0H36.371v.41h21.642v-.41zm.861.86a.863.863 0 00-.86-.86v.41c.227 0 .45.184.45.45h.41zm0 9.347v-9.346h-.41v9.346h.41zm-.407.04a.502.502 0 010 .19l.404.078a.912.912 0 000-.347l-.404.078zm.407 5.698v-5.469h-.41v5.47h.41zm-.86.861a.861.861 0 00.62-.24.86.86 0 00.24-.62h-.41c0 .15-.05.258-.12.33a.451.451 0 01-.33.12v.41zm-.451-1.451v-4.797h-.411v4.797h.41zm-19.829.205h19.623v-.41H37.734v.41zm7.062-10.1l-7.227 9.773.33.244 7.227-9.774-.33-.244zm4.555 4.987l-4.233-4.998-.314.265 4.233 4.998.314-.265zm.114.14a.463.463 0 01-.095-.113l-.352.212a.871.871 0 00.18.213l.267-.312zm1.817 2.141l-1.793-2.118-.314.266 1.794 2.118.313-.266zm.508.034a.392.392 0 01-.519-.046l-.29.29a.802.802 0 001.055.085l-.247-.329zm.143-.648c.148.247.09.507-.126.636l.211.353c.441-.265.513-.791.268-1.2l-.353.211zm-1.422-1.683l1.441 1.71.315-.265-1.441-1.71-.315.265zm2.681-4.112L50.5 23.953l.337.235 2.692-3.863-.337-.235zm4.313 4.096l-3.997-4.122-.295.287 3.997 4.121.295-.286zm.058-1.733v-7.1h-.411v7.1h.41zm-.206-7.305h-20.33v.41h20.33v-.41zm-20.536.205V27.73h.41V15.353h-.41zm.37 12.5l7.345-9.887-.33-.245-7.344 9.887.33.245zm7.325-9.864c.118-.118.265-.202.38-.202v-.41c-.28 0-.526.177-.67.322l.29.29zm.38-.202c.149 0 .27.047.353.17l.342-.227c-.18-.27-.452-.354-.696-.354v.41zm.367.19l4.313 5.116.314-.265-4.313-5.116-.314.264zm4.639 5.1l2.971-4.26-.337-.235-2.971 4.26.337.236zm2.948-4.233c.143-.143.215-.202.314-.202v-.41c-.295 0-.485.203-.605.322l.291.29zm.314-.202c.156 0 .295.053.38.137l.29-.29a.95.95 0 00-.67-.258v.411zm.376.134l3.67 3.82.295-.285-3.668-3.82-.297.285z" fill="#fff"/>
  <path d="M50.14 19.681a1.973 1.973 0 01-1.968-1.967c0-1.05.918-1.968 1.967-1.968 1.05 0 1.968.918 1.968 1.968 0 1.05-.853 1.967-1.968 1.967zm0-2.623a.657.657 0 00-.657.656c0 .393.263.656.656.721a.728.728 0 00.722-.721.626.626 0 00-.59-.722c-.066 0-.132 0-.132.066z" fill="#6495D3" stroke="#fff" stroke-width=".411"/>
  <path d="M15.03 47.565l1.582-2.517h8.917a3.223 3.223 0 003.237-3.236v-4.819a3.223 3.223 0 00-3.237-3.236H14.6a3.223 3.223 0 00-3.237 3.236v4.819c0 1.222.647 2.3 1.726 2.876v2.301c0 .504.288.935.72 1.007h.287c.431 0 .72-.144.935-.431zm10.5-12.801a2.24 2.24 0 012.229 2.23v4.818a2.24 2.24 0 01-2.23 2.229h-9.205c-.144 0-.36.072-.431.216l-1.798 2.66v-2.66c0-.216-.144-.432-.288-.504-.863-.36-1.438-1.15-1.438-2.085v-4.819a2.24 2.24 0 012.23-2.229l10.93.144z" fill="#6495D3"/>
  <path d="M119.699 8.399l74.51 14.295v86.717l-74.51-14.295V8.399z" fill="#fff"/>
  <path d="M194.203 109.684h-.049l-74.526-14.3a.272.272 0 01-.218-.267V8.4a.279.279 0 01.098-.213.298.298 0 01.224-.06l74.526 14.295a.279.279 0 01.218.273v86.717a.253.253 0 01-.098.207.257.257 0 01-.175.065zm-74.231-14.796l73.959 14.17v-86.14l-73.959-14.17v86.14z" fill="#C9C9C8"/>
  <path d="M152.675 91.863a.277.277 0 01-.267-.218c-.425-2.103-.098-4.142.272-6.055.545-2.915 1.335-6.229 3.325-8.681a7.856 7.856 0 018.648-2.66.28.28 0 01.093.054.293.293 0 01.064.086.267.267 0 01.012.21.276.276 0 01-.243.183.272.272 0 01-.105-.015 7.315 7.315 0 00-8.05 2.485c-1.907 2.355-2.654 5.592-3.21 8.442-.359 1.858-.676 3.815-.272 5.842a.272.272 0 01-.04.205.274.274 0 01-.173.117l-.054.005z" fill="#C9C9C8"/>
  <path d="M168.23 75.254a13.022 13.022 0 01-2.431-.29 19.893 19.893 0 01-4.812-1.433 15.528 15.528 0 01-7.433-8.267c-1.297-3.27-1.494-6.589-1.679-9.777a.284.284 0 01.256-.289.278.278 0 01.289.256c.185 3.15.376 6.404 1.635 9.608a14.954 14.954 0 007.161 7.973 19.262 19.262 0 004.681 1.396 9.233 9.233 0 003.232.201.278.278 0 01.319.226.28.28 0 01-.125.28.279.279 0 01-.101.04 6.06 6.06 0 01-.992.076zm-11.643-34.847a.272.272 0 01-.267-.272c0-2.572.311-5.134.927-7.63.349-1.417.866-3.003 2.022-4.028 2.011-1.782 5.182-1.395 8.256-.839.583.104 1.384.322 1.695.997a.273.273 0 01-.496.23c-.202-.447-.834-.611-1.292-.693-2.948-.545-5.994-.91-7.804.714-1.046.927-1.526 2.414-1.853 3.75a31.408 31.408 0 00-.91 7.515.27.27 0 01-.278.256zm-2.409 1.008a.279.279 0 01-.189-.091.273.273 0 01-.068-.198v-.065c.262-4.905.654-12.35-5.368-14.857a18.64 18.64 0 00-4.975-1.09.271.271 0 01-.183-.102.268.268 0 01-.057-.203.27.27 0 01.198-.232.276.276 0 01.107-.007 18.87 18.87 0 015.117 1.122c6.377 2.66 5.995 10.322 5.706 15.39v.05a.266.266 0 01-.081.205.271.271 0 01-.207.078z" fill="#C9C9C8"/>
  <path d="M178.917 64.583l-41.468-7.952V33.895l41.468 7.956v22.732z" fill="#fff"/>
  <path d="M178.916 64.853h-.049l-41.468-7.951a.278.278 0 01-.223-.273V33.893a.266.266 0 01.098-.207.286.286 0 01.229-.06l41.462 7.956a.27.27 0 01.223.267v22.715a.277.277 0 01-.098.213.281.281 0 01-.174.076zm-41.195-8.464l40.922 7.854v-22.17l-40.922-7.848v22.164z" fill="#C9C9C8"/>
  <path d="M171.362 48.112l-26.36-5.057a2.291 2.291 0 01-1.809-2.18 1.452 1.452 0 01.538-1.185 1.445 1.445 0 011.271-.276l26.36 5.058a2.292 2.292 0 011.815 2.18 1.455 1.455 0 01-1.815 1.46z" fill="#fff"/>
  <path d="M171.714 48.422a2.031 2.031 0 01-.398-.043l-26.36-5.069a2.585 2.585 0 01-2.033-2.425 1.748 1.748 0 01.616-1.39 1.814 1.814 0 011.515-.354l26.35 5.085a2.59 2.59 0 012.032 2.425 1.758 1.758 0 01-.621 1.379c-.31.254-.7.393-1.101.392zm-.294-.578a1.27 1.27 0 001.09-.234 1.223 1.223 0 00.419-.96 2.013 2.013 0 00-1.591-1.891l-26.361-5.057a1.257 1.257 0 00-1.09.235 1.204 1.204 0 00-.419.959 2.007 2.007 0 001.586 1.87l26.366 5.078z" fill="#6495D3"/>
  <path d="M171.363 53.58l-26.361-5.058a2.289 2.289 0 01-1.809-2.18 1.445 1.445 0 011.139-1.478 1.45 1.45 0 01.67.013l26.361 5.062a2.293 2.293 0 011.815 2.18 1.455 1.455 0 01-1.815 1.46z" fill="#fff"/>
  <path d="M171.714 53.883c-.134 0-.267-.013-.398-.039l-26.361-5.057a2.586 2.586 0 01-2.032-2.425 1.74 1.74 0 01.615-1.379 1.797 1.797 0 011.515-.354l26.35 5.057a2.6 2.6 0 012.033 2.43 1.773 1.773 0 01-.621 1.38c-.311.252-.7.39-1.101.387zm-.294-.573a1.27 1.27 0 001.089-.234 1.242 1.242 0 00.42-.96 2.007 2.007 0 00-1.591-1.89l-26.361-5.058a1.257 1.257 0 00-1.09.235 1.219 1.219 0 00-.419.959 2.007 2.007 0 001.585 1.891l26.367 5.057z" fill="#6495D3"/>
  <path d="M171.363 59.046l-26.361-5.057a2.294 2.294 0 01-1.809-2.18 1.445 1.445 0 011.139-1.479c.221-.048.451-.044.67.013l26.361 5.057a2.305 2.305 0 011.815 2.18 1.462 1.462 0 01-1.145 1.478 1.454 1.454 0 01-.67-.012z" fill="#fff"/>
  <path d="M171.714 59.349c-.134 0-.267-.012-.398-.038l-26.361-5.058a2.586 2.586 0 01-2.032-2.425 1.74 1.74 0 01.615-1.379 1.797 1.797 0 011.515-.354l26.35 5.058a2.595 2.595 0 012.033 2.425 1.745 1.745 0 01-.621 1.378c-.31.257-.699.396-1.101.393zm-.294-.572a1.267 1.267 0 001.089-.24 1.21 1.21 0 00.42-.96 2.023 2.023 0 00-1.591-1.89l-26.361-5.058a1.259 1.259 0 00-1.09.24 1.203 1.203 0 00-.419.96 2.013 2.013 0 001.585 1.89l26.367 5.058z" fill="#6495D3"/>
  <path d="M188.294 83.1l-24.415-4.682V66.385l24.415 4.687V83.1z" fill="#fff"/>
  <path d="M188.297 83.373h-.055l-24.409-4.681a.266.266 0 01-.224-.267V66.386a.267.267 0 01.098-.207.266.266 0 01.224-.06l24.415 4.687a.267.267 0 01.223.267v12.022a.277.277 0 01-.098.213.292.292 0 01-.174.065zm-24.143-5.183l23.87 4.578V71.296l-23.87-4.55V78.19z" fill="#C9C9C8"/>
  <path d="M143.563 31.026l-17.958-3.444v-9.913l17.958 3.444v9.913z" fill="#fff"/>
  <path d="M143.562 31.32h-.055l-17.952-3.444a.266.266 0 01-.223-.267v-9.913a.259.259 0 01.104-.207.252.252 0 01.223-.06l17.946 3.417a.273.273 0 01.224.267v9.913a.273.273 0 01-.273.273l.006.022zm-17.685-3.94l17.412 3.341v-9.379l-17.412-3.34v9.378z" fill="#C9C9C8"/>
  <path d="M173.642 78.19h-.06l-7.28-1.394a.27.27 0 01-.224-.267v-7.27a.283.283 0 01.104-.213.27.27 0 01.223-.055l7.281 1.396a.268.268 0 01.218.267v7.28a.279.279 0 01-.098.213.284.284 0 01-.164.044zm-7.008-1.896l6.736 1.292v-6.709l-6.736-1.291v6.708z" fill="#6495D3"/>
  <path d="M171.272 74.304c.637-.579.586-1.673-.115-2.444-.7-.77-1.784-.926-2.421-.347-.638.579-.586 1.673.114 2.444.7.77 1.785.926 2.422.347z" fill="#fff"/>
  <path d="M170.309 74.921c-.128 0-.255-.011-.381-.033a2.465 2.465 0 01-1.935-2.316 1.644 1.644 0 01.589-1.313 1.72 1.72 0 011.449-.338 2.462 2.462 0 011.935 2.31 1.678 1.678 0 01-.589 1.32 1.66 1.66 0 01-1.068.37zm-.659-3.493a1.088 1.088 0 00-1.09 1.144 1.898 1.898 0 001.493 1.777 1.166 1.166 0 00.997-.218 1.148 1.148 0 00.393-.9 1.903 1.903 0 00-1.493-1.776 1.6 1.6 0 00-.278-.022l-.022-.005z" fill="#6495D3"/>
  <path d="M168.978 74.425l2.054.398a3.31 3.31 0 012.611 3.112l-7.281-1.379a2.088 2.088 0 01.77-1.725 2.101 2.101 0 011.846-.406z" fill="#fff"/>
  <path d="M173.639 78.19h-.06l-7.28-1.395a.269.269 0 01-.16-.093.27.27 0 01-.064-.174 2.395 2.395 0 01.85-1.897 2.49 2.49 0 012.088-.485l2.054.398a3.598 3.598 0 012.834 3.38.28.28 0 01-.098.212.286.286 0 01-.164.054zm-6.997-1.89l6.703 1.285a3.06 3.06 0 00-2.365-2.512l-2.06-.398a1.924 1.924 0 00-1.635.37 1.828 1.828 0 00-.643 1.27V76.3z" fill="#6495D3"/>
  <path d="M141.367 28.982h-.055l-13.76-2.638a.28.28 0 01-.224-.272v-6.366a.294.294 0 01.098-.212.274.274 0 01.224-.055l13.777 2.616a.275.275 0 01.16.093c.04.05.063.11.063.174v6.387a.277.277 0 01-.098.213.292.292 0 01-.185.06zm-13.494-3.112l13.221 2.534V22.6l-13.221-2.54v5.81z" fill="#C9C9C8"/>
  <path d="M127.6 26.343a.266.266 0 01-.261-.197.276.276 0 01.024-.209.285.285 0 01.07-.08.284.284 0 01.096-.049l13.767-3.722a.272.272 0 01.332.191.273.273 0 01-.031.206.273.273 0 01-.171.121l-13.766 3.728-.06.01z" fill="#C9C9C8"/>
  <path d="M141.367 28.984a.274.274 0 01-.147-.043l-13.766-9.009a.27.27 0 01-.154-.287.28.28 0 01.123-.19.272.272 0 01.325.025l13.767 9.003a.273.273 0 01-.148.501z" fill="#C9C9C8"/>
  <path d="M185.494 38.526l-18.818-3.608V20.416l18.818 3.608v14.502z" fill="#fff"/>
  <path d="M185.493 38.799h-.049l-18.818-3.608a.267.267 0 01-.224-.267V20.422a.277.277 0 01.209-.265.267.267 0 01.118-.002l18.84 3.602a.273.273 0 01.218.267v14.502a.277.277 0 01-.098.213.282.282 0 01-.196.06zm-18.529-4.104l18.273 3.504V24.237l-18.273-3.51v13.968z" fill="#C9C9C8"/>
  <path d="M180.755 34.858l-9.352-1.787a1.907 1.907 0 01-1.504-1.793 1.2 1.2 0 01.95-1.22c.183-.04.373-.037.554.01l9.352 1.799a1.9 1.9 0 011.499 1.793 1.198 1.198 0 01-1.499 1.199z" fill="#fff"/>
  <path d="M181.037 35.137c-.113 0-.226-.011-.338-.032l-9.297-1.766a2.18 2.18 0 01-1.722-2.06 1.479 1.479 0 011.157-1.474 1.53 1.53 0 01.68-.003l9.33 1.788a2.18 2.18 0 011.722 2.06 1.449 1.449 0 01-.441 1.078 1.456 1.456 0 01-1.091.41zm-9.896-4.845a.904.904 0 00-.943.965 1.63 1.63 0 001.275 1.526l9.33 1.81a.995.995 0 00.845-.186.954.954 0 00.332-.757 1.63 1.63 0 00-1.281-1.526l-9.297-1.788a1.175 1.175 0 00-.261-.022v-.022z" fill="#6495D3"/>
  <path d="M184.629 73.798h-.049l-7.439-1.428a.263.263 0 01-.213-.316.274.274 0 01.316-.218l7.434 1.45a.274.274 0 01-.049.545v-.033zm0 2.877h-.049l-7.439-1.428a.265.265 0 01-.175-.112.267.267 0 01-.038-.204.273.273 0 01.316-.218l7.434 1.428a.274.274 0 01-.049.545v-.01zm0 2.878h-.049l-7.439-1.428a.263.263 0 01-.213-.316.274.274 0 01.316-.218l7.434 1.428a.274.274 0 01-.049.545v-.011z" fill="#C9C9C8"/>
  <path d="M180.881 26.22h-.055l-9.591-1.841a.257.257 0 01-.175-.113.267.267 0 01-.038-.204.272.272 0 01.316-.218l9.592 1.842a.272.272 0 01.218.317.278.278 0 01-.267.218z" fill="#6495D3"/>
  <path d="M161.536 98.898l-14.458-2.774V81.203l14.458 2.774v14.921z" fill="#fff"/>
  <path d="M161.535 99.172h-.054L147.028 96.4a.27.27 0 01-.223-.267v-14.93a.267.267 0 01.098-.207.26.26 0 01.223-.06l14.464 2.774a.272.272 0 01.223.267V98.9a.272.272 0 01-.272.272h-.006zm-14.169-3.27l13.913 2.67V84.187l-13.913-2.67v14.386z" fill="#C9C9C8"/>
  <path d="M159.084 87.727h-.049l-9.559-1.832a.27.27 0 01-.173-.116.27.27 0 01-.04-.205.269.269 0 01.316-.213l9.554 1.831a.272.272 0 01.218.317.278.278 0 01-.267.218zm0 3.541h-.049l-9.559-1.831a.27.27 0 01-.173-.117.27.27 0 01-.04-.205.268.268 0 01.316-.212l9.554 1.82a.272.272 0 01.218.316.276.276 0 01-.267.229zm-2.802 2.951h-.049l-6.757-1.314a.276.276 0 01-.221-.324.277.277 0 01.324-.22l6.758 1.296a.268.268 0 01.212.322.266.266 0 01-.267.24z" fill="#6495D3"/>
  <path d="M159.083 20.782h-.049l-6.163-1.194a.27.27 0 01-.218-.316.276.276 0 01.321-.218l6.175 1.189a.272.272 0 01-.066.539zm.004 2.304h-.049l-6.164-1.188a.27.27 0 01-.177-.116.28.28 0 01-.044-.208.282.282 0 01.216-.22.282.282 0 01.109-.001l6.174 1.188a.272.272 0 01.218.316.28.28 0 01-.283.23z" fill="#C9C9C8"/>
  <path d="M85.254 62.946s20.46 4.688 24.25 3.93c5.09-1.021 10.18-4.448 14.697-6.877 4.703-2.537 9.283-5.237 13.978-7.851 2.754-1.547 5.554-3.04 8.331-4.564.287-.178.604-.304.936-.371a2.13 2.13 0 01.82.093 2.479 2.479 0 011.678 1.47c.418 1.23-.773 2.32-1.601 3.093a161.253 161.253 0 01-7.472 6.529l4.378-.364a.543.543 0 01.333 0c.301.155.154.611-.055.867a7.247 7.247 0 01-2.924 1.84c-3.496 1.447-6.304 2.375-9.282 4.588-2.661 1.949-5.368 3.867-8.137 5.623-4.286 2.762-11.209 7.975-16.693 7.055l-25.526-4.301" fill="#fff"/>
  <path d="M109.739 78.502a8.51 8.51 0 01-1.408-.116l-25.526-4.293.131-.774 25.526 4.293c4.68.774 10.505-3.094 14.759-5.902l1.656-1.09c2.583-1.656 5.236-3.489 8.122-5.608a32.005 32.005 0 017.688-3.938l1.718-.696a6.967 6.967 0 002.769-1.732.613.613 0 00.139-.294h-.085l-4.378.371a.388.388 0 01-.413-.484.394.394 0 01.134-.204 157.167 157.167 0 007.457-6.513l.077-.07c.735-.689 1.749-1.624 1.416-2.584a2.07 2.07 0 00-1.423-1.222 1.431 1.431 0 00-.65-.077 2.622 2.622 0 00-.774.325l-2.653 1.446a763.65 763.65 0 00-5.677 3.094l-4.703 2.669a508.343 508.343 0 01-9.283 5.19c-.967.526-1.957 1.09-2.978 1.671-3.805 2.181-7.735 4.432-11.804 5.245-3.821.773-23.577-3.737-24.412-3.93a.396.396 0 11.17-.774c.209.047 20.413 4.642 24.095 3.93 3.922-.773 7.813-3.009 11.603-5.16 1.021-.58 2.019-1.152 2.986-1.678 3.094-1.678 6.242-3.458 9.282-5.183l4.703-2.668c1.888-1.032 3.783-2.063 5.686-3.094l2.653-1.44a3.027 3.027 0 011.075-.417c.328-.036.661-.002.975.1a2.837 2.837 0 011.933 1.718c.488 1.431-.773 2.614-1.624 3.396l-.077.07c-2.112 1.972-4.309 3.867-6.544 5.762l3.156-.263a.888.888 0 01.541.078.663.663 0 01.364.48 1.266 1.266 0 01-.302.974 7.586 7.586 0 01-3.094 1.949l-1.725.704a31.824 31.824 0 00-7.519 3.867 160.658 160.658 0 01-8.153 5.647c-.518.325-1.067.696-1.655 1.083-4.007 2.63-9.29 6.142-13.954 6.142z" fill="#11253E"/>
  <g clip-path="url(#p7Aa22O9ua)">
    <path d="M39.513 74.618h0c7.698-5.6 18.33-7.009 29.66-7.38 11.142-.365 20.805 6.754 25.144 17.013l.368-.156-.368.156c2.154 5.09 3.54 10.353 4.93 15.626.394 1.494.788 2.988 1.199 4.479 1.861 6.742 4.077 13.399 8.274 19.508h0l.005.008a37.514 37.514 0 009.595 9.26c2.936 2.136 5.556 4.546 6.02 8.231.885 7.078 1.042 13.63-1.15 18.646-2.17 4.964-6.68 8.498-15.345 9.465-17.533 1.956-38.239 2.861-55.435-1.129v-.001c-5.816-1.337-10.484-2.768-14.019-5.328-3.513-2.544-5.94-6.229-7.207-12.156l-.569-2.651c-2.444-11.372-4.837-22.504-4.551-34.138h0c.158-6.689.62-14.453 2.5-21.604 1.882-7.152 5.17-13.646 10.95-17.849z" fill="#fff" stroke="#000" stroke-width=".8"/>
  </g>
  <path d="M70.104 140.764a55.823 55.823 0 01-6.266-.364 59.54 59.54 0 01-11.757-2.552c-5.222-1.694-8.726-3.62-11.363-6.25-4.007-4.007-5.531-9.406-6.111-13.235-1.338-8.842 0-18.611.974-23.639a23.979 23.979 0 0111.773-16.561c4.232-2.468 9.283-4.053 15.417-4.858 6.443-.843 11.084-.155 14.604 2.174 5.74 3.79 7.371 11.077 8.555 18.216l2.003 12.121c.488 3.009 1.168 7.14 3.535 9.089a14.489 14.489 0 002.685 1.609c1.655.843 3.364 1.71 4.324 3.605 1.19 2.32 1.694 6.296.471 8.872-1.345 2.847-4.1 4.718-6.056 5.879a44.298 44.298 0 01-22.788 5.894zm-2.475-67.026c-1.6.008-3.196.12-4.78.333-6.042.773-10.993 2.32-15.131 4.757a23.267 23.267 0 00-11.379 16.035c-.928 4.99-2.32 14.651-.966 23.384.556 3.713 2.034 8.942 5.894 12.802 2.545 2.537 5.948 4.409 11.053 6.064a58.648 58.648 0 0011.603 2.522c10.667 1.206 20.537-.681 28.551-5.415 1.864-1.106 4.494-2.893 5.755-5.546 1.122-2.359.642-6.01-.464-8.184-.851-1.671-2.375-2.444-3.984-3.272a15.11 15.11 0 01-2.823-1.702c-2.6-2.135-3.303-6.428-3.814-9.56l-2.003-12.114c-1.153-6.962-2.738-14.086-8.215-17.706-2.429-1.617-5.445-2.398-9.297-2.398z" fill="#C9C9C8"/>
  <path d="M41.164 128.465a.381.381 0 01-.356-.24.373.373 0 01-.002-.295.372.372 0 01.211-.207c5.051-2.089 8.416-1.602 8.555-1.547a.39.39 0 11-.116.773s-3.31-.472-8.145 1.547a.325.325 0 01-.147-.031z" fill="#C9C9C8"/>
  <path d="M71.939 60.175s-18.047-.974-21.272 3.543c-3.481 4.873-3.226 6.769-7.937 18.016 1.548 15.547 10.776 37.252 10.776 37.252l38.885-8.029s-1.509-41.91-4.928-47.726c-3.419-5.817-15.524-3.056-15.524-3.056z" fill="#FEBE10"/>
  <path d="M65.574 63.35l10.9 57.087 11.161-.217-8.184-56.235-13.877-.634z" fill="#11253E"/>
  <path d="M76.47 120.821a.39.39 0 01-.38-.317L65.191 63.418a.378.378 0 01.085-.325.363.363 0 01.31-.132l13.923.635a.387.387 0 01.364.332l8.176 56.235a.385.385 0 01-.371.441l-11.162.217h-.047zm-10.428-57.07l10.745 56.289 10.396-.202-8.068-55.484-13.073-.604z" fill="#11253E"/>
  <path d="M61.906 24.47a13.15 13.15 0 00-15.424 2.405c-2.962 3.095-4.154 7.875-2.575 11.835a10.133 10.133 0 0010.21 6.088c4.115-.34 7.96-4.417 9.708-7.913 2.096-4.224 3.163-9.832-1.919-12.415z" fill="#fff"/>
  <path d="M53.262 45.22a10.427 10.427 0 01-9.724-6.359A11.889 11.889 0 0146.2 26.61a13.475 13.475 0 0115.85-2.476c2.05 1.037 6.358 4.386 2.088 12.926-1.833 3.666-5.747 7.774-10.056 8.122a8.846 8.846 0 01-.82.038zm2.475-21.852a12.443 12.443 0 00-8.98 3.782 11.084 11.084 0 00-2.5 11.425 9.715 9.715 0 009.825 5.84c3.797-.31 7.603-4.107 9.398-7.735 1.315-2.638 3.782-9.081-1.748-11.89a13.265 13.265 0 00-5.995-1.422z" fill="#11253E"/>
  <path d="M54.581 32.346a11.604 11.604 0 00-2.32 11.069 4.641 4.641 0 001.779 2.622c1.748 1.068 4.03 0 5.577-1.346a21.744 21.744 0 005.608-8.246c.913-2.22 2.081-7.116-1.276-7.835-3.357-.72-7.31 1.4-9.367 3.736z" fill="#11253E"/>
  <path d="M55.629 46.864a3.374 3.374 0 01-1.803-.495 4.874 4.874 0 01-1.949-2.831 11.983 11.983 0 012.437-11.449c2.158-2.42 6.304-4.594 9.723-3.867a2.946 2.946 0 012.073 1.547c1.253 2.382-.333 6.39-.518 6.838a22.062 22.062 0 01-5.709 8.392 6.962 6.962 0 01-4.254 1.865zm6.961-17.992c-2.784 0-5.979 1.755-7.735 3.743a11.162 11.162 0 00-2.259 10.683 4.13 4.13 0 001.617 2.413c1.547.96 3.674-.046 5.129-1.307a21.117 21.117 0 005.492-8.099c.626-1.5 1.43-4.502.549-6.188a2.15 2.15 0 00-1.547-1.13 5.809 5.809 0 00-1.215-.123l-.03.008z" fill="#11253E"/>
  <path d="M74.426 55.444a27.726 27.726 0 01-1.965 2.212 10.628 10.628 0 01-10.133 1.586c-8.045-2.87-9.035-11.703-8.44-19.067.248-2.994 1.548-9.352 5.91-6.846-1.268-.773 3.094-4.316 3.729-4.641 4.741-2.707 10.45-.534 13.923 3.195a39.949 39.949 0 015.368 6.907c1.547 2.77.82 6.962-.495 9.654a12.949 12.949 0 01-4.594 5.151c-.913.588-2.143.867-2.963 1.547a4.467 4.467 0 00-.34.302z" fill="#fff"/>
  <path d="M65.972 60.271a11.315 11.315 0 01-3.775-.642c-6.63-2.367-9.553-8.895-8.656-19.461.116-1.424.68-6.189 3.156-7.457a2.978 2.978 0 012.56-.062c.426-1.547 3.698-4.076 4.116-4.316 5.081-2.901 11.03-.34 14.395 3.272a39.506 39.506 0 015.414 6.961c1.61 2.886.874 7.21-.487 10.017a13.297 13.297 0 01-4.734 5.307 9.82 9.82 0 01-1.369.68 6.06 6.06 0 00-1.547.844 3.63 3.63 0 00-.317.286c-.255.27-.495.565-.774.882a8.22 8.22 0 01-1.245 1.353 10.636 10.636 0 01-6.737 2.336zm-8.014-27.073a1.964 1.964 0 00-.936.224c-1.686.882-2.53 4.24-2.746 6.838-.828 10.157 1.926 16.438 8.184 18.666a10.22 10.22 0 009.77-1.548 8.299 8.299 0 001.129-1.237c.24-.328.499-.643.773-.944.116-.116.24-.232.371-.34a6.852 6.852 0 011.749-.96 8.593 8.593 0 001.253-.618 12.477 12.477 0 004.455-4.997c1.277-2.63 1.98-6.652.503-9.282a38.36 38.36 0 00-5.29-6.83C74 28.773 68.446 26.344 63.72 29.074c-.65.372-3.767 3.048-3.767 3.945h.054a.387.387 0 11-.387.665 3.349 3.349 0 00-1.663-.518v.031z" fill="#11253E"/>
  <path d="M77.784 37.815s3.814 6.034 3.783 11.263a7.495 7.495 0 01-4.347 6.961l1.964 8.819s1.045 4.501-4.64 5.035a9.732 9.732 0 01-8.626-3.829L61.664 49.96s5.461-5.005 3.62-10.706c0 .03 8.246 1.98 12.5-1.439z" fill="#fff"/>
  <path d="M73.578 70.31a10.056 10.056 0 01-7.99-4.03.317.317 0 01-.055-.116L61.28 50.083a.371.371 0 01.116-.38c.046-.046 5.252-4.903 3.511-10.295a.387.387 0 01.078-.387.387.387 0 01.379-.108c.077 0 8.114 1.857 12.167-1.4a.385.385 0 01.302-.085.395.395 0 01.263.178c.162.247 3.868 6.188 3.868 11.479a7.944 7.944 0 01-4.293 7.155l1.903 8.509a4.64 4.64 0 01-.704 3.473c-.836 1.16-2.275 1.84-4.278 2.034a9.279 9.279 0 01-1.013.054zm-7.318-4.409a9.452 9.452 0 008.254 3.59c1.763-.163 3.016-.774 3.713-1.71.557-.84.766-1.864.58-2.854l-1.965-8.78a.402.402 0 01.24-.448 7.04 7.04 0 004.1-6.583c0-4.347-2.708-9.329-3.505-10.698-3.744 2.653-9.862 1.787-11.85 1.416 1.222 5.09-2.816 9.413-3.728 10.31l4.161 15.757z" fill="#11253E"/>
  <path d="M64.465 48.165s-4.092-5.515-6.297-.967c-2.204 4.548 3.21 7.735 5.848 6.807" fill="#fff"/>
  <path d="M62.957 54.602a6.25 6.25 0 01-4.394-2.058 4.695 4.695 0 01-.773-5.476c.603-1.238 1.4-1.911 2.382-2.004 2.228-.209 4.479 2.785 4.572 2.909a.386.386 0 11-.62.464c-.572-.774-2.39-2.746-3.867-2.6-.696.063-1.292.588-1.764 1.548a3.953 3.953 0 00.62 4.64c1.276 1.409 3.403 2.151 4.749 1.656a.387.387 0 01.263.727c-.376.13-.77.196-1.168.194zm12.56-4.038h-.232a.387.387 0 010-.774 4.64 4.64 0 002.545-.55c.046-.394-1.594-2.227-3.528-3.867a.39.39 0 01.503-.595c.89.773 3.775 3.31 3.775 4.494a.696.696 0 01-.248.557 4.913 4.913 0 01-2.815.735z" fill="#11253E"/>
  <path d="M74.241 53.757h-.077a6.582 6.582 0 01-4.378-1.725.386.386 0 01.085-.541.371.371 0 01.533.077 6.126 6.126 0 003.814 1.415h.054c1.81 0 3.458-.959 4.904-2.8a.39.39 0 01.611.48c-1.601 2.05-3.473 3.094-5.546 3.094zm2.981 2.268s-4.579 1.64-7.44 1.547c0 0 4.509 6.289 8.972 5.252l-1.532-6.8z" fill="#11253E"/>
  <path d="M77.729 63.334c-4.247 0-8.091-5.283-8.261-5.53a.394.394 0 010-.41.424.424 0 01.355-.202c2.746.077 7.248-1.547 7.295-1.547a.386.386 0 01.51.278l1.547 6.807a.387.387 0 01-.286.465c-.38.091-.77.138-1.16.139zm-7.163-5.415c1.191 1.454 4.463 5.013 7.735 4.572l-1.346-5.995a27.94 27.94 0 01-6.397 1.454l.008-.03zm1.074-11.882c.378-.106.534-.73.348-1.391-.186-.663-.643-1.113-1.022-1.007-.378.106-.534.73-.348 1.391.186.663.643 1.113 1.022 1.007zm6.304-1.777c.379-.107.535-.73.349-1.392-.186-.662-.644-1.113-1.022-1.007-.378.107-.534.73-.349 1.392.186.662.644 1.113 1.022 1.006z" fill="#11253E"/>
  <path d="M82.492 59.982l17.428 4.053-.673 14.798H84.27l-1.779-18.85z" fill="#FEBE10"/>
  <path d="M90.67 83.022a.387.387 0 01-.379-.333L87.84 65.223a.39.39 0 01.774-.1l2.452 17.458a.38.38 0 01-.333.433l-.062.008zM56.037 84.66a.363.363 0 01-.131 0 .378.378 0 01-.232-.495l3.604-10.056a.386.386 0 01.72-.038.388.388 0 01.007.3l-3.604 10.057a.387.387 0 01-.364.232z" fill="#11253E"/>
  <path d="M44.206 78.023s-13.188 29.704-6.962 36.487c6.227 6.784 39.45-6.482 39.45-6.482 5.693-1.137 11.827-3.14 13.428-9.553.202-.82.217-1.864-.495-2.32a2.096 2.096 0 00-1.253-.217 13.925 13.925 0 00-4.192.874l.038-2.583c-3.156 2.66-6.876 5.6-10.999 6.304-2.715.456-5.577.503-8.323.719-4.786.382-9.574.73-14.364 1.045 0 0 3.163-11.495 5.468-18.023" fill="#fff"/>
  <path d="M43.984 116.816c-3.094 0-5.647-.573-6.962-2.042-6.358-6.892 6.32-35.69 6.869-36.913a.387.387 0 01.704.317c-.132.294-13.018 29.549-7.008 36.07 2.452 2.661 9.955 2.382 21.658-.774a182.785 182.785 0 0017.35-5.778c5.701-1.137 11.658-3.094 13.197-9.282.085-.34.317-1.485-.325-1.895a1.702 1.702 0 00-1.021-.155 13.39 13.39 0 00-4.076.85c-.06.024-.125.032-.188.024a.395.395 0 01-.338-.395v-1.74c-3.095 2.56-6.622 5.183-10.536 5.848a54.603 54.603 0 01-5.933.565c-.812.054-1.617.1-2.42.162-4.441.348-9.144.688-14.373 1.044a.38.38 0 01-.403-.304.41.41 0 010-.183c0-.116 3.203-11.603 5.485-18.046a.387.387 0 01.487-.24.394.394 0 01.24.495c-1.995 5.647-4.641 15.145-5.314 17.466 5.005-.34 9.538-.665 13.815-1.006.774-.061 1.625-.108 2.437-.154a54.713 54.713 0 005.855-.565c4-.68 7.674-3.566 10.83-6.188a.41.41 0 01.417-.054.402.402 0 01.225.356v2.034c1.22-.41 2.49-.65 3.774-.712a2.467 2.467 0 011.486.279c.734.464.974 1.462.657 2.738-1.64 6.59-7.859 8.671-13.722 9.839-1.068.341-21.241 8.339-32.867 8.339z" fill="#11253E"/>
  <path d="M23.736 102.686h128.29l20.588 30.404H3.148l20.588-30.404z" fill="#fff"/>
  <path d="M172.617 133.409H3.152a.298.298 0 01-.161-.047.317.317 0 01-.114-.125.32.32 0 010-.326l20.62-30.404a.308.308 0 01.255-.141H152.03a.307.307 0 01.257.141l20.575 30.404a.32.32 0 010 .326.302.302 0 01-.244.172zM3.752 132.77h168.266l-20.151-29.765H23.902L3.752 132.77z" fill="#11253E"/>
  <path d="M172.613 133.089H3.348v5.902h169.265v-5.902z" fill="#fff"/>
  <path d="M172.616 139.312H3.344a.309.309 0 01-.221-.094.323.323 0 01-.092-.226v-5.902a.33.33 0 01.094-.224.315.315 0 01.219-.095h169.272a.314.314 0 01.219.095c.058.06.091.14.093.224v5.902a.325.325 0 01-.091.226.31.31 0 01-.221.094zm-168.96-.639h168.647v-5.263H3.656v5.263z" fill="#11253E"/>
  <path d="M168.979 138.992H6.992v5.901H168.98v-5.901z" fill="#11253E"/>
  <path d="M168.975 145.214H6.988a.309.309 0 01-.22-.094.323.323 0 01-.092-.226v-5.902c0-.085.033-.166.091-.226a.309.309 0 01.221-.094h161.987a.31.31 0 01.221.094c.058.06.091.141.091.226v5.902a.329.329 0 01-.093.224.315.315 0 01-.219.096zm-161.693-.64h161.38v-5.262H7.282v5.262z" fill="#11253E"/>
  <path d="M78.168 116.906l10.05-32.518h46.839l-11.199 32.518h-45.69z" fill="#fff"/>
  <path d="M123.857 117.411h-45.69a.515.515 0 01-.5-.418.495.495 0 01.017-.237l10.07-32.517a.503.503 0 01.484-.353h46.838a.492.492 0 01.403.212.504.504 0 01.07.463l-11.198 32.508a.518.518 0 01-.494.342zm-45.005-1.007h44.643l10.856-31.51h-45.76l-9.74 31.51z" fill="#11253E"/>
  <path d="M44.202 78.023s-13.188 29.704-6.961 36.487c6.227 6.784 39.45-6.482 39.45-6.482 5.692-1.137 11.826-3.14 13.428-9.553.2-.82.216-1.864-.495-2.32a2.096 2.096 0 00-1.254-.217 13.925 13.925 0 00-4.192.874l.039-2.583c-3.156 2.66-6.877 5.6-11 6.304-2.715.456-5.577.503-8.323.719-4.786.382-9.574.73-14.364 1.045 0 0 3.163-11.495 5.468-18.023" fill="#fff"/>
  <path d="M43.98 116.816c-3.094 0-5.647-.573-6.962-2.042-6.358-6.892 6.32-35.69 6.87-36.913a.387.387 0 01.703.317c-.132.294-13.018 29.549-7.008 36.07 2.452 2.661 9.955 2.382 21.659-.774a182.785 182.785 0 0017.35-5.778c5.7-1.137 11.657-3.094 13.196-9.282.085-.34.317-1.485-.325-1.895a1.702 1.702 0 00-1.021-.155 13.39 13.39 0 00-4.076.85c-.06.024-.125.032-.188.024a.395.395 0 01-.338-.395v-1.74c-3.094 2.56-6.622 5.183-10.536 5.848a54.603 54.603 0 01-5.933.565c-.812.054-1.616.1-2.42.162-4.44.348-9.144.688-14.373 1.044a.381.381 0 01-.325-.139.41.41 0 01-.077-.348c0-.116 3.202-11.603 5.484-18.046a.387.387 0 01.488-.24.394.394 0 01.24.495c-1.996 5.647-4.642 15.145-5.315 17.466 5.005-.34 9.538-.665 13.815-1.006.774-.061 1.625-.108 2.437-.154a54.713 54.713 0 005.855-.565c4-.68 7.674-3.566 10.83-6.188a.41.41 0 01.417-.054.402.402 0 01.225.356v2.034c1.22-.41 2.49-.65 3.775-.712a2.467 2.467 0 011.485.279c.735.464.974 1.462.657 2.738-1.64 6.59-7.859 8.671-13.722 9.839-1.067.341-21.241 8.339-32.867 8.339z" fill="#11253E"/>
  <defs>
    <clipPath id="p7Aa22O9ua">
      <path fill="#fff" transform="translate(26 66.5)" d="M0 0h99v65H0z"/>
    </clipPath>
  </defs>
</svg>
