<svg xmlns="http://www.w3.org/2000/svg" fill="none" viewBox="0 0 210 155">
  <path d="M84.669 42.876h26.92a21.035 21.035 0 0121.036 21.036V108.3H63.633V63.912a21.036 21.036 0 0121.036-21.036z" fill="#11253E"/>
  <path d="M132.628 108.612H63.629a.315.315 0 01-.22-.091.315.315 0 01-.093-.222V63.911a21.373 21.373 0 0121.35-21.349h26.92a21.376 21.376 0 0121.355 21.35v44.387a.317.317 0 01-.091.222.317.317 0 01-.222.091zm-68.685-.626h68.372V63.911a20.75 20.75 0 00-20.729-20.722h-26.92A20.748 20.748 0 0063.942 63.91v44.075z" fill="#11253E"/>
  <path d="M94.894 52.035s-16.04 5.008-17.799 8.865c-1.252 2.754 8.14 27.04 8.14 27.04s1.408 7.23 1.314 9.866c-.094 2.636-.94 15.239-.94 15.239h37.383s-1.878-16.648-1.69-18.908c.188-2.26 2.348-11.838 2.348-11.838l4.514-23.791s-15.251-6.204-17.067-6.887c-1.816-.682-16.203.413-16.203.413z" fill="#FEBE10"/>
  <path d="M118.317 45.968c1.133-.79 2.041-1.79 2.179-2.505a4.956 4.956 0 00-.401-2.385c-2.736-8.22-2.191-17.586-6.805-24.892a7.015 7.015 0 00-2.342-2.505 3.069 3.069 0 00-3.262 0c-4.1-6.905-14.168-1.96-17.023 3.675-3.03 5.93-4.801 12.735-7.049 18.995-.695 1.935-1.402 3.957-1.17 6.004.23 2.048 1.69 4.107 3.756 4.308l1.083-1.879a1.477 1.477 0 00.169 2.01 4.25 4.25 0 002.016.914c7.237 1.828 15.025 3.28 22.031.795 1.089-.382 2.36-1.333 1.922-2.398.62 1.891 3.055 1.152 4.896-.137z" fill="#fff"/>
  <path d="M103.211 50.12c-4.583 0-9.284-.971-13.836-2.123a4.526 4.526 0 01-2.166-1.002 1.96 1.96 0 01-.451-.695l-.294.514a.325.325 0 01-.313.163c-2.31-.22-3.8-2.505-4.032-4.596-.238-2.16.52-4.276 1.196-6.148.676-1.872 1.302-3.8 1.922-5.684 1.477-4.502 2.999-9.16 5.14-13.348 1.94-3.838 6.949-7.062 11.112-7.187a6.884 6.884 0 016.305 3.274 3.516 3.516 0 013.312.138 7.373 7.373 0 012.454 2.585c2.867 4.54 3.756 9.936 4.67 15.157a65.961 65.961 0 002.173 9.792l.037.113c.329.77.456 1.61.37 2.441-.169.933-1.302 2.016-2.304 2.717-1.584 1.109-3.13 1.566-4.189 1.253a1.983 1.983 0 01-.626-.35 3.665 3.665 0 01-2.084 1.646 25.046 25.046 0 01-8.396 1.34zm-15.902-4.746a1.34 1.34 0 000 .2c.007.362.153.707.407.964.544.435 1.19.722 1.878.833 7.3 1.878 15.026 3.224 21.844.808a3.133 3.133 0 001.715-1.303.843.843 0 00.05-.588.806.806 0 01-.044-.107.331.331 0 01.322-.428.315.315 0 01.286.203.844.844 0 01.043.119 1.255 1.255 0 00.77.77c.821.27 2.242-.175 3.619-1.14l.182.264-.182-.263c1.089-.764 1.928-1.716 2.041-2.31a4.451 4.451 0 00-.351-2.117l-.037-.112a66.39 66.39 0 01-2.198-9.892c-.92-5.153-1.84-10.487-4.639-14.92a6.711 6.711 0 00-2.229-2.366 2.746 2.746 0 00-2.904 0 .328.328 0 01-.38.005.315.315 0 01-.09-.099 6.301 6.301 0 00-5.898-3.243c-3.963.12-8.702 3.187-10.561 6.837-2.116 4.144-3.638 8.765-5.103 13.254-.626 1.878-1.252 3.837-1.928 5.703-.676 1.866-1.384 3.85-1.158 5.86.194 1.747 1.39 3.694 3.243 3.994l.676-1.164c.063-.237.188-.454.363-.626a.313.313 0 01.42 0 .325.325 0 01.087.413l-.244.45z" fill="#11253E"/>
  <path d="M106.841 51.315s1.621 23.07-6.461 21.53c-10.75-2.291-5.86-18.494-5.86-18.494l.175-3.036.413-7.037.382-6.58 11.269-.126.439 5.372.131 1.747-.488 6.624z" fill="#fff"/>
  <path d="M101.137 73.239c-.275 0-.55-.027-.82-.081a8.188 8.188 0 01-5.603-3.895c-3.218-5.453-.733-14.236-.514-14.969l.97-16.622a.32.32 0 01.32-.307l11.269-.125a.34.34 0 01.326.294l.563 7.125-.507 6.662c.069.964 1.083 16.847-3.531 20.941a3.67 3.67 0 01-2.473.977zm-5.34-35.222l-.977 16.352a.314.314 0 010 .075c-.031.088-2.71 9.166.438 14.488a7.582 7.582 0 005.172 3.593 3.04 3.04 0 002.76-.745c4.427-3.925 3.331-20.278 3.319-20.44v-.05l.507-6.63-.539-6.769-10.68.126z" fill="#11253E"/>
  <path d="M107.34 44.685a10.64 10.64 0 01-3.669 3.756c-2.416 1.572-5.822 2.968-8.765 2.505l.2-6.668a24.15 24.15 0 006.512 0c1.878-.213 3.863-.45 5.603-1.315l.119 1.722z" fill="#11253E"/>
  <path d="M96.11 51.347a7.428 7.428 0 01-1.251-.1.313.313 0 01-.257-.32l.219-6.649a.294.294 0 01.113-.231.311.311 0 01.244-.07 23.62 23.62 0 006.429 0c1.766-.193 3.757-.419 5.504-1.251a.292.292 0 01.288 0 .301.301 0 01.156.25l.138 1.74a.396.396 0 01-.038.17 10.775 10.775 0 01-3.756 3.887c-2.642 1.634-5.44 2.574-7.788 2.574zm-.882-.677c2.373.288 5.447-.626 8.289-2.473a10.313 10.313 0 003.518-3.58l-.087-1.203a18.259 18.259 0 01-5.297 1.146 24.685 24.685 0 01-6.26.069l-.163 6.041z" fill="#11253E"/>
  <path d="M101.61 45.862h-1.158a9.936 9.936 0 01-10.017-9.823c-.038-3.13.858-9.103.858-9.103s4.582-1.647 8.182-3.006c6.035-2.285 7.663-5.546 7.663-5.546a24.419 24.419 0 001.396 6.36 29.14 29.14 0 002.692 4.139s.182 4.896.201 6.936a9.933 9.933 0 01-9.817 10.043z" fill="#fff"/>
  <path d="M100.339 46.193a10.262 10.262 0 01-10.25-10.136 78.77 78.77 0 01.865-9.16.332.332 0 01.213-.256c.043 0 4.62-1.66 8.17-2.999 5.829-2.204 7.475-5.359 7.513-5.39a.33.33 0 01.535-.066c.047.053.074.12.078.191a24.438 24.438 0 001.39 6.26 28.579 28.579 0 002.655 4.07.3.3 0 01.068.188c0 .05.176 4.92.201 6.95a10.263 10.263 0 01-10.161 10.31h-1.159l-.118.038zm-8.765-19.007a76.216 76.216 0 00-.827 8.865 9.61 9.61 0 009.592 9.478h1.27a9.614 9.614 0 009.492-9.704c0-1.878-.169-6.11-.201-6.83a27.045 27.045 0 01-2.661-4.126 24.132 24.132 0 01-1.352-5.54c-.87 1.139-2.974 3.274-7.319 4.914a671.164 671.164 0 01-8 2.943h.006z" fill="#11253E"/>
  <path d="M100.393 35.864c-.418.002-.836-.02-1.252-.063a.7.7 0 01-.526-.344c-.757-1.252 1.127-6.486 1.515-7.513a.31.31 0 01.167-.183.308.308 0 01.247-.005.33.33 0 01.184.166.326.326 0 01.01.247c-.914 2.46-2.01 6.26-1.572 6.962.947.11 1.903.11 2.849 0a.32.32 0 01.297.515.325.325 0 01-.216.124 13.46 13.46 0 01-1.703.093zm5.084-4.431c.377-.004.674-.762.664-1.692-.01-.93-.324-1.68-.701-1.676-.377.004-.674.761-.664 1.691.011.93.324 1.68.701 1.677zm-9.051-.213c.377-.003.674-.76.664-1.69-.01-.93-.324-1.681-.7-1.677-.377.004-.675.761-.665 1.691.01.93.325 1.68.701 1.677z" fill="#11253E"/>
  <path d="M94.912 51.315c-2.141-1.146-5.528.57-5.854 1.771-.325 1.202 1.002 20.11 5.854 23.02 2.11 1.253 5.897-3.261 5.897-3.261s-5.421-2.38-5.897-21.53z" fill="#fff"/>
  <path d="M95.736 76.645a1.879 1.879 0 01-.99-.263c-2.673-1.602-4.213-7.613-5.008-12.37-.889-5.178-1.17-10.312-.977-11.007.195-.695 1.027-1.383 2.16-1.878a4.908 4.908 0 014.164-.1.326.326 0 01.169.275c.463 18.726 5.634 21.218 5.697 21.236a.345.345 0 01.12.092.354.354 0 01.068.134.315.315 0 01-.069.282c-.157.169-3.055 3.6-5.334 3.6zm-2.505-25.38c-.724.013-1.44.17-2.103.463a3.218 3.218 0 00-1.797 1.446c-.225.827.983 19.815 5.716 22.651 1.421.852 4.057-1.59 5.234-2.905-1.252-.907-5.284-5.07-5.716-21.399a3.251 3.251 0 00-1.302-.256h-.032z" fill="#11253E"/>
  <path d="M106.841 51.315c2.147-1.146 5.534.57 5.859 1.771.326 1.202-1.001 20.11-5.859 23.02-2.104 1.253-5.892-3.261-5.892-3.261s5.422-2.38 5.892-21.53z" fill="#fff"/>
  <path d="M106.022 76.645c-2.279 0-5.177-3.43-5.315-3.593a.317.317 0 01-.003-.414.356.356 0 01.116-.093c.05 0 5.24-2.636 5.703-21.237a.324.324 0 01.169-.275 4.909 4.909 0 014.163.1c1.134.488 1.985 1.252 2.16 1.878.176.626-.087 5.829-.976 11.006-.82 4.759-2.354 10.769-5.009 12.372a1.878 1.878 0 01-1.008.256zm-4.576-3.725c1.177 1.315 3.812 3.757 5.234 2.905 4.733-2.836 5.941-21.825 5.716-22.65a3.22 3.22 0 00-1.797-1.447 4.43 4.43 0 00-3.437-.207c-.445 16.328-4.464 20.491-5.716 21.4zm-.083-33.163a11.895 11.895 0 01-6.055-1.803.322.322 0 11.364-.533c.231.157 5.741 3.85 10.918-.112a.314.314 0 01.237-.066.314.314 0 01.214.122.324.324 0 01.027.36.335.335 0 01-.083.097 9.084 9.084 0 01-5.622 1.935z" fill="#11253E"/>
  <path d="M39.941 103.36h128.544l20.629 29.77H19.312l20.63-29.77z" fill="#fff"/>
  <path d="M189.114 133.442H19.312a.307.307 0 01-.275-.169.305.305 0 010-.319l20.66-29.769a.303.303 0 01.257-.138h128.531a.31.31 0 01.257.138l20.616 29.769a.3.3 0 01.045.16.299.299 0 01-.045.159.305.305 0 01-.244.169zm-169.2-.626h168.599l-20.191-29.143H40.104l-20.19 29.143z" fill="#11253E"/>
  <path d="M189.105 133.13H19.504v5.778h169.601v-5.778z" fill="#fff"/>
  <path d="M189.112 139.22H19.504a.312.312 0 01-.313-.313v-5.779a.318.318 0 01.313-.313h169.608a.322.322 0 01.313.313v5.779a.312.312 0 01-.313.313zm-169.294-.626h168.981v-5.153H19.817v5.153z" fill="#11253E"/>
  <path d="M185.468 138.907H23.16v5.779h162.308v-5.779z" fill="#11253E"/>
  <path d="M185.464 145H23.157a.312.312 0 01-.313-.313v-5.779a.313.313 0 01.313-.313h162.307a.314.314 0 01.313.313v5.779a.314.314 0 01-.313.313zm-162.013-.626h161.7v-5.153h-161.7v5.153zm98.966-55.953h-.05a.319.319 0 01-.225-.382l4.67-19.076a.32.32 0 01.585-.098.312.312 0 01.041.242l-4.67 19.083a.316.316 0 01-.351.231z" fill="#11253E"/>
  <path d="M124.733 108.875h-23.171l2.661 19.747h29.951l-9.441-19.747z" fill="#fff"/>
  <path d="M134.177 128.935h-29.964a.313.313 0 01-.307-.275l-2.66-19.74a.304.304 0 01.18-.327.323.323 0 01.126-.03h23.165a.308.308 0 01.282.182l9.441 19.74a.3.3 0 010 .3.319.319 0 01-.263.15zm-29.676-.626h29.181l-9.141-19.12h-22.619l2.579 19.12z" fill="#C9C9C8"/>
  <path d="M129.655 110.698h-23.171l2.661 19.746h29.951l-9.441-19.746z" fill="#fff"/>
  <path d="M139.097 130.75h-29.951a.304.304 0 01-.306-.269l-2.661-19.74a.327.327 0 01.009-.132.31.31 0 01.298-.225h23.164a.314.314 0 01.282.176l9.441 19.746a.304.304 0 01-.282.444h.006zm-29.675-.626h29.181l-9.141-19.114h-22.62l2.58 19.114z" fill="#C9C9C8"/>
  <path d="M130.555 126.755h-17.937a.317.317 0 01-.222-.091.317.317 0 010-.443.314.314 0 01.222-.092h17.937a.312.312 0 01.313.313.314.314 0 01-.313.313zm1.832-3.849h-20.566a.31.31 0 01-.221-.092.31.31 0 01.001-.441.324.324 0 01.22-.093h20.566a.31.31 0 01.221.092.31.31 0 010 .442.31.31 0 01-.221.092zm-2.099-3.845h-19.44a.312.312 0 01-.313-.313.312.312 0 01.313-.313h19.44a.312.312 0 01.313.313.312.312 0 01-.313.313zm-1.502-3.843h-15.508a.312.312 0 110-.626h15.508a.314.314 0 010 .626z" fill="#C9C9C8"/>
  <path d="M154.71 99.748s9.667 4.069 10.806 5.54a2.719 2.719 0 01.225 2.987s.821 2.635-.4 3.324c0 0 .582 2.542-.67 3.055-1.002.407-7.206.213-6.298-1.083a2.082 2.082 0 011.033-.626c-.27 0-.395-.382-.276-.626.151-.227.37-.4.626-.495.187-.064.353-.176.482-.325-1.984-.514-4.125-.77-5.703-2.248l-4.414-4.132" fill="#fff"/>
  <path d="M162.631 115.161c-1.759 0-3.976-.257-4.508-.927a.672.672 0 010-.839c.187-.249.435-.445.72-.569a.828.828 0 010-.658c.146-.246.365-.441.626-.557l-.369-.081c-1.672-.388-3.406-.789-4.764-2.06l-4.383-4.132.426-.457 4.382 4.132c1.252 1.152 2.886 1.534 4.483 1.878l1.089.263a.307.307 0 01.213.194.292.292 0 01.018.149.295.295 0 01-.055.139 1.252 1.252 0 01-.533.401h-.068c-.19.067-.356.189-.476.35a.182.182 0 000 .182.3.3 0 01.288.263.317.317 0 01-.043.206.32.32 0 01-.164.132 1.785 1.785 0 00-.889.526.173.173 0 00-.031.069s0 .062.206.163c1.177.626 5.072.626 5.748.381.826-.338.626-2.059.488-2.698a.31.31 0 01.15-.344c.82-.457.457-2.292.251-2.962a.307.307 0 01-.01-.128.31.31 0 01.041-.122 2.389 2.389 0 00-.2-2.629c-.896-1.159-8.014-4.32-10.681-5.447a.321.321 0 01-.169-.407.324.324 0 01.413-.17c.996.42 9.767 4.145 10.931 5.635a2.995 2.995 0 01.313 3.212c.163.576.626 2.611-.388 3.437.119.664.357 2.686-.901 3.199a7.362 7.362 0 01-2.154.276z" fill="#11253E"/>
  <path d="M161.811 108.887s-2.028 2.83-.507 3.031c1.521.2 3.688-3.387 3.688-3.387" fill="#fff"/>
  <path d="M161.411 112.237h-.157a.894.894 0 01-.757-.52c-.395-.914.807-2.661 1.052-3.005a.313.313 0 01.507.369c-.52.727-1.177 1.947-.983 2.386 0 .037.05.119.263.15.951.119 2.579-1.922 3.374-3.243a.328.328 0 01.08-.101.308.308 0 01.363-.026.306.306 0 01.144.207.307.307 0 01-.055.245c-.225.364-2.178 3.538-3.831 3.538z" fill="#11253E"/>
  <path d="M158.887 112.832s4.382.42 6.454-1.252z" fill="#fff"/>
  <path d="M160.141 113.195c-.72 0-1.221-.044-1.284-.05a.326.326 0 01-.211-.115.325.325 0 01-.071-.23.324.324 0 01.345-.281c.044 0 4.288.388 6.229-1.165a.316.316 0 01.347-.031.285.285 0 01.094.078.3.3 0 01.057.109.292.292 0 01.011.121.301.301 0 01-.115.211c-1.446 1.159-3.9 1.353-5.402 1.353z" fill="#11253E"/>
  <path d="M168.394 96.56s-12.846 15.821-13.473 16.516a14.313 14.313 0 00-1.609 3.406c.151-.088 2.705-1.252 3.319-2.035.613-.782 13.504-17.035 13.504-17.035s.069-1.302-1.741-.851z" fill="#6495D3"/>
  <path d="M153.328 116.795a.337.337 0 01-.245-.106c-.344-.407 1.422-3.562 1.622-3.807.57-.688 13.316-16.359 13.448-16.515a.274.274 0 01.169-.107 1.878 1.878 0 011.703.188 1.25 1.25 0 01.444.977.345.345 0 01-.069.181c-.131.163-12.897 16.278-13.504 17.029-.501.626-2.066 1.465-3.199 2.016l-.207.1a.291.291 0 01-.162.044zm15.244-19.927a8781.348 8781.348 0 01-13.385 16.434 14.983 14.983 0 00-1.321 2.592 8.938 8.938 0 002.536-1.615c.582-.752 12.371-15.602 13.429-16.942a.58.58 0 00-.207-.382 1.247 1.247 0 00-1.052-.087z" fill="#11253E"/>
  <path d="M152.695 104.806s10.124 6.649 10.468 4.927c.344-1.722-4.558-4.658-4.558-4.658" fill="#fff"/>
  <path d="M162.731 110.316c-2.098 0-8.803-4.326-10.205-5.247a.31.31 0 01-.088-.432.31.31 0 01.432-.094c4.89 3.212 9.466 5.56 9.986 5.134.219-1.102-2.592-3.243-4.414-4.332a.306.306 0 01-.143-.194.314.314 0 01.037-.238.303.303 0 01.425-.107c.526.313 5.084 3.099 4.708 5.009a.62.62 0 01-.388.469.964.964 0 01-.35.032zm-7.3 5.372a.316.316 0 01-.181-.057l-1.253-.92a.315.315 0 01.019-.516.306.306 0 01.345.009l1.283.92a.31.31 0 01-.005.505.314.314 0 01-.183.059h-.025z" fill="#11253E"/>
  <path d="M128.192 58.528c6.486 1.878 6.643 32.073 12.165 34.24 5.29 2.071 15.858 6.736 15.858 6.736l-4.026 8.896s-12.095-.157-20.66-4.157c-8.564-4.001-10.693-23.86-10.693-23.86s.864-23.752 7.356-21.855zm-41.116-3.676s-14.944 3.594-18.237 8.14c-3.293 4.544-5.252 56.771 1.415 53.991 6.668-2.78 29.225-18.306 29.225-18.306l-7.632-10.574-9.635 5.09V70.88l4.864-16.028z" fill="#FEBE10"/>
  <path d="M101.328 105.007l3.005-32.424 25.469.338-3.331 31.71-25.143.376z" fill="#fff"/>
  <path d="M101.326 105.319a.296.296 0 01-.125-.024.303.303 0 01-.101-.076.301.301 0 01-.069-.11.295.295 0 01-.018-.128l3.005-32.43a.306.306 0 01.313-.282l25.474.338a.306.306 0 01.226.106.319.319 0 01.081.238l-3.362 31.711a.312.312 0 01-.3.281l-25.143.376h.019zm3.286-32.424l-2.942 31.798 24.517-.376 3.261-31.084-24.836-.338z" fill="#11253E"/>
  <path d="M48.056 128.346c6.812 0 12.334-1.663 12.334-3.713s-5.522-3.713-12.334-3.713c-6.811 0-12.333 1.663-12.333 3.713s5.522 3.713 12.333 3.713z" stroke="#C9C9C8"/>
  <path d="M57.977 113.401c.12 0 .226.038.339.056a4.185 4.185 0 012.598 1.465 3.601 3.601 0 01.087 3.794c-1.49 2.686-5.133 3.431-7.926 3.694a2.579 2.579 0 01-1.177-.088.873.873 0 01-.654-.789.875.875 0 01.542-.87c.293-.135.605-.224.926-.263 1.74-.281 3.575-.494 5.171-1.302.927-.463 2.223-1.546 1.547-2.698a2.21 2.21 0 00-.983-.833c-1.597-.764-3.13-.188-4.696.282a.884.884 0 01-.356.05.63.63 0 01-.457-.707c.05-.689.738-1.146 1.383-1.397a7.277 7.277 0 013.656-.394z" fill="#fff"/>
  <path d="M52.604 122.747a2.238 2.238 0 01-.826-.137 1.188 1.188 0 01-.854-1.061 1.183 1.183 0 01.71-1.162c.324-.154.67-.254 1.027-.294l.626-.1a14.944 14.944 0 004.432-1.171 2.993 2.993 0 001.522-1.49.951.951 0 00-.1-.776 1.88 1.88 0 00-.852-.708c-1.346-.626-2.667-.25-4.057.175l-.413.126a1.174 1.174 0 01-.488.062.952.952 0 01-.727-1.045c.05-.701.626-1.29 1.584-1.659a7.625 7.625 0 013.82-.42l.35.063c1.09.17 2.082.734 2.786 1.584a3.887 3.887 0 01.106 4.132c-1.214 2.191-3.881 3.456-8.139 3.856a6.617 6.617 0 01-.507.025zm4.182-7.863a4.09 4.09 0 011.791.394c.461.2.852.534 1.12.958a1.565 1.565 0 01.163 1.252c-.3 1.021-1.483 1.685-1.84 1.879a15.58 15.58 0 01-4.62 1.252l-.627.1c-.288.026-.57.103-.832.225a.685.685 0 00-.382.501.67.67 0 00.457.589 2.23 2.23 0 001.033.069c4.063-.376 6.574-1.534 7.682-3.531a3.278 3.278 0 00-.063-3.463 3.92 3.92 0 00-2.404-1.339l-.326-.057a6.947 6.947 0 00-3.5.382c-.337.132-1.139.501-1.183 1.127 0 .175.076.357.188.376a.696.696 0 00.226-.044l.407-.125a9.41 9.41 0 012.71-.545z" fill="#11253E"/>
  <path d="M56.667 110.52s-2.63 13.148-2.843 13.911c-.212.764-6.436 3.262-11.369.846l-4.326-13.411 18.538-1.346z" fill="#fff"/>
  <path d="M47.213 126.623a11.115 11.115 0 01-4.908-1.065.303.303 0 01-.157-.181l-4.332-13.411a.324.324 0 01.037-.275.333.333 0 01.238-.138l18.557-1.346a.307.307 0 01.255.108.312.312 0 01.07.268c-.106.532-2.635 13.147-2.848 13.93-.081.3-.514.626-1.29.983a14.508 14.508 0 01-5.622 1.127zm-4.514-1.566c4.765 2.254 10.537-.175 10.825-.726.181-.676 2.31-11.269 2.755-13.467l-17.743 1.253 4.163 12.94z" fill="#11253E"/>
  <path d="M56.67 110.52a2.507 2.507 0 01-1.014 1.929c-1.515 1.339-4.564 2.329-8.14 2.473-3.674.156-6.886-.626-8.451-1.916a2.385 2.385 0 01-.99-1.722c-.093-2.222 3.995-4.194 9.129-4.382 5.134-.188 9.378 1.383 9.466 3.618z" fill="#11253E"/>
  <path d="M46.633 115.254c-3.287 0-6.198-.745-7.738-2.003a2.68 2.68 0 01-1.133-1.954 2.584 2.584 0 01.776-1.878c1.472-1.596 4.865-2.723 8.653-2.873 3.787-.151 7.274.688 8.864 2.16a2.54 2.54 0 01.927 1.778 2.76 2.76 0 01-1.127 2.178c-1.609 1.428-4.795 2.404-8.301 2.548l-.92.044zm1.459-8.082h-.889c-3.631.15-6.855 1.195-8.214 2.673a1.957 1.957 0 00-.626 1.409 2.085 2.085 0 00.895 1.496c1.553 1.252 4.783 1.991 8.24 1.878 3.455-.113 6.41-1.058 7.925-2.398a2.181 2.181 0 00.908-1.684 1.967 1.967 0 00-.72-1.346c-1.333-1.265-4.226-2.028-7.519-2.028z" fill="#11253E"/>
  <path d="M55.653 112.449c-1.515 1.34-4.564 2.329-8.139 2.473-3.675.156-6.886-.626-8.452-1.916 1.516-1.334 4.565-2.323 8.14-2.473 3.674-.144 6.886.645 8.451 1.916z" fill="#FEBE10"/>
  <path d="M46.635 115.253c-3.287 0-6.199-.745-7.739-2.004a.307.307 0 01-.012-.475c1.615-1.428 4.795-2.404 8.308-2.548 3.65-.157 6.968.626 8.658 1.984a.316.316 0 01.12.232.322.322 0 01-.107.244c-1.616 1.427-4.802 2.404-8.308 2.548l-.92.019zm-7.038-2.254c1.64 1.121 4.684 1.747 7.926 1.615 3.243-.131 6.036-.951 7.626-2.153-1.647-1.115-4.69-1.741-7.932-1.616-3.243.126-6.01.946-7.62 2.154zm45.785-22.211a.326.326 0 01-.307-.231c-.044-.15-4.583-15.026-6.26-19.822a.33.33 0 11.626-.213c1.69 4.834 6.26 19.697 6.26 19.847a.32.32 0 01-.219.4.25.25 0 01-.1.02z" fill="#11253E"/>
  <path d="M93.32 90.8l3.437-2.071s.245-3.187.79-4.214c.544-1.026 5.753-5.547 5.753-5.547v2.705s4.088-2.473 4.808-1.69c.72.782.67 1.452-1.252 2.96 0 0 1.252-1.458 1.696-.369.445 1.09-1.709 3.024-1.709 3.024s1.747-1.678 1.747-.507c0 1.17-2.279 2.836-2.279 2.836s2.285-.876 1.559.27c-.726 1.145-10.505 9.39-10.505 9.39" fill="#fff"/>
  <path d="M97.365 97.919a.314.314 0 01-.206-.551c2.71-2.291 9.873-8.433 10.449-9.341l.062-.113a4.75 4.75 0 00-1.252.307.314.314 0 01-.412-.361.313.313 0 01.118-.184c.833-.626 2.154-1.847 2.147-2.579a.455.455 0 000-.138 3.929 3.929 0 00-1.108.777l-.1.093a.315.315 0 01-.445 0 .323.323 0 01-.09-.222c0-.083.033-.162.09-.222l.132-.119c.745-.72 1.728-1.953 1.49-2.567-.05-.119-.1-.188-.163-.2a.506.506 0 00-.3.081c-.213.194-.464.4-.745.626a.315.315 0 01-.513-.236.314.314 0 01.081-.215c.232-.263.502-.49.801-.676.532-.488.789-.864.814-1.164a.945.945 0 00-.338-.701c-.288-.307-2.398.52-4.42 1.746a.328.328 0 01-.319 0 .315.315 0 01-.157-.276V79.67c-2.06 1.803-4.82 4.345-5.165 5.008-.42.796-.682 3.225-.751 4.095a.306.306 0 01-.15.244l-3.438 2.072a.314.314 0 11-.325-.538l3.3-1.985c.062-.682.306-3.23.807-4.182.5-.951 5.29-5.165 5.828-5.634a.32.32 0 01.339-.05.316.316 0 01.181.288v2.153c1.459-.845 4.007-2.14 4.727-1.352a1.537 1.537 0 01.507 1.17 1.82 1.82 0 01-.457.99c.209.111.366.3.438.526a2.222 2.222 0 01-.501 1.878c.074.003.146.02.213.05a.629.629 0 01.363.676c0 .739-.701 1.584-1.352 2.204a.783.783 0 01.664.213c.169.213.144.5-.082.858-.726 1.151-9.566 8.633-10.568 9.478a.307.307 0 01-.194.088z" fill="#11253E"/>
  <path d="M98.13 99.897a.307.307 0 01-.281-.17l-6.154-11.18-9.329 4.939a.32.32 0 01-.432-.138.314.314 0 01.132-.432l9.629-5.09a.319.319 0 01.432.126l6.26 11.47a.326.326 0 01-.256.475z" fill="#11253E"/>
  <path d="M58.21 25.09H22.097v29.475h36.111V25.09z" fill="#fff"/>
  <path d="M58.216 54.877H22.098a.32.32 0 01-.313-.313V25.09a.313.313 0 01.313-.313h36.118a.313.313 0 01.313.313v29.475a.319.319 0 01-.313.313zm-35.805-.626h35.473V25.402H22.411v28.85z" fill="#C9C9C8"/>
  <path d="M58.21 25.09H22.097v4.595h36.111V25.09z" fill="#fff"/>
  <path d="M58.216 29.997H22.098a.32.32 0 01-.313-.313V25.09a.313.313 0 01.313-.313h36.118a.313.313 0 01.313.313v4.596a.32.32 0 01-.313.313zm-35.805-.626h35.473v-3.969H22.411v3.97z" fill="#C9C9C8"/>
  <path d="M54.675 49.831H33.746L44.214 33.68l10.462 16.15z" fill="#fff"/>
  <path d="M54.677 50.145H33.754a.307.307 0 01-.276-.163.32.32 0 010-.326L43.952 33.51a.324.324 0 01.52 0l10.462 16.146a.32.32 0 010 .326.3.3 0 01-.257.163zm-20.347-.627h19.796l-9.91-15.257L34.33 49.52z" fill="#6495D3"/>
  <path d="M51.485 45.222H36.942a.313.313 0 010-.626h14.543a.313.313 0 110 .627zm-3.078-4.531h-8.29a.313.313 0 010-.626h8.29a.313.313 0 110 .626z" fill="#6495D3"/>
  <path d="M31.009 47.227h-4.301a.313.313 0 110-.626h4.3a.313.313 0 110 .626zm-1.774 1.923h-2.504a.313.313 0 010-.627h2.504a.313.313 0 010 .626zm6.241-8.178h-8.764a.313.313 0 110-.626h8.764a.313.313 0 010 .627zm-3.61 1.928h-5.158a.313.313 0 110-.626h5.158a.313.313 0 010 .626zm5.297-7.631H26.708a.313.313 0 110-.626h10.455a.313.313 0 010 .626zm-4.32 1.922h-6.135a.313.313 0 110-.626h6.135a.313.313 0 010 .626z" fill="#C9C9C8"/>
  <path d="M54.56 45.342a.313.313 0 01-.314-.313V33.973a.313.313 0 01.626 0v11.056a.319.319 0 01-.313.313z" fill="#6495D3"/>
  <path d="M55.58 36.14a.306.306 0 01-.288-.2l-.758-1.929-.87 1.941a.315.315 0 01-.413.163.319.319 0 01-.157-.42l1.177-2.623a.288.288 0 01.294-.181.3.3 0 01.282.2l1.027 2.623a.32.32 0 01-.175.407.397.397 0 01-.12.019z" fill="#6495D3"/>
  <path d="M190.684 31.575h-52.176v44.031h52.176V31.575z" fill="#fff"/>
  <path d="M190.691 75.92h-52.183a.313.313 0 01-.313-.313V31.576a.319.319 0 01.313-.313h52.183a.322.322 0 01.22.093.322.322 0 01.093.22v44.006a.317.317 0 01-.187.312.316.316 0 01-.126.026zm-51.87-.626h51.557V31.889h-51.557v43.405z" fill="#C9C9C8"/>
  <path d="M190.684 27.048h-52.176v4.533h52.176v-4.533z" fill="#fff"/>
  <path d="M190.691 31.887h-52.183a.313.313 0 01-.313-.313v-4.526a.312.312 0 01.313-.313h52.183a.311.311 0 01.313.313v4.526a.312.312 0 01-.313.313zm-51.87-.626h51.557v-3.888h-51.557v3.888zm12.078 39.243h-8.32a.315.315 0 01-.222-.092.315.315 0 01-.091-.22v-3.313c0-.083.033-.163.091-.221a.315.315 0 01.222-.092h8.32a.311.311 0 01.313.313v3.312a.318.318 0 01-.313.313zm-8.007-.626h7.694v-2.686h-7.694v2.686zm20.798.626h-8.326a.315.315 0 01-.222-.092.315.315 0 01-.091-.22v-3.313c0-.083.033-.163.091-.221a.315.315 0 01.222-.092h8.326a.313.313 0 01.314.313v3.312a.312.312 0 01-.314.313zm-8.001-.626h7.688v-2.686h-7.7l.012 2.686zm-2.517-5.954a.318.318 0 01-.313-.306c-.075-4.157 0-4.201.088-4.32a.324.324 0 01.538.219.559.559 0 010 .1c-.038.344 0 2.604 0 3.988a.305.305 0 01-.307.32h-.006z" fill="#C9C9C8"/>
  <path d="M159.519 67.192a.313.313 0 01-.313-.313v-2.956h-12.158v2.956a.312.312 0 01-.534.22.312.312 0 01-.092-.22V63.61a.312.312 0 01.313-.313h12.784c.083 0 .163.033.222.092a.316.316 0 01.091.221v3.269a.308.308 0 01-.091.22.326.326 0 01-.222.093zm14.318 3.312h-8.321a.318.318 0 01-.313-.313V66.88a.312.312 0 01.313-.313h8.321a.313.313 0 01.313.313v3.312a.318.318 0 01-.194.29.31.31 0 01-.119.023zm-8.008-.626h7.695v-2.686h-7.695v2.686zm20.797.626h-8.321a.318.318 0 01-.313-.313V66.88a.312.312 0 01.313-.313h8.321a.313.313 0 01.313.313v3.312a.312.312 0 01-.313.313zm-8.008-.626h7.695v-2.686h-7.695v2.686zm-2.501-5.954a.313.313 0 01-.313-.306c-.075-4.157 0-4.201.088-4.32a.324.324 0 01.538.219.242.242 0 010 .1c-.031.313 0 2.26 0 3.988a.31.31 0 01-.187.293.313.313 0 01-.119.026h-.007z" fill="#C9C9C8"/>
  <path d="M182.471 67.192a.315.315 0 01-.222-.092.315.315 0 01-.091-.221v-2.956h-12.165v2.956a.315.315 0 01-.091.22.315.315 0 01-.443 0 .312.312 0 01-.092-.22V63.61a.312.312 0 01.313-.313h12.791a.313.313 0 01.313.313v3.269a.312.312 0 01-.313.313z" fill="#C9C9C8"/>
  <path d="M53.92 63.592H34.512V81.58H53.92V63.592z" fill="#fff"/>
  <path d="M53.916 81.885H34.508a.313.313 0 01-.313-.313V63.586a.313.313 0 01.313-.313h19.408a.313.313 0 01.313.313v17.986a.313.313 0 01-.313.313zm-19.088-.626H53.61V63.9H34.828v17.36z" fill="#C9C9C8"/>
  <path d="M51.098 67.88H37.7a.313.313 0 110-.626h13.398a.313.313 0 010 .626zm0 3.213H37.7a.313.313 0 110-.626h13.398a.313.313 0 01.313.313.32.32 0 01-.313.313zm0 3.236H37.7a.313.313 0 110-.627h13.398a.313.313 0 010 .627zm-2.655 3.181H37.7a.313.313 0 110-.627h10.743a.313.313 0 01.313.313.32.32 0 01-.313.313zm124.079-34.17h-15.15a.315.315 0 01-.222-.093.316.316 0 01-.091-.22v-6.03c0-.083.033-.163.091-.221a.315.315 0 01.222-.092h15.15c.083 0 .163.033.222.092a.315.315 0 01.091.221v6.03a.316.316 0 01-.091.22.315.315 0 01-.222.092zm-14.837-.627h14.524V37.31h-14.524v5.403zm3.02 17.085h-15.169a.315.315 0 01-.222-.092.316.316 0 01-.091-.22v-6.03c0-.083.033-.163.091-.221a.315.315 0 01.222-.092h15.15a.313.313 0 01.314.313v6.03a.314.314 0 01-.295.313zm-14.837-.626h14.524V53.77h-14.524v5.403zm38.119.626h-15.151a.313.313 0 01-.313-.313v-6.029a.312.312 0 01.313-.313h15.151c.083 0 .163.033.222.092a.315.315 0 01.091.221v6.03a.316.316 0 01-.091.22.315.315 0 01-.222.092zm-14.837-.626h14.524V53.77H169.15v5.403z" fill="#6495D3"/>
  <path d="M164.855 48.93a.311.311 0 01-.313-.307c-.138-5.59-.032-5.697.081-5.816a.332.332 0 01.545.22.28.28 0 01-.032.13c-.056.414 0 3.08.032 5.454a.32.32 0 01-.307.319h-.006z" fill="#6495D3"/>
  <path d="M176.409 53.769a.312.312 0 01-.313-.313v-4.527h-22.657v4.526a.312.312 0 01-.313.314.315.315 0 01-.314-.313v-4.84a.312.312 0 01.314-.313h23.283a.311.311 0 01.313.313v4.84a.312.312 0 01-.313.313z" fill="#6495D3"/>
</svg>
