<svg xmlns="http://www.w3.org/2000/svg" fill="none" viewBox="0 0 220 151">
  <g clip-path="url(#3wgG5gNewa)">
    <g clip-path="url(#3wgG5gNewb)">
      <path d="M82.7 6.098H29.03v43.806H82.7V6.098z" fill="#fff"/>
      <path d="M82.71 50.368H29.032a.475.475 0 01-.466-.465V6.097a.465.465 0 01.466-.465H82.71a.465.465 0 01.465.465v43.806a.475.475 0 01-.465.465zm-53.213-.93h52.72V6.562h-52.72v42.876z" fill="#C9C9C8"/>
      <path d="M82.7 6.098H29.03v6.83H82.7v-6.83z" fill="#fff"/>
      <path d="M82.71 13.392H29.032a.475.475 0 01-.466-.465v-6.83a.465.465 0 01.466-.465H82.71a.465.465 0 01.465.465v6.83a.475.475 0 01-.465.465zm-53.213-.93h52.72v-5.9h-52.72v5.9zM71.14 38.997H60.06c-.214 0-.419-.049-.57-.136-.151-.087-.236-.206-.236-.33 0-.122.085-.24.236-.328.151-.087.356-.136.57-.136h11.08c.213 0 .419.049.57.136.151.087.236.206.236.329 0 .123-.085.242-.236.329a1.167 1.167 0 01-.57.136zm-2.686 2.855h-8.147c-.27 0-.529-.049-.72-.136-.19-.087-.298-.206-.298-.329 0-.123.107-.242.298-.329.191-.087.45-.136.72-.136h8.147c.27 0 .529.049.72.136.19.087.298.206.298.33 0 .123-.107.24-.298.328-.191.087-.45.136-.72.136zM48.913 29.701H35.888a.465.465 0 110-.93h13.026a.465.465 0 110 .93zm-5.367 2.866h-7.667a.466.466 0 010-.93h7.667a.465.465 0 110 .93zm7.872-11.34H35.879a.465.465 0 110-.93h15.539a.466.466 0 010 .93zm-6.42 2.853h-9.119a.466.466 0 010-.931h9.119a.465.465 0 010 .93z" fill="#C9C9C8"/>
      <path d="M74.379 29.672H62.004a2.727 2.727 0 01-2.75-2.75v-7.037a2.727 2.727 0 012.75-2.75h12.375a2.727 2.727 0 012.75 2.75v7.037c0 1.455-1.294 2.669-2.75 2.75zM62.004 17.944c-1.051 0-1.941.89-1.941 1.94v7.038c0 1.05.89 1.94 1.94 1.94H74.38c1.051 0 1.94-.89 1.94-1.94v-7.037c0-1.052-.889-1.941-1.94-1.941H62.004z" fill="#6495D3"/>
      <path d="M65.319 27.325c-.081 0-.162 0-.243-.081-.081-.081-.162-.243-.162-.324v-7.117c0-.162.081-.243.162-.324.162-.08.243-.08.404 0l7.36 3.559c.162.08.243.243.243.404 0 .162-.08.324-.242.405l-7.36 3.559c-.082-.081-.082-.081-.162-.081zm.404-6.875v5.823l5.985-2.912-5.985-2.911zm-27.12 26.623l1.455-2.315h8.2a2.963 2.963 0 002.976-2.975v-4.431a2.963 2.963 0 00-2.976-2.976H38.206a2.963 2.963 0 00-2.976 2.976v4.43a2.96 2.96 0 001.588 2.646v2.116c0 .463.264.86.661.926h.264c.397 0 .662-.132.86-.397zm9.655-11.771a2.06 2.06 0 012.05 2.05v4.43a2.06 2.06 0 01-2.05 2.05h-8.464c-.133 0-.331.067-.397.2l-1.654 2.446V44.03c0-.198-.132-.397-.264-.463-.794-.33-1.323-1.058-1.323-1.918v-4.43a2.06 2.06 0 012.05-2.05l10.052.132z" fill="#6495D3"/>
      <path d="M65.574 59.084H2.91v33.182h62.664V59.084z" fill="#fff" stroke="#fff" stroke-width=".378"/>
      <path d="M65.776 92.831H2.896a.577.577 0 01-.578-.577V59.072a.577.577 0 01.578-.578h62.88a.578.578 0 01.577.578v33.182a.578.578 0 01-.577.577zM3.485 91.676H65.21V59.65H3.485v32.027z" fill="#C9C9C8" stroke="#fff" stroke-width=".378"/>
      <path d="M33.502 66.998H8.786a.578.578 0 010-1.155h24.716a.577.577 0 010 1.155zm-8.06 5.924H8.602c-.104 0-.204-.061-.278-.17a.736.736 0 01-.115-.408c0-.153.041-.3.115-.408.074-.108.174-.17.278-.17h16.84c.104 0 .204.062.278.17a.736.736 0 01.116.408.747.747 0 01-.118.405c-.073.108-.172.17-.276.173zm6.041 5.97H8.74a.51.51 0 01-.376-.169.604.604 0 01-.155-.408c0-.153.056-.3.155-.408a.51.51 0 01.376-.17h22.743a.51.51 0 01.376.17c.1.108.156.255.156.408 0 .153-.056.3-.156.408a.51.51 0 01-.376.17zm-2.878 5.866H8.786a.577.577 0 110-1.155h19.82a.577.577 0 01.577.577.588.588 0 01-.578.578z" fill="#6495D3" stroke="#fff" stroke-width=".378"/>
      <path fill-rule="evenodd" clip-rule="evenodd" d="M58.82 80.92H39.163a.493.493 0 01-.239 0h-.008a.604.604 0 01-.603-.603V66.446c0-.302.242-.603.603-.603H58.82c.302 0 .604.24.604.603v8.605a.65.65 0 010 .226v5.04c0 .362-.242.603-.604.603zm-.604-5.555v4.41H40.175l6.645-8.988 3.876 4.577c.04.07.092.132.155.183l1.638 1.934a.55.55 0 00.724.06c.301-.18.362-.542.18-.844l-1.327-1.575 2.473-3.549 3.677 3.792zm0-1.725v-6.53H39.52v11.385l6.757-9.096c.12-.12.302-.24.483-.24.18 0 .362.06.482.24l3.964 4.702 2.73-3.915c.12-.12.241-.241.422-.241s.362.06.483.18l3.375 3.515z" fill="#6495D3"/>
      <path d="M39.164 80.92v-.189h-.023l-.023.006.046.183zm-.239 0l.044-.184-.022-.005h-.022v.189zm20.498-5.87h-.19v.017l.004.017.186-.033zm0 .227l-.186-.032-.003.016v.016h.189zm-1.207 4.497v.189h.19v-.189h-.19zm0-4.409h.19v-.076l-.054-.055-.136.131zm-18.041 4.41l-.152-.113-.223.3h.375v-.188zm6.645-8.988l.144-.122-.154-.183-.142.192.152.113zm3.876 4.577l.166-.092-.01-.016-.011-.014-.145.122zm.155.183l.144-.122-.012-.014-.014-.012-.118.148zm1.638 1.934l-.144.122.005.006.006.006.133-.134zm.724.06l-.097-.162-.009.005-.007.006.113.151zm.18-.844l.163-.097-.008-.013-.01-.012-.144.122zm-1.327-1.575l-.155-.108-.083.118.093.111.145-.121zm2.473-3.549l.136-.131-.16-.165-.13.188.154.108zm3.677 2.067l-.136.13.325.34v-.47h-.189zm0-6.53h.19v-.19h-.19v.19zm-18.696 0v-.19h-.188v.19h.188zm0 11.385h-.188v.571l.34-.458-.151-.113zm6.757-9.096l-.133-.133-.01.01-.008.01.151.114zm.965 0l-.157.105.006.01.007.007.144-.121zm3.964 4.702l-.145.122.159.188.14-.202-.154-.108zm2.73-3.915l-.133-.134-.012.012-.01.014.155.108zm.905-.06l.136-.131-.003-.003-.133.134zM39.164 81.109H58.82v-.378H39.164v.378zm-.283-.005a.684.684 0 00.33 0l-.093-.367a.306.306 0 01-.149 0l-.088.367zm.036.005h.008v-.378h-.008v.378zm-.791-.792c0 .478.398.792.791.792v-.378a.416.416 0 01-.414-.414h-.377zm0-13.871v13.87h.377v-13.87h-.377zm.791-.792a.793.793 0 00-.791.792h.377c0-.21.169-.415.414-.415v-.377zm19.902 0H38.917v.377H58.82v-.377zm.792.792a.793.793 0 00-.791-.792v.377c.21 0 .414.17.414.415h.377zm0 8.605v-8.605h-.377v8.605h.377zm-.374.033a.453.453 0 010 .16l.372.066a.842.842 0 000-.292l-.372.066zm.374 5.233v-5.04h-.377v5.04h.377zm-.791.792a.791.791 0 00.57-.221.791.791 0 00.221-.571h-.377a.415.415 0 01-.11.304.415.415 0 01-.305.11v.378zm-.415-1.335v-4.409h-.377v4.41h.377zm-18.23.189h18.041v-.378H40.175v.378zm6.493-9.289l-6.645 8.988.304.224 6.645-8.987-.304-.225zm4.173 4.568l-3.877-4.577-.288.244 3.876 4.577.289-.244zm.127.157a.426.426 0 01-.107-.127l-.33.184c.05.09.12.172.203.239l.234-.296zm1.665 1.96l-1.638-1.934-.288.244 1.638 1.934.288-.244zm.467.031a.36.36 0 01-.477-.043l-.267.268a.738.738 0 00.97.077l-.226-.302zm.132-.596c.136.227.082.467-.116.585l.194.324c.405-.243.471-.727.246-1.103l-.324.194zm-1.31-1.55l1.327 1.575.29-.244L52.21 75l-.288.243zm2.462-3.779l-2.473 3.549.31.216 2.473-3.549-.31-.216zm3.968 3.769l-3.677-3.792-.271.263 3.677 3.792.271-.263zm.053-1.594v-6.53h-.377v6.53h.377zm-.189-6.72H39.52v.378h18.696v-.378zm-18.884.19v11.385h.377V67.11h-.377zm.34 11.498l6.757-9.096-.303-.225-6.757 9.096.303.225zm6.739-9.075c.108-.108.243-.186.349-.186v-.378c-.256 0-.483.164-.616.297l.267.267zm.349-.186c.137 0 .25.043.325.157l.314-.21a.737.737 0 00-.64-.325v.378zm.338.174l3.963 4.702.289-.244-3.963-4.701-.29.243zm4.263 4.688l2.73-3.915-.31-.216-2.73 3.915.31.216zm2.709-3.89c.131-.131.198-.186.288-.186v-.377c-.271 0-.446.186-.555.296l.267.267zm.288-.186c.144 0 .272.049.35.126l.266-.267a.873.873 0 00-.616-.236v.377zm.347.123l3.375 3.515.273-.262-3.376-3.514-.272.261z" fill="#fff"/>
      <path d="M51.58 71.09a1.814 1.814 0 01-1.809-1.81c0-.965.845-1.81 1.81-1.81.965 0 1.809.845 1.809 1.81 0 .965-.784 1.81-1.81 1.81zm0-2.413a.604.604 0 00-.602.603c0 .362.24.603.603.663a.67.67 0 00.663-.663.576.576 0 00-.543-.663c-.06 0-.12 0-.12.06z" fill="#6495D3" stroke="#fff" stroke-width=".378"/>
      <path d="M136.736 7.238l79.578 15.267v92.615l-79.578-15.267V7.238z" fill="#fff"/>
      <path d="M216.31 115.413h-.053l-79.595-15.273a.292.292 0 01-.232-.285V7.239a.285.285 0 01.217-.283.315.315 0 01.126-.008l79.595 15.267a.3.3 0 01.168.105.3.3 0 01.065.186v92.616a.275.275 0 01-.105.221.273.273 0 01-.186.07zM137.029 99.61l78.99 15.134V22.745l-78.99-15.133V99.61z" fill="#C9C9C8"/>
      <path d="M171.956 96.38a.297.297 0 01-.285-.234c-.454-2.246-.105-4.423.291-6.466.582-3.114 1.426-6.653 3.551-9.272a8.392 8.392 0 019.237-2.84.299.299 0 01.167.148.285.285 0 01.013.224.276.276 0 01-.058.098.29.29 0 01-.314.082 7.81 7.81 0 00-8.597 2.654c-2.037 2.515-2.835 5.972-3.428 9.016-.385 1.985-.722 4.075-.292 6.24a.29.29 0 01-.227.343l-.058.006z" fill="#C9C9C8"/>
      <path d="M188.569 78.64a13.896 13.896 0 01-2.596-.309 21.243 21.243 0 01-5.14-1.53 16.588 16.588 0 01-7.939-8.83c-1.385-3.492-1.595-7.037-1.792-10.442a.3.3 0 01.273-.309.299.299 0 01.309.274c.197 3.364.401 6.84 1.746 10.262a15.971 15.971 0 007.648 8.515 20.565 20.565 0 005 1.49 9.855 9.855 0 003.451.215.295.295 0 01.099.582 6.46 6.46 0 01-1.059.082zm-12.434-37.217a.291.291 0 01-.285-.29 33.957 33.957 0 01.989-8.15c.373-1.513.925-3.206 2.159-4.3 2.148-1.904 5.536-1.49 8.818-.897.623.11 1.479.343 1.811 1.065a.29.29 0 01-.367.393.29.29 0 01-.163-.148c-.215-.478-.891-.652-1.379-.74-3.149-.582-6.403-.972-8.335.763-1.118.99-1.63 2.578-1.979 4.004a33.453 33.453 0 00-.972 8.027.291.291 0 01-.297.273zm-2.574 1.077a.292.292 0 01-.273-.309v-.07c.279-5.238.698-13.189-5.733-15.866a19.908 19.908 0 00-5.315-1.164.289.289 0 01-.195-.11.302.302 0 01-.061-.216.3.3 0 01.11-.196.3.3 0 01.216-.06 20.16 20.16 0 015.466 1.199c6.81 2.84 6.402 11.024 6.094 16.437v.052a.286.286 0 01-.087.22.293.293 0 01-.222.083z" fill="#C9C9C8"/>
      <path d="M199.983 67.243l-44.288-8.492V34.468l44.288 8.498v24.277z" fill="#fff"/>
      <path d="M199.985 67.532h-.052l-44.288-8.492a.298.298 0 01-.239-.291V34.466c0-.043.009-.084.028-.123a.28.28 0 01.077-.098.308.308 0 01.244-.064l44.283 8.498a.29.29 0 01.238.285v24.26a.298.298 0 01-.105.226.3.3 0 01-.186.082zm-43.997-9.04l43.706 8.388V43.202l-43.706-8.381v23.672z" fill="#C9C9C8"/>
      <path d="M191.915 49.653l-28.153-5.402a2.443 2.443 0 01-1.933-2.328 1.55 1.55 0 011.933-1.56l28.153 5.401a2.446 2.446 0 011.938 2.329 1.552 1.552 0 01-1.938 1.56z" fill="#fff"/>
      <path d="M192.29 49.983a2.153 2.153 0 01-.425-.046l-28.154-5.413a2.763 2.763 0 01-2.171-2.59 1.868 1.868 0 01.658-1.484 1.946 1.946 0 011.618-.379l28.142 5.43a2.766 2.766 0 012.171 2.59 1.874 1.874 0 01-.664 1.473c-.331.272-.747.42-1.175.42zm-.315-.617a1.356 1.356 0 001.164-.25 1.3 1.3 0 00.449-1.024 2.152 2.152 0 00-1.7-2.02l-28.154-5.401a1.344 1.344 0 00-1.164.25 1.292 1.292 0 00-.448 1.024 2.146 2.146 0 001.694 1.997l28.159 5.424z" fill="#6495D3"/>
      <path d="M191.915 55.492l-28.153-5.401a2.446 2.446 0 01-1.933-2.328 1.545 1.545 0 01.573-1.27 1.541 1.541 0 011.36-.296l28.153 5.407a2.446 2.446 0 011.939 2.328 1.562 1.562 0 01-1.224 1.573 1.556 1.556 0 01-.715-.013z" fill="#fff"/>
      <path d="M192.289 55.815a2.25 2.25 0 01-.425-.04l-28.153-5.402a2.76 2.76 0 01-2.171-2.59 1.857 1.857 0 01.657-1.473 1.926 1.926 0 011.618-.378l28.142 5.401a2.773 2.773 0 012.172 2.596 1.888 1.888 0 01-.664 1.473c-.332.27-.748.416-1.176.413zm-.314-.61a1.357 1.357 0 001.164-.251 1.33 1.33 0 00.448-1.025 2.146 2.146 0 00-1.699-2.02l-28.154-5.4a1.344 1.344 0 00-1.164.25 1.294 1.294 0 00-.448 1.024 2.147 2.147 0 001.693 2.02l28.16 5.401z" fill="#6495D3"/>
      <path d="M191.915 61.33l-28.153-5.401a2.455 2.455 0 01-1.933-2.329 1.545 1.545 0 01.573-1.269 1.541 1.541 0 011.36-.296l28.153 5.401a2.46 2.46 0 011.939 2.328 1.56 1.56 0 01-.577 1.27 1.552 1.552 0 01-1.362.296z" fill="#fff"/>
      <path d="M192.289 61.653a2.17 2.17 0 01-.425-.04l-28.153-5.402a2.76 2.76 0 01-2.171-2.59 1.856 1.856 0 01.657-1.472 1.925 1.925 0 011.618-.379l28.142 5.402a2.774 2.774 0 012.172 2.59 1.86 1.86 0 01-.664 1.472c-.33.274-.747.422-1.176.42zm-.314-.61a1.36 1.36 0 001.164-.257 1.31 1.31 0 00.448-1.024 2.162 2.162 0 00-1.699-2.02l-28.154-5.401a1.346 1.346 0 00-1.164.256 1.28 1.28 0 00-.448 1.024 2.151 2.151 0 001.693 2.02l28.16 5.401z" fill="#6495D3"/>
      <path d="M209.997 87.02l-26.075-5V69.168l26.075 5.006V87.02z" fill="#fff"/>
      <path d="M210.001 87.312h-.058l-26.07-5a.287.287 0 01-.238-.285V69.169a.287.287 0 01.104-.22.281.281 0 01.239-.064l26.076 5.005a.287.287 0 01.238.285v12.84a.311.311 0 01-.104.227.317.317 0 01-.187.07zm-25.784-5.535l25.493 4.889V74.414l-25.493-4.86v12.223z" fill="#C9C9C8"/>
      <path d="M162.225 31.404l-19.178-3.678V17.138l19.178 3.679v10.587z" fill="#fff"/>
      <path d="M162.225 31.719h-.058l-19.173-3.679a.286.286 0 01-.238-.285V17.168a.275.275 0 01.11-.221.278.278 0 01.239-.064l19.167 3.649a.292.292 0 01.238.285v10.588a.29.29 0 01-.291.29l.006.024zm-18.887-4.208l18.596 3.568V21.062l-18.596-3.568V27.51z" fill="#C9C9C8"/>
      <path d="M194.348 81.777h-.064l-7.776-1.49a.292.292 0 01-.239-.285v-7.765a.297.297 0 01.224-.283.285.285 0 01.126-.002l7.776 1.49a.285.285 0 01.233.285v7.776a.292.292 0 01-.105.227.303.303 0 01-.175.047zm-7.485-2.026l7.194 1.38v-7.165l-7.194-1.38v7.165z" fill="#6495D3"/>
      <path d="M191.817 77.626c.681-.618.626-1.787-.122-2.61s-1.906-.99-2.586-.371c-.681.618-.626 1.787.122 2.61s1.906.99 2.586.371z" fill="#fff"/>
      <path d="M190.791 78.285c-.137 0-.273-.012-.407-.035a2.632 2.632 0 01-2.067-2.473 1.748 1.748 0 01.629-1.403 1.84 1.84 0 011.548-.361 2.633 2.633 0 012.066 2.468 1.797 1.797 0 01-.628 1.409 1.777 1.777 0 01-1.141.395zm-.704-3.73a1.17 1.17 0 00-.845.36 1.161 1.161 0 00-.319.862 2.022 2.022 0 001.594 1.897 1.247 1.247 0 001.066-.233 1.239 1.239 0 00.419-.96 2.028 2.028 0 00-1.595-1.898 1.72 1.72 0 00-.297-.023l-.023-.006z" fill="#6495D3"/>
      <path d="M189.368 77.755l2.195.425a3.534 3.534 0 012.788 3.323l-7.776-1.472a2.232 2.232 0 01.823-1.842 2.234 2.234 0 011.97-.434z" fill="#fff"/>
      <path d="M194.347 81.776h-.064l-7.776-1.49a.292.292 0 01-.239-.285 2.563 2.563 0 01.908-2.026 2.664 2.664 0 012.23-.518l2.194.425a3.848 3.848 0 013.027 3.609.3.3 0 01-.105.227.304.304 0 01-.175.058zm-7.473-2.02l7.159 1.374a3.277 3.277 0 00-2.526-2.683l-2.2-.425a2.059 2.059 0 00-1.746.396 1.941 1.941 0 00-.687 1.356v-.018z" fill="#6495D3"/>
      <path d="M159.878 29.221h-.058l-14.697-2.817a.295.295 0 01-.238-.291v-6.798a.312.312 0 01.104-.227.303.303 0 01.239-.059l14.714 2.794a.292.292 0 01.239.285v6.822a.314.314 0 01-.028.125.33.33 0 01-.077.102.314.314 0 01-.198.064zm-14.411-3.323l14.12 2.706v-6.199l-14.12-2.712v6.205z" fill="#C9C9C8"/>
      <path d="M145.175 26.402a.283.283 0 01-.279-.21.276.276 0 01-.009-.114.28.28 0 01.11-.195.293.293 0 01.103-.051l14.702-3.976a.29.29 0 01.361.317.29.29 0 01-.117.19.288.288 0 01-.104.046l-14.703 3.981-.064.012z" fill="#C9C9C8"/>
      <path d="M159.879 29.224a.29.29 0 01-.157-.047l-14.703-9.621a.298.298 0 01-.156-.184.298.298 0 01.035-.239.298.298 0 01.204-.129.291.291 0 01.232.069l14.702 9.615a.291.291 0 01-.157.535z" fill="#C9C9C8"/>
      <path d="M207.008 39.415l-20.098-3.853V20.073l20.098 3.854v15.488z" fill="#fff"/>
      <path d="M207.008 39.706h-.052l-20.098-3.853a.286.286 0 01-.239-.286V20.08a.297.297 0 01.223-.283.287.287 0 01.126-.002l20.122 3.847a.287.287 0 01.232.285v15.489a.313.313 0 01-.104.227.304.304 0 01-.21.064zm-19.789-4.383l19.516 3.742V24.154l-19.516-3.749v14.918z" fill="#C9C9C8"/>
      <path d="M201.947 35.497l-9.988-1.909a2.037 2.037 0 01-1.607-1.915 1.293 1.293 0 01.479-1.049 1.29 1.29 0 011.128-.243l9.988 1.92a2.035 2.035 0 011.6 1.916 1.276 1.276 0 01-.48 1.04 1.275 1.275 0 01-1.12.24z" fill="#fff"/>
      <path d="M202.245 35.795c-.121 0-.242-.012-.361-.035l-9.929-1.886a2.33 2.33 0 01-1.84-2.2 1.59 1.59 0 01.582-1.257 1.642 1.642 0 011.38-.32l9.965 1.91a2.326 2.326 0 011.839 2.2 1.556 1.556 0 01-1.636 1.588zm-10.57-5.174a.97.97 0 00-.949.63.97.97 0 00-.058.4 1.752 1.752 0 001.362 1.63l9.965 1.932a1.067 1.067 0 00.902-.198 1.015 1.015 0 00.355-.809 1.744 1.744 0 00-1.368-1.63l-9.929-1.909a1.257 1.257 0 00-.28-.023v-.023z" fill="#6495D3"/>
      <path d="M206.083 77.085h-.053l-7.945-1.525a.28.28 0 01-.227-.337.29.29 0 01.338-.233l7.939 1.548a.29.29 0 01.265.318.29.29 0 01-.317.264v-.035zm0 3.073h-.053l-7.945-1.525a.28.28 0 01-.227-.337.29.29 0 01.338-.233l7.939 1.525a.291.291 0 01.265.317.29.29 0 01-.317.265v-.012zm0 3.074h-.053l-7.945-1.525a.28.28 0 01-.227-.338.291.291 0 01.338-.233l7.939 1.525a.29.29 0 01.265.318.29.29 0 01-.317.264v-.011z" fill="#C9C9C8"/>
      <path d="M202.083 26.272h-.058l-10.244-1.967a.279.279 0 01-.227-.338.29.29 0 01.337-.233l10.244 1.967a.288.288 0 01.186.121.288.288 0 01.047.217.297.297 0 01-.285.233z" fill="#6495D3"/>
      <path d="M181.42 103.893l-15.442-2.963V84.993l15.442 2.963v15.937z" fill="#fff"/>
      <path d="M181.42 104.186h-.058l-15.436-2.963a.29.29 0 01-.239-.285V84.996a.288.288 0 01.105-.221.282.282 0 01.239-.065l15.447 2.963a.289.289 0 01.239.285v15.937a.295.295 0 01-.085.206.295.295 0 01-.206.085h-.006zm-15.133-3.492l14.86 2.852V88.179l-14.86-2.852v15.367z" fill="#C9C9C8"/>
      <path d="M178.801 91.961h-.053l-10.209-1.955a.285.285 0 01-.184-.125.288.288 0 01-.043-.219.283.283 0 01.225-.227.288.288 0 01.113 0l10.203 1.956a.288.288 0 01.186.12.288.288 0 01.047.218.297.297 0 01-.285.233zm0 3.783h-.053l-10.209-1.956a.285.285 0 01-.184-.125.287.287 0 01-.043-.218.283.283 0 01.225-.227.288.288 0 01.113 0l10.203 1.944a.288.288 0 01.186.12.296.296 0 01-.238.461zm-2.991 3.151h-.053l-7.217-1.403a.297.297 0 01-.112-.536.296.296 0 01.222-.046l7.218 1.386a.283.283 0 01.227.343.288.288 0 01-.285.256z" fill="#6495D3"/>
      <path d="M178.8 20.464h-.052l-6.583-1.275a.293.293 0 01-.233-.338.3.3 0 01.344-.232l6.594 1.268a.288.288 0 01.186.121.288.288 0 01-.06.392.299.299 0 01-.196.064zm0 2.46h-.052l-6.583-1.269a.296.296 0 11.11-.582l6.595 1.27a.293.293 0 01.233.337.297.297 0 01-.303.244z" fill="#C9C9C8"/>
      <path d="M105.019 62.137s18.815 4.31 22.3 3.613c4.681-.939 9.361-4.09 13.515-6.323 4.325-2.333 8.536-4.816 12.854-7.22 2.532-1.423 5.107-2.796 7.661-4.197.264-.164.556-.28.86-.341.255-.021.511.008.754.085a2.293 2.293 0 011.544 1.351c.384 1.131-.711 2.134-1.472 2.846a148.515 148.515 0 01-6.872 6.003l4.026-.334a.498.498 0 01.306 0c.278.142.142.562-.05.797a6.662 6.662 0 01-2.688 1.692c-3.216 1.33-5.798 2.184-8.536 4.219-2.447 1.792-4.937 3.556-7.483 5.17-3.941 2.54-10.307 7.335-15.351 6.488l-23.473-3.955" fill="#fff"/>
      <path d="M127.535 76.442a7.91 7.91 0 01-1.294-.107l-23.474-3.948.121-.711 23.474 3.948c4.303.711 9.66-2.846 13.572-5.428l1.522-1.003a141.493 141.493 0 007.469-5.157 29.437 29.437 0 017.07-3.62l1.579-.64a6.395 6.395 0 002.547-1.594.57.57 0 00.128-.27h-.078l-4.026.341a.357.357 0 01-.38-.445.355.355 0 01.124-.188 144.467 144.467 0 006.857-5.99l.071-.063c.676-.633 1.607-1.494 1.302-2.376a1.917 1.917 0 00-1.309-1.124 1.318 1.318 0 00-.598-.071c-.251.06-.492.162-.711.299l-2.44 1.33c-1.75.946-3.492 1.892-5.221 2.845l-4.325 2.454a462.11 462.11 0 01-8.536 4.773c-.889.484-1.799 1.003-2.738 1.537-3.5 2.006-7.113 4.075-10.855 4.822-3.514.712-21.681-3.435-22.449-3.613a.366.366 0 01-.278-.434.368.368 0 01.434-.277c.192.042 18.772 4.267 22.158 3.613 3.606-.711 7.184-2.767 10.67-4.744.939-.534 1.856-1.06 2.745-1.544a511.947 511.947 0 008.536-4.766l4.325-2.454a1764.62 1764.62 0 015.228-2.845l2.44-1.323a2.8 2.8 0 01.989-.384c.302-.034.607-.002.896.092a2.61 2.61 0 011.778 1.58c.448 1.315-.711 2.404-1.493 3.122l-.072.064c-1.941 1.814-3.962 3.557-6.017 5.3l2.902-.242a.82.82 0 01.498.07.616.616 0 01.334.442 1.168 1.168 0 01-.277.896 6.976 6.976 0 01-2.846 1.792l-1.586.648a29.27 29.27 0 00-6.914 3.556 147.832 147.832 0 01-7.497 5.193c-.477.299-.982.64-1.522.996-3.685 2.418-8.543 5.648-12.833 5.648z" fill="#11253E"/>
      <path d="M62.74 72.573C51.92 80.44 50.512 96.83 50.22 109.142c-.284 11.58 2.305 22.62 4.717 33.916 2.361 11.046 9.097 13.899 19.796 16.36 15.876 3.685 34.968 2.845 51.101 1.046 16.132-1.8 17.121-13.238 15.492-26.262-.448-3.557-2.98-5.854-5.69-7.825a34.117 34.117 0 01-8.735-8.429c-7.647-11.132-8.102-24.291-13.21-36.362-4.04-9.553-13.052-16.212-23.473-15.87-10.42.341-20.301 1.636-27.478 6.857z" fill="#fff"/>
      <path d="M100.573 162.379c-9.894 0-18.494-.861-25.927-2.59-9.838-2.283-17.556-4.979-20.06-16.659l-.512-2.375c-2.297-10.706-4.474-20.814-4.21-31.619.597-24.931 7.112-32.791 12.66-36.846 7.605-5.527 18.26-6.58 27.678-6.885 10.186-.335 19.512 5.982 23.787 16.09a106.217 106.217 0 014.545 14.475c1.956 7.412 3.976 15.08 8.607 21.823 2.049 2.981 4.638 5.477 8.65 8.337 2.774 1.977 5.406 4.318 5.868 8.052.896 7.199 1.245 15.286-2.98 20.628-2.682 3.4-6.872 5.371-12.804 6.025-8.4.976-16.846 1.492-25.302 1.544zM62.738 72.575l.206.291c-10.37 7.54-12.092 23.353-12.37 36.278-.263 10.726 1.907 20.791 4.197 31.454l.512 2.383c2.213 10.364 8.06 13.451 19.526 16.111 13.11 3.038 29.79 3.379 50.988 1.039 5.754-.64 9.787-2.518 12.348-5.755 4.062-5.15 3.713-13.06 2.845-20.116-.434-3.457-2.937-5.69-5.576-7.561-4.091-2.909-6.73-5.456-8.828-8.536-4.695-6.843-6.736-14.568-8.699-22.05a106.474 106.474 0 00-4.539-14.384c-4.161-9.83-13.209-15.99-23.103-15.649-9.319.3-19.839 1.338-27.286 6.75l-.22-.255z" fill="#11253E"/>
      <path d="M91.087 133.697a51.357 51.357 0 01-5.762-.334 54.763 54.763 0 01-10.812-2.348c-4.802-1.558-8.024-3.329-10.45-5.747-3.684-3.685-5.085-8.65-5.619-12.171-1.23-8.13 0-17.114.896-21.738a22.051 22.051 0 0110.827-15.23c3.89-2.268 8.535-3.726 14.176-4.466 5.925-.775 10.193-.142 13.43 1.999 5.278 3.485 6.779 10.186 7.867 16.751l1.842 11.147c.449 2.767 1.074 6.565 3.251 8.358.767.58 1.595 1.076 2.468 1.479 1.523.775 3.095 1.572 3.977 3.315 1.095 2.134 1.557 5.79.434 8.159-1.238 2.617-3.77 4.339-5.57 5.406a40.742 40.742 0 01-20.956 5.42zM88.81 72.061c-1.47.008-2.939.11-4.396.306-5.555.711-10.108 2.134-13.913 4.375a21.396 21.396 0 00-10.464 14.745c-.853 4.588-2.133 13.473-.889 21.503.512 3.415 1.871 8.223 5.42 11.773 2.34 2.333 5.47 4.054 10.165 5.577a53.849 53.849 0 0010.67 2.318c9.81 1.11 18.886-.626 26.255-4.979 1.714-1.017 4.133-2.66 5.292-5.1 1.031-2.169.59-5.527-.427-7.526-.782-1.536-2.184-2.247-3.663-3.009-.92-.425-1.79-.95-2.596-1.564-2.39-1.964-3.038-5.912-3.507-8.792l-1.842-11.14c-1.06-6.401-2.519-12.953-7.555-16.282-2.233-1.486-5.007-2.205-8.55-2.205z" fill="#C9C9C8"/>
      <path d="M64.473 122.387a.355.355 0 01-.328-.221.344.344 0 01.076-.386.343.343 0 01.117-.076c4.645-1.921 7.739-1.472 7.867-1.423a.36.36 0 01-.107.712s-3.044-.434-7.49 1.422a.3.3 0 01-.135-.028z" fill="#C9C9C8"/>
      <path d="M92.775 59.589s-16.595-.896-19.561 3.258c-3.201 4.481-2.966 6.224-7.298 16.566 1.422 14.298 9.909 34.258 9.909 34.258l35.757-7.384s-1.387-38.54-4.531-43.888c-3.144-5.35-14.276-2.81-14.276-2.81z" fill="#FEBE10"/>
      <path d="M86.92 62.509l10.022 52.495 10.264-.199-7.526-51.713-12.76-.583z" fill="#11253E"/>
      <path d="M96.939 115.357a.354.354 0 01-.349-.291L86.567 62.57a.348.348 0 01.079-.298.333.333 0 01.284-.121l12.804.583a.356.356 0 01.334.306l7.519 51.713a.361.361 0 01-.197.37.343.343 0 01-.144.035l-10.265.199h-.042zm-9.59-52.48l9.881 51.762 9.56-.185-7.419-51.023-12.021-.555z" fill="#11253E"/>
      <path d="M83.547 26.755a12.092 12.092 0 00-14.184 2.212c-2.724 2.845-3.82 7.241-2.368 10.883a9.318 9.318 0 009.389 5.598c3.784-.313 7.32-4.062 8.927-7.277 1.928-3.884 2.91-9.04-1.764-11.416z" fill="#fff"/>
      <path d="M75.6 45.835a9.589 9.589 0 01-8.941-5.847 10.932 10.932 0 012.447-11.267 12.39 12.39 0 0114.575-2.276c1.885.953 5.847 4.033 1.92 11.886-1.686 3.372-5.285 7.149-9.247 7.469a8.11 8.11 0 01-.754.035zm2.276-20.094a11.446 11.446 0 00-8.258 3.478 10.193 10.193 0 00-2.298 10.506 8.934 8.934 0 009.034 5.37c3.493-.284 6.992-3.776 8.642-7.113 1.21-2.425 3.479-8.35-1.607-10.933a12.199 12.199 0 00-5.513-1.308z" fill="#11253E"/>
      <path d="M76.811 33.997a10.67 10.67 0 00-2.134 10.18c.246.97.825 1.824 1.636 2.41 1.608.982 3.706 0 5.129-1.237a19.996 19.996 0 005.157-7.583c.84-2.041 1.913-6.544-1.174-7.205-3.087-.662-6.722 1.287-8.614 3.435z" fill="#11253E"/>
      <path d="M77.774 47.348a3.102 3.102 0 01-1.658-.456 4.48 4.48 0 01-1.792-2.603 11.018 11.018 0 012.24-10.528c1.985-2.226 5.798-4.225 8.942-3.556a2.712 2.712 0 011.906 1.423c1.152 2.19-.306 5.875-.477 6.288a20.287 20.287 0 01-5.25 7.717 6.402 6.402 0 01-3.911 1.715zm6.401-16.546c-2.56 0-5.498 1.615-7.113 3.443a10.264 10.264 0 00-2.077 9.823c.21.896.74 1.684 1.487 2.22 1.423.882 3.379-.043 4.716-1.202a19.42 19.42 0 005.05-7.448c.576-1.38 1.316-4.14.505-5.69a1.977 1.977 0 00-1.422-1.039 5.352 5.352 0 00-1.117-.114l-.028.007z" fill="#11253E"/>
      <path d="M95.06 55.238a25.502 25.502 0 01-1.807 2.034 9.774 9.774 0 01-9.319 1.459c-7.397-2.64-8.308-10.763-7.76-17.534.227-2.753 1.422-8.6 5.434-6.296-1.166-.71 2.846-3.969 3.429-4.268 4.36-2.49 9.61-.49 12.804 2.938a36.735 36.735 0 014.936 6.352c1.423 2.547.754 6.402-.455 8.878a11.91 11.91 0 01-4.225 4.737c-.84.54-1.97.797-2.725 1.423-.109.087-.213.18-.313.277z" fill="#fff"/>
      <path d="M87.287 59.677a10.407 10.407 0 01-3.471-.59c-6.096-2.177-8.785-8.18-7.96-17.897.107-1.309.626-5.69 2.902-6.857a2.74 2.74 0 012.355-.057c.391-1.423 3.4-3.749 3.784-3.97 4.673-2.667 10.143-.312 13.238 3.01a36.357 36.357 0 014.979 6.401c1.479 2.654.804 6.63-.448 9.212a12.225 12.225 0 01-4.353 4.88 9.02 9.02 0 01-1.26.626 5.596 5.596 0 00-1.422.775c-.102.082-.2.17-.292.263-.234.25-.455.52-.711.811a7.556 7.556 0 01-1.145 1.245 9.78 9.78 0 01-6.196 2.148zm-7.37-24.896a1.804 1.804 0 00-.86.206c-1.55.811-2.326 3.898-2.525 6.288-.761 9.34 1.771 15.116 7.526 17.164a9.397 9.397 0 008.984-1.422 7.624 7.624 0 001.038-1.138c.222-.302.46-.592.712-.868a4.78 4.78 0 01.341-.313 6.299 6.299 0 011.608-.882 7.91 7.91 0 001.152-.57 11.477 11.477 0 004.097-4.594c1.174-2.419 1.821-6.118.462-8.536a35.264 35.264 0 00-4.865-6.281c-2.916-3.123-8.024-5.356-12.37-2.845-.597.341-3.464 2.802-3.464 3.627h.05a.355.355 0 01.062.613.355.355 0 01-.418 0 3.08 3.08 0 00-1.53-.477v.028z" fill="#11253E"/>
      <path d="M98.148 39.027s3.507 5.548 3.478 10.356a6.887 6.887 0 01-3.997 6.402l1.807 8.11s.96 4.14-4.268 4.63a8.948 8.948 0 01-7.932-3.52l-3.912-14.81s5.022-4.603 3.33-9.845c0 .028 7.582 1.82 11.494-1.323z" fill="#fff"/>
      <path d="M94.28 68.909a9.247 9.247 0 01-7.347-3.706.292.292 0 01-.05-.107l-3.912-14.788a.34.34 0 01.106-.349c.043-.042 4.83-4.51 3.23-9.467a.355.355 0 01.071-.356.356.356 0 01.349-.1c.07 0 7.461 1.707 11.189-1.287a.355.355 0 01.277-.078.365.365 0 01.242.163c.15.228 3.556 5.69 3.556 10.556a7.306 7.306 0 01-3.947 6.58l1.75 7.824a4.266 4.266 0 01-.648 3.194c-.768 1.067-2.091 1.693-3.933 1.871-.328.036-.633.05-.932.05zm-6.728-4.055a8.692 8.692 0 007.59 3.3c1.621-.149 2.774-.71 3.414-1.571a3.557 3.557 0 00.533-2.625l-1.806-8.073a.37.37 0 01.22-.413 6.475 6.475 0 003.77-6.053c0-3.998-2.49-8.579-3.222-9.838-3.443 2.44-9.07 1.643-10.898 1.302 1.124 4.68-2.589 8.657-3.428 9.482l3.827 14.49z" fill="#11253E"/>
      <path d="M85.899 48.544s-3.763-5.072-5.79-.889 2.952 7.113 5.378 6.26" fill="#fff"/>
      <path d="M84.512 54.463a5.749 5.749 0 01-4.04-1.892 4.318 4.318 0 01-.711-5.036c.555-1.138 1.287-1.757 2.19-1.842 2.05-.192 4.12 2.56 4.205 2.674a.356.356 0 01-.072.498.362.362 0 01-.498-.07c-.526-.712-2.197-2.526-3.556-2.39-.64.056-1.188.54-1.622 1.422a3.635 3.635 0 00.57 4.268c1.173 1.294 3.129 1.977 4.367 1.522a.355.355 0 01.242.669c-.346.12-.709.18-1.075.177zm11.552-3.713h-.213a.356.356 0 010-.711 4.268 4.268 0 002.34-.505c.043-.363-1.465-2.049-3.244-3.557a.357.357 0 01.067-.592.357.357 0 01.396.044c.818.712 3.47 3.045 3.47 4.133a.639.639 0 01-.227.512 4.517 4.517 0 01-2.589.676z" fill="#11253E"/>
      <path d="M94.89 53.687h-.07a6.053 6.053 0 01-4.027-1.587.357.357 0 01.078-.498.342.342 0 01.491.072 5.634 5.634 0 003.507 1.301h.05c1.664 0 3.18-.882 4.51-2.575a.357.357 0 01.561.441c-1.472 1.885-3.194 2.846-5.1 2.846zm2.742 2.085s-4.211 1.508-6.843 1.423c0 0 4.147 5.783 8.251 4.83l-1.408-6.253z" fill="#11253E"/>
      <path d="M98.099 62.493c-3.906 0-7.44-4.858-7.597-5.086a.362.362 0 010-.377.392.392 0 01.327-.185c2.525.072 6.665-1.422 6.708-1.422a.357.357 0 01.469.256l1.423 6.26a.355.355 0 01-.264.426 4.508 4.508 0 01-1.067.128zm-6.587-4.979c1.095 1.337 4.104 4.61 7.113 4.204l-1.238-5.513a25.687 25.687 0 01-5.883 1.337l.008-.028zm.988-10.927c.347-.097.49-.67.32-1.279-.171-.609-.592-1.023-.94-.926-.348.098-.491.67-.32 1.28.17.609.591 1.023.94.925zm5.794-1.634c.348-.098.491-.67.32-1.28-.17-.609-.591-1.023-.94-.925-.347.097-.49.67-.32 1.279.171.609.592 1.023.94.926z" fill="#11253E"/>
      <path d="M98.506 111.758l9.242-29.903h43.072l-10.298 29.903H98.506z" fill="#fff"/>
      <path d="M140.519 112.222H98.503a.478.478 0 01-.37-.185.459.459 0 01-.075-.417l9.261-29.903a.465.465 0 01.445-.324h43.072a.46.46 0 01.37.194.455.455 0 01.065.426l-10.298 29.894a.476.476 0 01-.454.315zm-41.386-.926h41.053l9.983-28.977h-42.081l-8.955 28.977z" fill="#11253E"/>
      <path d="M102.478 59.411l16.026 3.727-.619 13.608h-13.771l-1.636-17.335z" fill="#FEBE10"/>
      <path d="M109.999 80.598a.356.356 0 01-.349-.306l-2.255-16.062a.346.346 0 01.01-.14.35.35 0 01.167-.217.36.36 0 01.535.265l2.255 16.054a.343.343 0 01-.069.265.34.34 0 01-.237.134l-.057.007zm-31.847 1.506a.337.337 0 01-.12 0 .35.35 0 01-.214-.455l3.315-9.247a.355.355 0 11.668.242l-3.314 9.247a.356.356 0 01-.335.213z" fill="#11253E"/>
      <path d="M67.272 76.002s-12.129 27.314-6.402 33.553c5.726 6.238 36.277-5.961 36.277-5.961 5.235-1.046 10.876-2.888 12.348-8.785.185-.754.2-1.714-.455-2.134a1.926 1.926 0 00-1.152-.199c-1.319.067-2.62.339-3.856.804l.036-2.376c-2.902 2.447-6.324 5.15-10.115 5.797-2.497.42-5.129.463-7.654.662-4.4.35-8.803.67-13.209.96 0 0 2.91-10.57 5.03-16.574" fill="#fff"/>
      <path d="M67.066 111.675c-2.845 0-5.193-.527-6.402-1.878-5.847-6.338 5.811-32.82 6.317-33.944a.355.355 0 01.647.291c-.121.27-11.972 27.173-6.445 33.169 2.255 2.447 9.155 2.191 19.917-.711a168.214 168.214 0 0015.955-5.314c5.242-1.046 10.72-2.845 12.135-8.536.078-.313.292-1.365-.299-1.742a1.563 1.563 0 00-.939-.143 12.283 12.283 0 00-3.748.783.35.35 0 01-.446-.174.36.36 0 01-.038-.168v-1.6c-2.845 2.354-6.089 4.766-9.688 5.377a50.02 50.02 0 01-5.456.52c-.747.05-1.486.092-2.226.149-4.083.32-8.408.633-13.217.96a.349.349 0 01-.37-.28.377.377 0 010-.168c0-.107 2.945-10.67 5.044-16.595a.356.356 0 01.448-.22.363.363 0 01.22.455c-1.835 5.192-4.267 13.927-4.886 16.061 4.602-.313 8.77-.611 12.704-.924.711-.057 1.493-.1 2.24-.143a50.11 50.11 0 005.385-.519c3.678-.626 7.056-3.279 9.959-5.69a.373.373 0 01.384-.05.368.368 0 01.206.327v1.87a12.85 12.85 0 013.471-.654c.471-.06.949.03 1.366.257.676.426.896 1.344.605 2.517-1.508 6.061-7.227 7.974-12.62 9.048-.98.313-19.532 7.669-30.223 7.669z" fill="#11253E"/>
      <path d="M67.27 76.002s-12.128 27.315-6.402 33.553c5.726 6.238 36.277-5.961 36.277-5.961 5.235-1.046 10.876-2.888 12.348-8.785.185-.754.2-1.714-.455-2.134a1.927 1.927 0 00-1.152-.199 12.8 12.8 0 00-3.855.804l.035-2.376c-2.902 2.447-6.323 5.15-10.115 5.797-2.497.42-5.128.463-7.654.662-4.4.35-8.803.67-13.209.96 0 0 2.91-10.57 5.03-16.574" fill="#fff"/>
      <path d="M67.066 111.675c-2.845 0-5.193-.527-6.402-1.878-5.847-6.338 5.811-32.82 6.317-33.944a.356.356 0 01.647.291c-.121.27-11.972 27.173-6.445 33.169 2.255 2.447 9.155 2.191 19.917-.711a168.214 168.214 0 0015.955-5.314c5.242-1.045 10.72-2.845 12.135-8.536.078-.313.292-1.365-.299-1.742a1.563 1.563 0 00-.939-.143 12.283 12.283 0 00-3.748.783.35.35 0 01-.335-.043.362.362 0 01-.149-.299v-1.6c-2.845 2.354-6.089 4.766-9.688 5.377a49.9 49.9 0 01-5.456.52c-.747.05-1.486.092-2.226.15-4.083.32-8.408.632-13.217.96a.346.346 0 01-.298-.129.378.378 0 01-.072-.32c0-.106 2.945-10.67 5.044-16.595a.356.356 0 01.448-.22.362.362 0 01.22.455c-1.835 5.193-4.267 13.928-4.886 16.061 4.602-.313 8.77-.611 12.704-.924.711-.057 1.493-.1 2.24-.142 1.803-.077 3.6-.25 5.385-.52 3.678-.626 7.056-3.279 9.959-5.69a.374.374 0 01.384-.05.368.368 0 01.206.327v1.87a12.857 12.857 0 013.471-.653c.471-.06.949.03 1.366.256.676.426.896 1.344.605 2.518-1.508 6.06-7.227 7.974-12.62 9.048-.98.313-19.532 7.668-30.223 7.668z" fill="#11253E"/>
    </g>
    <path d="M42.386 100.984h124.259l19.941 28.777H22.446l19.94-28.777z" fill="#fff"/>
    <path d="M186.587 130.063H22.447a.297.297 0 01-.156-.045.295.295 0 01-.111-.118.3.3 0 010-.309l19.971-28.777a.295.295 0 01.249-.133h124.246a.296.296 0 01.248.133l19.929 28.777a.3.3 0 010 .309.305.305 0 01-.236.163zm-163.56-.605h162.979l-19.518-28.172H42.545l-19.518 28.172z" fill="#11253E"/>
    <path d="M186.582 129.76H22.635v5.586h163.947v-5.586z" fill="#fff"/>
    <path d="M186.586 135.649H22.633a.301.301 0 01-.303-.302v-5.586a.309.309 0 01.303-.303h163.953a.31.31 0 01.302.303v5.586a.302.302 0 01-.302.302zm-163.65-.605h163.347v-4.98H22.935v4.98z" fill="#11253E"/>
    <path d="M183.06 135.347H26.164v5.586H183.06v-5.586z" fill="#11253E"/>
    <path d="M183.058 141.235H26.162a.304.304 0 01-.303-.302v-5.586a.302.302 0 01.303-.303h156.896a.3.3 0 01.214.089.3.3 0 01.089.214v5.586a.31.31 0 01-.303.302zm-156.612-.605h156.31v-4.981H26.446v4.981z" fill="#11253E"/>
    <path d="M98.502 111.758l9.242-29.903h43.072l-10.298 29.903H98.502z" fill="#fff"/>
    <path d="M140.517 112.222H98.501a.478.478 0 01-.37-.185.455.455 0 01-.074-.417l9.26-29.903a.465.465 0 01.445-.324h43.072a.454.454 0 01.37.195.454.454 0 01.065.425l-10.298 29.894a.467.467 0 01-.454.315zm-41.386-.926h41.053l9.983-28.977h-42.081l-8.955 28.977z" fill="#11253E"/>
    <path d="M67.266 76.002s-12.128 27.315-6.402 33.553c5.726 6.238 36.277-5.961 36.277-5.961 5.236-1.045 10.876-2.888 12.349-8.784.185-.755.199-1.715-.455-2.135a1.93 1.93 0 00-1.153-.199 12.802 12.802 0 00-3.855.804l.035-2.376c-2.902 2.447-6.323 5.15-10.114 5.798-2.497.42-5.13.462-7.654.661-4.401.351-8.804.671-13.21.96 0 0 2.91-10.57 5.03-16.573" fill="#fff"/>
    <path d="M67.06 111.675c-2.845 0-5.192-.526-6.402-1.878-5.847-6.338 5.812-32.82 6.317-33.944a.356.356 0 01.647.292c-.12.27-11.971 27.172-6.444 33.168 2.255 2.447 9.154 2.191 19.916-.711a167.932 167.932 0 0015.955-5.314c5.243-1.045 10.72-2.845 12.135-8.535.079-.313.292-1.366-.298-1.743a1.566 1.566 0 00-.939-.142 12.286 12.286 0 00-3.749.782.35.35 0 01-.445-.174.375.375 0 01-.039-.167v-1.6c-2.845 2.354-6.088 4.765-9.688 5.377a50.101 50.101 0 01-5.456.52c-.746.049-1.486.092-2.226.148-4.083.32-8.408.633-13.216.96a.347.347 0 01-.299-.127.377.377 0 01-.071-.32c0-.107 2.945-10.67 5.043-16.596a.356.356 0 01.448-.22.363.363 0 01.22.455c-1.834 5.193-4.267 13.928-4.886 16.062 4.602-.313 8.77-.612 12.704-.925.711-.057 1.494-.1 2.24-.142a50.062 50.062 0 005.385-.52c3.678-.625 7.057-3.279 9.959-5.69a.374.374 0 01.384-.05.368.368 0 01.206.328v1.87a12.865 12.865 0 013.472-.654c.47-.06.948.03 1.365.256.676.427.897 1.344.605 2.518-1.508 6.06-7.227 7.974-12.619 9.048-.982.313-19.533 7.668-30.224 7.668z" fill="#11253E"/>
  </g>
  <defs>
    <clipPath id="3wgG5gNewa">
      <path fill="#fff" transform="translate(.5 .28)" d="M0 0h219.303v149.752H0z"/>
    </clipPath>
    <clipPath id="3wgG5gNewb">
      <path fill="#fff" transform="translate(-5.766 -4.733)" d="M0 0h230.581v134.715H0z"/>
    </clipPath>
  </defs>
</svg>
