<svg xmlns="http://www.w3.org/2000/svg" fill="none" viewBox="0 0 123 40">
  <g clip-path="url(#8ekRVTYTLa)">
    <path d="M19.437 39.439c10.704 0 19.382-8.678 19.382-19.383C38.82 9.352 30.141.674 19.437.674 8.732.674.055 9.352.055 20.057c0 10.704 8.677 19.382 19.382 19.382z" fill="#FDBD10"/>
    <path d="M25.741 23.678c-1.274 2.214-3.621 3.622-6.304 3.622-4.024 0-7.243-3.286-7.243-7.243 0-3.957 3.286-7.243 7.243-7.243 2.683 0 5.03 1.475 6.304 3.621l4.159-2.548c-2.146-3.555-5.97-5.902-10.396-5.902-6.706 0-12.139 5.432-12.139 12.139a12.022 12.022 0 0012.072 12.072c4.56 0 8.518-2.482 10.597-6.17l-4.293-2.348zm21.126-2.079c0-4.091 3.622-7.579 7.914-7.579 2.347 0 4.292.94 5.7 2.482l-2.749 2.28c-.738-.805-1.878-1.341-3.018-1.341-2.146 0-3.89 1.878-3.89 4.091 0 2.28 1.81 4.158 3.957 4.158 1.14 0 2.28-.536 3.085-1.408l2.683 2.28a7.733 7.733 0 01-5.768 2.548c-4.292.067-7.914-3.42-7.914-7.511zm14.352 0c0-4.091 3.621-7.579 7.914-7.579 4.292 0 7.846 3.42 7.846 7.579 0 4.091-3.554 7.578-7.846 7.578-4.293 0-7.914-3.487-7.914-7.578zm11.87 0c0-2.213-1.81-4.091-3.956-4.091-2.214 0-4.024 1.878-4.024 4.091s1.81 4.158 4.024 4.158c2.146 0 3.957-1.945 3.957-4.158zm18.779-1.409v8.652h-3.956v-1.475c-1.007 1.207-2.683 1.81-4.226 1.81-3.085 0-5.432-1.877-5.432-4.627 0-2.884 2.683-4.829 6.036-4.829 1.207 0 2.481.268 3.689.738v-.268c0-1.543-.94-2.884-3.354-2.884-1.341 0-2.615.47-3.755 1.006l-1.342-2.683c2.012-1.006 4.024-1.61 6.036-1.61 3.756 0 6.304 2.415 6.304 6.17zm-3.956 4.092V22.94a9.311 9.311 0 00-3.086-.536c-1.475 0-2.682.872-2.682 2.012 0 1.207 1.006 1.878 2.414 1.878 1.61.067 3.085-.671 3.353-2.012zm5.901-2.683c0-4.091 3.621-7.579 7.913-7.579 2.348 0 4.293.94 5.701 2.482l-2.683 2.347c-.737-.805-1.878-1.341-3.018-1.341-2.146 0-3.89 1.878-3.89 4.091 0 2.28 1.811 4.158 3.957 4.158 1.141 0 2.281-.536 3.085-1.408l2.683 2.28a7.732 7.732 0 01-5.768 2.548c-4.359 0-7.98-3.487-7.98-7.578zm29.241-1.945v9.188h-3.957v-8.316c0-1.81-1.14-3.018-2.75-3.018-1.676 0-3.018 1.207-3.018 2.817v8.517h-4.091V9.26h4.091v6.84c.872-1.274 2.482-2.079 4.36-2.079 3.085 0 5.365 2.348 5.365 5.634z" fill="#fff"/>
  </g>
  <defs>
    <clipPath id="8ekRVTYTLa">
      <path fill="#fff" transform="translate(0 .578)" d="M0 0h123v39H0z"/>
    </clipPath>
  </defs>
</svg>
