<svg xmlns="http://www.w3.org/2000/svg" fill="none" viewBox="0 0 147 46">
  <g clip-path="url(#oBIkJ1CEXa)">
    <path d="M138.878 1.541H7.59c-2.812 0-5.287 2.363-5.287 5.288v31.5a5.281 5.281 0 005.287 5.287h131.288a5.28 5.28 0 005.287-5.288v-31.5a5.28 5.28 0 00-5.287-5.287z" stroke="#11253E" stroke-width="1.158" stroke-miterlimit="10"/>
    <path d="M73.966 24.378c-2.475 0-4.5 1.913-4.5 4.5 0 2.588 2.025 4.5 4.5 4.5s4.5-1.912 4.5-4.5c0-2.587-2.025-4.5-4.5-4.5zm0 7.2c-1.35 0-2.475-1.125-2.475-2.7 0-1.575 1.125-2.7 2.475-2.7s2.475 1.125 2.475 2.7c0 1.575-1.125 2.7-2.475 2.7zm-9.787-7.2c-2.475 0-4.5 1.913-4.5 4.5 0 2.588 2.025 4.5 4.5 4.5s4.5-1.912 4.5-4.5c0-2.587-2.025-4.5-4.5-4.5zm0 7.2c-1.35 0-2.475-1.125-2.475-2.7 0-1.575 1.125-2.7 2.475-2.7s2.475 1.125 2.475 2.7c0 1.575-1.125 2.7-2.475 2.7zm-11.588-5.85v1.913h4.5c-.112 1.012-.45 1.8-1.012 2.362-.675.675-1.688 1.35-3.488 1.35-2.812 0-4.95-2.25-4.95-5.062 0-2.813 2.25-5.063 4.95-5.063 1.463 0 2.588.563 3.375 1.35l1.35-1.35c-1.125-1.125-2.587-1.912-4.725-1.912-3.825.112-7.087 3.262-7.087 6.975 0 3.712 3.262 6.975 6.975 6.975 2.025 0 3.6-.675 4.837-1.913 1.238-1.237 1.688-3.037 1.688-4.387 0-.45 0-.788-.113-1.238h-6.3zm47.588 1.463c-.338-1.013-1.463-2.813-3.825-2.813-2.25 0-4.275 1.8-4.275 4.5 0 2.475 1.912 4.5 4.387 4.5 2.025 0 3.263-1.237 3.713-2.025l-1.463-1.012c-.45.787-1.237 1.237-2.25 1.237-1.012 0-1.687-.45-2.137-1.35l5.962-2.475-.112-.562zm-6.188 1.575c0-1.8 1.35-2.588 2.363-2.588.787 0 1.462.338 1.687 1.013l-4.05 1.575zm-4.837 4.275h2.025V19.878h-2.025v13.163zm-3.263-7.65c-.45-.45-1.35-1.013-2.362-1.013-2.25 0-4.275 2.025-4.275 4.5s2.025 4.5 4.275 4.5c1.012 0 1.912-.45 2.362-1.012v.675c0 1.687-.9 2.587-2.362 2.587-1.238 0-1.913-.9-2.25-1.575l-1.688.675c.45 1.238 1.8 2.588 3.938 2.588 2.25 0 4.275-1.35 4.275-4.613v-7.987h-1.8l-.113.675zm-2.25 6.187c-1.35 0-2.475-1.125-2.475-2.7 0-1.575 1.125-2.7 2.475-2.7s2.363 1.125 2.363 2.7c.112 1.575-1.013 2.7-2.363 2.7zm25.65-11.7h-4.725v13.163h2.025v-4.95h2.813c2.137 0 4.275-1.575 4.275-4.05 0-2.475-2.138-4.163-4.388-4.163zm.113 6.413h-2.813v-4.5h2.813c1.462 0 2.25 1.237 2.25 2.25 0 1.012-.788 2.25-2.25 2.25zm12.037-1.913c-1.462 0-2.925.675-3.487 2.025l1.8.788c.337-.788 1.012-1.013 1.8-1.013 1.012 0 2.025.563 2.025 1.688v.112c-.338-.225-1.125-.45-2.025-.45-1.913 0-3.713 1.013-3.713 2.925 0 1.8 1.463 2.925 3.263 2.925 1.35 0 2.025-.562 2.475-1.237v.9h1.912v-5.063c0-2.362-1.8-3.6-4.05-3.6zm-.225 7.2c-.675 0-1.462-.337-1.462-1.125 0-1.012 1.125-1.462 2.025-1.462.9 0 1.237.225 1.8.45-.113 1.237-1.238 2.137-2.363 2.137zm11.138-6.975l-2.25 5.738-2.363-5.738h-2.137l3.487 7.988-2.025 4.387h2.025l5.4-12.375h-2.137zm-17.663 8.438h2.025V19.878h-2.025v13.163zM52.254 12.229c0 .787-.225 1.462-.788 2.025-.562.562-1.237.9-2.25.9-.9 0-1.575-.226-2.25-.9-.562-.563-.9-1.35-.9-2.25 0-.9.338-1.575.9-2.25.563-.563 1.35-.9 2.25-.9.45 0 .788.112 1.238.225.337.225.675.337.9.675l-.45.45c-.45-.45-.9-.675-1.575-.675-.675 0-1.125.225-1.575.675-.45.45-.675 1.012-.675 1.687s.225 1.238.675 1.688a2.22 2.22 0 001.575.675c.675 0 1.237-.226 1.687-.675.225-.226.45-.676.45-1.238H49.33v-.787h2.925v.675zm4.612-2.475h-2.7v1.912h2.475v.788h-2.475v1.912h2.7v.675H53.38V9.08h3.487v.675zm3.264 5.287h-.788V9.754h-1.688v-.675h4.05v.787h-1.687c.112-.112.112 5.175.112 5.175zm4.612 0V9.08h.788v5.962h-.788zm4.163 0h-.788V9.754H66.43v-.675h4.05v.787h-1.688l.113 5.175zm9.449-.787c-.563.562-1.35.9-2.25.9-.9 0-1.575-.338-2.138-.9-.562-.563-.9-1.35-.9-2.25 0-.9.225-1.575.9-2.25.563-.563 1.35-.9 2.138-.9.9 0 1.575.337 2.137.9.563.562.9 1.35.9 2.25 0 .9-.225 1.575-.787 2.25zm-3.825-.563a2.22 2.22 0 001.575.675c.562 0 1.237-.225 1.575-.675.45-.45.675-1.013.675-1.688s-.225-1.237-.675-1.687a2.221 2.221 0 00-1.575-.675c-.563 0-1.238.225-1.575.675-.45.45-.675 1.012-.675 1.688 0 .675.225 1.237.675 1.687zm5.737 1.35V9.08h.9l2.925 4.612V9.08h.787v5.962h-.787l-3.038-4.837v4.837h-.787zm-67.05-4.725c-.338.225-.45.675-.45 1.35v21.262c0 .675.225 1.013.45 1.35l.112.113 11.925-11.925v-.225L13.216 10.316zm17.888 16.088l-3.938-3.938v-.225l3.938-3.937h.112l4.725 2.7c1.35.675 1.35 2.025 0 2.812l-4.838 2.588zm-.901.899l-4.05-4.05L14.23 35.291c.45.45 1.125.562 2.024 0l13.95-7.988zm0-10.125L16.14 9.191c-.787-.45-1.575-.45-2.025 0L26.04 21.228l4.163-4.05z" fill="#11253E"/>
  </g>
  <defs>
    <clipPath id="oBIkJ1CEXa">
      <path fill="#fff" transform="translate(.166 .416)" d="M0 0h146.25v45H0z"/>
    </clipPath>
  </defs>
</svg>
