<svg xmlns="http://www.w3.org/2000/svg" fill="none" viewBox="0 0 433 284">
  <path d="M106.554 247.07h72.572v-3.075h-72.572v3.075zm-3.692-3.075h72.573v-3.075h-72.573v3.075z" fill="#FEBE10" stroke="#11253E" stroke-width="1.019"/>
  <path d="M107.168 240.921h72.572v-3.075h-72.572v3.075zm7.381-3.076h72.572v-3.075h-72.572v3.075z" fill="#FEBE10" stroke="#11253E" stroke-width="1.019"/>
  <path d="M52.8 239.072h2.52v-17.89H52.8v17.89z" fill="#11253E"/>
  <path d="M52.796 220.954l.947 2.334 93.243-37.845-.948-2.335-93.242 37.846zM6.185 265.78h21.921v-8.568H6.185v8.568z" fill="#11253E"/>
  <path d="M8.2 274.347h108.097v-9.575H8.201v9.575z" fill="#11253E"/>
  <path d="M25.964 269.559h25.953v-32.63H32.515l-6.551 16.457v16.173z" fill="#E2E2E2" stroke="#11253E" stroke-width="1.019"/>
  <path d="M36.799 250.031h11.087v-11.087H36.799v11.087zm-8.316.127h7.056v-11.086h-3.024l-4.032 11.086z" fill="#fff" stroke="#11253E" stroke-width="1.019"/>
  <path d="M44.863 261.118h2.52v-4.788h-2.52v4.788zm-11.466-10.206h-.126a2.393 2.393 0 110-4.787h.126v4.787zm93.735 18.647h-.126a2.394 2.394 0 110-4.787h.126v4.787z" fill="#11253E"/>
  <path d="M15.885 264.736a12.467 12.467 0 00-9.69 4.823H1.27l4.787-13.336 22.3-4.398-.63 17.734h-2.153a12.47 12.47 0 00-9.69-4.823z" fill="#E2E2E2" stroke="#11253E" stroke-width="1.019"/>
  <path d="M15.634 283.669c6.053 0 10.96-4.907 10.96-10.96 0-6.054-4.907-10.961-10.96-10.961-6.054 0-10.96 4.907-10.96 10.961 0 6.053 4.906 10.96 10.96 10.96z" fill="#11253E"/>
  <path d="M15.634 278.478a5.769 5.769 0 100-11.538 5.769 5.769 0 000 11.538z" fill="#E2E2E2"/>
  <path d="M114.659 283.543a9.575 9.575 0 009.575-9.575c0-5.288-4.287-9.574-9.575-9.574-5.288 0-9.575 4.286-9.575 9.574a9.575 9.575 0 009.575 9.575z" fill="#11253E"/>
  <path d="M114.659 279.009a5.039 5.039 0 100-10.079 5.04 5.04 0 100 10.079z" fill="#E2E2E2"/>
  <path d="M51.163 270.568h5.291v-38.173h-5.291v38.173z" fill="#11253E"/>
  <path d="M51.161 265.906h76.096v-2.268H51.161v2.268zm-19.275-14.237h2.52v-1.007h-2.52v1.007zm111.372-4.617a.262.262 0 01-.053-.091c-.011-.034-.015-.07-.011-.105l3.475-32.862a.251.251 0 01.249-.225h.001c.062 0 .122.022.168.064a.25.25 0 01.083.159l3.758 32.794a.245.245 0 01-.01.104.242.242 0 01-.135.153.246.246 0 01-.103.023l-7.233.068h-.003a.242.242 0 01-.186-.082zm3.672-30.731l-3.205 30.307 6.671-.063-3.466-30.244zM6.105 256.417l.118.045a2.393 2.393 0 11-1.694 4.478l-.118-.045 1.694-4.478z" fill="#11253E"/>
  <path d="M145.777 219.92h2.52v-36.788h-2.52v36.788zm-91.717 5.292a3.528 3.528 0 100-7.055 3.528 3.528 0 000 7.055z" fill="#11253E"/>
  <path d="M59.196 263.676h72.573v-5.535H59.196v5.535z" fill="#FEBE10" stroke="#11253E" stroke-width="1.019"/>
  <path d="M60.427 258.141h72.572v-3.075H60.427v3.075zm4.305-3.075h72.573v-3.075H64.732v3.075z" fill="#FEBE10" stroke="#11253E" stroke-width="1.019"/>
  <path d="M309.686 151.674v76.82h29.874v-77.887l-6.935.248v-15.718h-5.03l-.829-34.813c2.03-1.323 3.458-4.464 3.458-8.132a13.33 13.33 0 00-.365-3.126 6.396 6.396 0 00.689-7.791 6.4 6.4 0 108.295-9.75 6.402 6.402 0 10-8.612-5.727 6.404 6.404 0 00-8.203 5.156 6.397 6.397 0 00-5.351-.554 6.402 6.402 0 00.747 12.317c-.001.047-.003.093-.003.14a31.044 31.044 0 002.261 5.187 12.937 12.937 0 00-.661 4.148c0 3.668 1.429 6.81 3.458 8.132l-.828 34.813h-5.03v16.289l-6.935.248zm18.654-73.352h.017c.092 0 .184-.003.275-.007.058.19.124.374.198.556a6.442 6.442 0 00-.49-.55z" fill="#E2E2E2"/>
  <path d="M293.237 283.175h90.69V178.259h-90.69v104.916z" fill="#11253E" stroke="#11253E" stroke-width="1.019"/>
  <path d="M326.355 283.175h24.451v-21.339h-24.451v21.339z" fill="#E2E2E2" stroke="#11253E" stroke-width="1.019"/>
  <path d="M263.011 40.213c-.002.078-.006.155-.006.233a10.639 10.639 0 003.235 7.649c.16.341.338.674.534.996a21.513 21.513 0 00-1.101 6.914c0 8.102 4.179 14.67 9.335 14.67 5.156 0 9.336-6.568 9.336-14.67.004-1.755-.2-3.504-.608-5.211a10.66 10.66 0 001.148-12.985 10.658 10.658 0 007.806 2.605 10.67 10.67 0 009.375-7.394c.43-1.346.588-2.764.465-4.171a10.656 10.656 0 00-3.821-7.288 10.674 10.674 0 006.889-8.653A10.674 10.674 0 00295.695.902a10.672 10.672 0 00-11.351 10.647c0 .157.005.312.012.466a10.678 10.678 0 00-13.672 8.592 10.673 10.673 0 00-15.392 5.281 10.67 10.67 0 007.719 14.325zm18.221-7.325c.154 0 .307-.005.459-.011.096.315.206.623.33.926-.255-.32-.527-.626-.816-.916l.027.001z" fill="#E2E2E2"/>
  <path d="M269.673 143.583h10.671l-.382-16.003v-.006l-1.396-58.68a6.822 6.822 0 01-7.116 0l-1.396 58.68v.006l-.381 16.003z" fill="#FEBE10" stroke="#11253E" stroke-width="1.019"/>
  <path d="M250.115 155.14v128.035h49.787V153.363l-11.557.412v-26.194h-26.674v27.147l-11.556.412z" fill="#FEBE10" stroke="#11253E" stroke-width="1.019"/>
  <path d="M195.398 117.236a7.844 7.844 0 015.15 1.919 7.865 7.865 0 013.466-.152 7.876 7.876 0 0112.833-.2 7.878 7.878 0 011.534 4.671h-30.69a7.884 7.884 0 017.707-6.238zm-46.172 24.829a7.417 7.417 0 014.869 1.814 7.43 7.43 0 013.276-.144 7.45 7.45 0 0113.583 4.228h-29.015a7.452 7.452 0 017.287-5.898zm-46.161-40.951a7.716 7.716 0 015.066 1.888 7.713 7.713 0 013.409-.15 7.75 7.75 0 0114.132 4.398H95.483a7.755 7.755 0 017.582-6.136zm287.092-60.901c-.002.078-.006.155-.006.233a10.621 10.621 0 003.235 7.649c.16.341.338.674.533.996a21.568 21.568 0 00-1.101 6.914c0 8.102 4.18 14.67 9.336 14.67 5.156 0 9.336-6.568 9.336-14.67a22.252 22.252 0 00-.609-5.211 10.662 10.662 0 001.148-12.985 10.672 10.672 0 0011.849 1.479 10.655 10.655 0 005.333-6.268 10.656 10.656 0 00-.715-8.199 10.666 10.666 0 00-2.642-3.26 10.677 10.677 0 006.89-8.653A10.674 10.674 0 00422.841.902a10.672 10.672 0 00-11.351 10.647c0 .157.005.312.011.466a10.674 10.674 0 00-13.672 8.592 10.664 10.664 0 00-8.918-.922 10.676 10.676 0 00-6.473 6.203 10.67 10.67 0 007.719 14.325zm18.221-7.325c.154 0 .306-.005.459-.011.095.315.205.623.329.926-.254-.32-.527-.626-.816-.916l.028.001z" fill="#E2E2E2"/>
  <path d="M396.819 143.583h10.67l-1.778-74.686a10.519 10.519 0 01-7.113 0l-1.779 74.686z" fill="#FEBE10" stroke="#11253E" stroke-width="1.019"/>
  <path d="M377.261 155.14v128.035h49.792V153.363l-4.09.147-7.473.265v-26.194h-26.673v27.147l-11.556.412z" fill="#FEBE10" stroke="#11253E" stroke-width="1.019"/>
  <path d="M352.113 203.222h12.3v-12.3h-12.3v12.3zm-19.682 0h12.3v-12.3h-12.3v12.3zm-19.681 0h12.301v-12.3H312.75v12.3zm39.363 19.68h12.3v-12.3h-12.3v12.3zm-19.682 0h12.3v-12.3h-12.3v12.3zm-19.681 0h12.301v-12.3H312.75v12.3zm39.363 19.681h12.3v-12.3h-12.3v12.3zm-19.682 0h12.3v-12.3h-12.3v12.3zm-19.681 0h12.301v-12.3H312.75v12.3zm-43.891-44.282h12.3v-12.3h-12.3v12.3zm0 19.681h12.3v-12.301h-12.3v12.301zm0 19.68h12.3v-12.3h-12.3v12.3zm0 19.682h12.3v-12.301h-12.3v12.301zm127.042-59.043h12.3v-12.3h-12.3v12.3zm0 19.68h12.3v-12.3h-12.3v12.3zm0 19.681h12.3v-12.3h-12.3v12.3zm0 19.681h12.3v-12.3h-12.3v12.3z" fill="#fff" stroke="#11253E"/>
</svg>
