<svg xmlns="http://www.w3.org/2000/svg" fill="none" viewBox="0 0 194 49">
  <rect x="8.264" y="5.718" width="185" height="38" rx="19" fill="#F5F6F7"/>
  <path d="M63.092 29.718h-2.471l3.765-10.909h2.973l3.76 10.91h-2.471l-2.733-8.417h-.085l-2.738 8.416zm-.154-4.288h5.838v1.8h-5.838v-1.8zm13.512 4.288h-3.868V18.81h3.9c1.097 0 2.042.219 2.834.655a4.42 4.42 0 011.826 1.87c.43.813.645 1.786.645 2.92 0 1.135-.215 2.112-.645 2.929a4.43 4.43 0 01-1.837 1.88c-.796.437-1.747.655-2.855.655zm-1.561-1.976h1.465c.682 0 1.255-.12 1.72-.362.47-.245.82-.623 1.055-1.135.238-.515.357-1.179.357-1.992 0-.806-.119-1.465-.357-1.976-.234-.512-.584-.888-1.05-1.13-.464-.24-1.038-.362-1.72-.362h-1.47v6.957zm12.624 1.976h-3.867V18.81h3.899c1.097 0 2.042.219 2.834.655a4.42 4.42 0 011.827 1.87c.43.813.644 1.786.644 2.92 0 1.135-.215 2.112-.644 2.929a4.43 4.43 0 01-1.838 1.88c-.795.437-1.747.655-2.855.655zm-1.56-1.976h1.464c.682 0 1.255-.12 1.72-.362.47-.245.82-.623 1.055-1.135.238-.515.357-1.179.357-1.992 0-.806-.119-1.465-.357-1.976-.234-.512-.584-.888-1.05-1.13-.464-.24-1.038-.362-1.72-.362h-1.47v6.957zm22.003-5.114h-2.333a2.298 2.298 0 00-.261-.804c-.132-.238-.3-.44-.506-.607a2.228 2.228 0 00-.714-.384 2.733 2.733 0 00-.868-.133c-.565 0-1.057.14-1.476.421-.419.277-.744.682-.975 1.214-.231.53-.346 1.172-.346 1.929 0 .777.115 1.43.346 1.96.235.53.561.929.98 1.198.419.27.904.405 1.455.405.309 0 .594-.04.857-.122.267-.082.503-.2.709-.357.206-.16.376-.354.511-.58.138-.228.234-.487.288-.778l2.333.01a4.353 4.353 0 01-1.417 2.69c-.401.362-.881.65-1.438.863-.554.21-1.181.314-1.881.314-.973 0-1.843-.22-2.61-.66-.763-.44-1.367-1.078-1.81-1.912-.441-.835-.661-1.845-.661-3.031 0-1.19.223-2.202.67-3.037.448-.834 1.056-1.47 1.823-1.907.767-.44 1.629-.66 2.588-.66.632 0 1.218.089 1.758.266a4.46 4.46 0 011.444.778c.419.337.76.751 1.022 1.241.267.49.437 1.051.512 1.683zm11.829 1.636c0 1.19-.226 2.201-.677 3.036-.447.834-1.058 1.472-1.832 1.912-.771.437-1.637.655-2.6.655-.969 0-1.839-.22-2.61-.66-.77-.44-1.379-1.078-1.827-1.912-.447-.835-.671-1.845-.671-3.031 0-1.19.224-2.202.671-3.037.448-.834 1.057-1.47 1.827-1.907.771-.44 1.641-.66 2.61-.66.963 0 1.829.22 2.6.66.774.437 1.385 1.073 1.832 1.907.451.835.677 1.847.677 3.037zm-2.339 0c0-.77-.115-1.42-.346-1.95-.227-.529-.549-.93-.964-1.204-.416-.273-.902-.41-1.46-.41-.557 0-1.044.137-1.459.41-.416.274-.739.675-.97 1.204-.227.53-.341 1.18-.341 1.95s.114 1.42.341 1.95c.231.528.554.93.97 1.203.415.274.902.41 1.459.41.558 0 1.044-.136 1.46-.41.415-.273.737-.675.964-1.204.231-.529.346-1.179.346-1.95zm13.322-5.455v10.91h-1.992l-4.747-6.867h-.079v6.866h-2.307V18.81h2.024l4.709 6.861h.096v-6.86h2.296zm1.64 1.902v-1.902h8.959v1.902h-3.339v9.007h-2.28v-9.007h-3.34zm10.585 9.007V18.81h7.351v1.902h-5.045v2.6h4.667v1.9h-4.667v2.606h5.066v1.901h-7.372zm18.459-10.909v10.91h-1.992l-4.746-6.867h-.08v6.866h-2.307V18.81h2.025l4.708 6.861h.096v-6.86h2.296zm1.64 1.902v-1.902h8.96v1.902h-3.34v9.007h-2.28v-9.007h-3.34z" fill="#3E7CB1"/>
  <circle cx="24.727" cy="24.718" r="22.641" fill="#fff" stroke="#3E7CB1" stroke-width="2.714"/>
  <path d="M28.767 12.31v23.608h-4.992v-18.87h-.138l-5.407 3.389V16.01l5.845-3.7h4.692z" fill="#3E7CB1"/>
</svg>
