<svg xmlns="http://www.w3.org/2000/svg" fill="none" viewBox="0 0 173 136">
  <path d="M66.395 33.782h26.921a21.036 21.036 0 0121.036 21.035v44.389H45.359v-44.39a21.035 21.035 0 0121.036-21.035z" fill="#11253E"/>
  <path d="M114.357 99.518H45.358a.313.313 0 01-.313-.313V54.817a21.374 21.374 0 0121.349-21.349h26.92a21.372 21.372 0 0121.356 21.35v44.387a.312.312 0 01-.313.313zm-68.686-.626h68.373V54.817a20.75 20.75 0 00-20.73-20.723h-26.92A20.748 20.748 0 0045.67 54.817v44.075z" fill="#11253E"/>
  <path d="M76.623 42.94s-16.04 5.009-17.8 8.865c-1.251 2.755 8.14 27.04 8.14 27.04s1.408 7.231 1.314 9.867c-.094 2.636-.939 15.238-.939 15.238h37.383s-1.879-16.647-1.691-18.907c.188-2.26 2.348-11.839 2.348-11.839l4.514-23.79s-15.251-6.205-17.067-6.887c-1.815-.683-16.202.413-16.202.413z" fill="#FEBE10"/>
  <path d="M100.045 36.873c1.134-.788 2.041-1.79 2.179-2.504a4.944 4.944 0 00-.401-2.385c-2.735-8.22-2.19-17.586-6.805-24.893a7.007 7.007 0 00-2.341-2.504 3.068 3.068 0 00-3.262 0c-4.101-6.905-14.168-1.96-17.023 3.675-3.03 5.929-4.802 12.734-7.05 18.995-.694 1.935-1.402 3.957-1.17 6.004.231 2.047 1.69 4.107 3.756 4.307l1.083-1.878a1.477 1.477 0 00.17 2.01 4.255 4.255 0 002.015.914c7.238 1.828 15.026 3.28 22.032.795 1.089-.382 2.36-1.334 1.922-2.398.62 1.89 3.055 1.152 4.895-.138z" fill="#fff"/>
  <path d="M84.938 41.025c-4.583 0-9.285-.97-13.836-2.122a4.526 4.526 0 01-2.167-1.002 1.959 1.959 0 01-.45-.695l-.295.513a.326.326 0 01-.313.163c-2.31-.219-3.8-2.504-4.031-4.595-.238-2.16.52-4.276 1.195-6.148.676-1.872 1.303-3.8 1.922-5.685 1.478-4.501 3-9.159 5.14-13.347 1.941-3.838 6.95-7.062 11.113-7.188a6.887 6.887 0 016.304 3.275 3.519 3.519 0 013.312.137 7.375 7.375 0 012.455 2.586c2.867 4.54 3.756 9.936 4.67 15.157a65.842 65.842 0 002.172 9.792l.038.113c.328.769.455 1.61.369 2.441-.169.933-1.302 2.016-2.304 2.717-1.584 1.108-3.13 1.566-4.188 1.252a1.972 1.972 0 01-.626-.35 3.67 3.67 0 01-2.085 1.646 25.046 25.046 0 01-8.395 1.34zM69.035 36.28a1.34 1.34 0 000 .2c.008.362.154.707.407.964a4.038 4.038 0 001.879.833c7.3 1.878 15.025 3.224 21.843.807a3.13 3.13 0 001.715-1.302.839.839 0 00.05-.588.77.77 0 01-.043-.107.332.332 0 01.321-.428.313.313 0 01.286.203.917.917 0 01.044.119 1.253 1.253 0 00.77.77c.82.269 2.241-.175 3.619-1.14l.181.263-.181-.263c1.089-.763 1.928-1.715 2.041-2.31a4.464 4.464 0 00-.351-2.116l-.038-.113a66.396 66.396 0 01-2.197-9.891c-.92-5.153-1.84-10.487-4.64-14.92a6.711 6.711 0 00-2.228-2.366 2.748 2.748 0 00-2.905 0 .32.32 0 01-.257.056.313.313 0 01-.213-.15 6.304 6.304 0 00-5.897-3.243c-3.963.119-8.702 3.187-10.562 6.837-2.116 4.144-3.637 8.765-5.102 13.253-.626 1.879-1.252 3.838-1.928 5.704-.677 1.866-1.384 3.85-1.159 5.86.194 1.747 1.39 3.694 3.243 3.994l.676-1.164c.063-.238.189-.454.364-.626a.313.313 0 01.42 0 .326.326 0 01.087.413l-.245.45z" fill="#11253E"/>
  <path d="M88.57 42.22s1.62 23.071-6.462 21.53c-10.75-2.29-5.86-18.493-5.86-18.493l.175-3.037.414-7.037.382-6.58 11.269-.125.438 5.372.132 1.747-.489 6.623z" fill="#fff"/>
  <path d="M82.865 64.145a4.11 4.11 0 01-.82-.082 8.188 8.188 0 01-5.603-3.894c-3.218-5.453-.732-14.236-.513-14.969l.97-16.622a.32.32 0 01.32-.307l11.269-.125a.338.338 0 01.325.294l.563 7.125-.507 6.661c.07.964 1.084 16.848-3.53 20.942a3.669 3.669 0 01-2.474.977zm-5.34-35.223l-.977 16.353a.314.314 0 010 .075c-.03.088-2.71 9.166.439 14.487a7.58 7.58 0 005.171 3.594 3.042 3.042 0 002.76-.745c4.427-3.925 3.332-20.278 3.32-20.441v-.05l.506-6.63-.538-6.768-10.68.125z" fill="#11253E"/>
  <path d="M89.068 35.59a10.643 10.643 0 01-3.668 3.757c-2.417 1.572-5.823 2.968-8.765 2.505l.2-6.668c2.16.294 4.35.294 6.511 0 1.878-.213 3.863-.45 5.603-1.315l.12 1.722z" fill="#11253E"/>
  <path d="M77.837 42.252a7.43 7.43 0 01-1.252-.1.313.313 0 01-.257-.32l.22-6.648a.293.293 0 01.112-.232.313.313 0 01.244-.069 23.73 23.73 0 006.43 0c1.766-.194 3.756-.419 5.503-1.252a.294.294 0 01.288 0 .301.301 0 01.157.25l.137 1.741a.395.395 0 01-.037.17 10.781 10.781 0 01-3.757 3.887c-2.642 1.634-5.44 2.573-7.788 2.573zm-.883-.676c2.373.288 5.447-.626 8.29-2.473a10.317 10.317 0 003.518-3.581l-.088-1.202a18.256 18.256 0 01-5.296 1.146c-2.076.288-4.18.311-6.26.069l-.164 6.041z" fill="#11253E"/>
  <path d="M83.337 36.767h-1.159a9.935 9.935 0 01-10.017-9.823c-.037-3.13.858-9.103.858-9.103s4.583-1.646 8.183-3.005c6.035-2.285 7.663-5.547 7.663-5.547a24.417 24.417 0 001.396 6.361 29.076 29.076 0 002.692 4.138s.181 4.896.2 6.937a9.93 9.93 0 01-9.816 10.042z" fill="#fff"/>
  <path d="M82.065 37.099a10.261 10.261 0 01-10.249-10.136 78.97 78.97 0 01.864-9.16.332.332 0 01.213-.256c.044 0 4.62-1.66 8.17-3 5.83-2.203 7.476-5.358 7.513-5.39a.332.332 0 01.357-.169.319.319 0 01.257.295 24.422 24.422 0 001.39 6.26 28.567 28.567 0 002.654 4.07.3.3 0 01.069.188c0 .05.175 4.92.2 6.949a10.262 10.262 0 01-10.16 10.311h-1.159l-.119.038zM73.3 18.092a76.193 76.193 0 00-.826 8.865 9.61 9.61 0 009.591 9.478h1.271a9.616 9.616 0 009.491-9.704c0-1.878-.169-6.11-.2-6.83a27.006 27.006 0 01-2.66-4.126 24.09 24.09 0 01-1.353-5.54c-.87 1.139-2.974 3.274-7.319 4.914a669.196 669.196 0 01-8.001 2.943h.006z" fill="#11253E"/>
  <path d="M82.12 26.77a11.31 11.31 0 01-1.252-.063.702.702 0 01-.526-.345c-.758-1.252 1.127-6.486 1.515-7.512a.313.313 0 01.413-.188.318.318 0 01.194.413c-.914 2.46-2.01 6.26-1.571 6.962.946.11 1.902.11 2.848 0a.318.318 0 01.363.275.325.325 0 01-.281.363c-.565.068-1.134.1-1.703.094zm5.086-4.431c.377-.005.674-.762.664-1.692-.01-.93-.324-1.68-.701-1.676-.377.004-.674.761-.664 1.691.01.93.324 1.68.7 1.677zm-9.051-.213c.377-.004.674-.761.664-1.691-.01-.93-.324-1.68-.701-1.677-.377.005-.674.762-.664 1.692.01.93.324 1.68.701 1.676z" fill="#11253E"/>
  <path d="M76.636 42.22c-2.14-1.145-5.528.57-5.853 1.772-.326 1.202 1.001 20.11 5.853 23.02 2.11 1.253 5.898-3.261 5.898-3.261s-5.422-2.38-5.898-21.53z" fill="#fff"/>
  <path d="M77.464 67.551a1.878 1.878 0 01-.989-.263c-2.673-1.602-4.213-7.613-5.008-12.37-.89-5.178-1.171-10.312-.977-11.007.194-.695 1.027-1.384 2.16-1.878a4.908 4.908 0 014.163-.1.325.325 0 01.17.275c.462 18.726 5.634 21.218 5.696 21.236a.338.338 0 01.188.226.313.313 0 01-.069.281c-.156.17-3.055 3.6-5.334 3.6zm-2.504-25.38c-.725.012-1.44.17-2.104.463a3.218 3.218 0 00-1.796 1.446c-.226.827.983 19.815 5.715 22.651 1.422.852 4.057-1.59 5.234-2.905-1.252-.908-5.284-5.07-5.716-21.399a3.247 3.247 0 00-1.302-.256h-.031z" fill="#11253E"/>
  <path d="M88.569 42.22c2.147-1.145 5.534.57 5.86 1.772.325 1.202-1.002 20.11-5.86 23.02-2.104 1.253-5.891-3.261-5.891-3.261s5.422-2.38 5.891-21.53z" fill="#fff"/>
  <path d="M87.749 67.551c-2.28 0-5.178-3.43-5.316-3.594a.313.313 0 01-.069-.281.35.35 0 01.182-.226c.05 0 5.24-2.635 5.703-21.236a.325.325 0 01.17-.275 4.91 4.91 0 014.163.1c1.133.488 1.985 1.252 2.16 1.878.175.626-.088 5.829-.977 11.006-.82 4.758-2.354 10.769-5.008 12.371a1.879 1.879 0 01-1.008.257zm-4.577-3.725c1.177 1.315 3.813 3.756 5.234 2.905 4.733-2.836 5.941-21.825 5.716-22.651a3.218 3.218 0 00-1.797-1.446 4.427 4.427 0 00-3.437-.207c-.444 16.328-4.464 20.491-5.716 21.399zm-.082-33.164a11.895 11.895 0 01-6.055-1.803.322.322 0 01.363-.532c.232.157 5.741 3.85 10.919-.113a.32.32 0 01.508.17.326.326 0 01-.114.344 9.085 9.085 0 01-5.622 1.934z" fill="#11253E"/>
  <path d="M21.668 94.266h128.544l20.629 29.769H1.039l20.629-29.769z" fill="#fff"/>
  <path d="M170.841 124.348H1.039a.312.312 0 01-.275-.169.306.306 0 010-.319l20.66-29.77a.307.307 0 01.256-.137h128.532a.304.304 0 01.256.138l20.617 29.769a.308.308 0 010 .319.311.311 0 01-.244.169zm-169.2-.626H170.24l-20.191-29.143H21.831L1.64 123.722z" fill="#11253E"/>
  <path d="M170.834 124.035H1.232v5.779h169.602v-5.779z" fill="#fff"/>
  <path d="M170.84 130.126H1.233a.312.312 0 01-.313-.313v-5.779a.318.318 0 01.313-.313H170.84a.318.318 0 01.313.313v5.779a.314.314 0 01-.313.313zM1.546 129.5h168.981v-5.153H1.546v5.153z" fill="#11253E"/>
  <path d="M167.192 129.813H4.885v5.779h162.307v-5.779z" fill="#11253E"/>
  <path d="M167.191 135.906H4.883a.312.312 0 01-.313-.313v-5.779a.311.311 0 01.313-.313h162.308a.31.31 0 01.221.092.31.31 0 01.092.221v5.779a.312.312 0 01-.313.313zM5.178 135.28h161.7v-5.153H5.178v5.153zm98.968-55.953h-.051a.32.32 0 01-.225-.382l4.671-19.076a.312.312 0 01.259-.245.324.324 0 01.326.146.328.328 0 01.041.243l-4.671 19.082a.311.311 0 01-.35.232z" fill="#11253E"/>
  <path d="M106.462 99.781H83.291l2.66 19.746h29.952l-9.441-19.746z" fill="#fff"/>
  <path d="M115.903 119.841H85.94a.312.312 0 01-.307-.275l-2.66-19.74a.307.307 0 01.18-.327.325.325 0 01.126-.03h23.164a.307.307 0 01.282.182l9.441 19.739a.298.298 0 01-.112.41.32.32 0 01-.151.041zm-29.675-.626h29.181l-9.141-19.12h-22.62l2.58 19.12z" fill="#C9C9C8"/>
  <path d="M111.384 101.604H88.213l2.66 19.746h29.952l-9.441-19.746z" fill="#fff"/>
  <path d="M120.826 121.656H90.875a.307.307 0 01-.307-.269l-2.66-19.74a.314.314 0 01.306-.357h23.165c.058 0 .116.016.166.047.049.031.09.076.115.128l9.441 19.746a.31.31 0 01-.281.445h.006zm-29.676-.626h29.181l-9.14-19.114h-22.62l2.58 19.114z" fill="#C9C9C8"/>
  <path d="M112.279 117.661H94.343a.312.312 0 01-.222-.534.312.312 0 01.222-.092h17.936a.314.314 0 01.313.313.313.313 0 01-.313.313zm1.835-3.849H93.547a.312.312 0 01-.22-.533.318.318 0 01.22-.093h20.567a.314.314 0 010 .626zm-2.098-3.845h-19.44a.312.312 0 01-.22-.534.312.312 0 01.22-.092h19.44a.31.31 0 01.221.092.31.31 0 010 .442.31.31 0 01-.221.092zm-1.502-3.843H95.006a.312.312 0 010-.626h15.508a.313.313 0 110 .626z" fill="#C9C9C8"/>
  <path d="M136.439 90.653s9.666 4.07 10.806 5.541a2.716 2.716 0 01.225 2.986s.82 2.636-.401 3.325c0 0 .583 2.542-.67 3.055-1.001.407-7.206.213-6.298-1.083a2.086 2.086 0 011.033-.626c-.269 0-.394-.382-.275-.626.151-.227.37-.401.626-.495a1.12 1.12 0 00.482-.325c-1.985-.514-4.126-.77-5.704-2.248l-4.413-4.132" fill="#fff"/>
  <path d="M144.359 106.067c-1.759 0-3.975-.257-4.507-.927a.667.667 0 010-.839c.186-.249.434-.445.72-.57a.82.82 0 010-.657c.146-.246.364-.441.626-.557l-.37-.082c-1.671-.388-3.405-.788-4.764-2.059l-4.382-4.132.425-.457 4.383 4.132c1.252 1.152 2.886 1.534 4.482 1.878l1.09.263a.313.313 0 01.175.482 1.255 1.255 0 01-.532.401h-.069a1.02 1.02 0 00-.476.35.192.192 0 000 .182.3.3 0 01.288.263.311.311 0 01-.206.338 1.785 1.785 0 00-.889.526.157.157 0 00-.032.069s0 .062.207.162c1.177.626 5.071.626 5.747.382.827-.338.626-2.06.489-2.698a.31.31 0 01.15-.344c.82-.458.457-2.292.25-2.962a.313.313 0 01.032-.25 2.397 2.397 0 00-.201-2.63c-.895-1.158-8.013-4.32-10.68-5.447a.32.32 0 01-.17-.407.329.329 0 01.414-.168c.995.419 9.766 4.144 10.931 5.634a2.994 2.994 0 01.313 3.212c.163.576.626 2.611-.388 3.437.119.664.357 2.686-.902 3.199-.7.198-1.426.29-2.154.276z" fill="#11253E"/>
  <path d="M143.54 99.793s-2.029 2.83-.507 3.03c1.521.201 3.687-3.387 3.687-3.387" fill="#fff"/>
  <path d="M143.135 103.143h-.156a.888.888 0 01-.758-.52c-.394-.914.808-2.66 1.052-3.005a.314.314 0 01.507.37c-.519.725-1.177 1.946-.983 2.384 0 .038.05.119.263.151.952.119 2.58-1.922 3.375-3.243a.31.31 0 01.322-.17.312.312 0 01.263.378.3.3 0 01-.053.117c-.225.363-2.179 3.538-3.832 3.538z" fill="#11253E"/>
  <path d="M140.615 103.738s4.383.42 6.455-1.252l-6.455 1.252z" fill="#fff"/>
  <path d="M141.867 104.101c-.72 0-1.221-.044-1.283-.051a.315.315 0 01-.211-.115.316.316 0 01-.071-.229.331.331 0 01.116-.209.33.33 0 01.228-.073c.044 0 4.289.389 6.23-1.164a.32.32 0 01.23-.068.319.319 0 01.117.036.325.325 0 01.151.187.315.315 0 01-.104.333c-1.446 1.158-3.9 1.353-5.403 1.353z" fill="#11253E"/>
  <path d="M150.123 87.466s-12.847 15.821-13.473 16.516a14.218 14.218 0 00-1.609 3.406c.15-.088 2.705-1.252 3.318-2.035.614-.782 13.504-17.035 13.504-17.035s.069-1.302-1.74-.852z" fill="#6495D3"/>
  <path d="M135.054 107.701a.337.337 0 01-.244-.106c-.344-.407 1.421-3.563 1.622-3.807.569-.689 13.316-16.359 13.447-16.516a.277.277 0 01.169-.106 1.882 1.882 0 011.703.188 1.254 1.254 0 01.445.977.362.362 0 01-.069.181c-.131.163-12.897 16.278-13.504 17.029-.501.626-2.066 1.465-3.199 2.016l-.207.1a.3.3 0 01-.163.044zm15.245-19.928a8783.763 8783.763 0 01-13.385 16.435 14.913 14.913 0 00-1.321 2.592 8.95 8.95 0 002.535-1.616c.582-.751 12.371-15.601 13.429-16.941a.584.584 0 00-.206-.382 1.256 1.256 0 00-1.052-.088z" fill="#11253E"/>
  <path d="M134.424 95.712s10.123 6.648 10.468 4.927c.344-1.722-4.558-4.658-4.558-4.658" fill="#fff"/>
  <path d="M144.457 101.221c-2.097 0-8.802-4.326-10.205-5.246a.312.312 0 01-.087-.432.305.305 0 01.432-.094c4.889 3.212 9.466 5.56 9.985 5.134.219-1.102-2.592-3.243-4.413-4.332a.316.316 0 01-.144-.194.317.317 0 01.037-.238.296.296 0 01.19-.146.302.302 0 01.236.039c.526.313 5.083 3.1 4.708 5.009a.634.634 0 01-.388.469.945.945 0 01-.351.031zm-7.299 5.373a.33.33 0 01-.182-.057l-1.252-.92a.313.313 0 01.253-.557.305.305 0 01.11.05l1.283.92a.315.315 0 01-.004.504.313.313 0 01-.183.06h-.025z" fill="#11253E"/>
  <path d="M109.919 49.433c6.486 1.879 6.642 32.074 12.164 34.24 5.29 2.072 15.858 6.736 15.858 6.736l-4.025 8.897s-12.096-.157-20.66-4.157c-8.565-4-10.694-23.86-10.694-23.86s.864-23.753 7.357-21.856zm-41.116-3.675s-14.944 3.594-18.237 8.139c-3.293 4.545-5.253 56.772 1.415 53.992 6.667-2.78 29.224-18.306 29.224-18.306l-7.631-10.575-9.636 5.09V61.785l4.865-16.027z" fill="#FEBE10"/>
  <path d="M83.055 95.912L86.06 63.49l25.468.338-3.331 31.71-25.142.375z" fill="#fff"/>
  <path d="M83.054 96.225a.283.283 0 01-.225-.1.308.308 0 01-.088-.238l3.005-32.43a.306.306 0 01.313-.282l25.475.338a.308.308 0 01.225.106.32.32 0 01.082.238l-3.362 31.71a.317.317 0 01-.301.282l-25.143.376h.02zM86.341 63.8l-2.943 31.798 24.517-.376 3.262-31.084-24.836-.338z" fill="#11253E"/>
  <path d="M29.783 119.251c6.811 0 12.333-1.662 12.333-3.712 0-2.051-5.522-3.713-12.333-3.713-6.812 0-12.334 1.662-12.334 3.713 0 2.05 5.522 3.712 12.334 3.712z" stroke="#C9C9C8"/>
  <path d="M39.702 104.307c.12 0 .226.037.338.056a4.18 4.18 0 012.598 1.465 3.598 3.598 0 01.088 3.794c-1.49 2.686-5.134 3.431-7.926 3.694a2.578 2.578 0 01-1.177-.088.872.872 0 01-.654-.789.876.876 0 01.541-.87c.294-.135.606-.224.927-.263 1.74-.282 3.575-.495 5.171-1.302.927-.463 2.223-1.547 1.547-2.698-.238-.37-.58-.66-.983-.833-1.597-.764-3.13-.188-4.696.282a.883.883 0 01-.357.05.626.626 0 01-.457-.708c.05-.688.74-1.145 1.384-1.396a7.278 7.278 0 013.656-.394z" fill="#fff"/>
  <path d="M34.331 113.653a2.218 2.218 0 01-.826-.138 1.179 1.179 0 01-.854-1.06 1.18 1.18 0 01.71-1.162c.323-.155.67-.254 1.026-.294l.626-.101a14.942 14.942 0 004.433-1.17 2.997 2.997 0 001.521-1.49.951.951 0 00-.1-.777 1.878 1.878 0 00-.851-.707c-1.346-.626-2.667-.251-4.057.175l-.414.125a1.158 1.158 0 01-.488.063.952.952 0 01-.726-1.046c.05-.701.626-1.289 1.584-1.659a7.635 7.635 0 013.819-.419l.35.063a4.521 4.521 0 012.786 1.583 3.89 3.89 0 01.107 4.133c-1.215 2.191-3.882 3.455-8.139 3.856a6.62 6.62 0 01-.507.025zm4.182-7.863a4.09 4.09 0 011.79.394c.462.2.852.534 1.121.958a1.557 1.557 0 01.163 1.252c-.3 1.021-1.484 1.684-1.84 1.878a15.552 15.552 0 01-4.62 1.252l-.627.101c-.288.026-.57.102-.833.225a.688.688 0 00-.382.501.672.672 0 00.458.588c.334.105.688.128 1.032.069 4.064-.375 6.574-1.534 7.682-3.531a3.273 3.273 0 00-.062-3.462 3.925 3.925 0 00-2.404-1.34l-.326-.056a6.947 6.947 0 00-3.5.382c-.338.131-1.14.501-1.183 1.127 0 .175.075.357.188.375a.722.722 0 00.225-.043l.407-.126a9.443 9.443 0 012.711-.544z" fill="#11253E"/>
  <path d="M38.393 101.426s-2.63 13.147-2.842 13.911c-.213.764-6.436 3.262-11.37.845l-4.326-13.41 18.538-1.346z" fill="#fff"/>
  <path d="M28.94 117.528a11.1 11.1 0 01-4.909-1.064.293.293 0 01-.097-.075.293.293 0 01-.06-.107l-4.331-13.41a.325.325 0 01.037-.275.336.336 0 01.238-.138l18.557-1.346a.308.308 0 01.322.233.313.313 0 01.003.142c-.106.533-2.636 13.148-2.849 13.93-.08.301-.513.626-1.29.983a14.472 14.472 0 01-5.621 1.127zm-4.514-1.565c4.764 2.254 10.537-.175 10.825-.726.181-.676 2.31-11.269 2.754-13.467l-17.743 1.252 4.164 12.941z" fill="#11253E"/>
  <path d="M38.395 101.426a2.504 2.504 0 01-1.015 1.928c-1.515 1.34-4.564 2.329-8.138 2.473-3.675.157-6.887-.626-8.452-1.915a2.396 2.396 0 01-.99-1.722c-.093-2.223 3.995-4.195 9.128-4.383 5.134-.187 9.379 1.384 9.467 3.619z" fill="#11253E"/>
  <path d="M28.36 106.16c-3.287 0-6.198-.745-7.738-2.004a2.678 2.678 0 01-1.134-1.953 2.58 2.58 0 01.777-1.878c1.471-1.597 4.864-2.724 8.652-2.874 3.788-.15 7.275.689 8.865 2.16a2.552 2.552 0 01.927 1.778 2.764 2.764 0 01-1.127 2.179c-1.61 1.427-4.796 2.404-8.302 2.548l-.92.044zm1.459-8.083h-.89c-3.63.15-6.855 1.196-8.213 2.674a1.957 1.957 0 00-.627 1.408 2.078 2.078 0 00.896 1.497c1.552 1.252 4.783 1.99 8.239 1.878 3.456-.113 6.41-1.058 7.926-2.398a2.175 2.175 0 00.908-1.684 1.975 1.975 0 00-.72-1.346c-1.334-1.265-4.226-2.029-7.52-2.029z" fill="#11253E"/>
  <path d="M37.38 103.354c-1.515 1.34-4.564 2.329-8.139 2.473-3.675.157-6.887-.626-8.452-1.915 1.515-1.334 4.564-2.323 8.139-2.473 3.675-.144 6.887.645 8.452 1.915z" fill="#FEBE10"/>
  <path d="M28.36 106.159c-3.288 0-6.199-.745-7.739-2.004a.312.312 0 01-.119-.238.325.325 0 01.106-.238c1.616-1.427 4.796-2.404 8.308-2.548 3.65-.156 6.969.626 8.659 1.985a.315.315 0 01.119.232.326.326 0 01-.107.244c-1.615 1.427-4.802 2.404-8.308 2.548l-.92.019zm-7.038-2.254c1.64 1.12 4.683 1.746 7.926 1.615 3.243-.131 6.035-.952 7.626-2.154-1.647-1.114-4.69-1.74-7.933-1.615-3.243.125-6.01.945-7.619 2.154zm45.787-22.211a.327.327 0 01-.307-.232c-.044-.15-4.583-15.025-6.26-19.82a.33.33 0 01.625-.214c1.69 4.834 6.26 19.696 6.26 19.847a.319.319 0 01-.218.4.249.249 0 01-.1.019z" fill="#11253E"/>
  <path d="M75.047 81.707l3.437-2.073s.244-3.186.789-4.213c.544-1.027 5.753-5.547 5.753-5.547v2.705s4.089-2.473 4.809-1.69c.72.782.67 1.452-1.253 2.96 0 0 1.253-1.458 1.697-.369.445 1.09-1.71 3.024-1.71 3.024s1.748-1.678 1.748-.507c0 1.17-2.28 2.836-2.28 2.836s2.286-.876 1.56.27c-.727 1.145-10.506 9.39-10.506 9.39" fill="#fff"/>
  <path d="M79.092 88.825a.313.313 0 01-.207-.551c2.711-2.292 9.873-8.433 10.45-9.341l.062-.113a4.74 4.74 0 00-1.252.307.313.313 0 01-.294-.545c.832-.626 2.153-1.847 2.147-2.58a.448.448 0 000-.137 3.914 3.914 0 00-1.108.776l-.1.094a.313.313 0 01-.535-.222.32.32 0 01.09-.222l.132-.12c.745-.72 1.727-1.953 1.49-2.566-.05-.119-.1-.188-.163-.2a.506.506 0 00-.3.081c-.214.194-.464.4-.746.626a.313.313 0 01-.432-.45c.233-.264.503-.492.802-.677.532-.488.788-.864.814-1.164a.94.94 0 00-.338-.702c-.288-.306-2.398.52-4.42 1.747a.326.326 0 01-.32 0 .32.32 0 01-.156-.275v-2.016c-2.06 1.803-4.821 4.345-5.165 5.008-.42.795-.683 3.225-.752 4.095a.307.307 0 01-.15.244l-3.437 2.072a.313.313 0 01-.432-.106.316.316 0 01.016-.35.313.313 0 01.09-.082l3.3-1.985c.062-.682.306-3.23.807-4.182.501-.952 5.29-5.165 5.829-5.635a.32.32 0 01.338-.05.313.313 0 01.182.288v2.154c1.458-.845 4.007-2.141 4.727-1.352a1.54 1.54 0 01.507 1.17 1.822 1.822 0 01-.457.99c.209.111.366.3.438.525a2.228 2.228 0 01-.501 1.879.626.626 0 01.576.726c0 .739-.701 1.584-1.352 2.204a.783.783 0 01.663.213c.17.212.144.5-.081.857-.726 1.152-9.566 8.634-10.568 9.479a.307.307 0 01-.194.088z" fill="#11253E"/>
  <path d="M79.855 90.803a.307.307 0 01-.281-.17l-6.155-11.18-9.328 4.939a.32.32 0 01-.432-.138.313.313 0 01.132-.432l9.628-5.09a.32.32 0 01.432.125l6.261 11.47a.326.326 0 01-.257.476z" fill="#11253E"/>
  <path d="M39.936 15.995H3.824v29.476h36.112V15.995z" fill="#fff"/>
  <path d="M39.944 45.783H3.828a.32.32 0 01-.313-.313V15.995a.313.313 0 01.313-.313h36.117a.313.313 0 01.313.313V45.47a.32.32 0 01-.313.313zM4.14 45.157h35.473V16.308H4.14v28.85z" fill="#C9C9C8"/>
  <path d="M39.936 15.995H3.824v4.596h36.112v-4.596z" fill="#fff"/>
  <path d="M39.944 20.903H3.828a.32.32 0 01-.313-.313v-4.595a.313.313 0 01.313-.313h36.117a.313.313 0 01.313.313v4.595a.319.319 0 01-.313.313zM4.14 20.277h35.473v-3.969H4.14v3.97z" fill="#C9C9C8"/>
  <path d="M36.404 40.737h-20.93l10.468-16.153 10.462 16.153z" fill="#fff"/>
  <path d="M36.405 41.05H15.482a.307.307 0 01-.275-.162.32.32 0 010-.326L25.68 24.416a.326.326 0 01.52 0l10.461 16.146a.32.32 0 010 .326.3.3 0 01-.257.162zm-20.347-.626h19.796l-9.91-15.257-9.886 15.257z" fill="#6495D3"/>
  <path d="M33.214 36.128H18.67a.313.313 0 010-.626h14.544a.313.313 0 110 .626zm-3.083-4.531h-8.289a.313.313 0 010-.626h8.29a.313.313 0 110 .626z" fill="#6495D3"/>
  <path d="M12.735 38.132h-4.3a.313.313 0 010-.626h4.3a.313.313 0 010 .626zm-1.773 1.923H8.458a.313.313 0 010-.626h2.504a.313.313 0 110 .626zm6.243-8.177H8.44a.313.313 0 010-.626h8.765a.313.313 0 010 .626zm-3.612 1.928H8.434a.313.313 0 010-.626h5.159a.313.313 0 010 .626zm5.297-7.631H8.433a.313.313 0 110-.626H18.89a.313.313 0 110 .626zm-4.32 1.922H8.434a.313.313 0 010-.626h6.136a.313.313 0 010 .626z" fill="#C9C9C8"/>
  <path d="M36.286 36.248a.313.313 0 01-.313-.313V24.879a.313.313 0 01.626 0v11.056a.319.319 0 01-.313.313z" fill="#6495D3"/>
  <path d="M37.308 27.046a.306.306 0 01-.288-.2l-.757-1.929-.87 1.94a.315.315 0 01-.414.164.319.319 0 01-.156-.42L36 23.978a.287.287 0 01.294-.182.3.3 0 01.282.2l1.026 2.624a.32.32 0 01-.175.407.394.394 0 01-.119.019z" fill="#6495D3"/>
  <path d="M172.413 22.48h-52.177v44.032h52.177V22.48z" fill="#fff"/>
  <path d="M172.419 66.826h-52.182a.315.315 0 01-.222-.092.315.315 0 01-.091-.221V22.48a.318.318 0 01.313-.313h52.182a.319.319 0 01.313.313v44.007a.307.307 0 01-.082.237.307.307 0 01-.231.1zM120.55 66.2h51.556V22.794H120.55V66.2z" fill="#C9C9C8"/>
  <path d="M172.413 17.954h-52.177v4.533h52.177v-4.533z" fill="#fff"/>
  <path d="M172.419 22.793h-52.182a.315.315 0 01-.222-.091.315.315 0 01-.091-.222v-4.526c0-.083.033-.163.091-.222a.315.315 0 01.222-.091h52.182c.083 0 .163.033.222.091a.316.316 0 01.091.222v4.526a.315.315 0 01-.091.222.315.315 0 01-.222.091zm-51.869-.626h51.556V18.28H120.55v3.888zm12.076 39.243h-8.321a.313.313 0 01-.313-.313v-3.312a.312.312 0 01.313-.313h8.321a.313.313 0 01.313.313v3.312a.319.319 0 01-.313.313zm-8.008-.626h7.695v-2.686h-7.695v2.686zm20.799.626h-8.327a.313.313 0 01-.313-.313v-3.312a.312.312 0 01.313-.313h8.327a.311.311 0 01.313.313v3.312a.312.312 0 01-.313.313zm-8.001-.626h7.688v-2.686h-7.701l.013 2.686zm-2.517-5.954a.32.32 0 01-.313-.307c-.076-4.157-.001-4.2.087-4.32a.327.327 0 01.477.053.332.332 0 01.062.167.558.558 0 010 .1c-.038.344 0 2.604 0 3.988a.313.313 0 01-.086.225.3.3 0 01-.221.094h-.006z" fill="#C9C9C8"/>
  <path d="M141.248 58.097a.315.315 0 01-.222-.091.316.316 0 01-.091-.222V54.83h-12.159v2.955a.316.316 0 01-.091.222.315.315 0 01-.443 0 .312.312 0 01-.092-.222v-3.268a.312.312 0 01.313-.313h12.785a.313.313 0 01.313.313v3.268a.308.308 0 01-.092.222.314.314 0 01-.221.091zm14.317 3.313h-8.32a.319.319 0 01-.313-.313v-3.312c0-.083.033-.163.091-.221a.315.315 0 01.222-.092h8.32a.311.311 0 01.313.313v3.312a.308.308 0 01-.092.221.309.309 0 01-.221.092zm-8.007-.626h7.694v-2.686h-7.694v2.686zm20.792.626h-8.32a.32.32 0 01-.313-.313v-3.312c0-.083.033-.163.091-.221a.315.315 0 01.222-.092h8.32c.083 0 .163.033.222.092a.315.315 0 01.091.221v3.312a.315.315 0 01-.091.221.315.315 0 01-.222.092zm-8.007-.626h7.694v-2.686h-7.694v2.686zm-2.499-5.954a.311.311 0 01-.313-.307c-.075-4.157 0-4.2.087-4.32a.327.327 0 01.477.053.332.332 0 01.062.166.281.281 0 010 .1c-.032.314 0 2.26 0 3.989a.31.31 0 01-.088.223.303.303 0 01-.219.096h-.006z" fill="#C9C9C8"/>
  <path d="M164.199 58.097a.313.313 0 01-.313-.313V54.83h-12.164v2.955a.312.312 0 01-.313.313.315.315 0 01-.222-.091.316.316 0 01-.091-.222v-3.268c0-.083.033-.163.091-.221a.315.315 0 01.222-.092h12.79c.083 0 .163.033.222.092a.315.315 0 01.091.221v3.268a.316.316 0 01-.091.222.315.315 0 01-.222.091z" fill="#C9C9C8"/>
  <path d="M35.648 54.498H16.24v17.987h19.408V54.498z" fill="#fff"/>
  <path d="M35.643 72.791H16.235a.313.313 0 01-.313-.313V54.491a.313.313 0 01.313-.313h19.408a.313.313 0 01.313.313v17.987a.313.313 0 01-.313.313zm-19.089-.626h18.782v-17.36H16.554v17.36z" fill="#C9C9C8"/>
  <path d="M32.824 58.786H19.426a.313.313 0 010-.626h13.398a.313.313 0 110 .626zm0 3.213H19.426a.313.313 0 010-.626h13.398a.313.313 0 01.313.313.32.32 0 01-.313.313zm0 3.235H19.426a.313.313 0 010-.626h13.398a.313.313 0 110 .626zm-2.654 3.181H19.426a.313.313 0 010-.626H30.17a.313.313 0 01.313.313.32.32 0 01-.313.313zm124.081-34.17H139.1a.313.313 0 01-.313-.313v-6.03a.312.312 0 01.313-.312h15.151a.311.311 0 01.313.313v6.029a.312.312 0 01-.313.313zm-14.838-.626h14.525v-5.403h-14.525v5.403zm3.017 17.085h-15.17a.313.313 0 01-.313-.313v-6.03a.312.312 0 01.313-.312h15.151c.083 0 .163.033.222.092a.315.315 0 01.091.22v6.03a.312.312 0 01-.294.313zm-14.838-.626h14.525v-5.403h-14.525v5.403zm38.12.626h-15.151a.313.313 0 01-.313-.313v-6.03a.312.312 0 01.313-.312h15.151a.312.312 0 01.313.313v6.029a.312.312 0 01-.313.313zm-14.838-.626h14.525v-5.403h-14.525v5.403z" fill="#6495D3"/>
  <path d="M146.581 39.836a.313.313 0 01-.313-.307c-.137-5.59-.031-5.697.082-5.816a.332.332 0 01.544.219c0 .046-.01.09-.031.131-.056.414 0 3.08.031 5.453a.318.318 0 01-.306.32h-.007z" fill="#6495D3"/>
  <path d="M158.137 44.674a.312.312 0 01-.313-.313v-4.526h-22.657v4.526a.312.312 0 01-.534.222.312.312 0 01-.092-.222v-4.84a.312.312 0 01.313-.312h23.283c.083 0 .163.033.222.091a.315.315 0 01.091.222v4.84a.315.315 0 01-.091.22.315.315 0 01-.222.092z" fill="#6495D3"/>
</svg>
