<svg xmlns="http://www.w3.org/2000/svg" fill="none" viewBox="0 0 171 136">
  <path d="M141.193 55.777s3.635-5.087 4.342-6.257c1.771-3.753 2.234-6.393 4.223-6.337.988 0-.388 2.227-1.189 5.28 0 0 8.24-5.85 9.535-4.235 1.295 1.614 1.376 5.292 0 6.587-1.377 1.296-6.738 3.642-7.189 4.342-.45.7-3.128 5.63-3.128 5.63l-6.594-5.01z" fill="#fff"/>
  <path d="M147.762 61.107a.307.307 0 01-.188-.062l-6.575-5.005a.317.317 0 01-.119-.203.315.315 0 01.057-.229c.037-.05 3.635-5.092 4.335-6.206.401-.863.751-1.708 1.064-2.446 1.007-2.427 1.683-4.048 3.359-4.048h.069a.626.626 0 01.532.263c.288.432 0 1.176-.482 2.502-.213.589-.469 1.252-.701 2.04 2.296-1.577 7.996-5.224 9.235-3.672 1.238 1.551 1.526 5.549-.032 7.007A25.226 25.226 0 01154.1 53.6c-1.252.626-2.747 1.464-2.916 1.733-.444.688-3.128 5.543-3.128 5.593a.32.32 0 01-.206.15l-.088.031zm-6.137-5.392l6.043 4.61c.626-1.1 2.597-4.698 2.984-5.305.251-.388 1.308-.963 3.129-1.946a26.214 26.214 0 004.085-2.458c1.251-1.151 1.213-4.605-.031-6.163-.463-.575-3.592.382-9.109 4.298a.316.316 0 01-.357 0 .291.291 0 01-.125-.331c.294-1.12.663-2.127.957-2.94.294-.814.626-1.77.551-1.965h-.038c-1.251 0-1.802 1.195-2.828 3.666-.313.75-.663 1.596-1.095 2.503-.613 1.032-3.428 4.967-4.166 6.03z" fill="#11253E"/>
  <path d="M139.61 56.215l1.432-2.234 7.526 6.357-1.364 2.402-7.594-6.525z" fill="#11253E"/>
  <path d="M147.205 63.053a.343.343 0 01-.2-.076l-7.62-6.53a.321.321 0 01-.063-.408l1.433-2.227a.318.318 0 01.351-.129.328.328 0 01.118.06l7.507 6.357a.31.31 0 01.076.394l-1.364 2.396a.326.326 0 01-.219.156l-.019.007zm-7.195-6.901l7.101 6.1 1.045-1.877-7.051-5.956-1.095 1.733zm-70.33-9.578h27.608a19.301 19.301 0 0113.658 5.668 19.3 19.3 0 015.642 13.67v38.099H50.373v-38.1A19.307 19.307 0 0169.68 46.575z" fill="#11253E"/>
  <path d="M116.586 104.293H50.371a.312.312 0 01-.313-.313V65.912a19.644 19.644 0 0119.62-19.62h27.608a19.637 19.637 0 0119.613 19.62v38.1a.313.313 0 01-.313.281zm-65.902-.625h65.589V65.912a19.014 19.014 0 00-18.987-18.994H69.678a19.019 19.019 0 00-18.994 18.994v37.756z" fill="#11253E"/>
  <path d="M76.746 40.299s-17.173 5.38-19.05 9.49c-1.352 2.953-5.068 26.32-5.512 37.881-.456 11.93-3.797 17.411-3.797 17.411l15.496.538s1.251-12.4 1.426-16.923c.2-3.337.57-6.66 1.108-9.96 0 0 1.508 7.745 1.407 10.56-.1 2.816-1.013 16.323-1.013 16.323h40.039s-2.014-17.83-1.814-20.245c.2-2.415 2.502-12.675 2.502-12.675l4.824-25.45s-16.322-6.644-18.268-7.344c-1.946-.701-17.348.394-17.348.394z" fill="#FEBE10"/>
  <path d="M87.363 105.951a.31.31 0 01-.312-.312V84.368a.312.312 0 01.312-.313.319.319 0 01.313.313v21.271a.318.318 0 01-.313.312zm-8.757-69.799l14.79.043-.264 5.65H82.691l-5.074-2.428.989-3.265z" fill="#11253E"/>
  <path d="M93.132 42.138H82.69a.313.313 0 01-.131 0l-5.074-2.427a.313.313 0 01-.169-.376l.989-3.265a.314.314 0 01.3-.22l14.79.05a.301.301 0 01.225.095.294.294 0 01.087.231l-.262 5.63a.313.313 0 01-.313.282zm-10.373-.626h10.079l.231-5.005-14.233-.043-.838 2.784 4.761 2.264z" fill="#11253E"/>
  <path d="M97.242 21.806a19.77 19.77 0 001.307-5.987c.066-.687.066-1.378 0-2.065a21.194 21.194 0 00-.77-2.74 4.48 4.48 0 00.464-4.079l-.989 1.34A7.325 7.325 0 0095.66 2.35a8.759 8.759 0 01-4.667 2.877 4.616 4.616 0 001.745-4.016c-1.22 1.207-3.065 1.514-4.78 1.539-1.714.025-3.465-.175-5.123.263a8.39 8.39 0 00-4.06 2.577c-.876.995-.889 2.109-1.946 2.94-2.502 1.984-2.728 3.817-2.34 6.926.35 2.847 1.326 5.63 1.608 8.458 3.284.2 6.6.482 9.922.432 2.634-.019 9.816.563 11.224-2.54z" fill="#fff"/>
  <path d="M88.71 24.703h-2.672c-2.702.037-5.417-.138-8.051-.313l-1.877-.12a.319.319 0 01-.294-.28 36.751 36.751 0 00-.814-4.38 40.496 40.496 0 01-.794-4.079c-.407-3.253-.138-5.161 2.459-7.213.464-.402.823-.91 1.044-1.483.215-.51.504-.987.858-1.414a8.759 8.759 0 014.185-2.696 14.238 14.238 0 013.879-.282h1.32c2.114 0 3.61-.5 4.567-1.445a.313.313 0 01.325-.075.319.319 0 01.206.27 4.942 4.942 0 01-.957 3.409 8.383 8.383 0 003.303-2.421.318.318 0 01.238-.113.307.307 0 01.238.113 7.613 7.613 0 011.777 5.004l.313-.425a.307.307 0 01.294-.125.307.307 0 01.25.194 4.761 4.761 0 01-.407 4.235c.318.867.565 1.758.738 2.665.07.708.07 1.42 0 2.127a19.612 19.612 0 01-1.332 6.081c-1.108 2.49-5.474 2.766-8.796 2.766zm-2.384-.626h.97c2.978.037 8.52.113 9.653-2.39A19.242 19.242 0 0098.2 15.8c.067-.668.067-1.34 0-2.008 0-.225-.55-2.202-.7-2.565a.306.306 0 010-.375 4.148 4.148 0 00.625-3.216l-.626.838a.313.313 0 01-.556-.244 6.98 6.98 0 00-1.302-5.38 9.015 9.015 0 01-4.56 2.721.313.313 0 01-.263-.556 4.33 4.33 0 001.633-3.128c-1.064.769-2.534 1.157-4.473 1.182h-1.345a13.6 13.6 0 00-3.71.263 8.132 8.132 0 00-3.904 2.502c-.312.38-.569.8-.763 1.251a4.323 4.323 0 01-1.252 1.708c-2.377 1.877-2.608 3.566-2.227 6.644.17 1.34.482 2.697.782 4.01a39.91 39.91 0 01.801 4.192l1.627.1c2.621.175 5.336.35 8.008.313l.331.025z" fill="#11253E"/>
  <path d="M79.633 22.287c-.45-3.61-6.375-4.698-6.256-.463a6.25 6.25 0 001.483 4.048 3.69 3.69 0 003.96 1.07" fill="#fff"/>
  <path d="M77.68 27.456a4.216 4.216 0 01-3.053-1.396 6.576 6.576 0 01-1.557-4.223c-.076-2.095 1.25-2.952 2.502-3.052a4.135 4.135 0 014.38 3.465.313.313 0 01-.276.345.325.325 0 01-.35-.27 3.523 3.523 0 00-3.691-2.915c-1.252.1-1.959.976-1.909 2.409a5.98 5.98 0 001.364 3.822 3.358 3.358 0 003.61.995.312.312 0 01.407.169.325.325 0 01-.17.413 3.46 3.46 0 01-1.257.238z" fill="#11253E"/>
  <path d="M92.531 22.287c.45-3.61 6.375-4.698 6.225-.463a6.256 6.256 0 01-1.445 4.048 3.697 3.697 0 01-3.96 1.07" fill="#fff"/>
  <path d="M94.484 27.456c-.429 0-.853-.08-1.251-.238a.32.32 0 01-.176-.413.313.313 0 01.407-.169 3.36 3.36 0 003.616-.995 5.981 5.981 0 001.364-3.822c.05-1.433-.626-2.309-1.908-2.409a3.522 3.522 0 00-3.691 2.916.325.325 0 01-.35.269.308.308 0 01-.27-.345 4.135 4.135 0 014.38-3.465c1.25.1 2.558.957 2.502 3.053a6.506 6.506 0 01-1.533 4.223 4.212 4.212 0 01-3.09 1.395z" fill="#11253E"/>
  <path d="M79.176 40.224s2.734 1.402 7.432 1.564c4.698.163 5.48-1.113 5.48-1.113l-.112-2.503-.257-5.843-.244-5.462-10.729-.369-.513 4.442-.156 1.445-.901 7.84z" fill="#fff"/>
  <path d="M87.415 42.139h-.813c-4.718-.163-7.458-1.54-7.57-1.595a.32.32 0 01-.17-.313l1.571-13.764a.3.3 0 01.325-.275l10.723.375a.319.319 0 01.307.294l.626 13.826a.282.282 0 01-.044.176c-.1.112-.926 1.276-4.955 1.276zm-7.908-2.077A20.02 20.02 0 0086.62 41.5c3.754.131 4.905-.682 5.15-.914l-.595-13.407-10.154-.35-1.514 13.232z" fill="#11253E"/>
  <path d="M80.076 32.366a9.629 9.629 0 003.416 3.21c2.265 1.357 5.668 2.915 8.483 2.583l-.256-5.843a26.472 26.472 0 01-6.187-.175 17.68 17.68 0 01-5.3-1.251l-.156 1.476z" fill="#11253E"/>
  <path d="M91.212 38.516c-2.928 0-6.118-1.633-7.851-2.671a9.747 9.747 0 01-3.529-3.328.32.32 0 01-.037-.188l.156-1.451a.32.32 0 01.157-.238.313.313 0 01.287 0 17.386 17.386 0 005.205 1.189c2.026.303 4.08.362 6.119.175a.332.332 0 01.238.075.332.332 0 01.106.225l.256 5.843a.313.313 0 01-.275.326c-.276.03-.554.044-.832.043zm-10.785-6.218a9.19 9.19 0 003.259 3.009c1.77 1.063 5.105 2.765 7.995 2.571l-.231-5.217a27.224 27.224 0 01-5.925-.207 19.394 19.394 0 01-5.005-1.076l-.093.92z" fill="#11253E"/>
  <path d="M95.473 12.56l-.45 13.019a7.962 7.962 0 01-.226 1.651 8.227 8.227 0 01-8.277 6.256l-.938-.012a8.227 8.227 0 01-7.683-6.175 8.409 8.409 0 01-.25-2.327l.45-13.013s2.009 2.653 7.833 2.653c3.293.024 6.55-.676 9.54-2.052z" fill="#fff"/>
  <path d="M86.832 33.83h-.294l-.964-.037a8.54 8.54 0 01-8.233-8.828l.45-13.012a.326.326 0 01.22-.288.326.326 0 01.344.106s1.995 2.503 7.444 2.503h.157a22.44 22.44 0 009.384-1.983.313.313 0 01.313 0 .314.314 0 01.144.275l-.45 13.019a8.364 8.364 0 01-.232 1.714 8.558 8.558 0 01-8.283 6.531zm-8.44-21.145l-.425 12.3a7.82 7.82 0 00.244 2.233 7.945 7.945 0 007.37 5.943l.963.038a7.945 7.945 0 007.964-6.044 8.086 8.086 0 00.213-1.589l.431-12.512a23.667 23.667 0 01-9.209 1.833h-.169c-4.235.006-6.45-1.402-7.413-2.202h.031z" fill="#11253E"/>
  <path d="M86.414 19.854s2.703 5.962 1.508 6.068c-1.195.107-2.897-.782-2.897-.782" fill="#fff"/>
  <path d="M87.715 26.248a7.508 7.508 0 01-2.835-.826.317.317 0 01-.166-.308.315.315 0 01.46-.249s1.62.851 2.716.751c.263-.344-.538-2.928-1.764-5.63a.313.313 0 01.569-.257c.55 1.207 2.29 5.224 1.72 6.212a.626.626 0 01-.469.294l-.231.013zm.369 3.429a11.368 11.368 0 01-4.454-1.033.312.312 0 01-.17-.412.32.32 0 01.414-.163c3.973 1.701 6.106.626 6.125.626a.313.313 0 01.419.137.305.305 0 01-.132.42 5.05 5.05 0 01-2.202.425zm-5.168-9.447c.311 0 .564-.572.564-1.277s-.253-1.276-.564-1.276c-.31 0-.563.571-.563 1.276 0 .705.253 1.277.563 1.277zm7.544 0c.31 0 .563-.572.563-1.277s-.252-1.276-.563-1.276c-.311 0-.563.571-.563 1.276 0 .705.252 1.277.563 1.277zM77.111 39.085l10.054 43.912 2.283-10.917 5.318-32.995-8.158 2.703-9.497-2.703z" fill="#11253E"/>
  <path d="M87.164 83.31a.319.319 0 01-.306-.244L76.823 39.155a.307.307 0 01.087-.294.313.313 0 01.3-.075l9.385 2.677 8.064-2.671a.306.306 0 01.391.186c.019.05.024.105.016.158L89.754 72.13l-2.296 10.93a.32.32 0 01-.3.25h.006zm-9.628-43.793l9.616 42.035 1.99-9.515 5.23-32.47-7.665 2.503a.3.3 0 01-.18 0l-8.991-2.553z" fill="#11253E"/>
  <path d="M83.08 43.158l1.683 3.416L82.96 64.06l4.36 17.298 3.504-17.285-2.746-17.699 1.37-2.684-2.84-1.902-3.53 1.37z" fill="#fff"/>
  <path d="M87.327 81.671a.319.319 0 01-.306-.238l-4.38-17.291a.343.343 0 010-.113l1.79-17.392-1.633-3.34a.33.33 0 010-.257.292.292 0 01.181-.175l3.522-1.37a.313.313 0 01.288 0l2.84 1.876a.32.32 0 01.107.4l-1.327 2.597 2.728 17.667a.2.2 0 010 .107L87.64 81.433a.32.32 0 01-.3.25l-.013-.012zM83.28 64.035l4.01 15.903 3.222-15.903-2.74-17.636a.307.307 0 01.03-.194l1.252-2.433-2.503-1.658-3.059 1.188 1.527 3.129c.029.053.04.114.031.175l-1.77 17.43z" fill="#11253E"/>
  <path d="M93.395 36.201c-.206 0-6.881 5.587-6.881 5.587l4.11 4.786 4.104-7.507-1.333-2.866z" fill="#fff"/>
  <path d="M90.656 46.887a.305.305 0 01-.238-.106l-4.11-4.792a.325.325 0 01-.075-.226.298.298 0 01.112-.212c6.732-5.63 6.882-5.63 7.051-5.63a.312.312 0 01.282.174l1.37 2.89a.3.3 0 010 .282l-4.104 7.508a.318.318 0 01-.244.162l-.044-.05zm-3.666-5.061l3.61 4.204 3.81-6.95-1.145-2.422c-.939.714-4.117 3.354-6.275 5.168z" fill="#11253E"/>
  <path d="M78.606 36.152c.22 0 8.002 5.63 8.002 5.63l-4.748 4.786-4.749-7.507 1.495-2.91z" fill="#fff"/>
  <path d="M81.858 46.887h-.031a.318.318 0 01-.232-.144l-4.748-7.508a.313.313 0 010-.306l1.495-2.94a.3.3 0 01.275-.17c.125 0 .32 0 8.19 5.694a.33.33 0 01.125.231.319.319 0 01-.088.244l-4.748 4.792a.324.324 0 01-.238.107zm-4.38-7.814l4.443 7.007 4.216-4.255c-2.665-1.926-6.387-4.592-7.395-5.242l-1.263 2.49z" fill="#11253E"/>
  <path d="M77.11 39.085s8.665 38.845 10.254 42.767c0 0-18.23-30.98-18.33-31.587-.1-.607 2.615-3.128 2.615-3.128l-2.215-.995 1.996-3.603 5.68-3.454z" fill="#FEBE10"/>
  <path d="M87.364 82.177a.319.319 0 01-.269-.15c-4.285-7.282-18.268-31.086-18.374-31.7-.106-.612 1.164-1.945 2.371-3.127l-1.777-.789a.325.325 0 01-.175-.188.318.318 0 010-.25l1.996-3.603a.412.412 0 01.113-.12l5.68-3.434a.332.332 0 01.288 0 .32.32 0 01.181.22c.088.387 8.678 38.862 10.235 42.722a.306.306 0 01-.15.395.277.277 0 01-.119.024zM69.847 45.992l1.877.85a.32.32 0 01.088.52c-1.195 1.114-2.503 2.54-2.503 2.884.282.757 11.293 19.557 16.942 29.16-2.503-8.971-8.502-35.898-9.384-39.814l-5.206 3.172-1.814 3.228z" fill="#11253E"/>
  <path d="M94.76 39.085s-5.806 38.845-7.395 42.767c0 0 15.378-30.98 15.478-31.587.1-.607-2.615-3.128-2.615-3.128l2.214-.995-1.995-3.603-5.687-3.454z" fill="#FEBE10"/>
  <path d="M87.363 82.177a.323.323 0 01-.131 0 .319.319 0 01-.163-.4c1.558-3.847 7.326-42.31 7.382-42.698a.319.319 0 01.175-.238.325.325 0 01.294 0l5.687 3.435c.045.03.082.07.107.119l2.002 3.603a.334.334 0 010 .25.292.292 0 01-.169.188l-1.783.801c1.201 1.157 2.465 2.502 2.365 3.128-.101.626-12.932 26.495-15.503 31.681a.32.32 0 01-.263.131zm7.639-42.541c-.626 3.991-4.542 30.067-6.57 39.413 4.83-9.747 13.877-28.058 14.108-28.778-.037-.3-1.338-1.727-2.502-2.84a.321.321 0 01-.033-.424.306.306 0 01.121-.095l1.876-.851-1.795-3.297-5.205-3.128zm-28.088 62.599a.315.315 0 01-.288-.332c0-.106.782-10.272.913-12.618.107-1.927-.319-4.33-.963-7.964l-.444-2.503c-.864-5.036-7.401-25.65-7.464-25.875a.312.312 0 01.595-.194c.269.85 6.612 20.883 7.507 25.963.156.907.3 1.745.444 2.534.626 3.678 1.082 6.106.97 8.101-.138 2.359-.907 12.512-.914 12.631a.314.314 0 01-.356.257z" fill="#11253E"/>
  <path d="M21.356 94.296h128.451l20.614 29.748H.742l20.614-29.748z" fill="#fff"/>
  <path d="M170.42 124.357H.742a.317.317 0 01-.275-.169.309.309 0 010-.319l20.645-29.748a.307.307 0 01.256-.138h128.439a.306.306 0 01.256.138l20.601 29.748a.302.302 0 010 .319.316.316 0 01-.244.169zm-169.077-.626H169.82l-20.176-29.122H21.518L1.343 123.73z" fill="#11253E"/>
  <path d="M170.414 124.044H.935v5.774h169.479v-5.774z" fill="#fff"/>
  <path d="M170.418 130.131H.934a.31.31 0 01-.313-.312v-5.775a.318.318 0 01.313-.313h169.484a.317.317 0 01.313.313v5.775a.313.313 0 01-.313.312zm-169.171-.625h168.859v-5.149H1.246v5.149z" fill="#11253E"/>
  <path d="M166.774 129.819H4.584v5.774h162.19v-5.774z" fill="#11253E"/>
  <path d="M166.774 135.906H4.584a.312.312 0 01-.312-.313v-5.775a.313.313 0 01.312-.312h162.19a.313.313 0 01.313.312v5.775a.321.321 0 01-.313.313zM4.878 135.28h161.583v-5.149H4.878v5.149zm60.484-19.163l8.04-14.964H33.43l-14.22 14.964h46.151z" fill="#11253E"/>
  <path d="M65.362 116.43h-46.15a.316.316 0 01-.29-.191.312.312 0 01.064-.341l14.22-14.952a.308.308 0 01.225-.1h39.97a.313.313 0 01.276.463l-8.04 14.958a.311.311 0 01-.275.163zm-45.425-.626h45.238l7.707-14.339h-39.32l-13.625 14.339z" fill="#11253E"/>
  <path d="M65.362 90.31c0 9.235-10.817 18.844-10.817 18.844L40.062 105.6l12.125-17.948s13.175-6.557 13.175 2.659z" fill="#FEBE10"/>
  <path d="M11.252 86.188h46.151l7.958 29.929H19.21l-7.958-29.93z" fill="#fff"/>
  <path d="M65.362 116.43H19.211a.329.329 0 01-.191-.065.328.328 0 01-.116-.166l-7.957-29.93a.319.319 0 01.306-.394h46.176a.319.319 0 01.3.238l7.959 29.923a.303.303 0 01-.057.269.31.31 0 01-.269.125zm-45.913-.625h45.488l-7.795-29.304H11.66l7.788 29.304z" fill="#11253E"/>
  <path d="M112.389 47.25s14.001 22.278 15.697 24.612c4.379-6.188 10.986-16.116 10.986-16.116l9.353 8.039s-12.7 28.152-21.822 25.375c-9.121-2.778-23.773-21.703-23.773-21.703l9.559-20.207z" fill="#FEBE10"/>
  <path d="M106.227 79.232h-.075a.313.313 0 01-.225-.376l5.004-20.432a.304.304 0 01.254-.234.303.303 0 01.122.009.312.312 0 01.231.375L106.533 79a.314.314 0 01-.306.232z" fill="#11253E"/>
  <path d="M59.155 7.43H11.928v35.785h47.227V7.43z" fill="#fff"/>
  <path d="M59.157 43.52H11.93a.313.313 0 01-.313-.312V7.429a.313.313 0 01.313-.313h47.227a.313.313 0 01.313.313v35.779a.313.313 0 01-.313.313zm-46.92-.625h46.601V7.73H12.243l-.007 35.165z" fill="#C9C9C8"/>
  <path d="M26.018 35.37a.932.932 0 01-.226-.032l-.569-.163-1.52-.438a1.663 1.663 0 01-.3-.131.907.907 0 01-.526-.895l.144-1.395v-.388a.425.425 0 00-.156-.369c-.363-.275-.713-.557-1.064-.838l-.119-.094a.508.508 0 00-.525-.081l-.92.294-.413.125h-.062a1.046 1.046 0 01-1.433-.582 30.209 30.209 0 01-.95-1.79.92.92 0 01.243-1.25c.4-.357.738-.626 1.064-.889a.776.776 0 00.344-.813c-.05-.307-.088-.626-.125-.913l-.063-.532a.282.282 0 00-.2-.2l-.526-.282-.725-.407a1.614 1.614 0 01-.826-.763.507.507 0 010-.094v-.175a.609.609 0 010-.106l.112-.444c.088-.345.175-.695.27-1.045.075-.257.156-.52.237-.776a1.04 1.04 0 011.032-.744c.27 0 .532 0 .801.062h.564c.137.012.275.012.412 0a.464.464 0 00.22-.075c.437-.488.844-.982 1.181-1.408a.376.376 0 000-.344 13.993 13.993 0 00-.187-.625l-.232-.776a2.061 2.061 0 01-.106-.626.776.776 0 01.282-.625 8.835 8.835 0 012.327-1.295.889.889 0 011.026.281l.356.407c.22.244.432.494.626.75a.625.625 0 00.663.351c.332-.056.67-.094 1.007-.131l.545-.07a.269.269 0 00.212-.156l.276-.506.269-.5c.112-.207.225-.414.35-.627a.908.908 0 011.038-.444c.739.188 1.477.388 2.209.626a.932.932 0 01.663.963c0 .276-.038.545-.063.82l-.037.394v.544a.45.45 0 00.169.388l.288.232c.313.25.625.5.932.763a.539.539 0 00.563.113l.726-.232.775-.238a.982.982 0 011.252.482c.346.588.677 1.182.994 1.783a1.033 1.033 0 01-.281 1.427c-.15.137-.307.269-.47.4l-.306.256c-.175.157-.344.313-.513.482a.356.356 0 00-.106.294l.037.332c.038.425.082.844.138 1.25a.533.533 0 00.313.439l.388.188.531.262c.2.107.4.207.588.332a.938.938 0 01.426 1.095c-.182.663-.376 1.326-.57 1.99a1.75 1.75 0 01-.143.325.908.908 0 01-.895.512l-1.414-.118h-.125a.7.7 0 00-.732.331c-.169.238-.363.463-.55.688l-.232.276a.707.707 0 00-.125.732c.156.444.3.888.431 1.345a.962.962 0 01-.506 1.288c-.55.32-1.158.626-1.877 1.02a.939.939 0 01-1.251-.219 6.908 6.908 0 01-.626-.757l-.144-.169c-.488-.581-.506-.588-1.251-.488l-1.001.132a.626.626 0 00-.513.356l-.169.344c-.119.244-.238.482-.363.72a3.76 3.76 0 01-.381.563.795.795 0 01-.607.3zm-4.674-5.487c.256-.001.504.087.701.25l.119.1 1.057.838a1.04 1.04 0 01.4.838v.457l-.118 1.395c0 .1 0 .188.175.276a.953.953 0 00.206.1l1.514.438.576.162c.05 0 .106 0 .188-.081a2.79 2.79 0 00.319-.457c.119-.231.237-.469.35-.7l.175-.35a1.253 1.253 0 01.989-.695l1-.138c.964-.125 1.196 0 1.821.713l.138.17c.206.243.413.494.625.731a.33.33 0 00.488.088 47.509 47.509 0 001.834-1.001c.293-.175.318-.238.218-.582-.125-.444-.275-.876-.419-1.314a1.308 1.308 0 01.232-1.326l.231-.282c.182-.212.363-.425.526-.625a1.314 1.314 0 011.332-.588h.088l1.407.125a.269.269 0 00.282-.175.835.835 0 00.106-.22c.194-.662.382-1.32.57-1.982a.332.332 0 00-.17-.407 7.107 7.107 0 00-.525-.294l-.525-.257-.394-.194a1.17 1.17 0 01-.626-.913c-.05-.425-.094-.85-.138-1.251V22.4a.958.958 0 01.282-.8c.175-.182.356-.35.544-.514l.326-.269c.15-.125.294-.244.437-.375.263-.244.282-.357.12-.67a25.169 25.169 0 00-.983-1.764.384.384 0 00-.38-.237.383.383 0 00-.152.043l-.757.232-.744.232a1.144 1.144 0 01-1.151-.232c-.294-.256-.626-.507-.914-.75l-.281-.232a1.077 1.077 0 01-.407-.876v-.626c0-.231 0-.269.044-.406 0-.257.05-.513.056-.77.006-.256-.069-.313-.219-.35-.725-.22-1.451-.413-2.183-.626-.107-.031-.232-.031-.35.163a10.84 10.84 0 00-.332.588l-.269.494-.282.52a.906.906 0 01-.675.475l-.55.062c-.332.038-.664.075-.99.126a1.253 1.253 0 01-1.25-.5c-.2-.251-.413-.495-.626-.733l-.363-.413a.276.276 0 00-.344-.1c-.777.294-1.506.7-2.165 1.207a.624.624 0 000 .126c.003.157.03.314.082.463.075.256.15.513.231.763l.188.625a.964.964 0 01-.138.914 35.83 35.83 0 01-1.2 1.439 1.01 1.01 0 01-.627.275 2.42 2.42 0 01-.538 0h-.156l-.407-.038c-.25 0-.506-.05-.757-.056a.394.394 0 00-.419.313c-.081.25-.156.494-.225.744-.094.345-.181.695-.269 1.039l-.1.394v.069c.133.182.312.325.52.413l.744.394.525.275a.925.925 0 01.488.72l.069.538c.031.294.069.625.113.894a1.4 1.4 0 01-.576 1.408c-.313.238-.626.513-1.026.857-.213.188-.225.257-.106.494.363.72.625 1.252.932 1.765.225.387.275.406.732.281l.45-.144.914-.288c.115-.05.237-.082.362-.093zm6.47-.883a4.886 4.886 0 01-4.632-6.389c.2-.61.52-1.172.94-1.656a4.854 4.854 0 018.571 2.765 4.66 4.66 0 01-1.045 3.404 4.856 4.856 0 01-3.46 1.814l-.375.062zm-.038-9.196h-.344a4.292 4.292 0 00-2.834 1.514 4.23 4.23 0 00-.097 5.42 4.266 4.266 0 006.653.01 4.052 4.052 0 00.907-2.984 4.26 4.26 0 00-4.285-3.96zm17.811 19.131h-.1a12.006 12.006 0 01-.832-.131l-.338-.063a.626.626 0 01-.538-.625v-.645a.575.575 0 000-.181 1.107 1.107 0 00-1.213-.557l-.2.107c-.138.068-.27.143-.413.2a.626.626 0 01-.626-.063c-.43-.35-.77-.798-.989-1.307l-.037-.138a.544.544 0 010-.225v-.044a.78.78 0 01.1-.231 2.5 2.5 0 01.3-.376.914.914 0 00.175-1.213 1.319 1.319 0 00-.406-.332 3.664 3.664 0 00-.394-.181l-.232-.094a.625.625 0 01-.381-.676v-.219c.05-.35.093-.694.162-1.038a.675.675 0 01.463-.463 2.89 2.89 0 01.626-.063.832.832 0 00.732-.432.8.8 0 00.081-1.013c-.457-.782-.338-1.001.35-1.533.12-.1.244-.188.37-.275l.269-.194a.557.557 0 01.732 0l.375.313.3.25a.406.406 0 00.357.1l.237-.056.226-.05a.625.625 0 00.538-.526c.269-.945.55-1.063 1.251-.932h.175l.4.087.282.057a.626.626 0 01.55.626l.038.369c0 .181.044.356.056.538.013.181 0 .112.082.156l.162.1c.626.388.626.388 1.252.075l.093-.044a.758.758 0 011.077.226c.162.187.306.387.45.588l.181.244a.625.625 0 010 .838l-.043.05c-.207.256-.42.507-.626.776.02.2.061.397.125.588l.05.188a.407.407 0 00.307.3c.264.08.517.189.757.325a.75.75 0 01.35.626c-.02.398-.064.795-.131 1.188a.713.713 0 01-.732.626c-.065.006-.13.006-.194 0a1.095 1.095 0 00-1.139.745.476.476 0 00-.031.444l.081.2.188.425a.72.72 0 01-.232.945c-.294.213-.581.432-.87.626a.625.625 0 01-.862-.044l-.245-.207-.356-.312a.3.3 0 00-.307-.1h-.119c-.201.036-.4.088-.594.156a.362.362 0 00-.15.156 2.64 2.64 0 00-.2.557.844.844 0 01-.77.788zm-2.871-2.865c.258.003.512.063.744.175a1.476 1.476 0 01.832.889c.022.1.035.203.038.306v.619l.375.113c.257.05.52.1.782.125.056 0 .175 0 .238-.219a3.75 3.75 0 01.25-.688.988.988 0 01.476-.444c.226-.08.458-.143.694-.188h.113a.951.951 0 01.87.25c.112.107.224.2.337.294l.25.22h.07l.881-.626c.063-.05.088-.063.032-.188-.057-.125-.132-.288-.194-.438l-.082-.194a1.12 1.12 0 01.044-.976 1.727 1.727 0 011.814-1.095h.138c.113 0 .119-.037.125-.093.065-.373.106-.749.125-1.126l-.044-.063a3.644 3.644 0 00-.625-.263 1.007 1.007 0 01-.713-.726l-.057-.187a7.053 7.053 0 01-.15-.626.744.744 0 01.125-.531c.207-.276.426-.539.626-.795l.044-.056v-.063l-.188-.25a7.086 7.086 0 00-.42-.55c-.15-.176-.13-.138-.143-.145a1.922 1.922 0 00-.188.076l-.093.05c-.901.425-1.02.419-1.877-.113l-.163-.1a.77.77 0 01-.375-.626c0-.169-.032-.338-.05-.5-.02-.163-.032-.263-.044-.388a2.397 2.397 0 00-.344-.1c-.12 0-.244-.057-.37-.075l-.187-.038c-.388-.069-.394-.069-.55.488a1.25 1.25 0 01-.964.932l-.213.044-.256.063a1.014 1.014 0 01-.882-.232l-.3-.25-.357-.3-.257.181a7.37 7.37 0 00-.35.25 1.76 1.76 0 00-.375.344c.036.14.097.271.18.388a1.42 1.42 0 01-.1 1.683 1.482 1.482 0 01-1.25.7 2.11 2.11 0 00-.495.045 10.24 10.24 0 00-.162.976l-.032.225.226.1c.164.062.323.137.475.225.252.13.467.322.626.557a1.526 1.526 0 01-.27 1.958c-.087.09-.164.188-.23.294v.044c.164.398.424.75.756 1.026.124-.043.243-.097.357-.163l.225-.119c.151-.07.315-.106.482-.106zm3.234-.763a2.834 2.834 0 11-.044-5.668 2.854 2.854 0 012.828 2.884 2.796 2.796 0 01-2.784 2.784zm-.087-5.055a2.21 2.21 0 00.08 4.417 2.165 2.165 0 002.147-2.165 2.234 2.234 0 00-2.209-2.252h-.018z" fill="#6495D3"/>
  <path d="M54.243 15.619h-9.59a.313.313 0 010-.626h9.59a.313.313 0 110 .626zm0 2.358h-9.59a.313.313 0 010-.625h9.59a.313.313 0 110 .625zm0 2.365h-9.59a.313.313 0 010-.625h9.59a.313.313 0 010 .625z" fill="#C9C9C8"/>
  <path d="M170.203 9.275h-53.646v31.68h53.646V9.276z" fill="#fff"/>
  <path d="M170.209 41.269h-53.652a.318.318 0 01-.313-.313V9.275a.318.318 0 01.313-.313h53.652a.319.319 0 01.313.313v31.681a.317.317 0 01-.313.313zm-53.339-.626h53.027V9.607h-53.033l.006 31.036z" fill="#C9C9C8"/>
  <path d="M143.382 30.164H141.9a1.352 1.352 0 01-1.539-1.095 8.183 8.183 0 00-1.708-3.072 6.566 6.566 0 01-1.52-4.754c.281-3.566 3.128-5.756 6.775-5.45 5.405.451 7.013 6.025 4.242 9.942a9.81 9.81 0 00-1.777 3.372 1.296 1.296 0 01-1.439 1.02c-.544.012-1.039.03-1.552.037z" fill="#fff"/>
  <path d="M141.755 30.508a1.645 1.645 0 01-1.702-1.332 7.832 7.832 0 00-1.645-2.953 6.882 6.882 0 01-1.589-5.005 6.096 6.096 0 012.096-4.28 6.798 6.798 0 015.005-1.457 6.15 6.15 0 015.292 3.51 7.036 7.036 0 01-.813 6.982 9.579 9.579 0 00-1.72 3.259 1.629 1.629 0 01-1.752 1.251h-3.009l-.163.025zm1.489-14.408a6.009 6.009 0 00-3.923 1.339 5.487 5.487 0 00-1.876 3.854 6.253 6.253 0 001.445 4.535A8.295 8.295 0 01140.635 29a1.055 1.055 0 00.827.876c.14.029.284.029.424 0h3.06a.974.974 0 001.126-.782 10.09 10.09 0 011.827-3.478 6.413 6.413 0 00.75-6.356 5.459 5.459 0 00-4.761-3.091 2.536 2.536 0 00-.644-.069z" fill="#6495D3"/>
  <path d="M145.37 30.13l-3.997.052a.644.644 0 00-.636.652l.002.213c.005.356.297.64.653.636l3.997-.051a.644.644 0 00.636-.653l-.002-.212a.645.645 0 00-.653-.636z" fill="#fff"/>
  <path d="M141.385 32.017a.965.965 0 01-.963-.951v-.188a.959.959 0 01.944-.97l3.992-.056a.946.946 0 01.682.275.951.951 0 01.294.676v.206a.961.961 0 01-.945.97l-3.991.056-.013-.018zm3.998-1.558l-3.992.056a.325.325 0 00-.331.338v.206a.34.34 0 00.338.332l3.991-.056a.333.333 0 00.239-.098.326.326 0 00.093-.24v-.207a.343.343 0 00-.338-.331z" fill="#6495D3"/>
  <path d="M145.39 31.638l-3.998.051a.645.645 0 00-.636.653l.003.212a.644.644 0 00.653.636l3.997-.05a.644.644 0 00.636-.653l-.003-.213a.644.644 0 00-.652-.636z" fill="#fff"/>
  <path d="M141.405 33.517a.94.94 0 01-.669-.275.95.95 0 01-.295-.676v-.206a.963.963 0 01.945-.97l3.992-.056c.254.001.498.1.681.275a.949.949 0 01.295.676v.206a.97.97 0 01-.945.976l-3.992.05h-.012zm3.998-1.557l-3.992.056a.325.325 0 00-.331.338v.206a.32.32 0 00.1.232.49.49 0 00.237.1l3.992-.05a.342.342 0 00.237-.104.331.331 0 00.094-.24v-.207a.354.354 0 00-.1-.231.346.346 0 00-.25-.1h.013z" fill="#6495D3"/>
  <path d="M145.458 33.148c0 .57-.908 1.039-2.04 1.051-1.132.013-2.058-.431-2.064-.994l4.104-.057z" fill="#fff"/>
  <path d="M143.362 34.512c-1.314 0-2.308-.557-2.321-1.307a.314.314 0 01.19-.29.31.31 0 01.123-.023l4.098-.057a.319.319 0 01.312.313 1.198 1.198 0 01-.75 1.014 3.625 3.625 0 01-1.583.35h-.069zm-1.476-1a2.5 2.5 0 001.526.374 3.04 3.04 0 001.308-.281l.219-.131-3.053.037z" fill="#6495D3"/>
  <path d="M142.444 29.42c.21-1.598.151-3.22-.176-4.799a5.431 5.431 0 00-.969-2.102 1.17 1.17 0 00-1.321-.191c-.141.07-.267.17-.368.291a1.249 1.249 0 00-.075 1.207c.186.382.468.707.819.946a4.639 4.639 0 005.043.187 3.025 3.025 0 001.182-1.251 1.837 1.837 0 000-1.677c-.319-.556-.901-.187-1.251.17-.682.769-.782 2.02-.882 2.996a15.421 15.421 0 00.162 4.154" fill="#fff"/>
  <path d="M142.441 29.733a.311.311 0 01-.277-.21.312.312 0 01-.017-.122v-.15c.116-1.127.129-2.262.038-3.391a4.831 4.831 0 01-2.008-.838 2.65 2.65 0 01-.926-1.07 1.553 1.553 0 01.106-1.514 1.417 1.417 0 011.064-.544 1.382 1.382 0 011.113.419 5.47 5.47 0 011.039 2.227c.069.25.125.5.169.757.473.03.949-.017 1.407-.138v-.106c.1-1.001.232-2.24.951-3.053a1.478 1.478 0 011.095-.557.818.818 0 01.626.444 2.15 2.15 0 010 1.959 3.31 3.31 0 01-1.295 1.376 4.607 4.607 0 01-.832.406 15.577 15.577 0 00.194 3.68.315.315 0 01-.057.235.315.315 0 01-.442.07.316.316 0 01-.127-.206 16.24 16.24 0 01-.219-3.59 5.146 5.146 0 01-1.251.105c.077 1.124.06 2.252-.05 3.373v.15a.311.311 0 01-.301.288zm-1.933-7.214h-.056a.77.77 0 00-.594.282.947.947 0 00-.044.9c.164.33.412.61.719.814.462.334.988.569 1.546.688a7.496 7.496 0 00-.113-.5 4.997 4.997 0 00-.901-1.959.737.737 0 00-.557-.225zm5.631-.45a.92.92 0 00-.544.344 4.54 4.54 0 00-.776 2.502c.148-.072.292-.151.431-.238.453-.26.822-.644 1.064-1.107a1.524 1.524 0 000-1.389c-.069-.119-.125-.125-.15-.125l-.025.013z" fill="#6495D3"/>
  <path d="M132.441 29.883h-7.601a.313.313 0 010-.626h7.601a.311.311 0 01.313.313.312.312 0 01-.313.313zm0 2.201h-7.601a.313.313 0 010-.625h7.601a.311.311 0 01.313.313.312.312 0 01-.313.313zm0 2.196h-7.601a.313.313 0 010-.625h7.601a.311.311 0 01.313.313.312.312 0 01-.313.313zm-1.996 2.227h-5.63a.311.311 0 01-.313-.312.312.312 0 01.313-.313h5.63a.311.311 0 01.22.532.32.32 0 01-.22.093zm32.438-20.851h-10.01a.313.313 0 010-.625h10.01a.311.311 0 01.313.313.312.312 0 01-.313.312zm0 2.202h-10.01a.313.313 0 010-.625h10.01a.311.311 0 01.313.313.312.312 0 01-.313.312zm0 2.197h-10.01a.313.313 0 010-.626h10.01a.311.311 0 01.313.313.312.312 0 01-.313.313zm-2.635 2.195h-7.388a.315.315 0 01-.222-.091.315.315 0 010-.443.315.315 0 01.222-.091h7.388a.32.32 0 01.313.312.312.312 0 01-.313.313z" fill="#C9C9C8"/>
  <path d="M162.193 28.018h-9.334v5.956h9.334v-5.956z" fill="#fff"/>
  <path d="M162.188 34.28h-9.328a.315.315 0 01-.222-.09.315.315 0 01-.091-.222v-5.95c0-.083.033-.162.091-.22a.315.315 0 01.222-.092h9.328a.313.313 0 01.312.312v5.95a.326.326 0 01-.023.12.318.318 0 01-.17.169.308.308 0 01-.119.024zm-9.016-.625h8.734v-5.324h-8.759l.025 5.324z" fill="#6495D3"/>
  <path d="M152.859 33.968l-1.589 2.959h12.499l-1.582-2.96h-9.328z" fill="#fff"/>
  <path d="M163.783 37.24h-12.512a.322.322 0 01-.265-.156.315.315 0 01-.011-.307l1.583-2.953a.313.313 0 01.282-.169h9.328a.3.3 0 01.275.169l1.583 2.953a.306.306 0 01-.111.419.316.316 0 01-.152.044zm-11.974-.626h11.455l-1.252-2.333h-8.971l-1.232 2.333z" fill="#6495D3"/>
  <path d="M123.443 15.062v7.97c0 .757 2.24 1.37 5.005 1.37 2.765 0 5.005-.626 5.005-1.37v-7.97h-10.01z" fill="#fff"/>
  <path d="M128.442 24.715c-2.558 0-5.311-.526-5.311-1.683v-7.97c0-.083.033-.163.091-.221a.315.315 0 01.222-.092h10.009c.083 0 .163.033.222.092a.315.315 0 01.091.22v7.971c-.012 1.157-2.765 1.683-5.324 1.683zm-4.698-9.34v7.657c0 .357 1.652 1.057 4.686 1.057s4.698-.719 4.698-1.057v-7.657h-9.384z" fill="#6495D3"/>
  <path d="M128.442 16.439c2.761 0 4.999-.617 4.999-1.377s-2.238-1.376-4.999-1.376c-2.761 0-4.999.616-4.999 1.376 0 .76 2.238 1.377 4.999 1.377z" fill="#fff"/>
  <path d="M128.442 16.745c-2.558 0-5.311-.526-5.311-1.683s2.753-1.69 5.311-1.69c2.559 0 5.312.526 5.312 1.69s-2.753 1.683-5.312 1.683zm0-2.747c-3.034 0-4.686.701-4.686 1.064 0 .363 1.652 1.057 4.686 1.057 3.035 0 4.686-.7 4.686-1.057s-1.651-1.076-4.686-1.076v.012z" fill="#6495D3"/>
  <path d="M133.439 17.264c0 .763-2.239 1.377-5.004 1.377-2.766 0-5.005-.626-5.005-1.377" fill="#fff"/>
  <path d="M128.442 18.953c-2.558 0-5.311-.525-5.311-1.682 0-.083.033-.163.091-.222a.315.315 0 01.443 0 .31.31 0 01.091.222c0 .356 1.652 1.057 4.686 1.057 3.035 0 4.686-.7 4.686-1.057a.312.312 0 01.313-.313.313.313 0 01.313.313c0 1.157-2.753 1.682-5.312 1.682z" fill="#6495D3"/>
  <path d="M133.439 19.729c0 .763-2.239 1.376-5.004 1.376-2.766 0-5.005-.625-5.005-1.376" fill="#fff"/>
  <path d="M128.442 21.418c-2.558 0-5.311-.525-5.311-1.683 0-.082.033-.162.091-.22a.315.315 0 01.443 0 .311.311 0 01.091.22c0 .357 1.652 1.058 4.686 1.058 3.035 0 4.686-.701 4.686-1.058a.312.312 0 01.534-.22.312.312 0 01.092.22c0 1.133-2.753 1.683-5.312 1.683z" fill="#6495D3"/>
  <path d="M148.568 48.494s3.397 1.527 2.065 4.699l-2.065-4.699z" fill="#fff"/>
  <path d="M150.644 53.506a.272.272 0 01-.119 0 .321.321 0 01-.169-.406c1.208-2.86-1.77-4.236-1.877-4.292a.325.325 0 01-.107-.068.333.333 0 01-.071-.105.312.312 0 01.187-.416.318.318 0 01.248.02c.038 0 3.66 1.689 2.221 5.099a.321.321 0 01-.313.168z" fill="#11253E"/>
  <path d="M38.304 106.151c2.239 0 4.054-1.524 4.054-3.403 0-1.88-1.815-3.404-4.054-3.404-2.239 0-4.054 1.524-4.054 3.404 0 1.879 1.815 3.403 4.054 3.403z" fill="#6495D3"/>
  <path d="M107.861 98.582H84.707l2.659 19.725h29.929l-9.434-19.725z" fill="#fff"/>
  <path d="M117.294 118.62h-29.93a.322.322 0 01-.205-.077.323.323 0 01-.107-.192l-2.659-19.726a.327.327 0 01.075-.25.314.314 0 01.238-.106h23.147a.31.31 0 01.282.175l9.434 19.732a.312.312 0 010 .3.3.3 0 01-.275.144zm-29.654-.626h29.16l-9.14-19.1H85.062l2.578 19.1z" fill="#C9C9C8"/>
  <path d="M108.73 114.628H90.825a.31.31 0 01-.313-.312c0-.083.033-.163.091-.222a.315.315 0 01.222-.091h17.905a.313.313 0 010 .625zm1.875-3.847h-20.57a.312.312 0 01-.313-.313.313.313 0 01.313-.313h20.57a.314.314 0 01.313.313.313.313 0 01-.313.313zm-2.121-3.841H89.09a.312.312 0 01-.221-.534.312.312 0 01.221-.092h19.394a.31.31 0 01.221.092.31.31 0 010 .442.31.31 0 01-.221.092zm-1.493-3.842H91.489a.312.312 0 01-.221-.534.312.312 0 01.22-.092h15.503a.314.314 0 01.313.313.317.317 0 01-.313.313z" fill="#C9C9C8"/>
</svg>
