<svg xmlns="http://www.w3.org/2000/svg" fill="none" viewBox="0 0 200 49">
  <rect x="8.027" y="5.937" width="191" height="38" rx="19" fill="#F5F6F7"/>
  <path d="M64.843 29.936h-3.868V19.027h3.9c1.097 0 2.041.219 2.834.656a4.42 4.42 0 011.826 1.87c.43.813.645 1.785.645 2.918 0 1.137-.215 2.113-.645 2.93a4.429 4.429 0 01-1.837 1.88c-.796.437-1.747.655-2.855.655zm-1.561-1.976h1.465c.682 0 1.255-.12 1.72-.362.47-.245.82-.623 1.055-1.134.238-.515.357-1.18.357-1.993 0-.806-.12-1.465-.357-1.976-.234-.511-.584-.888-1.05-1.13-.465-.24-1.038-.361-1.72-.361h-1.47v6.956zm8.757 1.976V19.027h7.35v1.902h-5.044v2.6h4.666v1.901h-4.666v2.605h5.066v1.901h-7.372zm9.334 0V19.027h4.304c.827 0 1.532.159 2.115.474a3.21 3.21 0 011.332 1.306c.309.553.463 1.193.463 1.917 0 .725-.156 1.364-.469 1.918a3.233 3.233 0 01-1.358 1.294c-.59.31-1.303.464-2.142.464h-2.743v-1.85h2.37c.445 0 .81-.076 1.098-.229.291-.156.508-.37.65-.644.145-.277.218-.595.218-.954 0-.362-.073-.678-.218-.948a1.458 1.458 0 00-.65-.634c-.291-.153-.66-.229-1.108-.229H83.68v9.023h-2.307zm9.862 0V19.027h2.306v9.008h4.677v1.901h-6.983zm18.261-5.454c0 1.19-.226 2.202-.677 3.036-.447.835-1.058 1.472-1.832 1.912-.771.437-1.637.656-2.599.656-.97 0-1.84-.22-2.611-.66-.77-.441-1.379-1.079-1.827-1.913-.447-.835-.67-1.845-.67-3.031 0-1.19.223-2.202.67-3.036.448-.835 1.057-1.47 1.827-1.907.771-.44 1.641-.66 2.611-.66.962 0 1.828.22 2.599.66.774.437 1.385 1.072 1.832 1.907.451.834.677 1.846.677 3.036zm-2.339 0c0-.77-.115-1.42-.346-1.95-.227-.529-.548-.93-.964-1.203-.415-.274-.902-.41-1.459-.41-.558 0-1.044.136-1.46.41-.415.273-.739.674-.969 1.203-.228.53-.341 1.18-.341 1.95s.113 1.42.341 1.95c.23.529.554.93.969 1.203.416.274.902.41 1.46.41.557 0 1.044-.136 1.459-.41.416-.273.737-.674.964-1.203.231-.53.346-1.18.346-1.95zm2.899-5.455h2.583l2.488 4.699h.107l2.487-4.699h2.584l-3.979 7.053v3.857h-2.291V26.08l-3.979-7.053zm18.583 11.07c-.753 0-1.403-.136-1.95-.405-.547-.27-.968-.636-1.262-1.098a2.865 2.865 0 01-.437-1.555c0-.426.085-.805.255-1.135.171-.33.409-.634.714-.91a9.52 9.52 0 011.066-.837l2.114-1.39c.274-.174.474-.357.602-.549.128-.195.192-.407.192-.634 0-.216-.087-.417-.261-.602-.174-.184-.421-.275-.74-.271a1.038 1.038 0 00-.922.511.994.994 0 00-.128.5c0 .228.064.459.192.693.128.235.298.483.511.746.213.26.446.54.698.842l5.172 5.933h-2.365l-4.314-4.804a31.9 31.9 0 01-.853-1.012 5.884 5.884 0 01-.703-1.13 3.037 3.037 0 01-.282-1.304c0-.53.122-1.006.368-1.428a2.666 2.666 0 011.044-1.002c.447-.248.969-.372 1.566-.372.582 0 1.084.119 1.507.357a2.494 2.494 0 011.326 2.215c0 .515-.127.982-.383 1.401a3.856 3.856 0 01-1.065 1.119l-2.227 1.603c-.302.22-.526.446-.671.677-.142.227-.213.445-.213.655a1.295 1.295 0 00.735 1.188c.234.117.509.176.825.176a2.66 2.66 0 001.135-.261 3.41 3.41 0 001.023-.752c.309-.326.556-.713.74-1.16.185-.448.277-.944.277-1.487h1.881c0 .668-.073 1.27-.219 1.806a4.897 4.897 0 01-.607 1.396 3.841 3.841 0 01-.89.969 15.82 15.82 0 01-.309.192c-.099.06-.202.124-.309.191a3.845 3.845 0 01-1.358.709 5.23 5.23 0 01-1.475.218zm10.576-.16v-10.91h4.304c.828 0 1.532.159 2.115.474a3.208 3.208 0 011.331 1.306c.309.553.464 1.193.464 1.917 0 .725-.156 1.364-.469 1.918a3.23 3.23 0 01-1.358 1.294c-.59.31-1.303.464-2.141.464h-2.744v-1.85h2.371c.444 0 .809-.076 1.097-.229a1.52 1.52 0 00.65-.644c.145-.277.218-.595.218-.954 0-.362-.073-.678-.218-.948a1.46 1.46 0 00-.65-.634c-.291-.153-.661-.229-1.108-.229h-1.555v9.023h-2.307zm9.862 0v-10.91h2.307v9.008h4.676v1.901h-6.983zm10.819 0h-2.471l3.766-10.91h2.972l3.761 10.91h-2.472l-2.732-8.417h-.086l-2.738 8.416zm-.154-4.289h5.838v1.801h-5.838v-1.8zm7.892-6.62h2.584l2.487 4.698h.107l2.487-4.699h2.584l-3.979 7.053v3.857h-2.291V26.08l-3.979-7.053z" fill="#3E7CB1"/>
  <circle cx="24.483" cy="24.937" r="22.645" fill="#fff" stroke="#3E7CB1" stroke-width="2.714"/>
  <path d="M15.994 34.782v-3.597l8.405-7.783a31.804 31.804 0 001.799-1.868c.492-.553.864-1.095 1.118-1.625a4.03 4.03 0 00.38-1.741c0-.692-.157-1.288-.472-1.787a3.104 3.104 0 00-1.291-1.165c-.546-.277-1.165-.415-1.857-.415-.722 0-1.353.146-1.89.438a3.02 3.02 0 00-1.246 1.257c-.292.546-.438 1.195-.438 1.948h-4.739c0-1.545.35-2.886 1.05-4.023.699-1.138 1.68-2.018 2.94-2.64 1.26-.623 2.713-.935 4.358-.935 1.69 0 3.163.3 4.416.9 1.26.591 2.24 1.414 2.94 2.467.7 1.053 1.049 2.26 1.049 3.62 0 .892-.177 1.772-.53 2.64-.346.87-.965 1.834-1.857 2.895-.891 1.053-2.148 2.317-3.77 3.793l-3.447 3.378v.161h9.915v4.082H15.994z" fill="#3E7CB1"/>
</svg>
