<svg xmlns="http://www.w3.org/2000/svg" fill="none" viewBox="0 0 190 274">
  <path d="M33.914 22.503s3.12-14.803.543-14.9c-2.577-.097-4.631 7.305-4.631 7.305S22.966.008 21.32 1.945c-1.647 1.938-4.282 7.983-3.565 9.824.716 1.84 5.58 16.063 5.58 16.063l10.58-5.329z" fill="#fff"/>
  <path d="M23.335 28.82a.814.814 0 00.426-.097l10.58-5.348a1.027 1.027 0 00.522-.678c.64-3.042 2.597-13.176.853-15.404a1.627 1.627 0 00-1.22-.659h-.098c-2.19 0-3.875 3.178-4.747 5.639C27.287 7.37 23.838 1.113 21.901.84a1.414 1.414 0 00-1.298.504c-1.57 1.937-4.69 8.293-3.74 10.792.698 1.802 5.522 15.888 5.58 16.043a1.007 1.007 0 00.543.582c.112.037.23.057.349.058zm9.688-6.976l-9.165 4.65c-1.163-3.351-4.65-13.563-5.232-15.054-.465-1.182 1.453-6.278 3.159-8.545 1.375 1.085 4.65 7.072 7.11 12.42a.93.93 0 00.97.542.949.949 0 00.852-.697c.833-3.004 2.441-6.297 3.507-6.569.64 1.105.116 7.034-1.163 13.254h-.038z" fill="#11253E"/>
  <path d="M111.747 57.09s-42.453 3.313-51.25-1.512L37.033 20.139l-18.33 8.642s12.808 38.112 23.251 49.234c16.877 17.846 70.607 10.173 70.607 10.173l-.814-31.099z" fill="#FEBE10"/>
  <path d="M150.387 156.294s23.251-38.248 24.142-65.006c.891-26.758-16.295-30.46-22.244-31.544-5.948-1.085-37.376-9.107-50.707 3.875C88.248 76.6 83.132 145.56 83.132 145.56l67.255 10.734z" fill="#FEBE10"/>
  <path d="M83.419 131.765s-16.063 4.514-41.445 17.69c-11.626 6.045-26.933 82.6-26.933 82.6s.775 12.691 15.365 12.439l48.014-81.728s17.206-29.936 4.999-31.001z" fill="#3E7CB1"/>
  <path d="M29.983 245.385h.445a.927.927 0 00.814-.484l48.014-81.612c.523-.91 12.633-22.185 8.7-29.761a5.209 5.209 0 00-4.437-2.79 1.137 1.137 0 00-.369 0c-.154 0-16.45 4.689-41.62 17.767-5.095 2.635-11.257 17.439-18.329 44.158-5.212 19.706-9.068 38.907-9.107 39.101-.01.084-.01.168 0 .252 0 .155.989 13.369 15.889 13.369zm53.516-112.71a3.258 3.258 0 012.732 1.744c2.868 5.522-5.27 22.011-8.66 27.901l-47.704 81.128c-12.401 0-13.719-10.134-13.854-11.413 4.262-21.313 17.205-77.019 26.41-81.805a250.956 250.956 0 0141.076-17.555z" fill="#3E7CB1"/>
  <path d="M152.902 147.963s-54.485-4.864-67.04-8.235c0 0-.737 0-12.169 16.218-11.432 16.217-7.266 96.628-7.266 96.628s10.793 14.513 20.771 13.796l22.205-88.568s19.609 2.906 31.467-3.623c8.332-4.612 9.378-16.412 12.032-26.216z" fill="#3E7CB1"/>
  <path d="M86.484 267.396h.794a.944.944 0 00.872-.736l21.992-87.734c3.992.484 20.481 2.053 31.195-3.876 7.17-3.875 9.185-12.71 11.142-21.178.426-1.937.872-3.875 1.356-5.619a.941.941 0 00-.136-.813 1 1 0 00-.697-.407c-.543 0-54.563-4.883-66.886-8.216a1.021 1.021 0 00-.349 0c-.465 0-1.182.116-12.846 16.625-11.665 16.508-7.634 93.935-7.46 97.229.014.189.081.37.194.523.445.639 10.676 14.202 20.829 14.202zm22.922-90.544a.973.973 0 00-.95.737l-22.01 87.87c-8.487 0-17.691-11.451-19.067-13.215-.252-5.406-3.642-80.507 7.111-95.717 8.293-11.723 10.89-14.881 11.626-15.714 12.42 3.119 57.527 7.305 65.53 8.041-.388 1.492-.737 3.023-1.105 4.573-1.938 8.06-3.875 16.392-10.172 19.918-11.432 6.297-30.673 3.546-30.866 3.507h-.097z" fill="#3E7CB1"/>
  <path d="M138.312 39.38c.969-.194 2.132-7.75 2.325-8.565a34.047 34.047 0 001.163-13.369 17.036 17.036 0 00-2.286-7.634 5.932 5.932 0 00-6.956-2.519c-.696.5-1.511.808-2.364.891a3.446 3.446 0 01-1.647-.891 19.224 19.224 0 00-14.532-4.185 14.185 14.185 0 00-11.374 9.378c.194-1.027-1.259-1.725-2.209-1.26a4.128 4.128 0 00-1.744 2.5 13.408 13.408 0 00-.542 9.107c1.26 3.08 4.631 3.216 7.75 3.216 8.894.039 22.903 15.307 32.416 13.33z" fill="#fff"/>
  <path d="M136.528 40.523c.651 0 1.3-.064 1.938-.194 1.065-.213 1.666-1.511 2.887-8.293 0-.484.155-.852.193-1.007a35.154 35.154 0 001.144-13.7 18.136 18.136 0 00-2.461-8.04 6.82 6.82 0 00-8.119-2.849 5.399 5.399 0 00-.658.35c-.357.247-.77.4-1.202.445a2.83 2.83 0 01-1.085-.64 20.153 20.153 0 00-15.326-4.437 15.497 15.497 0 00-11.471 8.293 2.71 2.71 0 00-2.383 0 4.865 4.865 0 00-2.248 3.062 13.931 13.931 0 00-.503 9.746c1.569 3.875 5.812 3.875 8.583 3.875 3.875 0 9.029 3.216 14.067 6.336 5.658 3.352 11.529 7.053 16.644 7.053zm1.337-1.938c-4.766.814-10.986-3.042-17.012-6.762-5.484-3.41-10.676-6.607-15.055-6.627-3.139 0-5.813-.213-6.801-2.615a12.382 12.382 0 01.562-8.41 3.276 3.276 0 011.259-1.937.739.739 0 01.601 0c.096.027.179.09.232.174a.99.99 0 00.737 1.124.97.97 0 001.143-.659 13.138 13.138 0 0110.598-8.719 18.037 18.037 0 0113.777 4.01 4.184 4.184 0 002.17 1.067 3.877 3.877 0 002.306-.679l.542-.29a5 5 0 015.813 2.19 16.807 16.807 0 012.131 7.226 33.22 33.22 0 01-1.124 12.982c0 .175 0 .562-.193 1.105a33.433 33.433 0 01-1.628 6.723l-.058.097z" fill="#11253E"/>
  <path d="M111.053 53.99l.659 14.415a10.595 10.595 0 0013.078 4.941c9.32-2.848 10.153-9.688 10.153-9.688l-1.666-26.68s-7.886-4.186-10.269-20.752c0 0-20.578-.853-20.151 6.956 0 0-1.938 14.377-.601 21.662 1.337 7.285 8.661 9.049 8.797 9.145z" fill="#fff"/>
  <path d="M120.876 74.934a14.385 14.385 0 004.186-.658c9.823-3.004 10.811-10.192 10.85-10.483l-1.666-26.855a.952.952 0 00-.523-.794s-7.48-4.244-9.688-20.035a.994.994 0 00-.93-.833c-.601 0-15.017-.582-19.648 4.127a4.886 4.886 0 00-1.511 3.875c0 .426-1.938 14.435-.581 21.817a12.986 12.986 0 008.796 9.688l.659 13.757c-.02.122-.02.247 0 .368a11.625 11.625 0 0010.056 6.026zm11.471-37.376l1.705 26.177s-.911 6.065-9.475 8.68a9.533 9.533 0 01-11.819-4.262l-.659-14.203a1.027 1.027 0 00-.407-.756 1.923 1.923 0 00-.407-.174 11.372 11.372 0 01-8.002-8.332c-1.298-7.052.581-21.313.601-21.313a3.176 3.176 0 01.968-2.558c3.139-3.177 12.982-3.662 17.439-3.565 2.073 14.028 8.254 19.105 10.056 20.306z" fill="#11253E"/>
  <path d="M127.697 36.822a6.428 6.428 0 011.938-3.43 10.837 10.837 0 013.216-1.937 4.518 4.518 0 011.938-.484c.482.037.951.175 1.375.407a4.762 4.762 0 012.422 2.267c.314.86.407 1.786.272 2.693a11.368 11.368 0 01-.543 2.906 7.497 7.497 0 01-9.688 4.495" fill="#fff"/>
  <path d="M131.24 45.309a8.444 8.444 0 003.565-.775 8.64 8.64 0 004.418-4.825c.35-1.02.565-2.082.64-3.158a6.655 6.655 0 00-.349-3.159 5.813 5.813 0 00-2.887-2.751 4.788 4.788 0 00-1.744-.504 5.468 5.468 0 00-2.403.543 11.859 11.859 0 00-3.487 2.054 7.146 7.146 0 00-2.209 3.875.971.971 0 00.775 1.124.986.986 0 001.143-.775 5.115 5.115 0 011.589-2.887 10.373 10.373 0 012.945-1.667 3.682 3.682 0 011.531-.407 2.79 2.79 0 011.007.31 3.878 3.878 0 011.938 1.764c.248.721.321 1.492.213 2.247a10.06 10.06 0 01-.523 2.655 6.586 6.586 0 01-3.352 3.797 6.666 6.666 0 01-5.038.194.968.968 0 00-1.24.562.942.942 0 00.019.739.942.942 0 00.543.501c.928.356 1.913.54 2.906.543z" fill="#11253E"/>
  <path d="M115.275 31.552s-4.786 7.518-3.585 8.777c1.202 1.26 4.496.33 4.496.33" fill="#fff"/>
  <path d="M113.863 41.976a9.788 9.788 0 002.577-.387 1.01 1.01 0 00.608-.469.998.998 0 00.099-.761.988.988 0 00-.469-.609.999.999 0 00-.761-.099c-1.105.31-2.984.504-3.527 0a25.889 25.889 0 013.701-7.576.969.969 0 00-1.628-1.046c-3.449 5.425-4.611 8.777-3.468 9.979a3.883 3.883 0 002.868.968zm7.242-10.673c-.674-.013-1.205-.796-1.186-1.748.019-.953.581-1.713 1.255-1.7.674.014 1.205.796 1.186 1.748-.019.953-.581 1.714-1.255 1.7zm-10.063 1.29c-.674-.016-1.202-.8-1.18-1.753.023-.952.587-1.71 1.261-1.695.674.016 1.203.8 1.18 1.753-.022.952-.587 1.71-1.261 1.695zm4.853 15.855a9.318 9.318 0 003.584-.66 9.897 9.897 0 005.619-7.09 1.009 1.009 0 00-.356-1.057 1.011 1.011 0 00-.742-.2 1.005 1.005 0 00-.839.733 8.145 8.145 0 01-4.476 5.813c-4.321 1.744-9.882-1.453-9.94-1.492a.97.97 0 00-1.318.349.99.99 0 00.349 1.337 17.962 17.962 0 008.119 2.267zm-4.844 5.542s9.049 1.646 14.203-1.61c0 0-5.29 12.363-13.757 11.49l-.446-9.88z" fill="#11253E"/>
  <path d="M112.371 64.878c8.487 0 13.563-11.625 13.776-12.129a.95.95 0 00-.271-1.104.93.93 0 00-1.143 0c-4.767 3.022-13.428 1.492-13.563 1.472a.95.95 0 00-.814.213.933.933 0 00-.33.775l.465 9.882a.969.969 0 00.853.93l1.027-.039zm10.734-10.443c-1.937 3.197-5.658 8.448-10.676 8.506l-.368-7.75a27.13 27.13 0 0011.044-.756z" fill="#11253E"/>
  <path d="M164.82 64.936c14.048 8.06 32.242 77.195 21.314 83.802-17.206 10.288-70.626-8.506-70.626-8.506l6.917-20.636s35.168 5.154 36.524-1.937c1.357-7.092-15.694-43.209-12.342-47.879 3.352-4.67 18.213-4.844 18.213-4.844z" fill="#FEBE10"/>
  <path d="M125.33 127.154a81.636 81.636 0 01-17.438-2.946 54.12 54.12 0 00-12.944-3.042 49.614 49.614 0 00-17.438 1.938 1.202 1.202 0 00-.6.31c-.601.659.542 1.511 1.433 1.647 2.319.349 4.676.349 6.995 0a66.242 66.242 0 00-16.586 6.452c-.6.33-1.279.872-1.085 1.512.194.639 1.337.678 2.093.445l13.292-4.282a31.872 31.872 0 00-9.592 4.379c-.426.291-.89.678-.852 1.182 0 .872 1.376.872 2.19.562a74.852 74.852 0 0011.76-5.387l-8.505 5.038c-.175.64.445 1.26 1.085 1.356a3.535 3.535 0 001.937-.426l9.281-4.127-5.812 3.158c-.911.504-1.938 1.337-1.686 2.345.252 1.007 2.054 1.027 3.236.659a66.553 66.553 0 0114.454-2.635c1.741-.35 3.515-.5 5.29-.446a47.12 47.12 0 017.75 2.654l11.451 4.108" fill="#fff"/>
  <path d="M124.945 142.498a.89.89 0 00.29-1.724l-11.451-4.108c-.756-.252-1.531-.581-2.306-.891a25.151 25.151 0 00-5.561-1.802 12.332 12.332 0 00-3.875.194c-.564.107-1.133.185-1.705.232a65.26 65.26 0 00-14.648 2.693 3.072 3.072 0 01-1.938 0 .346.346 0 01-.155-.174c0-.329.427-.852 1.28-1.317l5.812-3.159a.871.871 0 00.368-1.162.872.872 0 00-1.143-.427l-9.281 3.992a2.985 2.985 0 01-1.376.368h-.174l7.905-4.689a.87.87 0 00.31-1.201.893.893 0 00-1.201-.33 73.03 73.03 0 01-11.626 5.329 2.075 2.075 0 01-.969.116l.407-.291a31.511 31.511 0 016.414-3.332l2.964-.95a.89.89 0 00.582-1.085.91.91 0 00-1.085-.62 40.17 40.17 0 00-3.043.988l-10.288 3.314a1.945 1.945 0 01-1.027 0s.271-.194.717-.427a65.304 65.304 0 0116.373-6.374.872.872 0 00.658-1.027.893.893 0 00-1.007-.698 22.48 22.48 0 01-6.743 0 1.474 1.474 0 01-.62-.232 48.219 48.219 0 0116.973-1.822 46.615 46.615 0 0111.161 2.539l1.569.484a83 83 0 0017.632 2.964.908.908 0 00.969-.813.894.894 0 00-.814-.95 81.155 81.155 0 01-17.264-2.887l-1.55-.484a47.06 47.06 0 00-11.625-2.616 50.26 50.26 0 00-17.671 1.938c-.387.09-.742.285-1.027.562a1.448 1.448 0 00-.31 1.511 2.96 2.96 0 002.267 1.608h.581a66.51 66.51 0 00-10.463 4.67c-1.763.969-1.647 2.112-1.511 2.557a1.675 1.675 0 00.833.989 3.45 3.45 0 002.383 0l2.054-.659c-.26.343-.385.771-.349 1.201a1.55 1.55 0 00.737 1.201 3.14 3.14 0 002.635 0 26.162 26.162 0 001.937-.755c.043.284.15.556.31.794a2.255 2.255 0 001.55 1.008 4.244 4.244 0 002.345-.485l.504-.213a2.047 2.047 0 001.027 2.403 4.767 4.767 0 003.332 0 65.108 65.108 0 0114.242-2.616c.62 0 1.24-.155 1.937-.252a11.05 11.05 0 013.255-.194c1.775.371 3.504.936 5.154 1.686a55.65 55.65 0 002.384.95 512.374 512.374 0 0111.451 4.088.87.87 0 00.504.387z" fill="#11253E"/>
  <path d="M95.86 73.385c-2.19 1.744-9.204 41.213-12.73 55.667l12.73-55.667z" fill="#fff"/>
  <path d="M83.132 129.924a.895.895 0 00.872-.679c1.26-5.212 2.984-13.563 4.786-22.476 2.693-13.195 6.355-31.253 7.75-32.726a.853.853 0 00.117-1.22.91.91 0 00-1.26-.136c-1.472 1.182-3.759 11.626-8.254 33.734-1.802 8.854-3.507 17.225-4.767 22.418a.89.89 0 00.64 1.065l.116.02z" fill="#11253E"/>
  <path d="M21.921 138.1l.175 5.91 78.976 21.255-.658-6.161L21.921 138.1z" fill="#fff"/>
  <path d="M101.112 166.234a.95.95 0 00.62-.232.93.93 0 00.271-.375.918.918 0 00.058-.458l-.639-6.162a.946.946 0 00-.717-.833L22.212 137.17a.974.974 0 00-.853.175.926.926 0 00-.367.794l.174 5.813a.986.986 0 00.717.911l78.977 21.313c.077.04.164.06.252.058zm-1.55-6.355l.426 4.088-76.904-20.693-.116-3.875 76.594 20.48z" fill="#11253E"/>
  <path d="M21.92 138.1s20.131-13.563 20.732-13.311c.6.252 81.612 19.783 81.612 19.783l-23.852 14.532L21.92 138.1z" fill="#fff"/>
  <path d="M100.415 160.073a.926.926 0 00.504-.136l23.851-14.609a1.004 1.004 0 00.446-.988.965.965 0 00-.717-.795c-27.707-6.685-80.39-19.376-81.553-19.744-.504-.194-.989-.388-21.566 13.408a.973.973 0 00-.42.966.97.97 0 00.71.778l78.493 21.1.252.02zm21.313-15.113l-21.507 13.117-76.031-20.364c6.994-4.67 16.74-11.064 18.465-11.916 5.038 1.279 58.767 14.26 79.112 19.163h-.039z" fill="#11253E"/>
  <path d="M101.071 165.265l23.038-15.074.155-5.619-23.852 14.532.659 6.161z" fill="#fff"/>
  <path d="M101.111 166.234c.186-.003.366-.057.524-.155l23.038-15.074a.992.992 0 00.445-.795l.155-5.619a.965.965 0 00-.978-.982c-.173 0-.343.045-.494.13L99.949 158.29a.951.951 0 00-.465.93l.659 6.142a.926.926 0 00.542.775.803.803 0 00.426.097zm22.089-16.586l-21.313 13.932-.427-3.875 21.798-13.292-.058 3.235z" fill="#11253E"/>
  <path d="M21.922 138.1l-9.32-53.555 82.987 24.452 4.825 50.107L21.922 138.1z" fill="#fff"/>
  <path d="M100.413 160.073a.945.945 0 00.925-.648.943.943 0 00.044-.398l-4.825-50.126a.95.95 0 00-.697-.833L12.872 83.615a.948.948 0 00-1.181.6.97.97 0 00-.04.486l9.32 53.574a.927.927 0 00.698.756l78.492 21.023.252.019zM94.6 109.696l4.631 48.071-76.535-20.48-8.952-51.424L94.6 109.696zm46.755 41.018a.945.945 0 00.93-.697.979.979 0 00-.081-.737.955.955 0 00-.578-.464l-16.024-4.748 1.725-18.911 31.272.465a.939.939 0 00.737-.329.968.968 0 00.232-.794l-8.176-49.293a.964.964 0 00-.744-.786.969.969 0 00-.38-.008.99.99 0 00-.717 1.162l7.983 48.15-31.002-.465a.946.946 0 00-.949.872l-1.938 20.596a.966.966 0 00.678 1.008l16.799 4.979h.233z" fill="#11253E"/>
  <path d="M19.264 218.569a58.596 58.596 0 00-3.991-4.204c-3.042-2.907-9.688-7.421-12.498-1.783-1.685 3.488-.31 8.564.66 12.071a46.687 46.687 0 009.978 18.194c4.03 4.631 17.787 12.246 18.116.698a17.09 17.09 0 00-1.26-6.103 60.345 60.345 0 00-11.005-18.873z" fill="#fff"/>
  <path d="M26.433 250.52a6.476 6.476 0 002.228-.368c1.647-.582 3.623-2.209 3.74-6.569a17.438 17.438 0 00-1.299-6.452 60.475 60.475 0 00-11.18-19.144 59.693 59.693 0 00-4.03-4.262c-.95-.911-5.929-5.387-10.114-4.631a5.216 5.216 0 00-3.875 3.1c-1.938 3.875-.388 9.165.58 12.711a47.766 47.766 0 0010.193 18.523c2.48 2.771 8.874 7.092 13.757 7.092zM6.747 210.78c2.402 0 5.638 2.034 7.924 4.224 1.357 1.317 2.674 2.693 3.876 4.127a58.914 58.914 0 0110.85 18.601 16.132 16.132 0 011.201 5.812c0 2.713-.949 4.379-2.577 4.961-3.72 1.337-11.044-2.849-13.97-6.22a45.556 45.556 0 01-9.804-17.845c-.91-3.275-2.267-8.255-.717-11.452a3.491 3.491 0 013.217-2.208z" fill="#11253E"/>
  <path d="M67.28 230.718a5.345 5.345 0 00-3.275-1.357 4.392 4.392 0 00-2.131.872 9.983 9.983 0 00-3.682 7.751 25.01 25.01 0 001.725 8.699c2.945 8.584 7.324 17.09 14.668 22.438a14.642 14.642 0 004.34 2.306c13.68 4.127 9.533-10.347 6.84-17.032a54.56 54.56 0 00-18.485-23.677z" fill="#fff"/>
  <path d="M83.148 273.073a5.817 5.817 0 004.592-1.763c3.643-3.972.407-13.35-1.163-17.206a55.76 55.76 0 00-18.775-24.103 6.178 6.178 0 00-3.875-1.512 4.906 4.906 0 00-2.616 1.027 10.868 10.868 0 00-4.03 8.487 25.895 25.895 0 001.763 9.01c3.681 10.715 8.584 18.213 14.978 22.863a15.506 15.506 0 004.611 2.442c1.46.469 2.981.723 4.515.755zm-18.989-42.821a4.872 4.872 0 012.597 1.182 53.968 53.968 0 0118.194 23.252c2.305 5.696 3.875 12.73 1.492 15.365-1.28 1.395-3.72 1.569-7.266.504a13.9 13.9 0 01-4.07-2.19c-6.103-4.437-10.792-11.626-14.357-22.011a23.62 23.62 0 01-1.666-8.39 9.045 9.045 0 013.313-7.092 3.258 3.258 0 011.666-.697l.097.077z" fill="#11253E"/>
  <path d="M67.01 186.017a.95.95 0 00.95-.95c0-.135.31-14.067 3.41-21.313a.97.97 0 00-1.564-1.127.969.969 0 00-.199.352c-3.255 7.518-3.565 21.313-3.565 21.953a.965.965 0 00.58.907.979.979 0 00.37.081l.019.097z" fill="#fff"/>
  <path d="M120.137 74.625l5.813 1.686-1.705 3.875s11.18 16.411 51.656 14.067l12.033 9.048-11.122 6.278s-36.485 1.938-55.59-28.831l-3.604-1.008 2.519-5.115z" fill="#11253E"/>
</svg>
