<svg xmlns="http://www.w3.org/2000/svg" fill="none" viewBox="0 0 190 136">
  <path d="M23.327 91.052h138.466l22.222 32.067H1.105l22.222-32.067z" fill="#fff"/>
  <path d="M184.014 123.456H1.104a.325.325 0 01-.173-.05.332.332 0 01-.123-.132.33.33 0 010-.344l22.255-32.067a.33.33 0 01.277-.149h138.453a.33.33 0 01.276.149l22.208 32.067a.329.329 0 010 .344.332.332 0 01-.263.182zm-182.262-.674h181.615l-21.75-31.393H23.501L1.752 122.782z" fill="#11253E"/>
  <path d="M184.006 123.118H1.312v6.225h182.694v-6.225z" fill="#fff"/>
  <path d="M184.012 129.681H1.312a.337.337 0 01-.337-.337v-6.225a.345.345 0 01.337-.337h182.7a.346.346 0 01.337.337v6.225a.336.336 0 01-.337.337zm-182.363-.674h182.026v-5.55H1.649v5.55z" fill="#11253E"/>
  <path d="M180.083 129.344H5.246v6.225h174.837v-6.225z" fill="#11253E"/>
  <path d="M180.084 135.906H5.247a.338.338 0 01-.337-.337v-6.225a.337.337 0 01.337-.337h174.837a.34.34 0 01.239.098.34.34 0 01.098.239v6.225a.346.346 0 01-.337.337zm-174.52-.675h174.183v-5.55H5.564v5.55z" fill="#11253E"/>
  <path d="M73.883 21.276h47.255a22.597 22.597 0 0122.483 24.797l-4.441 45.365H55.84l-4.446-45.365a22.603 22.603 0 0122.49-24.797z" fill="#fff"/>
  <path d="M139.18 91.75H55.84a.312.312 0 01-.312-.28l-4.446-45.366a22.907 22.907 0 0122.8-25.14h47.255a22.896 22.896 0 0122.795 25.14l-4.44 45.365a.32.32 0 01-.312.28zm-83.06-.624h82.78l4.416-45.084a22.293 22.293 0 00-5.671-17.14 22.286 22.286 0 00-16.507-7.314H73.883a22.277 22.277 0 00-22.178 24.454l4.416 45.084z" fill="#C9C9C8"/>
  <path d="M157.274 55.633c-3.63 1.996-23.699 3.88-26.755 5.295-.545.262-1.07.562-1.572.898-4.877 3.218-8.107 11.002.393 11.706 2.601.219 25.477-8.238 34.576-12.055 2.008-.836 8.663-4.278 8.151-5.613-.511-1.334-2.638-4.802-3.461-4.552-.823.249-7.029 3.186-7.029 3.186s1.728-5.176 0-4.989c-1.727.187-4.303 6.124-4.303 6.124z" fill="#fff"/>
  <path d="M129.432 73.857h-.118c-3.848-.324-5.071-2.033-5.426-3.412-.773-3.037 1.871-6.903 4.877-8.887.516-.344 1.056-.65 1.615-.916 1.41-.662 6.062-1.366 11.451-2.19 6.155-.935 13.097-1.995 15.192-3.05.424-.985 2.707-6.074 4.503-6.236a.88.88 0 01.817.325c.661.829.118 3.118-.243 4.365 1.627-.773 5.719-2.7 6.411-2.887 1.247-.337 3.474 3.742 3.854 4.764.748 1.965-8.232 6-8.326 6.037-8.288 3.48-31.376 12.087-34.607 12.087zm32.212-24.067h-.056c-1.129.112-3.062 3.742-4.016 5.968a.318.318 0 01-.144.156c-2.051 1.13-8.887 2.17-15.504 3.175-5.114.78-9.978 1.515-11.269 2.133-.532.253-1.045.544-1.535.873-3.161 2.089-5.232 5.762-4.608 8.188.43 1.69 2.108 2.7 4.858 2.932h.1c2.912 0 25.171-8.195 34.301-12.03 3.156-1.323 8.282-4.404 7.97-5.22-.623-1.622-2.55-4.367-3.068-4.367-.661.175-5.251 2.346-6.966 3.163a.326.326 0 01-.356-.05.321.321 0 01-.096-.159.323.323 0 01.009-.184c.505-1.528 1.023-3.93.574-4.49a.219.219 0 00-.194-.088z" fill="#11253E"/>
  <path d="M134.728 59.6s-1.871-4.603-10.783-14.968c-4.278-4.99-15.76-6.86-18.841-7.022.674.068 2.601-.992-10.521 0-6.748.511-11.064.848-15.037 5.076-7.483 7.977-23.699 24.947-23.699 24.947l17.12 4.883s2.775-1.946 3.792-3.293l-2.457 18.26 46.231 2.695-.386-20.936 4.74 3.866 9.841-13.508z" fill="#FEBE10"/>
  <path d="M104.311 37.591h.792c-.275-.037-.792 0-.792 0z" fill="#FEBE10"/>
  <path d="M92.238 39.562l.418 46.824h12.954V37l-13.372 2.563z" fill="#fff"/>
  <path d="M105.616 86.673h-12.96a.286.286 0 01-.287-.28l-.418-46.831a.286.286 0 01.23-.281l13.372-2.563a.28.28 0 01.343.274v49.394a.285.285 0 01-.082.2.284.284 0 01-.198.087zm-12.673-.568h12.386V37.341l-12.81 2.451.424 46.313zm-3.231-16.601a.28.28 0 01-.255-.162l-5.613-11.769a.293.293 0 010-.287l3.642-5.357-3.574-2.632a.287.287 0 01-.068-.386l5.613-8.295a.281.281 0 01.47.005.284.284 0 01-.003.32l-5.482 8.063 3.568 2.626a.287.287 0 01.068.393l-3.667 5.45 5.57 11.626a.287.287 0 01-.138.38.281.281 0 01-.13.025zm17.975 0a.28.28 0 01-.125 0 .29.29 0 01-.147-.162.29.29 0 01.01-.219l5.57-11.625-3.699-5.45a.29.29 0 01.069-.393l3.567-2.626-5.482-8.064a.282.282 0 01-.003-.32.28.28 0 01.18-.123.277.277 0 01.213.04.293.293 0 01.078.079l5.644 8.294a.285.285 0 01-.069.387l-3.573 2.613 3.642 5.357a.29.29 0 010 .287l-5.613 11.769a.277.277 0 01-.262.156z" fill="#11253E"/>
  <path d="M110.604 34.417c-.081 0 1.416-8.002 1.547-8.675.88-4.522 1.559-8.626 1.148-12.28-1.079.524-1.341 2.127-2.239 2.912a93.736 93.736 0 01-.437-10.246c-5.862 2.076-12.036 4.365-15.897 9.248l-.461-7.29c-2.707 4.365-5.457 8.83-6.91 13.789-1.454 4.958-.45 9.58.754 14.469l22.495-1.927z" fill="#fff"/>
  <path d="M88.11 36.643a.324.324 0 01-.312-.25c-1.248-5.101-2.152-9.722-.724-14.606 1.49-5.107 4.366-9.76 6.948-13.87a.325.325 0 01.349-.143.318.318 0 01.243.293l.4 6.48c4.072-4.665 10.396-6.91 15.516-8.732a.325.325 0 01.43.306 94.127 94.127 0 00.368 9.455c.138-.219.268-.456.399-.699a3.698 3.698 0 011.447-1.715.34.34 0 01.3 0 .342.342 0 01.162.25c.43 3.742-.3 8.007-1.154 12.38-.162.847-1.49 8-1.54 8.58a.266.266 0 010 .138.308.308 0 01-.275.212l-22.514 1.92h-.044zm5.924-27.535c-2.395 3.86-4.99 8.189-6.342 12.86-1.354 4.671-.518 9.1.667 14.008l22.009-1.871c.075-.792.405-2.87 1.49-8.438.799-4.104 1.491-8.108 1.198-11.632a5.085 5.085 0 00-.755 1.142 4.987 4.987 0 01-1.004 1.428.306.306 0 01-.33.056.318.318 0 01-.206-.268 97.326 97.326 0 01-.443-9.823c-5.189 1.871-11.5 4.179-15.317 8.993a.33.33 0 01-.35.106.337.337 0 01-.224-.287l-.393-6.274z" fill="#11253E"/>
  <path d="M107.293 34.049c.624-3.83 6.972-4.771 6.661-.256a6.679 6.679 0 01-1.697 4.24 3.933 3.933 0 01-4.266.999" fill="#fff"/>
  <path d="M109.321 39.624c-.502.005-1-.097-1.459-.3a.315.315 0 01-.169-.178.325.325 0 01.079-.348.328.328 0 01.23-.088.344.344 0 01.122.028 3.592 3.592 0 003.904-.929 6.363 6.363 0 001.603-4.041c.106-1.528-.624-2.495-1.959-2.65a3.778 3.778 0 00-4.06 2.987.318.318 0 01-.368.262.323.323 0 01-.268-.369 4.396 4.396 0 014.771-3.523c1.322.156 2.682 1.11 2.495 3.336a7.032 7.032 0 01-1.784 4.447 4.521 4.521 0 01-3.137 1.366z" fill="#11253E"/>
  <path d="M91.447 34.049c-.624-3.83-6.972-4.771-6.66-.256a6.71 6.71 0 001.696 4.24 3.936 3.936 0 004.266.999" fill="#fff"/>
  <path d="M89.4 39.624a4.521 4.521 0 01-3.174-1.366 7.023 7.023 0 01-1.759-4.409c-.156-2.233 1.204-3.187 2.495-3.343a4.403 4.403 0 014.771 3.524.31.31 0 01-.268.368.317.317 0 01-.368-.262 3.786 3.786 0 00-4.06-2.988c-1.354.157-2.065 1.123-1.959 2.651a6.361 6.361 0 001.603 4.041 3.599 3.599 0 003.904.93.321.321 0 11.262.586c-.457.19-.95.282-1.447.268z" fill="#11253E"/>
  <path d="M92.363 51.698l6.38 5.245 6.848-3.81.455-15.873-13.683-.43v14.868z" fill="#fff"/>
  <path d="M98.756 57.267a.306.306 0 01-.2-.074l-6.399-5.258a.304.304 0 01-.112-.25V36.83a.33.33 0 01.093-.23.336.336 0 01.237-.088l13.684.424a.322.322 0 01.311.33l-.461 15.873a.318.318 0 01-.043.16.317.317 0 01-.119.114l-6.86 3.81a.269.269 0 01-.131.044zM92.7 51.548l6.093 4.99 6.492-3.617.443-15.374-13.028-.399v14.4z" fill="#11253E"/>
  <path d="M92.793 43.204c.124.723 4.016 5.55 12.997 6.099v-6.1c-2.146.306-4.989 1.354-7.303 1.142a18.79 18.79 0 01-5.694-1.104c-.275-.143.287.15 0-.037z" fill="#11253E"/>
  <path d="M105.789 49.64c-8.5-.517-12.692-4.926-13.228-6.186a.293.293 0 01-.125-.393c.063-.125.2-.25.5-.112a18.874 18.874 0 005.612 1.079c1.636.04 3.268-.171 4.84-.624.848-.2 1.653-.387 2.388-.493a.31.31 0 01.25.075.323.323 0 01.106.23v6.137a.306.306 0 01-.1.225.296.296 0 01-.243.062zm-12.267-5.812c1.178 1.434 4.858 4.64 11.955 5.164v-5.438c-.624.105-1.278.261-1.983.424a16.7 16.7 0 01-5.033.66 22.928 22.928 0 01-4.94-.81z" fill="#11253E"/>
  <path d="M98.57 45.755h1.022a8.783 8.783 0 008.782-8.788V26.64c0-2.157-3.019-3.48-4.778-3.741a18.58 18.58 0 00-5.719.274c-4.64.717-8.138 2.413-8.107 7.633v6.2a8.782 8.782 0 008.8 8.75z" fill="#fff"/>
  <path d="M99.59 46.079h-1.023a9.118 9.118 0 01-9.106-9.112v-6.199c-.05-5.894 4.44-7.347 8.364-7.952a18.589 18.589 0 015.825-.274c2.089.349 5.039 1.87 5.039 4.09v10.335a9.11 9.11 0 01-9.1 9.112zm2.282-23.02c-1.32.033-2.635.167-3.935.4-5.52.854-7.858 3.037-7.82 7.309v6.205a8.476 8.476 0 008.462 8.463h1.023a8.47 8.47 0 008.444-8.469V26.639c0-1.87-2.688-3.155-4.502-3.455a10.936 10.936 0 00-1.672-.125z" fill="#11253E"/>
  <path d="M102.125 34.606c.352-.023.594-.697.541-1.504-.053-.807-.382-1.443-.734-1.42-.352.023-.594.697-.541 1.504.054.807.382 1.443.734 1.42zm-7.191-.45c.352-.024.592-.7.536-1.51-.057-.809-.389-1.445-.742-1.42-.352.025-.592.7-.536 1.51.057.809.389 1.445.742 1.42zm1.699 8.264l-.503-.046a.325.325 0 01.12-.616c2.787.31 5.588-.442 7.844-2.108a.331.331 0 01.45.079.323.323 0 01-.078.45 11.95 11.95 0 01-7.832 2.24z" fill="#11253E"/>
  <path d="M105.271 40.778a.274.274 0 01-.137 0c-1.597-.736-1.422-2.538-1.104-3.386a.314.314 0 01.412-.187.323.323 0 01.193.411c-.031.075-.686 1.908.773 2.582a.324.324 0 01.156.424.32.32 0 01-.293.156zm-7.534-.449a.688.688 0 01-.542-.268c-.824-1.017.043-5.482.23-6.368a.324.324 0 01.624.131c-.43 2.077-.823 5.258-.362 5.825 1.154 0 2.027-1.366 2.034-1.378a.318.318 0 01.442-.1.323.323 0 01.106.443c-.037.068-1.072 1.715-2.532 1.715z" fill="#11253E"/>
  <path d="M146.153 83.362l-25.57-6.405s-12.817 20.219-19.222 24.322l30.61 8.825s12.641-20.194 14.182-26.742z" fill="#fff"/>
  <path d="M131.94 110.441h-.088l-30.603-8.837a.316.316 0 01-.218-.258.318.318 0 01.137-.31c6.274-4.041 18.997-24.042 19.128-24.248a.3.3 0 01.337-.13l25.626 6.404a.307.307 0 01.191.14.306.306 0 01.034.234c-1.56 6.524-13.758 26.032-14.276 26.855a.303.303 0 01-.268.15zm-29.892-9.236l29.761 8.556c1.297-2.083 12.261-19.813 13.995-26.193l-25.103-6.28c-1.365 2.15-12.398 19.283-18.653 23.917z" fill="#C9C9C8"/>
  <path d="M134.727 104.703h-.106c-8.07-2.875-20.356-7.24-21.123-7.328a.314.314 0 11.087-.624c1.073.144 19.184 6.605 21.248 7.341.083.014.157.06.205.129a.314.314 0 01-.075.441.313.313 0 01-.236.053v-.012zm2.495-4.123a.314.314 0 01-.106 0c-8.07-2.88-20.356-7.209-21.123-7.309a.317.317 0 01-.268-.35.316.316 0 01.355-.268c1.073.144 19.184 6.605 21.248 7.341a.315.315 0 01.259.365.312.312 0 01-.129.205.314.314 0 01-.236.054v-.038zm3.351-5.17a.32.32 0 01-.106 0c-8.07-2.9-20.356-7.228-21.13-7.303a.31.31 0 01-.147-.553.317.317 0 01.228-.064c1.079.143 19.19 6.604 21.255 7.34.082.014.156.06.205.129a.318.318 0 01-.075.441.318.318 0 01-.236.054l.006-.044zm2.262-5.531h-.106c-8.071-2.882-20.357-7.204-21.118-7.31a.31.31 0 01-.208-.117.302.302 0 01-.053-.11.314.314 0 01.343-.39c1.072.143 19.183 6.604 21.248 7.34a.297.297 0 01.105.062.306.306 0 01.082.338.302.302 0 01-.293.187z" fill="#6495D3"/>
  <path d="M127.205 90.178s3.418 17.937 5.981 21.997c0 0 24.878-1.179 31.283-5.875 0 0-10.359-13.989-12.068-20.394l-25.196 4.272z" fill="#fff"/>
  <path d="M133.186 112.486a.327.327 0 01-.268-.15c-2.563-4.06-5.881-21.366-6.018-22.102a.293.293 0 01.049-.237.308.308 0 01.206-.125l25.196-4.272a.314.314 0 01.356.225c1.671 6.274 11.911 20.15 12.011 20.287a.301.301 0 01.056.231.32.32 0 01-.118.206c-6.411 4.702-30.435 5.887-31.458 5.937h-.012zm-5.613-22.053c.462 2.37 3.474 17.463 5.781 21.417 2.258-.119 24.323-1.391 30.672-5.613-1.434-1.958-10.06-13.883-11.85-19.957l-24.603 4.153z" fill="#C9C9C8"/>
  <path d="M81.586 81.908l-8.045 22.627 40.002 1.509-7.497-24.136h-24.46z" fill="#fff"/>
  <path d="M113.542 106.356l-40.002-1.509a.318.318 0 01-.243-.137.3.3 0 01-.037-.281l8.032-22.626a.311.311 0 01.293-.206h24.46a.313.313 0 01.3.218l7.484 24.136a.301.301 0 01-.05.28.31.31 0 01-.237.125zm-39.565-2.114l39.122 1.472-7.297-23.494h-24.01l-7.815 22.022z" fill="#11253E"/>
  <path d="M91.858 74.505l6.305 11.532.069.555.337 2.725-2.115-1.752-.43-.356-6.305-11.537 2.139-1.167z" fill="#11253E"/>
  <path d="M98.568 89.63a.293.293 0 01-.2-.075l-2.544-2.109a.331.331 0 01-.075-.087l-6.305-11.537a.306.306 0 01.125-.418l2.14-1.173a.312.312 0 01.236 0 .304.304 0 01.181.15l6.311 11.531a.256.256 0 010 .113l.406 3.28a.293.293 0 01-.156.306.274.274 0 01-.119.018zm-2.307-2.626l1.87 1.571-.299-2.444-6.13-11.226-1.597.873 6.156 11.226z" fill="#11253E"/>
  <path d="M88.442 72.674l1.57-.859a.624.624 0 01.847.248l2.992 5.472-2.626 1.436-2.992-5.472a.623.623 0 01.248-.846l-.038.02z" fill="#11253E"/>
  <path d="M91.201 79.283h-.087a.3.3 0 01-.187-.15l-3-5.482a.923.923 0 01.09-1.012.905.905 0 01.278-.23l1.565-.86a.93.93 0 011.248.368L94.1 77.4a.307.307 0 01-.118.418l-2.638 1.44a.286.286 0 01-.144.026zm-.898-7.235c-.05 0-.1.013-.143.038l-1.566.854a.262.262 0 00-.143.18.282.282 0 000 .225l2.844 5.208 2.089-1.141-2.844-5.208a.3.3 0 00-.237-.156z" fill="#11253E"/>
  <path d="M89.774 79.264a.312.312 0 01-.28-.162c-.069-.119-1.578-2.85-1.759-3.256-.18-.405.037-1.87.15-2.413a.324.324 0 01.635-.007.318.318 0 010 .125 7.273 7.273 0 00-.199 2.033c.144.318 1.297 2.42 1.734 3.206a.317.317 0 01-.28.474z" fill="#11253E"/>
  <path d="M67.573 70.19c-5.182-2.427-13.234-5.308-15.33 2.326a7.677 7.677 0 004.853 9.355c9.268 3.449 34.925 6.997 34.925 6.997s2.495-.43 3.386-2.045c.892-1.616 3.119.106 4.366-.973 1.247-1.08.368-3.15-.817-4.796-1.185-1.647-5.045-1.828-6.025-1.64-.979.186-3.448 1.64-3.455 1.646-2.326 1.36-7.914-3.436-9.822-4.534a197.812 197.812 0 00-11.151-5.894l-.93-.443z" fill="#fff"/>
  <path d="M92.063 89.168h-.038c-.255-.038-25.813-3.593-35.006-7.01a7.964 7.964 0 01-5.039-9.717c.624-2.233 1.784-3.742 3.468-4.534 3.58-1.653 8.73.362 12.26 2.02.331.15.656.306.961.456a191.292 191.292 0 0111.17 5.906c.436.25 1.054.686 1.771 1.191 2.289 1.61 6.112 4.303 7.765 3.337 0 0 2.494-1.472 3.542-1.678.91-.174 4.99-.05 6.312 1.759 1.646 2.276 1.927 4.166.773 5.176-.624.574-1.547.468-2.333.374-.991-.118-1.615-.155-1.977.512-.916 1.721-3.48 2.177-3.586 2.195l-.043.013zm-33.51-21.31a6.786 6.786 0 00-2.862.567c-1.528.704-2.588 2.108-3.118 4.166a7.397 7.397 0 004.677 9.024c8.943 3.33 33.603 6.804 34.838 6.979.318-.069 2.413-.53 3.118-1.871.555-1.048 1.609-.923 2.544-.81.73.087 1.422.168 1.871-.238 1.323-1.16-.324-3.673-.86-4.415-1.06-1.472-4.759-1.715-5.738-1.528a17.544 17.544 0 00-3.368 1.609c-1.964 1.147-5.675-1.46-8.382-3.362-.704-.499-1.31-.93-1.727-1.166a180.571 180.571 0 00-11.133-5.887l-.954-.456c-2.544-1.222-5.95-2.613-8.906-2.613zm37.894-12.861l1.453 2.414s-.985 8.488 2.495 13.371c3.48 4.883 23.219-7.128 23.219-7.128l.624-6.71h-7.035s-9.517 12.273-13.97 9.354c-3.917-2.576-3.555-9.355-3.555-9.355l2.557-1.946-3.156-2.812-2.632 2.812z" fill="#11253E"/>
  <path d="M103.346 72.236c-1.441 0-2.582-.368-3.218-1.248-3.324-4.683-2.65-12.435-2.545-13.483l-1.397-2.32a.311.311 0 01.038-.375l2.625-2.812a.312.312 0 01.437 0l3.156 2.813c.033.03.06.068.079.11a.337.337 0 01.027.133.322.322 0 01-.125.237l-2.439 1.87c0 .974 0 6.693 3.424 8.938 4.154 2.731 13.459-9.162 13.546-9.28a.304.304 0 01.25-.125h7.034a.314.314 0 01.231.104.319.319 0 01.081.239l-.623 6.71a.304.304 0 01-.046.135.302.302 0 01-.104.096c-.699.35-13.795 8.258-20.431 8.258zm-6.511-17.182l1.335 2.207a.3.3 0 01.043.194c0 .087-.935 8.432 2.42 13.16 2.688 3.785 17.138-3.793 22.664-7.136l.623-6.236h-6.567c-1.066 1.353-9.841 12.223-14.288 9.299-4.022-2.645-3.71-9.355-3.692-9.63a.275.275 0 01.119-.224l2.257-1.721-2.65-2.364-2.264 2.45zm4.377-3.743c-5.613 0-8.563-2.32-8.731-2.444a.32.32 0 01.4-.5c.05.032 4.47 3.475 12.622 1.872a.318.318 0 01.38.25.325.325 0 01-.249.38c-1.456.292-2.937.44-4.422.442zM76.76 69.541a.312.312 0 01-.3-.206l-3.217-8.232a.335.335 0 01.193-.43.334.334 0 01.43.193l3.218 8.239a.324.324 0 01-.187.417.357.357 0 01-.137.02z" fill="#11253E"/>
  <path d="M160.74 23.285l-3.605 12.866s15.66.187 21.111-6.549l2.045-13.315s-15.03 7.615-19.551 6.998z" fill="#fff"/>
  <path d="M157.23 36.468h-.1a.285.285 0 01-.243-.124.29.29 0 01-.06-.128.292.292 0 01.004-.14l3.611-12.873a.327.327 0 01.343-.224c4.366.623 19.215-6.86 19.365-6.96a.301.301 0 01.324 0 .31.31 0 01.125.3l-2.015 13.333a.277.277 0 01-.068.143c-2.308 2.857-6.605 4.846-12.785 5.913a53.644 53.644 0 01-8.501.76zm3.742-12.847l-3.424 12.218c2.495 0 15.554-.493 20.4-6.368l1.946-12.636c-2.719 1.348-14.55 7.073-18.922 6.786z" fill="#C9C9C8"/>
  <path d="M61.343 106.013l14.855-13.914L36.26 88.88l-14.394 12.741 39.478 4.391z" fill="#11253E"/>
  <path d="M61.336 106.318l-39.478-4.365a.313.313 0 01-.262-.212.305.305 0 01.094-.325l14.394-12.74a.316.316 0 01.23-.082l39.915 3.218a.33.33 0 01.268.206.324.324 0 01-.081.33L61.56 106.263a.343.343 0 01-.224.056zm-38.748-4.926l38.667 4.29 14.244-13.334-39.11-3.149-13.801 12.193z" fill="#11253E"/>
  <path d="M61.343 106.012l-7.44-31.233-38.749-3.03 6.71 29.873 39.478 4.39z" fill="#fff"/>
  <path d="M61.335 106.318l-39.477-4.365a.321.321 0 01-.268-.244l-6.711-29.873a.338.338 0 01.069-.274.324.324 0 01.261-.106l38.749 3.03a.312.312 0 01.274.244l7.44 31.226a.314.314 0 01-.068.281.32.32 0 01-.269.081zm-39.222-4.989l38.817 4.316-7.29-30.56-38.1-2.98 6.573 29.224z" fill="#11253E"/>
  <path d="M106.502 101.042l-28.476-.717a.304.304 0 01-.118-.029.308.308 0 01-.181-.295.305.305 0 01.312-.3l28.47.717a.31.31 0 01.286.198.316.316 0 01-.293.426zM87.329 95.41c-4.104 0-7.247 0-7.39-.037a.317.317 0 11.112-.623c.623.056 16.976 0 25.57 0a.311.311 0 01.22.532.31.31 0 01-.22.091c-3.586.019-12.056.038-18.292.038zm15.943-5.357h-.031l-4.703-.424a.311.311 0 01-.28-.343.304.304 0 01.336-.28l4.703.423a.311.311 0 01.22.533.311.311 0 01-.22.091h-.025z" fill="#6495D3"/>
  <path d="M159.145 66.28s.517-14.813 8.488-22.453l21.279 6.175s-11.575 12.566-11.426 23l-18.341-6.723z" fill="#fff"/>
  <path d="M177.487 73.327a.295.295 0 01-.106 0l-18.349-6.723a.326.326 0 01-.212-.312c0-.15.624-15.03 8.588-22.67a.337.337 0 01.312-.075l21.286 6.174a.328.328 0 01.218.225.305.305 0 01-.075.306c-.112.124-11.463 12.585-11.338 22.763a.342.342 0 01-.036.15.337.337 0 01-.101.118.338.338 0 01-.187.044zm-18.012-7.266l17.693 6.455c.106-5.339 3.119-11.145 5.713-15.118a65.95 65.95 0 015.451-7.24l-20.612-5.981c-7.122 6.997-8.133 19.988-8.245 21.884z" fill="#11253E"/>
  <path d="M182.187 52.078h-.087l-14.625-4.24a.32.32 0 01-.184-.151.323.323 0 01-.028-.236.302.302 0 01.148-.188.307.307 0 01.239-.024l14.624 4.24a.314.314 0 11-.087.624v-.025zm-2.107 4.272h-.088l-14.625-4.24a.319.319 0 01-.157-.496.304.304 0 01.21-.115.307.307 0 01.122.012l14.625 4.241a.316.316 0 01.268.356.315.315 0 01-.355.268v-.025zm-1.802 4.503h-.087l-14.625-4.24a.313.313 0 01.053-.612.308.308 0 01.122.013l14.625 4.24a.317.317 0 01.186.15.31.31 0 01.026.237.306.306 0 01-.3.212zm-6.242 4.029a.229.229 0 01-.088 0l-10.396-3.018a.3.3 0 01-.188-.148.303.303 0 01-.024-.239.313.313 0 01.387-.212l10.396 3.019a.315.315 0 01.223.265.31.31 0 01-.011.121.304.304 0 01-.299.212zm2.712-34.071h-.062c-.087 0-.299-.068-.287-.411 0-.073.03-.142.081-.194.243-1.11 1.173-6.86 1.778-10.764a.317.317 0 01.126-.206.322.322 0 01.235-.056.315.315 0 01.262.362c-1.677 10.677-1.79 11.27-2.133 11.27z" fill="#6495D3"/>
  <path d="M171.629 32.402h-.062c-.094 0-.3-.063-.287-.412a.27.27 0 01.081-.193c.243-1.11 1.172-6.86 1.777-10.764a.304.304 0 01.356-.256.311.311 0 01.262.355c-1.672 10.677-1.784 11.27-2.127 11.27zm-3.353.667h-.063c-.087 0-.299-.062-.287-.405a.308.308 0 01.081-.2c.244-1.11 1.173-6.86 1.778-10.764a.315.315 0 01.362-.256.308.308 0 01.202.124.302.302 0 01.053.231c-1.671 10.678-1.796 11.27-2.126 11.27zm-3.176 1.653h-.063c-.093 0-.299-.068-.286-.411a.27.27 0 01.081-.194c.237-1.116 1.172-6.86 1.777-10.764a.32.32 0 01.356-.262.317.317 0 01.261.356c-1.677 10.677-1.783 11.275-2.126 11.275zm-3.356.443h-.062c-.094 0-.299-.069-.287-.412a.297.297 0 01.081-.2c.237-1.11 1.173-6.86 1.778-10.757a.313.313 0 01.355-.262.32.32 0 01.262.355c-1.659 10.683-1.765 11.276-2.127 11.276z" fill="#C9C9C8"/>
  <path d="M148.356 13.019s-.175 3.317 2.737 7.758c0 0 6.2-9.555 9.979-11.02 3.779-1.466-9.972-2.869-12.716 3.262z" fill="#fff"/>
  <path d="M151.093 21.088a.328.328 0 01-.262-.143c-2.932-4.472-2.807-7.802-2.807-7.945a.397.397 0 01.031-.113c1.927-4.31 8.994-5.101 12.349-4.565 1.048.162 1.584.45 1.628.867.043.418-.624.767-.855.854-3.654 1.416-9.779 10.808-9.841 10.902a.31.31 0 01-.262.143h.019zm-2.445-8.001c0 .43.068 3.33 2.432 7.116 1.247-1.871 6.443-9.411 9.873-10.74.153-.047.296-.121.424-.218-.349-.262-2.102-.592-4.597-.362-1.933.175-6.604.948-8.132 4.204z" fill="#C9C9C8"/>
  <path d="M162.301 17.484s-4.796-8.001-13.945-4.465a68.01 68.01 0 016.66-11.5S160.062-.24 166.81 5.41c0 0-2.189 8.439-4.509 12.074z" fill="#fff"/>
  <path d="M162.3 17.796a.32.32 0 01-.262-.156c-.193-.318-4.777-7.727-13.565-4.366a.299.299 0 01-.336-.074.304.304 0 01-.063-.337 68.933 68.933 0 016.698-11.557.316.316 0 01.15-.118c.212-.069 5.289-1.746 12.093 3.954a.325.325 0 01.095.145.328.328 0 01.005.173c-.088.343-2.227 8.525-4.547 12.161a.326.326 0 01-.268.175zm-9.436-5.987c5.282 0 8.488 3.817 9.417 5.095 1.983-3.411 3.848-10.16 4.173-11.382-5.975-4.927-10.559-3.929-11.226-3.742a70.34 70.34 0 00-6.237 10.69 12.473 12.473 0 013.873-.661z" fill="#C9C9C8"/>
  <path d="M161.463 13.1a.27.27 0 01-.099 0 .31.31 0 01-.194-.4l2.526-7.334a.31.31 0 01.393-.193.318.318 0 01.193.4l-2.538 7.321a.312.312 0 01-.281.206zm-2.949-1.852a.28.28 0 01-.1 0 .312.312 0 01-.193-.393l2.495-7.247a.309.309 0 01.275-.246.313.313 0 01.311.445l-2.495 7.247a.302.302 0 01-.293.194zm-3.629-.961a.3.3 0 01-.125 0 .315.315 0 01-.168-.405c2.875-6.891 3.08-6.916 3.293-6.948a.325.325 0 01.349.269.302.302 0 01-.119.287c-.312.442-1.964 4.278-2.943 6.629a.31.31 0 01-.287.168z" fill="#6495D3"/>
  <path d="M40.612 48.574s-12.074-1.516-15.186-6.505c-2.008-3.23 2.95-14.176 2.95-14.176s1.659 6.312 6.08 7.26c4.422.947 7.26 1.34 7.26 1.34s-3.393 8.925-1.104 12.08z" fill="#fff"/>
  <path d="M40.612 48.886h-.037c-.499-.063-12.261-1.59-15.417-6.655-2.07-3.33 2.726-14.013 2.931-14.469a.299.299 0 01.312-.18.306.306 0 01.275.23c0 .063 1.665 6.143 5.843 7.035 4.366.936 7.216 1.335 7.241 1.341a.3.3 0 01.243.156.311.311 0 010 .268c-.03.087-3.305 8.8-1.141 11.787a.324.324 0 010 .343.312.312 0 01-.25.144zm-12.286-20.1c-1.06 2.494-4.234 10.545-2.638 13.096 2.595 4.166 11.85 5.881 14.345 6.274-1.491-3.218.686-9.791 1.247-11.425-.917-.144-3.443-.55-6.904-1.291-3.599-.761-5.426-4.877-6.05-6.655z" fill="#C9C9C8"/>
  <path d="M27.333 41.676a.306.306 0 01-.305-.28c-.325-2.988 1.571-8.158 1.652-8.377a.312.312 0 01.587.219c0 .05-1.928 5.251-1.622 8.107a.312.312 0 01-.274.343l-.038-.012z" fill="#6495D3"/>
  <path d="M27.034 43.828s-.225-2.857 1.116-4.753L25.475 36.2s-2.046 5.083 1.559 7.628z" fill="#fff"/>
  <path d="M27.036 44.164a.324.324 0 01-.181-.056c-3.742-2.682-1.69-7.945-1.672-7.995a.324.324 0 01.231-.194.317.317 0 01.287.094l2.676 2.875a.312.312 0 01.03.393c-1.247 1.777-1.06 4.521-1.06 4.546a.3.3 0 01-.155.294.28.28 0 01-.156.043zm-1.435-7.34c-.349 1.197-1.004 4.365 1.11 6.355a8.189 8.189 0 011.042-4.048l-2.152-2.307z" fill="#C9C9C8"/>
  <path d="M30.154 44.164a.313.313 0 01-.306-.324c0-.218.193-5.382 1.447-8.475a.305.305 0 01.405-.169.312.312 0 01.175.406c-1.21 2.987-1.403 8.207-1.403 8.263a.312.312 0 01-.319.3zm3.234.961a.319.319 0 01-.311-.306c-.07-3.449 1.403-7.783 1.465-7.964a.314.314 0 01.593.206c0 .038-1.503 4.41-1.435 7.746a.312.312 0 01-.305.318h-.007zm3.239.798a.306.306 0 01-.312-.305c-.01-1.953.154-3.902.493-5.825a.318.318 0 01.481-.198.305.305 0 01.13.322 31.88 31.88 0 00-.48 5.694.312.312 0 01-.312.312z" fill="#6495D3"/>
</svg>
