<svg xmlns="http://www.w3.org/2000/svg" fill="none" viewBox="0 0 363 89">
  <path d="M184.999 1.472c9.366-.922 10.802 13.665 1.436 14.587-9.367.922-10.803-13.665-1.436-14.587zM120.625 72.23c7.524-.74 8.672 10.93 1.149 11.67-7.524.74-8.827-10.914-1.149-11.67z" fill="#3E7CB1"/>
  <path d="M277.486 18.974c7.524-.741 8.673 10.928 1.149 11.669-7.524.74-8.826-10.914-1.149-11.67z" fill="#D1D3D4"/>
  <path d="M11.64 16.447c14.626-1.44 16.859 21.244 2.234 22.683C-.751 40.57-3.283 17.916 11.64 16.447z" fill="#FEBE10"/>
  <path d="M119.885 19.954l1.008 19.26-19.261 1.007-1.007-19.26 19.26-1.007z" fill="#D1D3D4"/>
  <path d="M196.094 49.743l-7.155 17.91-17.91-7.154 7.155-17.91 17.91 7.154z" fill="#FEBE10"/>
  <path d="M227.617 73.461l-1.592 14.993-14.992-1.592 1.591-14.992 14.993 1.591z" fill="#D1D3D4"/>
  <path d="M362.422 20.952l-5.682 13.965-13.965-5.682 5.682-13.965 13.965 5.682z" fill="#3E7CB1"/>
</svg>
