<svg xmlns="http://www.w3.org/2000/svg" fill="none" viewBox="0 0 222 49">
  <rect x="8.271" y="5.68" width="213" height="38" rx="19" fill="#F5F6F7"/>
  <path d="M60.804 20.672v-1.901h8.96v1.901h-3.34v9.008h-2.28v-9.008h-3.34zM71.39 29.68V18.77h4.304c.824 0 1.527.148 2.11.443a3.063 3.063 0 011.337 1.24c.308.534.463 1.16.463 1.881 0 .725-.156 1.348-.469 1.87-.312.518-.765.916-1.358 1.193-.59.277-1.303.416-2.141.416h-2.882v-1.854h2.509c.44 0 .806-.06 1.097-.181.291-.121.508-.302.65-.544.145-.241.218-.541.218-.9 0-.362-.073-.668-.218-.916a1.34 1.34 0 00-.655-.565c-.291-.131-.66-.197-1.103-.197h-1.555v9.024H71.39zm5.892-4.965l2.71 4.965h-2.545l-2.653-4.965h2.487zm5.982 4.965h-2.471l3.766-10.91h2.972l3.76 10.91H88.82l-2.733-8.416h-.085l-2.738 8.416zm-.154-4.288h5.838v1.8H83.11v-1.8zm18.757-2.802h-2.333a2.282 2.282 0 00-.26-.805c-.132-.237-.3-.44-.507-.607a2.227 2.227 0 00-.714-.383 2.733 2.733 0 00-.868-.133c-.564 0-1.056.14-1.475.42-.42.277-.744.682-.975 1.215-.231.529-.346 1.172-.346 1.928 0 .778.115 1.431.346 1.96.234.53.56.929.98 1.199.419.27.904.405 1.454.405.31 0 .595-.041.858-.123.266-.082.502-.2.708-.357.206-.16.377-.353.512-.58.138-.228.234-.487.287-.778l2.333.01a4.23 4.23 0 01-.452 1.45 4.35 4.35 0 01-.965 1.24c-.401.363-.88.65-1.438.864-.554.21-1.18.314-1.88.314-.973 0-1.843-.22-2.61-.66-.764-.441-1.367-1.078-1.811-1.913-.44-.834-.66-1.845-.66-3.03 0-1.19.223-2.203.67-3.037.448-.835 1.055-1.47 1.822-1.907.767-.44 1.63-.66 2.589-.66.632 0 1.218.088 1.758.266a4.453 4.453 0 011.443.777c.419.338.76.752 1.023 1.242.266.49.437 1.05.511 1.683zm1.804 7.09V18.77h2.307v4.81h.144l3.925-4.81h2.765l-4.048 4.885 4.096 6.025h-2.76l-2.989-4.485-1.134 1.384v3.1h-2.307zm17.416.16c-.753 0-1.402-.136-1.949-.405-.547-.27-.968-.636-1.263-1.098a2.874 2.874 0 01-.437-1.555c0-.426.086-.804.256-1.135.171-.33.409-.633.714-.91.305-.281.66-.56 1.065-.837l2.115-1.39c.273-.174.474-.357.602-.549.128-.195.192-.406.192-.634 0-.216-.087-.417-.261-.602-.174-.184-.421-.275-.741-.271a1.04 1.04 0 00-.921.511.983.983 0 00-.128.5c0 .228.064.459.192.693.127.235.298.483.511.746.213.26.446.54.698.842l5.172 5.934h-2.365l-4.315-4.805c-.284-.323-.568-.66-.852-1.012a5.88 5.88 0 01-.703-1.13 3.038 3.038 0 01-.282-1.304c0-.53.122-1.005.367-1.428A2.68 2.68 0 01119.797 19c.448-.249.97-.373 1.566-.373.583 0 1.085.119 1.508.357a2.493 2.493 0 011.326 2.216c0 .515-.128.982-.383 1.4a3.875 3.875 0 01-1.066 1.12l-2.226 1.602c-.302.22-.526.446-.672.677-.142.227-.213.446-.213.655a1.294 1.294 0 00.735 1.188c.235.117.51.176.826.176a2.66 2.66 0 001.135-.261 3.393 3.393 0 001.022-.751c.309-.327.556-.714.741-1.162.185-.447.277-.942.277-1.486h1.88c0 .668-.073 1.27-.218 1.806a4.928 4.928 0 01-.607 1.396 3.86 3.86 0 01-.89.97c-.107.067-.21.13-.309.19l-.309.193a3.862 3.862 0 01-1.358.708 5.23 5.23 0 01-1.476.219zm12.883-11.07v10.91h-2.306V18.77h2.306zm2.048 0h2.844l3.005 7.33h.127l3.005-7.33h2.844v10.91h-2.237v-7.1h-.091l-2.823 7.046h-1.523l-2.823-7.073h-.091v7.127h-2.237V18.77zm13.875 10.91V18.77h4.304c.828 0 1.533.159 2.115.475a3.211 3.211 0 011.332 1.305c.309.554.463 1.193.463 1.917 0 .725-.156 1.364-.468 1.918a3.237 3.237 0 01-1.359 1.294c-.589.31-1.303.464-2.141.464h-2.743v-1.849h2.37c.444 0 .81-.076 1.097-.229a1.52 1.52 0 00.65-.644c.146-.277.219-.595.219-.954 0-.362-.073-.678-.219-.948a1.459 1.459 0 00-.65-.634c-.291-.152-.66-.229-1.108-.229H152.2v9.024h-2.307zm9.862 0V18.77h4.304c.824 0 1.527.148 2.11.443a3.066 3.066 0 011.337 1.24c.309.534.463 1.16.463 1.881 0 .725-.156 1.348-.469 1.87-.312.518-.765.916-1.358 1.193-.589.277-1.303.416-2.141.416h-2.882v-1.854h2.509c.44 0 .806-.06 1.097-.181.291-.121.508-.302.65-.544.146-.241.218-.541.218-.9 0-.362-.072-.668-.218-.916a1.338 1.338 0 00-.655-.565c-.291-.131-.659-.197-1.103-.197h-1.555v9.024h-2.307zm5.892-4.965l2.711 4.965h-2.546l-2.653-4.965h2.488zm14.127-.49c0 1.19-.225 2.202-.676 3.036-.448.835-1.059 1.472-1.833 1.913-.77.436-1.637.655-2.599.655-.97 0-1.84-.22-2.61-.66-.771-.441-1.38-1.078-1.827-1.913-.448-.834-.672-1.845-.672-3.03 0-1.19.224-2.203.672-3.037.447-.835 1.056-1.47 1.827-1.907.77-.44 1.64-.66 2.61-.66.962 0 1.829.22 2.599.66.774.437 1.385 1.072 1.833 1.907.451.834.676 1.846.676 3.036zm-2.338 0c0-.77-.116-1.42-.347-1.95-.227-.529-.548-.93-.964-1.203-.415-.274-.902-.41-1.459-.41-.558 0-1.044.136-1.46.41-.415.273-.738.674-.969 1.204-.228.529-.341 1.178-.341 1.95 0 .77.113 1.42.341 1.949.231.529.554.93.969 1.204.416.273.902.41 1.46.41.557 0 1.044-.137 1.459-.41.416-.274.737-.675.964-1.204.231-.53.347-1.18.347-1.95zm5.552-5.454l2.637 8.288h.101l2.642-8.288h2.557l-3.761 10.909h-2.972l-3.766-10.91h2.562zm9.4 10.909V18.77h7.351v1.902h-5.045v2.6h4.667v1.901h-4.667v2.605h5.066v1.902h-7.372z" fill="#3E7CB1"/>
  <circle cx="24.728" cy="24.68" r="22.643" fill="#fff" stroke="#3E7CB1" stroke-width="2.714"/>
  <path d="M24.514 35.75c-1.722 0-3.255-.296-4.6-.888-1.337-.6-2.394-1.422-3.17-2.467-.769-1.053-1.165-2.267-1.188-3.643h5.027a2.62 2.62 0 00.564 1.522c.354.43.823.765 1.407 1.003.584.238 1.241.357 1.971.357.761 0 1.434-.134 2.018-.403.584-.27 1.041-.642 1.371-1.118.33-.477.496-1.026.496-1.649 0-.63-.177-1.187-.53-1.671-.346-.492-.845-.877-1.499-1.153-.645-.277-1.414-.415-2.305-.415h-2.202v-3.666h2.202c.753 0 1.418-.131 1.994-.392.584-.262 1.038-.623 1.36-1.084.323-.469.484-1.014.484-1.637 0-.592-.142-1.11-.426-1.556a2.816 2.816 0 00-1.176-1.06c-.5-.255-1.084-.381-1.752-.381a4.57 4.57 0 00-1.856.369 3.25 3.25 0 00-1.35 1.026 2.7 2.7 0 00-.541 1.567h-4.784c.023-1.36.411-2.559 1.164-3.596.753-1.038 1.768-1.849 3.044-2.433 1.283-.592 2.732-.887 4.346-.887 1.63 0 3.055.295 4.277.887 1.222.592 2.17 1.391 2.847 2.398.684 1 1.022 2.121 1.015 3.366.007 1.322-.404 2.425-1.234 3.309-.822.884-1.894 1.445-3.216 1.683v.184c1.737.223 3.059.827 3.965 1.81.915.976 1.368 2.198 1.36 3.666.008 1.345-.38 2.54-1.163 3.586-.777 1.045-1.849 1.867-3.217 2.467-1.368.6-2.936.899-4.703.899z" fill="#3E7CB1"/>
</svg>
