<svg xmlns="http://www.w3.org/2000/svg" fill="none" viewBox="0 0 447 255">
  <path fill-rule="evenodd" clip-rule="evenodd" d="M342.043 221.648l-10.846 32.363h2.839l16.137-32.363h-8.13z" fill="#E2E2E2" stroke="#11253E"/>
  <path fill-rule="evenodd" clip-rule="evenodd" d="M334.037 254.011l16.136-32.363h-3.488l-13.529 32.363h.881z" fill="#11253E" stroke="#11253E"/>
  <path fill-rule="evenodd" clip-rule="evenodd" d="M433.482 221.648l10.848 32.363h-2.839l-16.137-32.363h8.128z" fill="#E2E2E2" stroke="#11253E"/>
  <path fill-rule="evenodd" clip-rule="evenodd" d="M441.491 254.011l-16.137-32.363h3.489l13.529 32.363h-.881z" fill="#11253E" stroke="#11253E"/>
  <path d="M435.133 199.995h-94.739c-5.979 0-10.826 4.847-10.826 10.826 0 5.98 4.847 10.827 10.826 10.827h94.739c5.98 0 10.827-4.847 10.827-10.827 0-5.979-4.847-10.826-10.827-10.826z" fill="#E2E2E2" stroke="#11253E"/>
  <path fill-rule="evenodd" clip-rule="evenodd" d="M340.394 199.995h94.747c2.486.007 4.895.867 6.824 2.436a10.866 10.866 0 013.778 6.184 10.87 10.87 0 01-10.602 8.62h-94.747a10.87 10.87 0 01-10.601-8.62 10.87 10.87 0 0110.601-8.62z" fill="#FEBE10" stroke="#11253E"/>
  <path fill-rule="evenodd" clip-rule="evenodd" d="M148.531 164.438c-.191-1.647-.438-3.587-.693-5.67 0 0 3.03 5.316 3.846 6.199.73.791 2.763 2.778 3.188 3.191h-.085c-.601-.285-2.733-1.32-4.124-2.298-.555-.406-1.346-.92-2.132-1.422z" fill="#E2E2E2" stroke="#11253E"/>
  <path d="M309.633 157.636H54.027v96.375h255.606v-96.375z" fill="#fff" stroke="#11253E"/>
  <path fill-rule="evenodd" clip-rule="evenodd" d="M54.178 146.861H309.48a5.406 5.406 0 015.388 5.387 5.403 5.403 0 01-5.388 5.394H54.178a5.405 5.405 0 01-5.389-5.386 5.405 5.405 0 015.389-5.395z" fill="#E2E2E2" stroke="#11253E"/>
  <path d="M98.965 175.403H54.027v10.419h44.938v-10.419zm-9.876 14.723H54.027v10.419h35.062v-10.419zm220.544-14.723h-44.939v10.419h44.939v-10.419zm-.001 14.723H274.57v10.419h35.062v-10.419z" fill="#FEBE10" stroke="#11253E"/>
  <path d="M210.498 212.352c3.609-15.834-6.302-31.596-22.136-35.205-15.834-3.609-31.596 6.302-35.205 22.136-3.609 15.834 6.302 31.596 22.136 35.205 15.834 3.609 31.596-6.302 35.205-22.136z" fill="#fff" stroke="#11253E"/>
  <path fill-rule="evenodd" clip-rule="evenodd" d="M176.169 188.693h11.322v11.468h11.469v11.323h-11.469v11.469h-11.322v-11.469H164.7v-11.323h11.469v-11.468z" fill="#FEBE10" stroke="#11253E"/>
  <path fill-rule="evenodd" clip-rule="evenodd" d="M24.831 203.178a2.241 2.241 0 01-.192.238c-.73.89-2.86 3.49-1.915 8.899a54.569 54.569 0 001.302 5.573c.684 2.475 1.213 4.39.997 7.378-.173 2.364-.64 4.628-1.071 6.726-.458 2.216-.878 4.25-.878 6.036h.502c0-1.743.414-3.749.866-5.938.435-2.108.906-4.406 1.08-6.791.223-3.065-.316-5.023-1.013-7.545a53.868 53.868 0 01-1.29-5.525c-.903-5.187 1.12-7.662 1.811-8.497a2.09 2.09 0 00.245-.332l-.444-.222z" fill="#E2E2E2" stroke="#11253E"/>
  <path fill-rule="evenodd" clip-rule="evenodd" d="M23.987 194.283c0 .04-.561 16.82-1.18 23.988-.36 4.161.316 8.536.92 12.432.436 2.833.834 5.413.765 7.45l.5.019c.075-2.082-.327-4.686-.766-7.546-.596-3.863-1.268-8.202-.912-12.313.62-7.169 1.18-23.99 1.18-24.032l-.507.002z" fill="#E2E2E2" stroke="#11253E"/>
  <path fill-rule="evenodd" clip-rule="evenodd" d="M14.075 203.447c.236-.044.437-.257.705-.539.791-.833 2.28-2.398 6.097-.766 2.084.895 3.098 3.741 3.43 7.201.459 4.725-.363 10.564-1.47 14.242-1.962 6.513-1.228 14.922-1.226 14.941l.5-.04c0-.025-.728-8.348 1.205-14.761 1.122-3.726 1.954-9.641 1.49-14.432-.35-3.64-1.45-6.636-3.732-7.614-4.137-1.776-5.783-.046-6.656.875-.205.215-.358.383-.435.383l.092.51z" fill="#E2E2E2" stroke="#11253E"/>
  <path fill-rule="evenodd" clip-rule="evenodd" d="M28.636 202.112s-1.774-6.82 2.327-8.237c2.933-1.01 6.846.804 9.69 4.469-.94.48-2.616 1.341-5.888 1.149-3.271-.192-2.505 3.919.489 2.682 2.203-.914 4.647-2.257 6.39-2.395a17.956 17.956 0 011.996 4.488c-.023 0-3.64-1.019-5.733-.205-2.094.815-2.299 2.272-1.452 2.28.846.008 5.497-1.797 7.82.561a36.15 36.15 0 01.558 4.714c-.01 0-2.415-1.754-4.405-1.902-1.99-.147-1.552 1.104-.324 1.452 1.228.349 3.693 1.15 4.789 3.605a39.735 39.735 0 01-.259 4.142s-1.6.446-4.243.339c-.011-.016-1.576-1.96-1.615-3.523-.038-1.563-1.624-1.291-1.427.04.121.83.395 2.241.6 3.239a24.106 24.106 0 01-4.067-1.007s-.756-2.64-.241-4.944c.515-2.305-1.052-2.404-1.55-1.64-.408.626-1.203 3.343-1.23 5.398a31.755 31.755 0 01-3.879-2.044c0-.789.108-3.047 1.092-4.572 1.209-1.877.175-3.216-.724-3.115-.898.102-2.285 3.013-3.998 3.611-.281.098-.563.192-.837.274-.559-.745-.92-1.481-1.032-2.184-.512-3.189 1.624-6.524 7.152-6.675z" fill="#E2E2E2" stroke="#11253E"/>
  <path fill-rule="evenodd" clip-rule="evenodd" d="M28.636 202.112a3.567 3.567 0 01-.087-.383c.473.191.904.509 1.431.766.266-3.289 3.065-4.394 4.98-4.193-.013 0-4.37.335-4.583 4.386.584.291 1.145.627 1.678 1.004.456.337.89.702 1.3 1.094.642-.592 3.751-2.318 6.446-1.81-.011 0-4.137.235-6.158 2.089a17.84 17.84 0 012.77 3.657c1.149-.737 3.756-.971 5.246.127 0 0-2.873-1.188-5.045.222a74.294 74.294 0 003.235 5.183c.575-.065 1.209.146 2.145.782 0 0-1.072-.41-1.883-.401 1.295 1.876 2.201 3.004 2.207 3.01-.789-.692-1.7-1.787-2.582-2.967l-.069.019-.06-.192a66.223 66.223 0 01-3.355-5.063c-1.558 2.148-1.173 4.713-1.129 5.01v.024c-.787-2.99.431-4.788.908-5.411a17.473 17.473 0 00-2.781-3.682c-2.776 1.324-2.971 3.728-3.448 6.28.069-3.577.8-5.377 3.147-6.575a13.38 13.38 0 00-1.19-.994 12.55 12.55 0 00-1.737-1.025c-4.336.813-4.476 2.925-5.296 3.956 1.182-3.408 3.191-3.889 4.71-4.243a32.97 32.97 0 00-1.435-.642c.156 0 .47-.03.634-.028zM1.209 190.735a61.45 61.45 0 019.227-3.622c.123.8 1.11 1.762 2.096.957.986-.804.957-1.149 1.35-1.775a19.884 19.884 0 012.99-.326h.98a6.939 6.939 0 00-.802 1.63c-.509 1.487 1.226 2.454 1.814.766.258-.82.7-1.57 1.293-2.193 1.899.295 3.448.895 4.63 1.69-1.323.699-2.951 1.712-2.681 2.436.312.837 2.814-.111 4.43-.797.527.7.876 1.518 1.015 2.383.508 3.257-3.277 4.82-7.098 1.897-7.848-6.017-13.018.572-19.244-3.046z" fill="#E2E2E2" stroke="#11253E"/>
  <path fill-rule="evenodd" clip-rule="evenodd" d="M23.37 187.07c-.43-.921-2.27-4.865-7.191-5.07.925.439 1.927 1.098 1.833 1.712-.13.851-2.536-.854-3.572-1.635l-.087.011a11.866 11.866 0 00-3.206.958c1.162.343 2.49.937 2.136 1.693-.493 1.035-3.04-.224-3.952-.766a27.373 27.373 0 00-2.904 1.958c.504.191.92.505.506.898-.345.328-1.092.261-1.76.107a39.749 39.749 0 00-3.964 3.807 61.455 61.455 0 019.227-3.623c.123.801 1.11 1.763 2.096.958.986-.805.957-1.149 1.35-1.776a19.883 19.883 0 012.99-.325h.98a6.939 6.939 0 00-.802 1.63c-.509 1.486 1.226 2.454 1.814.766.258-.82.7-1.571 1.293-2.193a12.8 12.8 0 013.213.89zm-7.965 14.534s1.657-5.486-1.632-6.762c-2.35-.914-5.587.437-8.014 3.325.749.42 2.084 1.175 4.748 1.113 2.665-.061 1.916 3.257-.482 2.161-1.76-.812-3.703-1.981-5.117-2.147a14.57 14.57 0 00-1.555 3.005 17.27 17.27 0 00-.207.575c.02 0 2.983-.715 4.664.015 1.682.73 1.79 1.916 1.108 1.898-.682-.017-4.406-1.635-6.372.209a29.05 29.05 0 00-.601 3.812s2.017-1.35 3.64-1.406c1.622-.055 1.225.944.216 1.19-1.01.245-3.036.825-4.01 2.777a32.399 32.399 0 00.081 3.373s1.286.414 3.437.408c.01 0 1.34-1.532 1.423-2.81.082-1.277 1.36-.998 1.15.079-.125.67-.384 1.808-.59 2.613a19.576 19.576 0 003.336-.692s.697-2.12.35-4.007c-.346-1.887.932-1.916 1.313-1.285.312.523.871 2.754.827 4.426a25.856 25.856 0 003.216-1.532c.024-.642 0-2.479-.74-3.749-.924-1.563-.041-2.62.685-2.509.726.111 1.762 2.521 3.136 3.065.226.088.45.172.67.249a4.13 4.13 0 00.916-1.743c.52-2.577-1.107-5.354-5.596-5.651z" fill="#E2E2E2" stroke="#11253E"/>
  <path fill-rule="evenodd" clip-rule="evenodd" d="M15.405 201.604s.03-.103.077-.285c-.397.134-.841.295-1.284.473-.019-2.682-2.226-3.747-3.781-3.697 0 0 3.523.532 3.448 3.831a10.33 10.33 0 00-1.421.713c-.39.247-.764.518-1.12.81-.486-.517-2.905-2.107-5.121-1.851.011 0 3.342.437 4.871 2.06a14.517 14.517 0 00-2.465 2.802c-.891-.668-2.987-1.013-4.262-.211 0 0 2.396-.793 4.08.481a60.229 60.229 0 01-2.933 4.011c-.46-.088-.99.046-1.787.506a5.19 5.19 0 011.551-.213c-1.162 1.443-1.965 2.299-1.969 2.299a16.568 16.568 0 002.278-2.247l.055.019.06-.151a52.235 52.235 0 003.023-3.906c1.135 1.835.67 3.891.616 4.13v.017c.816-2.377-.065-3.911-.413-4.44a14.103 14.103 0 012.475-2.82c2.17 1.238 2.185 3.199 2.425 5.297.159-2.904-.328-4.406-2.161-5.519.328-.265.67-.51 1.027-.735a10.2 10.2 0 011.469-.728c3.467.917 3.448 2.639 4.059 3.522-.755-2.833-2.358-3.34-3.567-3.72.416-.159.826-.302 1.18-.419-.136-.008-.272-.019-.41-.029z" fill="#E2E2E2" stroke="#11253E"/>
  <path d="M35.035 237.509H11.068v2.337h23.967v-2.337z" fill="#FEBE10" stroke="#11253E"/>
  <path fill-rule="evenodd" clip-rule="evenodd" d="M23.052 239.846h9.262l-4.632 14.165h-9.261l-4.63-14.165h9.261z" fill="#FEBE10" stroke="#11253E"/>
  <path d="M194.109 98.726h-58.818c-.971 0-1.759.787-1.759 1.758V134a1.76 1.76 0 001.759 1.759h58.818a1.76 1.76 0 001.759-1.759v-33.516c0-.971-.788-1.758-1.759-1.758z" fill="#11253E" stroke="#11253E"/>
  <path fill-rule="evenodd" clip-rule="evenodd" d="M165.96 127.632a7.715 7.715 0 007.126-4.753 7.704 7.704 0 00-1.666-8.403 7.704 7.704 0 00-8.401-1.675 7.709 7.709 0 00-4.76 7.122 7.725 7.725 0 007.701 7.709z" fill="#E2E2E2" stroke="#11253E"/>
  <path fill-rule="evenodd" clip-rule="evenodd" d="M165.288 118.835h1.173a3.277 3.277 0 00-3.268 3.266v21.617h-1.172v-21.617a3.278 3.278 0 013.267-3.266z" fill="#E2E2E2" stroke="#11253E"/>
  <path fill-rule="evenodd" clip-rule="evenodd" d="M166.46 118.835a3.275 3.275 0 013.268 3.266v21.617h-6.536v-21.617a3.279 3.279 0 013.268-3.266zm-11.957 24.883h23.917c.416.001.815.167 1.11.461.294.295.46.694.461 1.11v1.573h-27.059v-1.573a1.575 1.575 0 011.571-1.571z" fill="#E2E2E2" stroke="#11253E"/>
  <path fill-rule="evenodd" clip-rule="evenodd" d="M309.159 37.183l-12.12-1.795-8.007 11.447v5.986l147.482-9.053-127.355-6.585z" fill="#11253E" stroke="#11253E"/>
  <path d="M444.597 35.388H297.039v8.38h147.558v-8.38z" fill="#fff" stroke="#11253E"/>
  <path d="M444.597 40.533H297.039v3.235h147.558v-3.235zM360.184 7.085h-43.399a1.946 1.946 0 00-1.946 1.947v24.41c0 1.074.871 1.946 1.946 1.946h43.399a1.947 1.947 0 001.946-1.947V9.031a1.947 1.947 0 00-1.946-1.946z" fill="#E2E2E2" stroke="#11253E"/>
  <path fill-rule="evenodd" clip-rule="evenodd" d="M338.477 30.241a9.007 9.007 0 008.317-5.558 9.002 9.002 0 00-15.803-8.447 9.005 9.005 0 00-1.517 5.002 9.023 9.023 0 009.003 9.003z" fill="#11253E" stroke="#11253E"/>
  <path fill-rule="evenodd" clip-rule="evenodd" d="M336.75 15.99h3.468v3.512h3.513v3.469h-3.513v3.511h-3.468v-3.511h-3.511v-3.47h3.511v-3.51z" fill="#fff" stroke="#11253E"/>
  <path fill-rule="evenodd" clip-rule="evenodd" d="M343.982 7.084v-3.97a.688.688 0 00-.686-.685h-12.099a.672.672 0 00-.674.686v3.969h-1.816v-3.97c.001-.66.264-1.292.732-1.758a2.49 2.49 0 011.76-.731h12.093a2.49 2.49 0 012.49 2.49v3.969h-1.8z" fill="#3C5059" stroke="#11253E"/>
  <path fill-rule="evenodd" clip-rule="evenodd" d="M345.215 7.084v-3.97a.686.686 0 00-.684-.685h-12.092a.694.694 0 00-.485.201.685.685 0 00-.192.485v3.969h-1.808v-3.97a2.49 2.49 0 01.732-1.758 2.491 2.491 0 011.762-.731h12.093a2.49 2.49 0 012.49 2.49v3.969h-1.816z" fill="#526770" stroke="#11253E"/>
  <path d="M423.188 7.085H379.79a1.946 1.946 0 00-1.946 1.947v24.41c0 1.074.871 1.946 1.946 1.946h43.398a1.947 1.947 0 001.947-1.947V9.031a1.947 1.947 0 00-1.947-1.946z" fill="#E2E2E2" stroke="#11253E"/>
  <path fill-rule="evenodd" clip-rule="evenodd" d="M401.498 30.241a9.004 9.004 0 001.757-17.833 9.003 9.003 0 00-10.76 8.83 9.02 9.02 0 009.003 9.003z" fill="#11253E" stroke="#11253E"/>
  <path fill-rule="evenodd" clip-rule="evenodd" d="M399.755 15.99h3.467v3.512h3.512v3.469h-3.512v3.511h-3.467v-3.511h-3.513v-3.47h3.513v-3.51z" fill="#fff" stroke="#11253E"/>
  <path fill-rule="evenodd" clip-rule="evenodd" d="M406.984 7.084v-3.97a.686.686 0 00-.684-.685h-12.093a.672.672 0 00-.676.686v3.969h-1.806v-3.97a2.489 2.489 0 011.538-2.3c.302-.125.626-.19.954-.19h12.093a2.494 2.494 0 012.3 1.538c.125.302.19.626.19.953v3.969h-1.816z" fill="#3C5059" stroke="#11253E"/>
  <path fill-rule="evenodd" clip-rule="evenodd" d="M408.221 7.084v-3.97a.684.684 0 00-.686-.685h-12.093a.688.688 0 00-.684.686v3.969h-1.808v-3.97a2.49 2.49 0 01.732-1.758 2.49 2.49 0 011.76-.731h12.093a2.49 2.49 0 012.49 2.49v3.969h-1.804z" fill="#526770" stroke="#11253E"/>
  <path d="M247.863 137.102v.002c-.011 2.498-.022 4.996-.022 7.493 0 .201.019.399.057.587.117.55.526.941 1.072 1.032.177.028.359.038.55.038h5.061l-6.718-9.152zm0 0c0-.649.178-1.208.574-1.727m-.574 1.727h-.4c0-.733.204-1.379.657-1.971m0 0l.315.246.002-.002m-.317-.244l.318.243-.001.001m-.317-.244l.317.244m0 0c1.024-1.318 1.627-2.821 1.949-4.43.109-.548.2-1.121.223-1.7v-.016a.692.692 0 00-.105-.392.606.606 0 00-.436-.252h0-.003a.475.475 0 01-.066-.016l-.055-.016h0l-.054-.017c-.309-.111-.478-.325-.523-.663h0l-.001-.006a3.087 3.087 0 01-.007-.583c.03-.377.282-.647.671-.707.117-.016.249-.017.405-.017h8.271c.159 0 .277.002.379.024l.01.002.011.001c.359.058.588.294.648.661v.001c.035.206.028.422-.002.66h0l-.001.004a.734.734 0 01-.148.391.856.856 0 01-.361.254h0l-.008.004a.148.148 0 00-.024.006.642.642 0 00-.533.343v-.001l-.006.011a.752.752 0 00-.068.419c.004.044.011.088.016.119l.001.009a.686.686 0 01.01.072h0c.078 1 .267 1.97.591 2.929l-10.784 2.906zm12.424.105h.001a9.565 9.565 0 01-1.641-3.01l1.64 3.01zm0 0l.007.008m-.007-.008l.007.008m0 0l.089.108.001.003c.031.038.067.083.104.126l.001.001m-.195-.238l.195.238m0 0c.194.225.28.492.28.837m-.28-.837l.28.837m0 0v.005m0-.005v.005m0 0v.006m0-.006v.006m0 0v.005m0-.005v.005m0 0v.005m0-.005v.005m0 0v.005m0-.005v.005m0 0v.005m0-.005v.005m0 0v.005m0-.005v.005m0 0v.006m0-.006v.006m0 0v.005m0-.005v.005m0 0v.005m0-.005v.005m0 0v.005m0-.005v.005m0 0v.005m0-.005v.005m0 0v.006m0-.006v.006m0 0v.005m0-.005v.005m0 0v.005m0-.005v.005m0 0v.005m0-.005v.005m0 0v.005m0-.005v.005m0 0v.005m0-.005v.005m0 0v.006m0-.006v.006m0 0v.005m0-.005v.005m0 0v.005m0-.005v.005m0 0v.005m0-.005v.005m0 0v.005m0-.005v.005m0 0v.005m0-.005v.005m0 0v.006m0-.006v.006m0 0v.005m0-.005v.005m0 0v.005m0-.005v.005m0 0v.005m0-.005v.005m0 0v.005m0-.005v.005m0 0v.005m0-.005v.005m0 0v.006m0-.006v.006m0 0v.005m0-.005v.005m0 0v.005m0-.005v.005m0 0v.005m0-.005v.005m0 0v.005m0-.005v.005m0 0v.005m0-.005v.005m0 0v.006m0-.006v.006m0 0v.005m0-.005v.005m0 0v.005m0-.005v.005m0 0v.005m0-.005v.005m0 0v.005m0-.005v.005m0 0v.005m0-.005v.005m0 0v.006m0-.006v.006m0 0v.005m0-.005v.005m0 0v.005m0-.005v.005m0 0v.005m0-.005v.005m0 0v.005m0-.005v.005m0 0v.005m0-.005v.005m0 0v.006m0-.006v.006m0 0v.005m0-.005v.005m0 0v.005m0-.005v.005m0 0v.005m0-.005v.005m0 0v.005m0-.005v.005m0 0v.005m0-.005v.005m0 0v.005m0-.005v.005m0 0v.006m0-.006v.006m0 0v.005m0-.005v.005m0 0v.005m0-.005v.005m0 0v.005m0-.005v.005m0 0v.005m0-.005v.005m0 0v.005m0-.005v.005m0 0v.006m0-.006v.006m0 0v.005m0-.005v.005m0 0v.005m0-.005v.005m0 0v.005m0-.005v.005m0 0v.005m0-.005v.005m0 0v.005m0-.005v.005m0 0v.006m0-.006v.006m0 0v.005m0-.005v.005m0 0v.005m0-.005v.005m0 0v.005m0-.005v.005m0 0v.005m0-.005v.005m0 0v.005m0-.005v.005m0 0v.006m0-.006v.006m0 0v.005m0-.005v.005m0 0v.005m0-.005v.005m0 0v.005m0-.005v.005m0 0v.005m0-.005v.005m0 0v.005m0-.005v.005m0 0v.005m0-.005v.005m0 0v.006m0-.006v.006m0 0v.005m0-.005v.005m0 0v.005m0-.005v.005m0 0v.005m0-.005v.005m0 0v.005m0-.005v.005m0 0v.005m0-.005v.005m0 0v.006m0-.006v.006m0 0v.005m0-.005v.005m0 0v.005m0-.005v.005m0 0v.005m0-.005v.005m0 0v.005m0-.005v.005m0 0v.005m0-.005v.005m0 0v.006m0-.006v.006m0 0v.005m0-.005v.005m0 0v.005m0-.005v.005m0 0v.005m0-.005v.005m0 0v.005m0-.005v.005m0 0v.005m0-.005v.005m0 0v.005m0-.005v.005m0 0v.006m0-.006v.006m0 0v.005m0-.005v.005m0 0v.005m0-.005v.005m0 0v.005m0-.005v.005m0 0v.005m0-.005v.005m0 0v.005m0-.005v.005m0 0v.006m0-.006v.006m0 0v.005m0-.005v.005m0 0v.005m0-.005v.005m0 0v.005m0-.005v.005m0 0v.005m0-.005v.005m0 0v.005m0-.005v.005m0 0v.005m0-.005v.005m0 0v.006m0-.006v.006m0 0v.005m0-.005v.005m0 0v.005m0-.005v.005m0 0v.005m0-.005v.005m0 0v.005m0-.005v.005m0 0v.005m0-.005v.005m0 0v.006m0-.006v.006m0 0v.005m0-.005v.005m0 0v.005m0-.005v.005m0 0v.005m0-.005v.005m0 0v.005m0-.005v.005m0 0v.005m0-.005v.005m0 0v.005m0-.005v.005m0 0v.006m0-.006v.006m0 0v.005m0-.005v.005m0 0v.005m0-.005v.005m0 0v.005m0-.005v.005m0 0v.005m0-.005v.005m0 0v.005m0-.005v.005m0 0v.005m0-.005v.005m0 0v.006m0-.006v.006m0 0v.005m0-.005v.005m0 0v.005m0-.005v.005m0 0v.005m0-.005v.005m0 0v.005m0-.005v.005m0 0v.005m0-.005v.005m0 0v.006m0-.006v.006m0 0v.005m0-.005v.005m0 0v.005m0-.005v.005m0 0v.005m0-.005v.005m0 0v.005m0-.005v.005m0 0v.005m0-.005v.005m0 0v.005m0-.005v.005m0 0v.006m0-.006v.006m0 0v.005m0-.005v.005m0 0v.005m0-.005v.005m0 0v.005m0-.005v.005m0 0v.005m0-.005v.005m0 0v.005m0-.005v.005m0 0v.005m0-.005v.005m0 0v.006m0-.006v.006m0 0v.005m0-.005v.005m0 0v.005m0-.005v.005m0 0v.005m0-.005v.005m0 0v.005m0-.005v.005m0 0v.005m0-.005v.005m0 0v.005m0-.005v.005m0 0v.006m0-.006v.006m0 0v.005m0-.005v.005m0 0v.005m0-.005v.005m0 0v.005m0-.005v.005m0 0v.005m0-.005v.005m0 0v.005m0-.005v.005m0 0v.006m0-.006v.006m0 0v.005m0-.005v.005m0 0v.005m0-.005v.005m0 0v.005m0-.005v.005m0 0v.005m0-.005v.005m0 0v.005m0-.005v.005m0 0v.005m0-.005v.005m0 0v.006m0-.006v.006m0 0v.005m0-.005v.005m0 0v.005m0-.005v.005m0 0v.005m0-.005v.005m0 0v.005m0-.005v.005m0 0v.005m0-.005v.005m0 0v.005m0-.005v.005m0 0v.006m0-.006v.006m0 0v.005m0-.005v.005m0 0v.005m0-.005v.005m0 0v.005m0-.005v.005m0 0v.005m0-.005v.005m0 0v.005m0-.005v.005m0 0v.005m0-.005v.005m0 0v.006m0-.006v.006m0 0v.005m0-.005v.005m0 0v.005m0-.005v.005m0 0v.005m0-.005v.005m0 0v.005m0-.005v.005m0 0v.005m0-.005v.005m0 0v.005m0-.005v.005m0 0v.006m0-.006v.006m0 0v.005m0-.005v.005m0 0v.005m0-.005v.005m0 0v.005m0-.005v.005m0 0v.005m0-.005v.005m0 0v.005m0-.005v.005m0 0v.005m0-.005v.005m0 0v.006m0-.006v.006m0 0v.005m0-.005v.005m0 0v.005m0-.005v.005m0 0v.005m0-.005v.005m0 0v.005m0-.005v.005m0 0v.005m0-.005v.005m0 0v.005m0-.005v.005m0 0v.006m0-.006v.006m0 0v.005m0-.005v.005m0 0v.005m0-.005v.005m0 0v.005m0-.005v.005m0 0v.005m0-.005v.005m0 0v.005m0-.005v.005m0 0v.005m0-.005v.005m0 0v.006m0-.006v.006m0 0v.005m0-.005v.005m0 0v.005m0-.005v.005m0 0v.005m0-.005v.005m0 0v.005m0-.005v.005m0 0v.005m0-.005v.005m0 0v.005m0-.005v.005m0 0v.006m0-.006v.006m0 0v.005m0-.005v.005m0 0v.005m0-.005v.005m0 0v.005m0-.005v.005m0 0v.005m0-.005v.005m0 0v.005m0-.005v.005m0 0v.005m0-.005v.005m0 0v.006m0-.006v.006m0 0v.005m0-.005v.005m0 0v.005m0-.005v.005m0 0v.005m0-.005v.005m0 0v.005m0-.005v.005m0 0v.005m0-.005v.005m0 0v.005m0-.005v.005m0 0v.006m0-.006v.006m0 0v.005m0-.005v.005m0 0v.005m0-.005v.005m0 0v.005m0-.005v.005m0 0v.005m0-.005v.005m0 0v.005m0-.005v.005m0 0v.005m0-.005v.005m0 0v.006m0-.006v.006m0 0v.005m0-.005v.005m0 0v.005m0-.005v.005m0 0v.005m0-.005v.005m0 0v.005m0-.005v.005m0 0v.005m0-.005v.005m0 0v.005m0-.005v.005m0 0v.006m0-.006v.006m0 0v.005m0-.005v.005m0 0v.005m0-.005v.005m0 0v.005m0-.005v.005m0 0v.005m0-.005v.005m0 0v.005m0-.005v.005m0 0v.005m0-.005v.005m0 0v.006m0-.006v.006m0 0v.005m0-.005v.005m0 0v.005m0-.005v.005m0 0v.005m0-.005v.005m0 0v.005m0-.005v.005m0 0v.005m0-.005v.005m0 0v.005m0-.005v.005m0 0v.006m0-.006v.006m0 0v.005m0-.005v.005m0 0v.005m0-.005v.005m0 0v.005m0-.005v.005m0 0v.005m0-.005v.005m0 0v.005m0-.005v.005m0 0v.005m0-.005v.005m0 0v.006m0-.006v.006m0 0v.005m0-.005v.005m0 0v.005m0-.005v.005m0 0v.005m0-.005v.005m0 0v.005m0-.005v.005m0 0v.005m0-.005v.005m0 0v.005m0-.005v.005m0 0v.006m0-.006v.006m0 0v.005m0-.005v.005m0 0v.005m0-.005v.005m0 0v.005m0-.005v.005m0 0v.005m0-.005v.005m0 0v.005m0-.005v.005m0 0v.005m0-.005v.005m0 0v.006m0-.006v.006m0 0v.005m0-.005v.005m0 0v.005m0-.005v.005m0 0v.005m0-.005v.005m0 0v.005m0-.005v.005m0 0v.005m0-.005v.005m0 0v.005m0-.005v.005m0 0v.006m0-.006v.006m0 0v.005m0-.005v.005m0 0v.005m0-.005v.005m0 0v.005m0-.005v.005m0 0v.005m0-.005v.005m0 0v.005m0-.005v.005m0 0v.005m0-.005v.005m0 0v.006m0-.006v.006m0 0v.005m0-.005v.005m0 0v.005m0-.005v.005m0 0v.005m0-.005v.005m0 0v.005m0-.005v.005m0 0v.005m0-.005v.005m0 0v.006m0-.006v.006m0 0v.005m0-.005v.005m0 0v.005m0-.005v.005m0 0v.005m0-.005v.005m0 0v.005m0-.005v.005m0 0v.005m0-.005v.005m0 0v.005m0-.005v.005m0 0v.006m0-.006v.006m0 0v.005m0-.005v.005m0 0v.005m0-.005v.005m0 0v.005m0-.005v.005m0 0v.005m0-.005v.005m0 0v.005m0-.005v.005m0 0v.005m0-.005v.005m0 0v.006m0-.006v.006m0 0v.005m0-.005v.005m0 0v.005m0-.005v.005m0 0v.005m0-.005v.005m0 0v.005m0-.005v.005m0 0v.005m0-.005v.005m0 0v.005m0-.005v.005m0 0v.006m0-.006v.006m0 0v.005m0-.005v.005m0 0v.005m0-.005v.005m0 0v.005m0-.005v.005m0 0v.005m0-.005v.005m0 0v.005m0-.005v.005m0 0v.005m0-.005v.005m0 0v.006m0-.006v.006m0 0v.005m0-.005v.005m0 0v.005m0-.005v.005m0 0v.005m0-.005v.005m0 0v.005m0-.005v.005m0 0v.005m0-.005v.005m0 0v.005m0-.005v.005m0 0v.006m0-.006v.006m0 0v.005m0-.005v.005m0 0v.005m0-.005v.005m0 0v.005m0-.005v.005m0 0v.005m0-.005v.005m0 0v.005m0-.005v.005m0 0v.005m0-.005v.005m0 0v.006m0-.006v.006m0 0v.005m0-.005v.005m0 0v.005m0-.005v.005m0 0v.005m0-.005v.005m0 0v.005m0-.005v.005m0 0v.005m0-.005v.005m0 0v.005m0-.005v.005m0 0v.006m0-.006v.006m0 0v.005m0-.005v.005m0 0v.005m0-.005v.005m0 0v.005m0-.005v.005m0 0v.005m0-.005v.005m0 0v.005m0-.005v.005m0 0v.006m0-.006v.006m0 0v.005m0-.005v.005m0 0v.005m0-.005v.005m0 0v.005m0-.005v.005m0 0v.005m0-.005v.005m0 0v.005m0-.005v.005m0 0v.005m0-.005v.005m0 0v.006m0-.006v.006m0 0v.005m0-.005v.005m0 0v.005m0-.005v.005m0 0v.005m0-.005v.005m0 0v.005m0-.005v.005m0 0v.005m0-.005v.005m0 0v.005m0-.005v.005m0 0v.006m0-.006v.006m0 0v.005m0-.005v.005m0 0v.005m0-.005v.005m0 0v.005m0-.005v.005m0 0v.005m0-.005v.005m0 0v.005m0-.005v.005m0 0v.005m0-.005v.005m0 0v.006m0-.006v.006m0 0v.005m0-.005v.005m0 0v.005m0-.005v.005m0 0v.005m0-.005v.005m0 0v.005m0-.005v.005m0 0v.005m0-.005v.005m0 0v.006m0-.006v.006m0 0v.005m0-.005v.005m0 0v.005m0-.005v.005m0 0v.005m0-.005v.005m0 0v.005m0-.005v.005m0 0v.005m0-.005v.005m0 0v.005m0-.005v.005m0 0v.006m0-.006v.006m0 0v.005m0-.005v.005m0 0v.005m0-.005v.005m0 0v.005m0-.005v.005m0 0v.005m0-.005v.005m0 0v.005m0-.005v.005m0 0v.006m0-.006v.006m0 0v.005m0-.005v.005m0 0v.005m0-.005v.005m0 0v.005m0-.005v.005m0 0v.005m0-.005v.005m0 0v.005m0-.005v.005m0 0v.005m0-.005v.005m0 0v.006m0-.006v.006m0 0v.005m0-.005v.005m0 0v.005m0-.005v.005m0 0v.005m0-.005v.005m0 0v.005m0-.005v.005m0 0v.005m0-.005v.005m0 0v.006m0-.006v.006m0 0v.005m0-.005v.005m0 0v.005m0-.005v.005m0 0v.005m0-.005v.005m0 0v.005m0-.005v.005m0 0v.005m0-.005v.005m0 0v.005m0-.005v.005m0 0v.006m0-.006v.006m0 0v.005m0-.005v.005m0 0v.005m0-.005v.005m0 0v.005m0-.005v.005m0 0v.005m0-.005v.005m0 0v.005m0-.005v.005m0 0v.006m0-.006v.006m0 0v.005m0-.005v.005m0 0v.005m0-.005v.005m0 0v.005m0-.005v.005m0 0v.005m0-.005v.005m0 0v.005m0-.005v.005m0 0v.005m0-.005v.005m0 0v.006m0-.006v.006m0 0v.005m0-.005v.005m0 0v.005m0-.005v.005m0 0v.005m0-.005v.005m0 0v.005m0-.005v.005m0 0v.005m0-.005v.005m0 0v.006m0-.006v.006m0 0v.005m0-.005v.005m0 0v.005m0-.005v.005m0 0v.005m0-.005v.005m0 0v.005m0-.005v.005m0 0v.005m0-.005v.005m0 0v.006m0-.006v.006m0 0v.005m0-.005v.005m0 0v.005m0-.005v.005m0 0v.005m0-.005v.005m0 0v.005m0-.005v.005m0 0v.005m0-.005v.005m0 0v.006m0-.006v.006m0 0v.005m0-.005v.005m0 0v.005m0-.005v.005m0 0v.005m0-.005v.005m0 0v.005m0-.005v.005m0 0v.005m0-.005v.005m0 0v.005m0-.005v.005m0 0v.006m0-.006v.006m0 0v.005m0-.005v.005m0 0v.005m0-.005v.005m0 0v.005m0-.005v.005m0 0v.005m0-.005v.005m0 0v.005m0-.005v.005m0 0v.006m0-.006v.006m0 0v.005m0-.005v.005m0 0v.005m0-.005v.005m0 0v.005m0-.005v.005m0 0v.005m0-.005v.005m0 0v.005m0-.005v.005m0 0v.006m0-.006v.006m0 0v.005m0-.005v.005m0 0v.005m0-.005v.005m0 0V139m0-.005V139m0 0v.005m0-.005v.005m0 0v.005m0-.005v.005m0 0v.006m0-.006v.006m0 0v.005m0-.005v.005m0 0v.005m0-.005v.005m0 0v.005m0-.005v.005m0 0v.005m0-.005v.005m0 0v.005m0-.005v.005m0 0v.006m0-.006v.006m0 0v.005m0-.005v.005m0 0v.005m0-.005v.005m0 0v.005m0-.005v.005m0 0v.005m0-.005v.005m0 0v.005m0-.005v.005m0 0v.006m0-.006v.006m0 0v.005m0-.005v.005m0 0v.005m0-.005v.005m0 0v.005m0-.005v.005m0 0v.005m0-.005v.005m0 0v.005m0-.005v.005m0 0v.006m0-.006v.006m0 0v.005m0-.005v.005m0 0v.005m0-.005v.005m0 0v.005m0-.005v.005m0 0v.005m0-.005v.005m0 0v.005m0-.005v.005m0 0v.006m0-.006v.006m0 0v.005m0-.005v.005m0 0v.005m0-.005v.005m0 0v.005m0-.005v.005m0 0v.005m0-.005v.005m0 0v.006m0-.006v.006m0 0v.005m0-.005v.005m0 0v.005m0-.005v.005m0 0v.005m0-.005v.005m0 0v.005m0-.005v.005m0 0v.005m0-.005v.005m0 0v.006m0-.006v.006m0 0v.005m0-.005v.005m0 0v.01m0-.01v.01m0 0v.011m0-.011v.011m0 0v.01m0-.01v.01m0 0v.011m0-.011v.011m0 0v.01m0-.01v.01m0 0v.011m0-.011v.011m0 0v.01m0-.01v.01m0 0v.011m0-.011v.011m0 0v.01m0-.01v.01m0 0v.01m0-.01v.01m0 0v.011m0-.011v.011m0 0v.01m0-.01v.01m0 0v.011m0-.011v.011m0 0v.01m0-.01v.01m0 0v.011m0-.011v.011m0 0v.01m0-.01v.01m0 0v.011m0-.011v.011m0 0v.01m0-.01v.01m0 0v.011m0-.011v.011m0 0v.01m0-.01v.01m0 0v.011m0-.011v.011m0 0v.01m0-.01v.01m0 0v.011m0-.011v.011m0 0v.01m0-.01v.01m0 0v.011m0-.011v.011m0 0v.01m0-.01v.01m0 0v.011m0-.011v.011m0 0v.01m0-.01v.01m0 0v.011m0-.011v.011m0 0v.01m0-.01v.01m0 0v.011m0-.011v.011m0 0v.01m0-.01v.01m0 0v.011m0-.011v.011m0 0v.01m0-.01v.01m0 0v.01m0-.01v.01m0 0v.011m0-.011v.011m0 0v.01m0-.01v.01m0 0v.011m0-.011v.011m0 0v.01m0-.01v.01m0 0v.011m0-.011v.011m0 0v.01m0-.01v.01m0 0v.011m0-.011v.011m0 0v.01m0-.01v.01m0 0v.011m0-.011v.011m0 0v.01m0-.01v.01m0 0v.011m0-.011v.011m0 0v.01m0-.01v.01m0 0v.011m0-.011v.011m0 0v.01m0-.01v.01m0 0v.011m0-.011v.011m0 0v.01m0-.01v.01m0 0v.011m0-.011v.011m0 0v.01m0-.01v.01m0 0v.011m0-.011v.011m0 0v.01m0-.01v.01m0 0v.011m0-.011v.011m0 0v.01m0-.01v.01m0 0v.011m0-.011v.011m0 0v.01m0-.01v.01m0 0v.011m0-.011v.011m0 0v.01m0-.01v.01m0 0v.011m0-.011v.011m0 0v.01m0-.01v.01m0 0v.011m0-.011v.011m0 0v.01m0-.01v.01m0 0v.011m0-.011v.011m0 0v.01m0-.01v.01m0 0v.011m0-.011v.011m0 0v.01m0-.01v.01m0 0v.011m0-.011v.011m0 0v.01m0-.01v.01m0 0v.01m0-.01v.01m0 0v.011m0-.011v.011m0 0v.01m0-.01v.01m0 0v.011m0-.011v.011m0 0v.01m0-.01v.01m0 0v.011m0-.011v.011m0 0v.01m0-.01v.01m0 0v.011m0-.011v.011m0 0v.01m0-.01v.01m0 0v.011m0-.011v.011m0 0v.01m0-.01v.01m0 0v.011m0-.011v.011m0 0v.01m0-.01v.01m0 0v.011m0-.011v.011m0 0v.01m0-.01v.01m0 0v.011m0-.011v.011m0 0v.01m0-.01v.01m0 0v.011m0-.011v.011m0 0v.01m0-.01v.01m0 0v.011m0-.011v.011m0 0v.01m0-.01v.01m0 0v.011m0-.011v.011m0 0v.01m0-.01v.01m0 0v.011m0-.011v.011m0 0v.01m0-.01v.01m0 0v.011m0-.011v.011m0 0v.01m0-.01v.01m0 0v.011m0-.011v.011m0 0v.01m0-.01v.01m0 0v.011m0-.011v.011m0 0v.01m0-.01v.01m0 0v.011m0-.011v.011m0 0v.01m0-.01v.01m0 0v.011m0-.011v.011m0 0v.01m0-.01v.01m0 0v.011m0-.011v.011m0 0v.01m0-.01v.01m0 0v.011m0-.011v.011m0 0v.01m0-.01v.01m0 0v.011m0-.011v.011m0 0v.01m0-.01v.01m0 0v.011m0-.011v.011m0 0v.01m0-.01v.01m0 0v.011m0-.011v.011m0 0v.01m0-.01v.01m0 0v.011m0-.011v.011m0 0v.01m0-.01v.01m0 0v.011m0-.011v.011m0 0v.01m0-.01v.01m0 0v.011m0-.011v.011m0 0v.01m0-.01v.01m0 0v.011m0-.011v.011m0 0v.01m0-.01v.01m0 0v.011m0-.011v.011m0 0v.01m0-.01v.01m0 0v.011m0-.011v.011m0 0v.01m0-.01v.01m0 0v.011m0-.011v.011m0 0v.01m0-.01v.01m0 0v.011m0-.011v.011m0 0v.01m0-.01v.01m0 0v.011m0-.011v.011m0 0v.01m0-.01v.01m0 0v.011m0-.011v.011m0 0v.01m0-.01v.01m0 0v.011m0-.011v.011m0 0v.01m0-.01v.01m0 0v.011m0-.011v.011m0 0v.01m0-.01v.01m0 0v.011m0-.011v.011m0 0v.01m0-.01v.01m0 0v.011m0-.011v.011m0 0v.01m0-.01v.01m0 0v.011m0-.011v.011m0 0v.01m0-.01v.01m0 0v.011m0-.011v.011m0 0v.01m0-.01v.01m0 0v.011m0-.011v.011m0 0v.01m0-.01v.01m0 0v.011m0-.011v.011m0 0v.01m0-.01v.01m0 0v.011m0-.011v.011m0 0v.01m0-.01v.01m0 0v.011m0-.011v.011m0 0v.01m0-.01v.01m0 0v.011m0-.011v.011m0 0v.01m0-.01v.01m0 0v.011m0-.011v.011m0 0v.01m0-.01v.01m0 0v.011m0-.011v.011m0 0v.01m0-.01v.01m0 0v.011m0-.011v.011m0 0v.01m0-.01v.01m0 0v.011m0-.011v.011m0 0v.01m0-.01v.01m0 0v.011m0-.011v.011m0 0v.01m0-.01v.01m0 0v.011m0-.011v.011m0 0v.01m0-.01v.01m0 0v.011m0-.011v.011m0 0v.01m0-.01v.01m0 0v.011m0-.011v.011m0 0v.01m0-.01v.01m0 0v.011m0-.011v.011m0 0v.01m0-.01v.01m0 0v.011m0-.011v.011m0 0v.01m0-.01v.01m0 0v.011m0-.011v.011m0 0v.01m0-.01v.01m0 0v.011m0-.011v.011m0 0v.01m0-.01v.01m0 0v.011m0-.011v.011m0 0v.01m0-.01v.01m0 0v.011m0-.011v.011m0 0v.01m0-.01v.01m0 0v.011m0-.011v.011m0 0v.01m0-.01v.01m0 0v.011m0-.011v.011m0 0v.01m0-.01v.01m0 0v.011m0-.011v.011m0 0v.01m0-.01v.01m0 0v.011m0-.011v.011m0 0v.01m0-.01v.01m0 0v.011m0-.011v.011m0 0v.01m0-.01v.01m0 0v.011m0-.011v.011m0 0v.01m0-.01v.01m0 0v.011m0-.011v.011m0 0v.01m0-.01v.01m0 0v.011m0-.011v.011m0 0v.01m0-.01v.01m0 0v.011m0-.011v.011m0 0v.01m0-.01v.01m0 0v.011m0-.011v.011m0 0v.01m0-.01v.01m0 0v.011m0-.011v.011m0 0v.01m0-.01v.01m0 0v.011m0-.011v.011m0 0v.01m0-.01v.01m0 0v.011m0-.011v.011m0 0v.01m0-.01v.01m0 0v.011m0-.011v.011m0 0v.01m0-.01v.01m0 0v.011m0-.011v.011m0 0v.01m0-.01v.01m0 0v.011m0-.011v.011m0 0v.01m0-.01v.01m0 0v.011m0-.011v.011m0 0v.01m0-.01v.01m0 0v.011m0-.011v.011m0 0v.01m0-.01v.01m0 0v.011m0-.011v.011m0 0v.01m0-.01v.01m0 0v.011m0-.011v.011m0 0v.01m0-.01v.01m0 0v.011m0-.011v.011m0 0v.01m0-.01v.01m0 0v.011m0-.011v.011m0 0v.01m0-.01v.01m0 0v.011m0-.011v.011m0 0v.011m0-.011v.011m0 0v.01m0-.01v.01m0 0v.011m0-.011v.011m0 0v.01m0-.01v.01m0 0v.011m0-.011v.011m0 0v.01m0-.01v.01m0 0v.011m0-.011v.011m0 0v.01m0-.01v.01m0 0v.011m0-.011v.011m0 0v.01m0-.01v.01m0 0v.011m0-.011v.011m0 0v.01m0-.01v.01m0 0v.011m0-.011v.011m0 0v.01m0-.01v.01m0 0v.011m0-.011v.011m0 0v.01m0-.01v.01m0 0v.011m0-.011v.011m0 0v.01m0-.01v.01m0 0v.011m0-.011v.011m0 0v.01m0-.01v.01m0 0v.011m0-.011v.011m0 0v.01m0-.01v.01m0 0v.011m0-.011v.011m0 0v.01m0-.01v.01m0 0v.011m0-.011v.011m0 0v.01m0-.01v.01m0 0v.011m0-.011v.011m0 0v.01m0-.01v.01m0 0v.011m0-.011v.011m0 0v.01m0-.01v.01m0 0v.011m0-.011v.011m0 0v.01m0-.01v.01m0 0v.011m0-.011v.011m0 0v.01m0-.01v.01m0 0v.011m0-.011v.011m0 0v.01m0-.01v.01m0 0v.011m0-.011v.011m0 0v.01m0-.01v.01m0 0v.011m0-.011v.011m0 0v.01m0-.01v.01m0 0v.011m0-.011v.011m0 0v.01m0-.01v.01m0 0v.011m0-.011v.011m0 0v.01m0-.01v.01m0 0v.011m0-.011v.011m0 0v.01m0-.01v.01m0 0v.011m0-.011v.011m0 0v.01m0-.01v.01m0 0v.011m0-.011v.011m0 0v.01m0-.01v.01m0 0v.011m0-.011v.011m0 0v.01m0-.01v.01m0 0v.011m0-.011v.011m0 0v.01m0-.01v.01m0 0v.011m0-.011v.011m0 0v.01m0-.01v.01m0 0v.011m0-.011v.011m0 0v.01m0-.01v.01m0 0v.011m0-.011v.011m0 0v.01m0-.01v.01m0 0v.011m0-.011v.011m0 0v.01m0-.01v.01m0 0v.011m0-.011v.011m0 0v.01m0-.01v.01m0 0v.011m0-.011v.011m0 0v.01m0-.01v.01m0 0v.011m0-.011v.011m0 0v.01m0-.01v.01m0 0v.011m0-.011v.011m0 0v.01m0-.01v.01m0 0v.011m0-.011v.011m0 0v.01m0-.01v.01m0 0v.011m0-.011v.011m0 0v.01m0-.01v.01m0 0v.011m0-.011v.011m0 0v.01m0-.01v.01m0 0v.011m0-.011v.011m0 0v.01m0-.01v.01m0 0v.011m0-.011v.011m0 0v.01m0-.01v.01m0 0v.011m0-.011v.011m0 0v.01m0-.01v.01m0 0v.011m0-.011v.011m0 0v.01m0-.01v.01m0 0v.011m0-.011v.011m0 0v.011m0-.011v.011m0 0v.01m0-.01v.01m0 0v.011m0-.011v.011m0 0v.01m0-.01v.01m0 0v.011m0-.011v.011m0 0v.01m0-.01v.01m0 0v.011m0-.011v.011m0 0v.01m0-.01v.01m0 0v.011m0-.011v.011m0 0v.01m0-.01v.01m0 0v.011m0-.011v.011m0 0v.01m0-.01v.01m0 0v.011m0-.011v.011m0 0v.01m0-.01v.01m0 0v.011m0-.011v.011m0 0v.01m0-.01v.01m0 0v.011m0-.011v.011m0 0v.01m0-.01v.01m0 0v.011m0-.011v.011m0 0v.01m0-.01v.01m0 0v.011m0-.011v.011m0 0v.01m0-.01v.01m0 0v.011m0-.011v.011m0 0v.01m0-.01v.01m0 0v.011m0-.011v.011m0 0v.01m0-.01v.01m0 0v.011m0-.011v.011m0 0v.01m0-.01v.01m0 0v.011m0-.011v.011m0 0v.01m0-.01v.01m0 0v.011m0-.011v.011m0 0v.01m0-.01v.01m0 0v.011m0-.011v.011m0 0v.01m0-.01v.01m0 0v.011m0-.011v.011m0 0v.01m0-.01v.01m0 0v.011m0-.011v.011m0 0v.01m0-.01v.01m0 0v.011m0-.011v.011m0 0v.01m0-.01v.01m0 0v.011m0-.011v.011m0 0v.01m0-.01v.01m0 0v.011m0-.011v.011m0 0v.01m0-.01v.01m0 0v.011m0-.011v.011m0 0v.01m0-.01v.01m0 0v.011m0-.011v.011m0 0v.01m0-.01v.01m0 0v.011m0-.011v.011m0 0v.01m0-.01v.01m0 0v.011m0-.011v.011m0 0v.01m0-.01v.01m0 0v.011m0-.011v.011m0 0v.01m0-.01v.01m0 0v.011m0-.011v.011m0 0v.01m0-.01v.01m0 0v.011m0-.011v.011m0 0v.01m0-.01v.01m0 0v.011m0-.011v.011m0 0v.01m0-.01v.01m0 0v.011m0-.011v.011m0 0v.01m0-.01v.01m0 0v.011m0-.011v.011m0 0v.01m0-.01v.01m0 0v.011m0-.011v.011m0 0v.01m0-.01v.01m0 0v.011m0-.011v.011m0 0v.01m0-.01v.01m0 0v.011m0-.011v.011m0 0v.01m0-.01v.01m0 0v.011m0-.011v.011m0 0v.01m0-.01v.01m0 0v.011m0-.011v.011m0 0v.01m0-.01v.01m0 0v.011m0-.011v.011m0 0v.01m0-.01v.01m0 0v.011m0-.011v.011m0 0v.01m0-.01v.01m0 0v.011m0-.011v.011m0 0v.01m0-.01v.01m0 0v.011m0-.011v.011m0 0v.01m0-.01v.01m0 0v.011m0-.011v.011m0 0v.01m0-.01v.01m0 0v.011m0-.011v.011m0 0v.01m0-.01v.01m0 0v.011m0-.011v.011m0 0v.01m0-.01v.01m0 0v.011m0-.011v.011m0 0v.01m0-.01v.01m0 0v.011m0-.011v.011m0 0v.01m0-.01v.01m0 0v.011m0-.011v.011m0 0v.01m0-.01v.01m0 0v.011m0-.011v.011m0 0v.01m0-.01v.01m0 0v.011m0-.011v.011m0 0v.01m0-.01v.01m0 0v.011m0-.011v.011m0 0v.01m0-.01v.01m0 0v.011m0-.011v.011m0 0v.01m0-.01v.01m0 0v.01m0-.01v.01m0 0v.011m0-.011v.011m0 0v.01m0-.01v.01m0 0v.011m0-.011v.011m0 0v.01m0-.01v.01m0 0v.011m0-.011v.011m0 0v.01m0-.01v.01m0 0v.011m0-.011v.011m0 0v.01m0-.01v.01m0 0v.011m0-.011v.011m0 0v.01m0-.01v.01m0 0v.011m0-.011v.011m0 0v.01m0-.01v.01m0 0v.011m0-.011v.011m0 0v.01m0-.01v.01m0 0v.011m0-.011v.011m0 0v.01m0-.01v.01m0 0v.011m0-.011v.011m0 0v.01m0-.01v.01m0 0v.011m0-.011v.011m0 0v.01m0-.01v.01m0 0v.011m0-.011v.011m0 0v.01m0-.01v.01m0 0v.011m0-.011v.011m0 0v.01m0-.01v.01m0 0v.011m0-.011v.011m0 0v.01m0-.01v.01m0 0v.011m0-.011v.011m0 0v.01m0-.01v.01m0 0v.011m0-.011v.011m0 0v.01m0-.01v.01m0 0v.011m0-.011v.011m0 0v.01m0-.01v.01m0 0v.011m0-.011v.011m0 0v.01m0-.01v.01m0 0v.011m0-.011v.011m0 0v.01m0-.01v.01m0 0v.011m0-.011v.011m0 0v.01m0-.01v.01m0 0v.011m0-.011v.011m0 0v.01m0-.01v.01m0 0v.011m0-.011v.011m0 0v.01m0-.01v.01m0 0v.011m0-.011v.011m0 0v.01m0-.01v.01m0 0v.011m0-.011v.011m0 0v.01m0-.01v.01m0 0v.01m0-.01v.01m0 0v.011m0-.011v.011m0 0v.01m0-.01v.01m0 0v.011m0-.011v.011m0 0v.01m0-.01v.01m0 0v.011m0-.011v.011m0 0v.01m0-.01v.01m0 0v.011m0-.011v.011m0 0v.01m0-.01v.01m0 0v.011m0-.011v.011m0 0v.01m0-.01v.01m0 0v.011m0-.011v.011m0 0v.01m0-.01v.01m0 0v.011m0-.011v.011m0 0v.01m0-.01v.01m0 0v.011m0-.011v.011m0 0v.01m0-.01v.01m0 0v.011m0-.011v.011m0 0v.01m0-.01v.01m0 0v.011m0-.011v.011m0 0v.01m0-.01v.01m0 0v.011m0-.011v.011m0 0v.01m0-.01v.01m0 0v.011m0-.011v.011m0 0v.01m0-.01v.01m0 0v.011m0-.011v.011m0 0v.01m0-.01v.01m0 0v.011m0-.011v.011m0 0v.01m0-.01v.01m0 0v.01m0-.01v.01m0 0v.011m0-.011v.011m0 0v.01m0-.01v.01m0 0v.011m0-.011v.011m0 0v.01m0-.01v.01m0 0v.011m0-.011v.011m0 0v.01m0-.01v.01m0 0v.011m0-.011v.011m0 0v.01m0-.01v.01m0 0v.011m0-.011v.011m0 0v.01m0-.01v.01m0 0v.011m0-.011v.011m0 0v.01m0-.01v.01m0 0v.011m0-.011v.011m0 0v.01m0-.01v.01m0 0v.011m0-.011v.011m0 0v.01m0-.01v.01m0 0v.011m0-.011v.011m0 0c0 .246-.003.439-.051.616l.051-.616z" fill="#FEBE10" stroke="#11253E" stroke-width=".8"/>
  <path d="M250.962 128.603v0h7.022l.082-.001a2.99 2.99 0 01.313.002c.047.003.109.008.169.022a.523.523 0 01.252.131.527.527 0 01.142.243c.017.06.026.122.031.168.028.209.051.406.074.599.032.275.063.542.107.82.291 1.789.975 3.4 2.13 4.793.302.355.477.776.449 1.27-.01.181-.011.353-.011.549a.592.592 0 01-.175.434.595.595 0 01-.418.16h-.003 0-.003 0-.004 0-.003 0-.003 0-.003 0-.003 0-.004 0-.003 0-.003 0-.003 0-.004 0-.003 0-.003 0-.004 0-.003 0-.004 0-.003 0-.003 0-.004 0-.003 0-.004 0-.003 0-.004 0-.004 0-.003 0-.004 0-.003 0-.004 0-.004 0-.003 0-.004 0-.004 0-.003 0-.004 0-.004 0-.004 0-.004 0-.003 0-.004 0-.004 0-.004 0-.004 0-.004 0-.004 0-.004 0-.004 0-.003 0-.004 0-.005 0-.004 0-.004 0-.004 0-.004 0-.004 0-.004 0-.004 0-.004 0-.004 0-.005 0-.004 0-.004 0-.004 0-.004 0-.005 0-.004 0-.004 0-.005 0-.004 0-.004 0-.005 0-.004 0-.004 0-.005 0-.004 0-.004 0-.005 0-.004 0-.005 0-.004 0-.005 0-.004 0-.005 0-.004 0-.005 0-.004 0-.005 0-.004 0-.005 0-.004 0-.005 0-.004 0-.005 0-.004 0-.005 0-.004 0-.005 0-.004 0-.005 0-.005 0-.004 0-.005 0-6.153l-3.608-9.19zm0 0l-.013.001.013.399v-.4zm9.876 14.657h.009l.017.001c.111.002.226.004.319.017a.637.637 0 01.384.175c.127.13.156.291.167.387.01.094.01.208.01.32v.017l.002.188c.003.146.005.306-.002.455m-.906-1.56l-6.214.011h-6.102c-.143 0-.312 0-.474.011a.589.589 0 00-.36.13.538.538 0 00-.194.408l-.006.115c-.021.404-.043.855.045 1.308.143.755.756 1.272 1.487 1.356.16.02.329.017.462.015l.102-.002h10.336c.951.013 1.782-.742 1.824-1.792m-.906-1.56h-.001 0-.002 0-.001 0-.002 0-.002 0-.001 0-.002 0-.002 0-.001 0-.002 0-.002 0-.001 0-.002 0-.002 0-.001 0-.002 0-.002 0-.001 0-.002 0-.001 0-.002 0-.002 0-.001 0-.002 0-.002 0-.001 0-.002 0-.001 0-.002 0-.002 0-.001 0-.002 0-.001 0-.002 0-.002 0-.001 0-.002 0-.001 0-.002 0-.001 0-.002 0-.002 0-.001 0-.002 0-.001 0-.002 0-.001 0-.002 0-.001 0-.002 0-.001 0-.002 0-.002 0-.001 0-.002 0-.001 0-.002 0-.001 0-.002 0-.001 0-.002 0-.001 0-.002 0-.001 0-.002 0-.001 0-.002 0-.001 0-.002 0-.002 0-.001 0-.002 0-.001 0-.002 0-.001 0-.002 0-.001 0-.002 0-.001 0-.002 0-.001 0-.002 0-.001 0-.002 0-.001 0-.002 0-.001 0-.002 0-.001 0-.002 0-.001 0-.002 0-.001 0-.002 0-.001 0-.002 0-.001 0-.002 0-.001 0-.002 0-.001 0-.002 0-.001 0-.002 0-.001 0-.002 0-.001 0-.002 0-.001 0-.002 0-.001 0-.002 0-.001 0-.002 0-.001 0-.002 0-.001 0-.002 0-.001 0-.002 0-.001 0-.002 0-.001 0-.002 0-.001 0-.002 0-.001 0-.002 0-.001 0-.002 0-.001 0-.002 0-.001 0-.002 0-.001 0-.002 0-.001 0-.002 0-.001 0-.002 0-.001 0-.002 0-.001 0-.002 0-.002 0-.001 0-.002 0-.001 0-.002 0-.001 0-.002 0-.001 0-.002 0-.001 0-.002 0-.002 0-.001 0-.002 0-.001 0-.002 0-.001 0-.002 0-.001 0-.002 0-.002 0-.001 0-.002 0-.001 0-.002 0-.002 0-.001 0-.002 0-.001 0-.002 0-.002 0-.001 0-.002 0-.001 0-.002 0-.002 0-.001 0-.002 0-.002 0-.001 0-.002 0-.001 0-.002 0-.002 0-.001 0-.002 0-.002 0-.001 0-.002 0-.002 0-.001 0-.002 0-.002 0-.002 0-.001 0-.002 0-.002m.314 0h-.314m1.22 1.56v.003l-.4-.021.4.015v.003zm-1.22-1.56l.002.4-.002-.4z" fill="#fff" stroke="#11253E" stroke-width=".8"/>
  <path d="M259.06 126.193v.001c.272.028.528.126.725.319.198.193.301.447.331.725v.001l-.398.042a2.47 2.47 0 010 .57l-.658-1.658zm0 0h-.011c-.156-.012-.308-.012-.434-.012h-8.113c-.134 0-.288 0-.434.012h0l-.01.001c-.277.03-.529.138-.723.33a1.218 1.218 0 00-.341.714h0l-.001.007a2.922 2.922 0 000 .661h0v.003c.064.544.46.958 1.007 1.038h.002c.179.026.364.026.508.026h8.099l.066.001c.12.002.304.005.472-.03.257-.045.492-.158.67-.349a1.16 1.16 0 00.299-.703l-1.056-1.699z" fill="#E2E2E2" stroke="#11253E" stroke-width=".8"/>
  <path d="M228.396 137.102v.002c-.011 2.498-.022 4.996-.022 7.493 0 .201.019.399.057.587.117.55.526.941 1.072 1.032.177.028.359.038.55.038h5.061l-6.718-9.152zm0 0c0-.649.178-1.208.574-1.727m-.574 1.727h-.4c0-.733.205-1.379.657-1.971m0 0l.316.246.001-.002m-.317-.244l.318.243-.001.001m-.317-.244l.317.244m0 0c1.024-1.318 1.627-2.821 1.949-4.43.11-.548.2-1.121.223-1.7v-.016a.684.684 0 00-.105-.392.604.604 0 00-.436-.252h0-.003a.511.511 0 01-.066-.016 9.907 9.907 0 01-.054-.016h-.001l-.054-.017c-.309-.111-.478-.325-.523-.663h0l-.001-.006a3.087 3.087 0 01-.007-.583c.03-.377.282-.647.671-.707.118-.016.25-.017.405-.017h8.271c.159 0 .277.002.379.024l.011.002.01.001c.359.058.588.294.648.661l.001.001c.034.206.027.422-.003.66h0v.004a.75.75 0 01-.148.391.866.866 0 01-.362.254h0l-.008.004a.18.18 0 00-.024.006.642.642 0 00-.533.343v-.001l-.006.011a.752.752 0 00-.068.419c.004.044.011.088.016.119l.001.009a.686.686 0 01.01.072h0c.078 1 .267 1.97.591 2.929l-10.784 2.906zm12.425.105h0a9.565 9.565 0 01-1.641-3.01l1.641 3.01zm0 0l.006.008m-.006-.008l.006.008m0 0c.028.032.056.067.089.108l.002.003.103.126.001.001m-.195-.238l.195.238m0 0c.194.225.28.492.28.837m-.28-.837l.28.837m0 0v.005m0-.005v.005m0 0v.006m0-.006v.006m0 0v.005m0-.005v.005m0 0v.005m0-.005v.005m0 0v.005m0-.005v.005m0 0v.005m0-.005v.005m0 0v.005m0-.005v.005m0 0v.006m0-.006v.006m0 0v.005m0-.005v.005m0 0v.005m0-.005v.005m0 0v.005m0-.005v.005m0 0v.005m0-.005v.005m0 0v.006m0-.006v.006m0 0v.005m0-.005v.005m0 0v.005m0-.005v.005m0 0v.005m0-.005v.005m0 0v.005m0-.005v.005m0 0v.005m0-.005v.005m0 0v.006m0-.006v.006m0 0v.005m0-.005v.005m0 0v.005m0-.005v.005m0 0v.005m0-.005v.005m0 0v.005m0-.005v.005m0 0v.005m0-.005v.005m0 0v.006m0-.006v.006m0 0v.005m0-.005v.005m0 0v.005m0-.005v.005m0 0v.005m0-.005v.005m0 0v.005m0-.005v.005m0 0v.005m0-.005v.005m0 0v.006m0-.006v.006m0 0v.005m0-.005v.005m0 0v.005m0-.005v.005m0 0v.005m0-.005v.005m0 0v.005m0-.005v.005m0 0v.005m0-.005v.005m0 0v.006m0-.006v.006m0 0v.005m0-.005v.005m0 0v.005m0-.005v.005m0 0v.005m0-.005v.005m0 0v.005m0-.005v.005m0 0v.005m0-.005v.005m0 0v.006m0-.006v.006m0 0v.005m0-.005v.005m0 0v.005m0-.005v.005m0 0v.005m0-.005v.005m0 0v.005m0-.005v.005m0 0v.005m0-.005v.005m0 0v.006m0-.006v.006m0 0v.005m0-.005v.005m0 0v.005m0-.005v.005m0 0v.005m0-.005v.005m0 0v.005m0-.005v.005m0 0v.005m0-.005v.005m0 0v.005m0-.005v.005m0 0v.006m0-.006v.006m0 0v.005m0-.005v.005m0 0v.005m0-.005v.005m0 0v.005m0-.005v.005m0 0v.005m0-.005v.005m0 0v.005m0-.005v.005m0 0v.006m0-.006v.006m0 0v.005m0-.005v.005m0 0v.005m0-.005v.005m0 0v.005m0-.005v.005m0 0v.005m0-.005v.005m0 0v.005m0-.005v.005m0 0v.006m0-.006v.006m0 0v.005m0-.005v.005m0 0v.005m0-.005v.005m0 0v.005m0-.005v.005m0 0v.005m0-.005v.005m0 0v.005m0-.005v.005m0 0v.006m0-.006v.006m0 0v.005m0-.005v.005m0 0v.005m0-.005v.005m0 0v.005m0-.005v.005m0 0v.005m0-.005v.005m0 0v.005m0-.005v.005m0 0v.005m0-.005v.005m0 0v.006m0-.006v.006m0 0v.005m0-.005v.005m0 0v.005m0-.005v.005m0 0v.005m0-.005v.005m0 0v.005m0-.005v.005m0 0v.005m0-.005v.005m0 0v.006m0-.006v.006m0 0v.005m0-.005v.005m0 0v.005m0-.005v.005m0 0v.005m0-.005v.005m0 0v.005m0-.005v.005m0 0v.005m0-.005v.005m0 0v.006m0-.006v.006m0 0v.005m0-.005v.005m0 0v.005m0-.005v.005m0 0v.005m0-.005v.005m0 0v.005m0-.005v.005m0 0v.005m0-.005v.005m0 0v.005m0-.005v.005m0 0v.006m0-.006v.006m0 0v.005m0-.005v.005m0 0v.005m0-.005v.005m0 0v.005m0-.005v.005m0 0v.005m0-.005v.005m0 0v.005m0-.005v.005m0 0v.006m0-.006v.006m0 0v.005m0-.005v.005m0 0v.005m0-.005v.005m0 0v.005m0-.005v.005m0 0v.005m0-.005v.005m0 0v.005m0-.005v.005m0 0v.005m0-.005v.005m0 0v.006m0-.006v.006m0 0v.005m0-.005v.005m0 0v.005m0-.005v.005m0 0v.005m0-.005v.005m0 0v.005m0-.005v.005m0 0v.005m0-.005v.005m0 0v.006m0-.006v.006m0 0v.005m0-.005v.005m0 0v.005m0-.005v.005m0 0v.005m0-.005v.005m0 0v.005m0-.005v.005m0 0v.005m0-.005v.005m0 0v.005m0-.005v.005m0 0v.006m0-.006v.006m0 0v.005m0-.005v.005m0 0v.005m0-.005v.005m0 0v.005m0-.005v.005m0 0v.005m0-.005v.005m0 0v.005m0-.005v.005m0 0v.005m0-.005v.005m0 0v.006m0-.006v.006m0 0v.005m0-.005v.005m0 0v.005m0-.005v.005m0 0v.005m0-.005v.005m0 0v.005m0-.005v.005m0 0v.005m0-.005v.005m0 0v.006m0-.006v.006m0 0v.005m0-.005v.005m0 0v.005m0-.005v.005m0 0v.005m0-.005v.005m0 0v.005m0-.005v.005m0 0v.005m0-.005v.005m0 0v.005m0-.005v.005m0 0v.006m0-.006v.006m0 0v.005m0-.005v.005m0 0v.005m0-.005v.005m0 0v.005m0-.005v.005m0 0v.005m0-.005v.005m0 0v.005m0-.005v.005m0 0v.005m0-.005v.005m0 0v.006m0-.006v.006m0 0v.005m0-.005v.005m0 0v.005m0-.005v.005m0 0v.005m0-.005v.005m0 0v.005m0-.005v.005m0 0v.005m0-.005v.005m0 0v.005m0-.005v.005m0 0v.006m0-.006v.006m0 0v.005m0-.005v.005m0 0v.005m0-.005v.005m0 0v.005m0-.005v.005m0 0v.005m0-.005v.005m0 0v.005m0-.005v.005m0 0v.006m0-.006v.006m0 0v.005m0-.005v.005m0 0v.005m0-.005v.005m0 0v.005m0-.005v.005m0 0v.005m0-.005v.005m0 0v.005m0-.005v.005m0 0v.005m0-.005v.005m0 0v.006m0-.006v.006m0 0v.005m0-.005v.005m0 0v.005m0-.005v.005m0 0v.005m0-.005v.005m0 0v.005m0-.005v.005m0 0v.005m0-.005v.005m0 0v.005m0-.005v.005m0 0v.006m0-.006v.006m0 0v.005m0-.005v.005m0 0v.005m0-.005v.005m0 0v.005m0-.005v.005m0 0v.005m0-.005v.005m0 0v.005m0-.005v.005m0 0v.005m0-.005v.005m0 0v.006m0-.006v.006m0 0v.005m0-.005v.005m0 0v.005m0-.005v.005m0 0v.005m0-.005v.005m0 0v.005m0-.005v.005m0 0v.005m0-.005v.005m0 0v.005m0-.005v.005m0 0v.006m0-.006v.006m0 0v.005m0-.005v.005m0 0v.005m0-.005v.005m0 0v.005m0-.005v.005m0 0v.005m0-.005v.005m0 0v.005m0-.005v.005m0 0v.005m0-.005v.005m0 0v.006m0-.006v.006m0 0v.005m0-.005v.005m0 0v.005m0-.005v.005m0 0v.005m0-.005v.005m0 0v.005m0-.005v.005m0 0v.005m0-.005v.005m0 0v.005m0-.005v.005m0 0v.006m0-.006v.006m0 0v.005m0-.005v.005m0 0v.005m0-.005v.005m0 0v.005m0-.005v.005m0 0v.005m0-.005v.005m0 0v.005m0-.005v.005m0 0v.005m0-.005v.005m0 0v.006m0-.006v.006m0 0v.005m0-.005v.005m0 0v.005m0-.005v.005m0 0v.005m0-.005v.005m0 0v.005m0-.005v.005m0 0v.005m0-.005v.005m0 0v.005m0-.005v.005m0 0v.006m0-.006v.006m0 0v.005m0-.005v.005m0 0v.005m0-.005v.005m0 0v.005m0-.005v.005m0 0v.005m0-.005v.005m0 0v.005m0-.005v.005m0 0v.005m0-.005v.005m0 0v.006m0-.006v.006m0 0v.005m0-.005v.005m0 0v.005m0-.005v.005m0 0v.005m0-.005v.005m0 0v.005m0-.005v.005m0 0v.005m0-.005v.005m0 0v.005m0-.005v.005m0 0v.006m0-.006v.006m0 0v.005m0-.005v.005m0 0v.005m0-.005v.005m0 0v.005m0-.005v.005m0 0v.005m0-.005v.005m0 0v.005m0-.005v.005m0 0v.005m0-.005v.005m0 0v.006m0-.006v.006m0 0v.005m0-.005v.005m0 0v.005m0-.005v.005m0 0v.005m0-.005v.005m0 0v.005m0-.005v.005m0 0v.005m0-.005v.005m0 0v.005m0-.005v.005m0 0v.006m0-.006v.006m0 0v.005m0-.005v.005m0 0v.005m0-.005v.005m0 0v.005m0-.005v.005m0 0v.005m0-.005v.005m0 0v.005m0-.005v.005m0 0v.005m0-.005v.005m0 0v.006m0-.006v.006m0 0v.005m0-.005v.005m0 0v.005m0-.005v.005m0 0v.005m0-.005v.005m0 0v.005m0-.005v.005m0 0v.005m0-.005v.005m0 0v.005m0-.005v.005m0 0v.006m0-.006v.006m0 0v.005m0-.005v.005m0 0v.005m0-.005v.005m0 0v.005m0-.005v.005m0 0v.005m0-.005v.005m0 0v.005m0-.005v.005m0 0v.005m0-.005v.005m0 0v.006m0-.006v.006m0 0v.005m0-.005v.005m0 0v.005m0-.005v.005m0 0v.005m0-.005v.005m0 0v.005m0-.005v.005m0 0v.005m0-.005v.005m0 0v.005m0-.005v.005m0 0v.006m0-.006v.006m0 0v.005m0-.005v.005m0 0v.005m0-.005v.005m0 0v.005m0-.005v.005m0 0v.005m0-.005v.005m0 0v.005m0-.005v.005m0 0v.005m0-.005v.005m0 0v.006m0-.006v.006m0 0v.005m0-.005v.005m0 0v.005m0-.005v.005m0 0v.005m0-.005v.005m0 0v.005m0-.005v.005m0 0v.005m0-.005v.005m0 0v.005m0-.005v.005m0 0v.006m0-.006v.006m0 0v.005m0-.005v.005m0 0v.005m0-.005v.005m0 0v.005m0-.005v.005m0 0v.005m0-.005v.005m0 0v.005m0-.005v.005m0 0v.005m0-.005v.005m0 0v.006m0-.006v.006m0 0v.005m0-.005v.005m0 0v.005m0-.005v.005m0 0v.005m0-.005v.005m0 0v.005m0-.005v.005m0 0v.005m0-.005v.005m0 0v.006m0-.006v.006m0 0v.005m0-.005v.005m0 0v.005m0-.005v.005m0 0v.005m0-.005v.005m0 0v.005m0-.005v.005m0 0v.005m0-.005v.005m0 0v.005m0-.005v.005m0 0v.006m0-.006v.006m0 0v.005m0-.005v.005m0 0v.005m0-.005v.005m0 0v.005m0-.005v.005m0 0v.005m0-.005v.005m0 0v.005m0-.005v.005m0 0v.005m0-.005v.005m0 0v.006m0-.006v.006m0 0v.005m0-.005v.005m0 0v.005m0-.005v.005m0 0v.005m0-.005v.005m0 0v.005m0-.005v.005m0 0v.005m0-.005v.005m0 0v.005m0-.005v.005m0 0v.006m0-.006v.006m0 0v.005m0-.005v.005m0 0v.005m0-.005v.005m0 0v.005m0-.005v.005m0 0v.005m0-.005v.005m0 0v.005m0-.005v.005m0 0v.005m0-.005v.005m0 0v.006m0-.006v.006m0 0v.005m0-.005v.005m0 0v.005m0-.005v.005m0 0v.005m0-.005v.005m0 0v.005m0-.005v.005m0 0v.005m0-.005v.005m0 0v.005m0-.005v.005m0 0v.006m0-.006v.006m0 0v.005m0-.005v.005m0 0v.005m0-.005v.005m0 0v.005m0-.005v.005m0 0v.005m0-.005v.005m0 0v.005m0-.005v.005m0 0v.005m0-.005v.005m0 0v.006m0-.006v.006m0 0v.005m0-.005v.005m0 0v.005m0-.005v.005m0 0v.005m0-.005v.005m0 0v.005m0-.005v.005m0 0v.005m0-.005v.005m0 0v.005m0-.005v.005m0 0v.006m0-.006v.006m0 0v.005m0-.005v.005m0 0v.005m0-.005v.005m0 0v.005m0-.005v.005m0 0v.005m0-.005v.005m0 0v.005m0-.005v.005m0 0v.006m0-.006v.006m0 0v.005m0-.005v.005m0 0v.005m0-.005v.005m0 0v.005m0-.005v.005m0 0v.005m0-.005v.005m0 0v.005m0-.005v.005m0 0v.005m0-.005v.005m0 0v.006m0-.006v.006m0 0v.005m0-.005v.005m0 0v.005m0-.005v.005m0 0v.005m0-.005v.005m0 0v.005m0-.005v.005m0 0v.005m0-.005v.005m0 0v.005m0-.005v.005m0 0v.006m0-.006v.006m0 0v.005m0-.005v.005m0 0v.005m0-.005v.005m0 0v.005m0-.005v.005m0 0v.005m0-.005v.005m0 0v.005m0-.005v.005m0 0v.005m0-.005v.005m0 0v.006m0-.006v.006m0 0v.005m0-.005v.005m0 0v.005m0-.005v.005m0 0v.005m0-.005v.005m0 0v.005m0-.005v.005m0 0v.005m0-.005v.005m0 0v.006m0-.006v.006m0 0v.005m0-.005v.005m0 0v.005m0-.005v.005m0 0v.005m0-.005v.005m0 0v.005m0-.005v.005m0 0v.005m0-.005v.005m0 0v.005m0-.005v.005m0 0v.006m0-.006v.006m0 0v.005m0-.005v.005m0 0v.005m0-.005v.005m0 0v.005m0-.005v.005m0 0v.005m0-.005v.005m0 0v.005m0-.005v.005m0 0v.006m0-.006v.006m0 0v.005m0-.005v.005m0 0v.005m0-.005v.005m0 0v.005m0-.005v.005m0 0v.005m0-.005v.005m0 0v.005m0-.005v.005m0 0v.005m0-.005v.005m0 0v.006m0-.006v.006m0 0v.005m0-.005v.005m0 0v.005m0-.005v.005m0 0v.005m0-.005v.005m0 0v.005m0-.005v.005m0 0v.005m0-.005v.005m0 0v.006m0-.006v.006m0 0v.005m0-.005v.005m0 0v.005m0-.005v.005m0 0v.005m0-.005v.005m0 0v.005m0-.005v.005m0 0v.005m0-.005v.005m0 0v.005m0-.005v.005m0 0v.006m0-.006v.006m0 0v.005m0-.005v.005m0 0v.005m0-.005v.005m0 0v.005m0-.005v.005m0 0v.005m0-.005v.005m0 0v.005m0-.005v.005m0 0v.006m0-.006v.006m0 0v.005m0-.005v.005m0 0v.005m0-.005v.005m0 0v.005m0-.005v.005m0 0v.005m0-.005v.005m0 0v.005m0-.005v.005m0 0v.005m0-.005v.005m0 0v.006m0-.006v.006m0 0v.005m0-.005v.005m0 0v.005m0-.005v.005m0 0v.005m0-.005v.005m0 0v.005m0-.005v.005m0 0v.005m0-.005v.005m0 0v.006m0-.006v.006m0 0v.005m0-.005v.005m0 0v.005m0-.005v.005m0 0v.005m0-.005v.005m0 0v.005m0-.005v.005m0 0v.005m0-.005v.005m0 0v.006m0-.006v.006m0 0v.005m0-.005v.005m0 0v.005m0-.005v.005m0 0v.005m0-.005v.005m0 0v.005m0-.005v.005m0 0v.005m0-.005v.005m0 0v.006m0-.006v.006m0 0v.005m0-.005v.005m0 0v.005m0-.005v.005m0 0v.005m0-.005v.005m0 0v.005m0-.005v.005m0 0v.005m0-.005v.005m0 0v.005m0-.005v.005m0 0v.006m0-.006v.006m0 0v.005m0-.005v.005m0 0v.005m0-.005v.005m0 0v.005m0-.005v.005m0 0v.005m0-.005v.005m0 0v.005m0-.005v.005m0 0v.006m0-.006v.006m0 0v.005m0-.005v.005m0 0v.005m0-.005v.005m0 0v.005m0-.005v.005m0 0v.005m0-.005v.005m0 0v.005m0-.005v.005m0 0v.006m0-.006v.006m0 0v.005m0-.005v.005m0 0v.005m0-.005v.005m0 0V139m0-.005V139m0 0v.005m0-.005v.005m0 0v.005m0-.005v.005m0 0v.006m0-.006v.006m0 0v.005m0-.005v.005m0 0v.005m0-.005v.005m0 0v.005m0-.005v.005m0 0v.005m0-.005v.005m0 0v.005m0-.005v.005m0 0v.006m0-.006v.006m0 0v.005m0-.005v.005m0 0v.005m0-.005v.005m0 0v.005m0-.005v.005m0 0v.005m0-.005v.005m0 0v.005m0-.005v.005m0 0v.006m0-.006v.006m0 0v.005m0-.005v.005m0 0v.005m0-.005v.005m0 0v.005m0-.005v.005m0 0v.005m0-.005v.005m0 0v.005m0-.005v.005m0 0v.006m0-.006v.006m0 0v.005m0-.005v.005m0 0v.005m0-.005v.005m0 0v.005m0-.005v.005m0 0v.005m0-.005v.005m0 0v.005m0-.005v.005m0 0v.006m0-.006v.006m0 0v.005m0-.005v.005m0 0v.005m0-.005v.005m0 0v.005m0-.005v.005m0 0v.005m0-.005v.005m0 0v.006m0-.006v.006m0 0v.005m0-.005v.005m0 0v.005m0-.005v.005m0 0v.005m0-.005v.005m0 0v.005m0-.005v.005m0 0v.005m0-.005v.005m0 0v.006m0-.006v.006m0 0v.005m0-.005v.005m0 0v.01m0-.01v.01m0 0v.011m0-.011v.011m0 0v.01m0-.01v.01m0 0v.011m0-.011v.011m0 0v.01m0-.01v.01m0 0v.011m0-.011v.011m0 0v.01m0-.01v.01m0 0v.011m0-.011v.011m0 0v.01m0-.01v.01m0 0v.01m0-.01v.01m0 0v.011m0-.011v.011m0 0v.01m0-.01v.01m0 0v.011m0-.011v.011m0 0v.01m0-.01v.01m0 0v.011m0-.011v.011m0 0v.01m0-.01v.01m0 0v.011m0-.011v.011m0 0v.01m0-.01v.01m0 0v.011m0-.011v.011m0 0v.01m0-.01v.01m0 0v.011m0-.011v.011m0 0v.01m0-.01v.01m0 0v.011m0-.011v.011m0 0v.01m0-.01v.01m0 0v.011m0-.011v.011m0 0v.01m0-.01v.01m0 0v.011m0-.011v.011m0 0v.01m0-.01v.01m0 0v.011m0-.011v.011m0 0v.01m0-.01v.01m0 0v.011m0-.011v.011m0 0v.01m0-.01v.01m0 0v.011m0-.011v.011m0 0v.01m0-.01v.01m0 0v.01m0-.01v.01m0 0v.011m0-.011v.011m0 0v.01m0-.01v.01m0 0v.011m0-.011v.011m0 0v.01m0-.01v.01m0 0v.011m0-.011v.011m0 0v.01m0-.01v.01m0 0v.011m0-.011v.011m0 0v.01m0-.01v.01m0 0v.011m0-.011v.011m0 0v.01m0-.01v.01m0 0v.011m0-.011v.011m0 0v.01m0-.01v.01m0 0v.011m0-.011v.011m0 0v.01m0-.01v.01m0 0v.011m0-.011v.011m0 0v.01m0-.01v.01m0 0v.011m0-.011v.011m0 0v.01m0-.01v.01m0 0v.011m0-.011v.011m0 0v.01m0-.01v.01m0 0v.011m0-.011v.011m0 0v.01m0-.01v.01m0 0v.011m0-.011v.011m0 0v.01m0-.01v.01m0 0v.011m0-.011v.011m0 0v.01m0-.01v.01m0 0v.011m0-.011v.011m0 0v.01m0-.01v.01m0 0v.011m0-.011v.011m0 0v.01m0-.01v.01m0 0v.011m0-.011v.011m0 0v.01m0-.01v.01m0 0v.011m0-.011v.011m0 0v.01m0-.01v.01m0 0v.011m0-.011v.011m0 0v.01m0-.01v.01m0 0v.01m0-.01v.01m0 0v.011m0-.011v.011m0 0v.01m0-.01v.01m0 0v.011m0-.011v.011m0 0v.01m0-.01v.01m0 0v.011m0-.011v.011m0 0v.01m0-.01v.01m0 0v.011m0-.011v.011m0 0v.01m0-.01v.01m0 0v.011m0-.011v.011m0 0v.01m0-.01v.01m0 0v.011m0-.011v.011m0 0v.01m0-.01v.01m0 0v.011m0-.011v.011m0 0v.01m0-.01v.01m0 0v.011m0-.011v.011m0 0v.01m0-.01v.01m0 0v.011m0-.011v.011m0 0v.01m0-.01v.01m0 0v.011m0-.011v.011m0 0v.01m0-.01v.01m0 0v.011m0-.011v.011m0 0v.01m0-.01v.01m0 0v.011m0-.011v.011m0 0v.01m0-.01v.01m0 0v.011m0-.011v.011m0 0v.01m0-.01v.01m0 0v.011m0-.011v.011m0 0v.01m0-.01v.01m0 0v.011m0-.011v.011m0 0v.01m0-.01v.01m0 0v.011m0-.011v.011m0 0v.01m0-.01v.01m0 0v.011m0-.011v.011m0 0v.01m0-.01v.01m0 0v.011m0-.011v.011m0 0v.01m0-.01v.01m0 0v.011m0-.011v.011m0 0v.01m0-.01v.01m0 0v.011m0-.011v.011m0 0v.01m0-.01v.01m0 0v.011m0-.011v.011m0 0v.01m0-.01v.01m0 0v.011m0-.011v.011m0 0v.01m0-.01v.01m0 0v.011m0-.011v.011m0 0v.01m0-.01v.01m0 0v.011m0-.011v.011m0 0v.01m0-.01v.01m0 0v.011m0-.011v.011m0 0v.01m0-.01v.01m0 0v.011m0-.011v.011m0 0v.01m0-.01v.01m0 0v.011m0-.011v.011m0 0v.01m0-.01v.01m0 0v.011m0-.011v.011m0 0v.01m0-.01v.01m0 0v.011m0-.011v.011m0 0v.01m0-.01v.01m0 0v.011m0-.011v.011m0 0v.01m0-.01v.01m0 0v.011m0-.011v.011m0 0v.01m0-.01v.01m0 0v.011m0-.011v.011m0 0v.01m0-.01v.01m0 0v.011m0-.011v.011m0 0v.01m0-.01v.01m0 0v.011m0-.011v.011m0 0v.01m0-.01v.01m0 0v.011m0-.011v.011m0 0v.01m0-.01v.01m0 0v.011m0-.011v.011m0 0v.01m0-.01v.01m0 0v.011m0-.011v.011m0 0v.01m0-.01v.01m0 0v.011m0-.011v.011m0 0v.01m0-.01v.01m0 0v.011m0-.011v.011m0 0v.01m0-.01v.01m0 0v.011m0-.011v.011m0 0v.01m0-.01v.01m0 0v.011m0-.011v.011m0 0v.01m0-.01v.01m0 0v.011m0-.011v.011m0 0v.01m0-.01v.01m0 0v.011m0-.011v.011m0 0v.01m0-.01v.01m0 0v.011m0-.011v.011m0 0v.01m0-.01v.01m0 0v.011m0-.011v.011m0 0v.01m0-.01v.01m0 0v.011m0-.011v.011m0 0v.01m0-.01v.01m0 0v.011m0-.011v.011m0 0v.01m0-.01v.01m0 0v.011m0-.011v.011m0 0v.01m0-.01v.01m0 0v.011m0-.011v.011m0 0v.01m0-.01v.01m0 0v.011m0-.011v.011m0 0v.01m0-.01v.01m0 0v.011m0-.011v.011m0 0v.01m0-.01v.01m0 0v.011m0-.011v.011m0 0v.01m0-.01v.01m0 0v.011m0-.011v.011m0 0v.01m0-.01v.01m0 0v.011m0-.011v.011m0 0v.01m0-.01v.01m0 0v.011m0-.011v.011m0 0v.01m0-.01v.01m0 0v.011m0-.011v.011m0 0v.01m0-.01v.01m0 0v.011m0-.011v.011m0 0v.01m0-.01v.01m0 0v.011m0-.011v.011m0 0v.01m0-.01v.01m0 0v.011m0-.011v.011m0 0v.01m0-.01v.01m0 0v.011m0-.011v.011m0 0v.01m0-.01v.01m0 0v.011m0-.011v.011m0 0v.01m0-.01v.01m0 0v.011m0-.011v.011m0 0v.01m0-.01v.01m0 0v.011m0-.011v.011m0 0v.01m0-.01v.01m0 0v.011m0-.011v.011m0 0v.01m0-.01v.01m0 0v.011m0-.011v.011m0 0v.01m0-.01v.01m0 0v.011m0-.011v.011m0 0v.01m0-.01v.01m0 0v.011m0-.011v.011m0 0v.01m0-.01v.01m0 0v.011m0-.011v.011m0 0v.01m0-.01v.01m0 0v.011m0-.011v.011m0 0v.01m0-.01v.01m0 0v.011m0-.011v.011m0 0v.01m0-.01v.01m0 0v.011m0-.011v.011m0 0v.01m0-.01v.01m0 0v.011m0-.011v.011m0 0v.01m0-.01v.01m0 0v.011m0-.011v.011m0 0v.01m0-.01v.01m0 0v.011m0-.011v.011m0 0v.01m0-.01v.01m0 0v.011m0-.011v.011m0 0v.01m0-.01v.01m0 0v.011m0-.011v.011m0 0v.01m0-.01v.01m0 0v.011m0-.011v.011m0 0v.01m0-.01v.01m0 0v.011m0-.011v.011m0 0v.01m0-.01v.01m0 0v.011m0-.011v.011m0 0v.01m0-.01v.01m0 0v.011m0-.011v.011m0 0v.011m0-.011v.011m0 0v.01m0-.01v.01m0 0v.011m0-.011v.011m0 0v.01m0-.01v.01m0 0v.011m0-.011v.011m0 0v.01m0-.01v.01m0 0v.011m0-.011v.011m0 0v.01m0-.01v.01m0 0v.011m0-.011v.011m0 0v.01m0-.01v.01m0 0v.011m0-.011v.011m0 0v.01m0-.01v.01m0 0v.011m0-.011v.011m0 0v.01m0-.01v.01m0 0v.011m0-.011v.011m0 0v.01m0-.01v.01m0 0v.011m0-.011v.011m0 0v.01m0-.01v.01m0 0v.011m0-.011v.011m0 0v.01m0-.01v.01m0 0v.011m0-.011v.011m0 0v.01m0-.01v.01m0 0v.011m0-.011v.011m0 0v.01m0-.01v.01m0 0v.011m0-.011v.011m0 0v.01m0-.01v.01m0 0v.011m0-.011v.011m0 0v.01m0-.01v.01m0 0v.011m0-.011v.011m0 0v.01m0-.01v.01m0 0v.011m0-.011v.011m0 0v.01m0-.01v.01m0 0v.011m0-.011v.011m0 0v.01m0-.01v.01m0 0v.011m0-.011v.011m0 0v.01m0-.01v.01m0 0v.011m0-.011v.011m0 0v.01m0-.01v.01m0 0v.011m0-.011v.011m0 0v.01m0-.01v.01m0 0v.011m0-.011v.011m0 0v.01m0-.01v.01m0 0v.011m0-.011v.011m0 0v.01m0-.01v.01m0 0v.011m0-.011v.011m0 0v.01m0-.01v.01m0 0v.011m0-.011v.011m0 0v.01m0-.01v.01m0 0v.011m0-.011v.011m0 0v.01m0-.01v.01m0 0v.011m0-.011v.011m0 0v.01m0-.01v.01m0 0v.011m0-.011v.011m0 0v.01m0-.01v.01m0 0v.011m0-.011v.011m0 0v.01m0-.01v.01m0 0v.011m0-.011v.011m0 0v.01m0-.01v.01m0 0v.011m0-.011v.011m0 0v.01m0-.01v.01m0 0v.011m0-.011v.011m0 0v.01m0-.01v.01m0 0v.011m0-.011v.011m0 0v.01m0-.01v.01m0 0v.011m0-.011v.011m0 0v.01m0-.01v.01m0 0v.011m0-.011v.011m0 0v.01m0-.01v.01m0 0v.011m0-.011v.011m0 0v.01m0-.01v.01m0 0v.011m0-.011v.011m0 0v.01m0-.01v.01m0 0v.011m0-.011v.011m0 0v.01m0-.01v.01m0 0v.011m0-.011v.011m0 0v.01m0-.01v.01m0 0v.011m0-.011v.011m0 0v.01m0-.01v.01m0 0v.011m0-.011v.011m0 0v.01m0-.01v.01m0 0v.011m0-.011v.011m0 0v.01m0-.01v.01m0 0v.011m0-.011v.011m0 0v.01m0-.01v.01m0 0v.011m0-.011v.011m0 0v.011m0-.011v.011m0 0v.01m0-.01v.01m0 0v.011m0-.011v.011m0 0v.01m0-.01v.01m0 0v.011m0-.011v.011m0 0v.01m0-.01v.01m0 0v.011m0-.011v.011m0 0v.01m0-.01v.01m0 0v.011m0-.011v.011m0 0v.01m0-.01v.01m0 0v.011m0-.011v.011m0 0v.01m0-.01v.01m0 0v.011m0-.011v.011m0 0v.01m0-.01v.01m0 0v.011m0-.011v.011m0 0v.01m0-.01v.01m0 0v.011m0-.011v.011m0 0v.01m0-.01v.01m0 0v.011m0-.011v.011m0 0v.01m0-.01v.01m0 0v.011m0-.011v.011m0 0v.01m0-.01v.01m0 0v.011m0-.011v.011m0 0v.01m0-.01v.01m0 0v.011m0-.011v.011m0 0v.01m0-.01v.01m0 0v.011m0-.011v.011m0 0v.01m0-.01v.01m0 0v.011m0-.011v.011m0 0v.01m0-.01v.01m0 0v.011m0-.011v.011m0 0v.01m0-.01v.01m0 0v.011m0-.011v.011m0 0v.01m0-.01v.01m0 0v.011m0-.011v.011m0 0v.01m0-.01v.01m0 0v.011m0-.011v.011m0 0v.01m0-.01v.01m0 0v.011m0-.011v.011m0 0v.01m0-.01v.01m0 0v.011m0-.011v.011m0 0v.01m0-.01v.01m0 0v.011m0-.011v.011m0 0v.01m0-.01v.01m0 0v.011m0-.011v.011m0 0v.01m0-.01v.01m0 0v.011m0-.011v.011m0 0v.01m0-.01v.01m0 0v.011m0-.011v.011m0 0v.01m0-.01v.01m0 0v.011m0-.011v.011m0 0v.01m0-.01v.01m0 0v.011m0-.011v.011m0 0v.01m0-.01v.01m0 0v.011m0-.011v.011m0 0v.01m0-.01v.01m0 0v.011m0-.011v.011m0 0v.01m0-.01v.01m0 0v.011m0-.011v.011m0 0v.01m0-.01v.01m0 0v.011m0-.011v.011m0 0v.01m0-.01v.01m0 0v.011m0-.011v.011m0 0v.01m0-.01v.01m0 0v.011m0-.011v.011m0 0v.01m0-.01v.01m0 0v.011m0-.011v.011m0 0v.01m0-.01v.01m0 0v.011m0-.011v.011m0 0v.01m0-.01v.01m0 0v.011m0-.011v.011m0 0v.01m0-.01v.01m0 0v.011m0-.011v.011m0 0v.01m0-.01v.01m0 0v.011m0-.011v.011m0 0v.01m0-.01v.01m0 0v.011m0-.011v.011m0 0v.01m0-.01v.01m0 0v.011m0-.011v.011m0 0v.01m0-.01v.01m0 0v.011m0-.011v.011m0 0v.01m0-.01v.01m0 0v.011m0-.011v.011m0 0v.01m0-.01v.01m0 0v.011m0-.011v.011m0 0v.01m0-.01v.01m0 0v.011m0-.011v.011m0 0v.01m0-.01v.01m0 0v.011m0-.011v.011m0 0v.01m0-.01v.01m0 0v.011m0-.011v.011m0 0v.01m0-.01v.01m0 0v.011m0-.011v.011m0 0v.01m0-.01v.01m0 0v.011m0-.011v.011m0 0v.01m0-.01v.01m0 0v.011m0-.011v.011m0 0v.01m0-.01v.01m0 0v.011m0-.011v.011m0 0v.01m0-.01v.01m0 0v.011m0-.011v.011m0 0v.01m0-.01v.01m0 0v.01m0-.01v.01m0 0v.011m0-.011v.011m0 0v.01m0-.01v.01m0 0v.011m0-.011v.011m0 0v.01m0-.01v.01m0 0v.011m0-.011v.011m0 0v.01m0-.01v.01m0 0v.011m0-.011v.011m0 0v.01m0-.01v.01m0 0v.011m0-.011v.011m0 0v.01m0-.01v.01m0 0v.011m0-.011v.011m0 0v.01m0-.01v.01m0 0v.011m0-.011v.011m0 0v.01m0-.01v.01m0 0v.011m0-.011v.011m0 0v.01m0-.01v.01m0 0v.011m0-.011v.011m0 0v.01m0-.01v.01m0 0v.011m0-.011v.011m0 0v.01m0-.01v.01m0 0v.011m0-.011v.011m0 0v.01m0-.01v.01m0 0v.011m0-.011v.011m0 0v.01m0-.01v.01m0 0v.011m0-.011v.011m0 0v.01m0-.01v.01m0 0v.011m0-.011v.011m0 0v.01m0-.01v.01m0 0v.011m0-.011v.011m0 0v.01m0-.01v.01m0 0v.011m0-.011v.011m0 0v.01m0-.01v.01m0 0v.011m0-.011v.011m0 0v.01m0-.01v.01m0 0v.011m0-.011v.011m0 0v.01m0-.01v.01m0 0v.011m0-.011v.011m0 0v.01m0-.01v.01m0 0v.011m0-.011v.011m0 0v.01m0-.01v.01m0 0v.011m0-.011v.011m0 0v.01m0-.01v.01m0 0v.011m0-.011v.011m0 0v.01m0-.01v.01m0 0v.011m0-.011v.011m0 0v.01m0-.01v.01m0 0v.01m0-.01v.01m0 0v.011m0-.011v.011m0 0v.01m0-.01v.01m0 0v.011m0-.011v.011m0 0v.01m0-.01v.01m0 0v.011m0-.011v.011m0 0v.01m0-.01v.01m0 0v.011m0-.011v.011m0 0v.01m0-.01v.01m0 0v.011m0-.011v.011m0 0v.01m0-.01v.01m0 0v.011m0-.011v.011m0 0v.01m0-.01v.01m0 0v.011m0-.011v.011m0 0v.01m0-.01v.01m0 0v.011m0-.011v.011m0 0v.01m0-.01v.01m0 0v.011m0-.011v.011m0 0v.01m0-.01v.01m0 0v.011m0-.011v.011m0 0v.01m0-.01v.01m0 0v.011m0-.011v.011m0 0v.01m0-.01v.01m0 0v.011m0-.011v.011m0 0v.01m0-.01v.01m0 0v.011m0-.011v.011m0 0v.01m0-.01v.01m0 0v.011m0-.011v.011m0 0v.01m0-.01v.01m0 0v.01m0-.01v.01m0 0v.011m0-.011v.011m0 0v.01m0-.01v.01m0 0v.011m0-.011v.011m0 0v.01m0-.01v.01m0 0v.011m0-.011v.011m0 0v.01m0-.01v.01m0 0v.011m0-.011v.011m0 0v.01m0-.01v.01m0 0v.011m0-.011v.011m0 0v.01m0-.01v.01m0 0v.011m0-.011v.011m0 0v.01m0-.01v.01m0 0v.011m0-.011v.011m0 0v.01m0-.01v.01m0 0v.011m0-.011v.011m0 0v.01m0-.01v.01m0 0v.011m0-.011v.011m0 0c0 .246-.002.439-.051.616l.051-.616z" fill="#FEBE10" stroke="#11253E" stroke-width=".8"/>
  <path d="M231.496 128.603v0h7.021l.082-.001a3.01 3.01 0 01.314.002c.046.003.108.008.169.022a.525.525 0 01.251.131.54.54 0 01.143.243c.017.06.025.122.03.168.029.209.052.406.074.599.032.275.063.542.107.82.292 1.789.975 3.4 2.13 4.793.302.355.477.776.449 1.27-.01.181-.01.353-.01.549a.594.594 0 01-.176.434.595.595 0 01-.418.16h-.002 0-.004 0-.003 0-.003 0-.003 0-.003 0-.003 0-.004 0-.003 0-.003 0-.004 0-.003 0-.003 0-.004 0-.003 0-.003 0-.004 0-.003 0-.004 0-.003 0-.004 0-.003 0-.004 0-.003 0-.004 0-.003 0-.004 0-.003 0-.004 0-.004 0-.003 0-.004 0-.004 0-.003 0-.004 0-.004 0-.004 0-.004 0-.003 0-.004 0-.004 0-.004 0-.004 0-.004 0-.004 0-.004 0-.004 0-.003 0-.004 0-.004 0-.005 0-.004 0-.004 0-.004 0-.004 0-.004 0-.004 0-.004 0-.004 0-.005 0-.004 0-.004 0-.004 0-.004 0-.005 0-.004 0-.004 0-.004 0-.005 0-.004 0-.004 0-.005 0-.004 0-.005 0-.004 0-.004 0-.005 0-.004 0-.005 0-.004 0-.004 0-.005 0-.004 0-.005 0-.004 0-.005 0-.004 0-.005 0-.004 0-.005 0-.004 0-.005 0-.005 0-.004 0-.005 0-.004 0-.005 0-.004 0-.005 0-.004 0-.005 0-.005 0-.004 0-6.15l-3.607-9.19zm0 0l-.014.001.014.399v-.4zm9.875 14.657h.009l.017.001c.111.002.226.005.319.017a.64.64 0 01.384.175.639.639 0 01.167.387c.01.094.01.209.01.32v.017l.003.188c.002.146.005.307-.003.455m-.906-1.56l-6.214.011h-6.102c-.143 0-.312 0-.473.011a.58.58 0 00-.36.131.536.536 0 00-.195.407l-.006.115c-.02.404-.043.855.045 1.308.143.755.757 1.273 1.487 1.356.16.02.329.017.462.015l.102-.001h10.336c.951.012 1.782-.742 1.824-1.793m-.906-1.56h0-.002 0-.002 0-.001 0-.002 0-.002 0-.001 0-.002 0-.002 0-.001 0-.002 0-.002 0-.001 0-.002 0-.002 0-.001 0-.002 0-.002 0-.001 0-.002 0-.002 0-.001 0-.002 0-.001 0-.002 0-.002 0-.001 0-.002 0-.001 0-.002 0-.002 0-.001 0-.002 0-.001 0-.002 0-.002 0-.001 0-.002 0-.001 0-.002 0-.001 0-.002 0-.002 0-.001 0-.002 0-.001 0-.002 0-.001 0-.002 0-.001 0-.002 0-.002 0-.001 0-.002 0-.001 0-.002 0-.001 0-.002 0-.001 0-.002 0-.001 0-.002 0-.001 0-.002 0-.001 0-.002 0-.001 0-.002 0-.002 0-.001 0-.002 0-.001 0-.002 0-.001 0-.002 0-.001 0-.002 0-.001 0-.002 0-.001 0-.002 0-.001 0-.002 0-.001 0-.002 0-.001 0-.002 0-.001 0-.002 0-.001 0-.002 0-.001 0-.002 0-.001 0-.002 0-.001 0-.002 0-.001 0-.002 0-.001 0-.002 0-.001 0-.002 0-.001 0-.002 0-.001 0-.002 0-.001 0-.002 0-.001 0-.002 0-.001 0-.002 0-.001 0-.002 0-.001 0-.002 0-.001 0-.002 0-.001 0-.002 0-.001 0-.002 0-.001 0-.002 0-.001 0-.002 0-.001 0-.002 0-.001 0-.002 0-.001 0-.002 0-.001 0-.002 0-.001 0-.002 0-.001 0-.002 0-.001 0-.002 0-.001 0-.002 0-.001 0-.002 0-.002 0-.001 0-.002 0-.001 0-.002 0-.001 0-.002 0-.001 0-.002 0-.001 0-.002 0-.002 0-.001 0-.002 0-.001 0-.002 0-.001 0-.002 0-.002 0-.001 0-.002 0-.001 0-.002 0-.001 0-.002 0-.002 0-.001 0-.002 0-.001 0-.002 0-.002 0-.001 0-.002 0-.001 0-.002 0-.002 0-.001 0-.002 0-.002 0-.001 0-.002 0-.002 0-.001 0-.002 0-.002 0-.001 0-.002 0-.002 0-.001 0-.002 0-.002 0-.001 0-.002 0-.002 0-.001 0-.003m.314 0h-.314m1.22 1.56v.003l-.4-.021.4.015v.003zm-1.22-1.56l.002.4-.002-.4z" fill="#fff" stroke="#11253E" stroke-width=".8"/>
  <path d="M239.593 126.193v.001c.272.028.528.126.725.319.198.193.302.447.331.725v.001l-.398.042a2.47 2.47 0 010 .57l-.658-1.658zm0 0h-.011c-.155-.012-.308-.012-.434-.012h-8.112c-.135 0-.289 0-.435.012h0l-.01.001c-.277.03-.529.138-.722.33a1.213 1.213 0 00-.342.714h0l-.001.007a2.922 2.922 0 000 .661h0v.003c.064.544.46.958 1.007 1.038h.002c.179.026.365.026.508.026h8.099l.066.001c.12.002.304.005.473-.03.256-.045.491-.158.669-.349a1.16 1.16 0 00.299-.703l-1.056-1.699z" fill="#E2E2E2" stroke="#11253E" stroke-width=".8"/>
  <path d="M271.486 146.656c-.057-.06-.139-.056-.212-.077-.777-.199-1.252-.696-1.429-1.473-.031-.138-.026-.289-.039-.432-.004-.06 0-.125 0-.185 0-6.335.004-12.669-.004-19.008 0-.626.138-1.204.41-1.757.293-.592.669-1.127 1.075-1.645a20.791 20.791 0 012.107-2.254c.32-.298.643-.587.972-.872a1.521 1.521 0 00.518-.985c.004-.289.004-.579.004-.872 0-.069-.013-.078-.086-.086-.026-.005-.056 0-.082-.005-.272-.047-.471-.237-.488-.514a6.649 6.649 0 010-.786.55.55 0 01.237-.418c.026-.022.03-.044.005-.065-.022-.017-.039-.039-.061-.056a.609.609 0 01-.181-.406c-.005-.056-.005-.112-.005-.164v-3.088c0-.09 0-.177.018-.267a.583.583 0 01.57-.48h7.854a.59.59 0 01.544.437.78.78 0 01.026.224v3.256c0 .211-.061.393-.225.535-.056.048-.056.056-.008.095.172.138.229.32.224.531-.004.186 0 .372 0 .562-.004.384-.19.587-.57.626h-.043c-.052.004-.069.034-.069.082v.665c-.004.492.181.898.557 1.217a26.738 26.738 0 012.055 1.956c.553.592 1.08 1.205 1.533 1.874.281.411.531.842.713 1.309.077.198.151.401.168.617 0 .026.022.052.03.074v20.311c-.03.026-.034.056-.039.091a.739.739 0 01-.073.255 1.86 1.86 0 01-1.317 1.109c-.078.022-.164.026-.229.078-4.814-.009-9.637-.009-14.46-.009z" fill="#11253E" stroke="#11253E" stroke-width=".8"/>
  <path d="M278.714 146.453h6.861c.082 0 .164 0 .25-.004a1.63 1.63 0 00.929-.311c.496-.358.725-.855.725-1.46v-19.417c0-.082-.004-.164-.013-.246-.034-.385-.16-.743-.319-1.088a8.034 8.034 0 00-.778-1.296c-.578-.794-1.239-1.52-1.938-2.211-.467-.462-.95-.902-1.447-1.334a1.642 1.642 0 01-.591-1.295v-.54c0-.263.026-.242-.246-.242h-6.84c-.056 0-.112 0-.164.005-.039.004-.065.025-.065.064-.004.043-.004.082-.004.126v.643c0 .276-.069.531-.203.773a1.852 1.852 0 01-.423.505 25.418 25.418 0 00-2.332 2.263c-.509.565-.989 1.157-1.39 1.8a6.214 6.214 0 00-.488.937 3.062 3.062 0 00-.246 1.231c.008 1.014 0 2.029.004 3.048 0 .251-.017.229.237.229h11.214c.069 0 .138 0 .207.004.065.005.1.044.104.108.004.078.004.151.004.229v11.814c-.004.177-.017.19-.185.194h-11.313c-.285 0-.264-.034-.264.272v3.317c0 .09.005.181.005.267a1.704 1.704 0 001.17 1.533c.211.069.432.086.652.086 2.288-.004 4.585-.004 6.887-.004z" fill="#FEBE10" stroke="#11253E" stroke-width=".8"/>
  <path d="M281.572 134.821v-5.7c0-.362.048-.315-.323-.315h-11.05c-.225 0-.22-.004-.22.212v2.323c0 .043 0 .082.004.125.004.039.022.065.061.069.047.004.095.004.146.004h8.084c.259 0 .259 0 .259.264v6.528c-.005.087-.031.113-.113.117-.069.004-.138 0-.207 0h-7.958c-.069 0-.138 0-.207.004-.039 0-.065.026-.065.065-.004.048-.004.095-.004.147v1.947c0 .216-.009.203.203.203h11.11c.315 0 .276.043.276-.272.004-1.908.004-3.813.004-5.721z" fill="#E2E2E2" stroke="#11253E" stroke-width=".8"/>
  <path d="M274.162 138.279h4.102c.087-.004.1-.017.104-.095.004-.056 0-.112 0-.164v-6.049c0-.277.035-.264-.25-.264h-7.876c-.281 0-.259-.021-.259.255v6.071c0 .056 0 .112.004.164 0 .048.021.078.073.078.061 0 .126.004.186.004h3.916z" fill="#E2E2E2" stroke="#11253E" stroke-width=".8"/>
  <path d="M278.731 116.841h3.934a.393.393 0 00.402-.389c-.005-.242.004-.484-.005-.725-.008-.212-.16-.355-.371-.372-.056-.004-.112 0-.164 0h-7.703c-.246.009-.402.151-.415.397a5.985 5.985 0 000 .683c.013.254.181.401.436.401h.514c1.118.005 2.245.005 3.372.005z" fill="#fff" stroke="#11253E" stroke-width=".8"/>
  <path d="M279.21 113.171v1.325c0 .056-.004.108-.008.164-.005.03-.026.048-.052.056a.074.074 0 01-.086-.038.226.226 0 01-.022-.078c-.004-.048 0-.095 0-.147v-2.586c0-.061 0-.126.004-.186.005-.043.035-.078.082-.078.039-.004.074.03.078.078a2.3 2.3 0 01.004.164v1.326zm-.936-.022v-1.304c0-.06.005-.125.013-.186a.066.066 0 01.074-.056c.039 0 .064.026.073.061a.548.548 0 01.009.121v2.75c0 .039 0 .082-.013.121-.009.035-.039.056-.078.056s-.069-.021-.073-.06c-.009-.061-.009-.126-.009-.186.004-.436.004-.877.004-1.317zm-.778.013v-1.325c0-.057 0-.113.009-.165.004-.043.047-.077.086-.069.035.009.065.026.069.065a.904.904 0 01.004.104v2.772c0 .043 0 .086-.012.121-.005.021-.035.043-.061.047-.039.009-.073-.013-.082-.043-.013-.052-.013-.108-.013-.164-.004-.445 0-.894 0-1.343zm-.777-.021v-1.304c0-.056 0-.113.009-.164.004-.039.051-.078.086-.069.039.008.06.03.069.069.004.047.009.095.009.142v2.69c0 .056-.005.108-.013.164a.062.062 0 01-.061.048c-.039.004-.073-.013-.082-.048-.013-.052-.013-.108-.013-.164-.004-.453-.004-.911-.004-1.364zm3.268.025v1.304c0 .056 0 .113-.004.164-.004.048-.03.074-.078.082-.039.005-.082-.03-.086-.073-.005-.06-.005-.125-.005-.186v-2.625c0-.047 0-.095.005-.147.004-.047.03-.073.077-.082.035-.004.078.03.083.074a2.3 2.3 0 01.004.164c.004.44.004.88.004 1.325zm.778-.004v1.304c0 .056 0 .112-.005.164-.004.048-.03.074-.077.082-.039.009-.078-.026-.087-.073-.004-.035-.004-.069-.004-.104v-2.75c0-.044.004-.082.009-.126.004-.038.03-.06.069-.064.039-.005.082.03.086.073a118.73 118.73 0 01.009 1.494zm-4.646.001v1.304c0 .056 0 .112-.004.164-.004.043-.03.077-.078.082-.039.004-.078-.026-.086-.074a1.802 1.802 0 01-.009-.164v-2.625c0-.061.004-.125.013-.186.004-.034.03-.06.069-.065.039-.004.082.031.087.074.004.056.004.108.004.164.004.445.004.885.004 1.326zm-.777.016v1.326c0 .056 0 .112-.013.164a.07.07 0 01-.082.047c-.021-.004-.056-.025-.06-.047-.013-.052-.013-.108-.013-.164v-2.69c0-.056 0-.112.013-.164.004-.022.039-.043.06-.048a.071.071 0 01.082.048c.013.052.013.108.013.164v1.364zm6.8-.017v-1.304c0-.056 0-.112.004-.164.005-.056.048-.099.091-.091.048.009.069.039.073.087 0 .026.005.056.005.082v2.793c0 .035 0 .07-.009.104a.08.08 0 01-.06.052c-.039.004-.078-.013-.082-.048-.013-.051-.013-.108-.013-.164-.013-.449-.009-.898-.009-1.347zm-.777-.021v-1.304c0-.056-.001-.112.008-.164.004-.043.052-.078.086-.074a.077.077 0 01.07.07c.008.056.008.108.008.164v2.647c0 .06-.004.125-.013.185-.004.03-.03.048-.06.052-.039.004-.074-.013-.082-.047a.685.685 0 01-.017-.165v-1.364z" fill="#11253E" stroke="#11253E" stroke-width=".8"/>
</svg>
