<svg xmlns="http://www.w3.org/2000/svg" fill="none" viewBox="0 0 70 70">
  <rect x="1.151" y="1.151" width="67.698" height="67.698" rx="33.849" fill="#11253E"/>
  <path d="M46.172 48.657l-2.997 1.733-2.986-1.733 2.986-5.176c.999 1.733 1.998 3.458 2.997 5.176zm2.987 5.188l-4.463-2.577 2.226-1.288 2.237 3.865zm-2.25-21.512a13.185 13.185 0 01-20.75 10.07l18.373-18.407a13.103 13.103 0 012.377 8.337zm-9.722 21.512l2.225-3.865 2.237 1.288-4.462 2.577zM25.358 24.78a1.095 1.095 0 01.816-1.848 1.09 1.09 0 01.765.338c.68.667-.222 1.429.656 1.874a1203.34 1203.34 0 008.807 4.86l-4.263 4.262-4.883-8.83a.76.76 0 00-.855-.374 1.101 1.101 0 01-1.043-.282z" fill="#fff"/>
  <path d="M26.183 26.619l4.835 8.77-6.545 6.558a.752.752 0 00.105 1.17 14.59 14.59 0 009.965 3.127c2.208-.117 4.36-.73 6.3-1.791l-2.342 4.063-4.005 6.979a.761.761 0 001.007 1.077l7.67-4.473 7.67 4.426a.761.761 0 001.019-1.077l-3.982-6.862v-.082c-1.24-2.154-2.486-4.309-3.735-6.463a14.672 14.672 0 001.1-19.65.76.76 0 00-1.17-.07l-6.558 6.558-8.77-4.883a2.611 2.611 0 10-4.438 1.85c.5.49 1.172.768 1.873.773zm18.512 24.649l2.225-1.288 2.237 3.864-4.462-2.576zm-5.269-1.288l2.237 1.288-4.473 2.576 2.236-3.864zm3.747-6.5c1 1.734 1.999 3.46 2.998 5.177l-2.998 1.733-2.986-1.733 2.986-5.176zm1.358-19.484A13.185 13.185 0 0126.16 42.404l18.373-18.408zm-18.126 1.03a1.1 1.1 0 01-1.042-.28 1.094 1.094 0 011.58-1.511c.68.667-.222 1.428.656 1.873 2.928 1.632 5.863 3.252 8.806 4.86l-4.262 4.262-4.883-8.829a.76.76 0 00-.855-.375z" fill="#11253E"/>
  <path d="M21.299 21.445a.738.738 0 11-1.476 0 3.711 3.711 0 013.713-3.725.75.75 0 010 1.488 2.237 2.237 0 00-2.237 2.237z" fill="#fff"/>
  <path d="M18.058 21.444a.75.75 0 01-1.487 0 7.026 7.026 0 017.027-6.968.738.738 0 010 1.475 5.48 5.48 0 00-5.48 5.493h-.06z" fill="#fff"/>
  <path d="M14.799 21.444a.737.737 0 11-1.476 0A10.212 10.212 0 0123.535 11.22a.75.75 0 010 1.487 8.736 8.736 0 00-8.736 8.736z" fill="#fff"/>
</svg>
