<svg xmlns="http://www.w3.org/2000/svg" fill="none" viewBox="0 0 70 70">
  <rect x="1.151" y="1.151" width="67.698" height="67.698" rx="33.849" fill="#11253E"/>
  <path d="M15.06 28.476v1.625-1.625zm0 4.206v1.578z" fill="#fff"/>
  <path d="M15.06 32.682v1.578m0-5.784v1.625-1.625z" stroke="#fff" stroke-width="1.161" stroke-linecap="round" stroke-linejoin="round"/>
  <path d="M17.912 31.392h-1.577 1.577zm-4.146 0h-1.578z" fill="#fff"/>
  <path d="M13.766 31.392h-1.578m5.724 0h-1.577 1.577z" stroke="#fff" stroke-width="1.161" stroke-linecap="round" stroke-linejoin="round"/>
  <path d="M54.925 17.157v1.578-1.578zm0 4.147v1.577z" fill="#fff"/>
  <path d="M54.925 21.304v1.577m0-5.724v1.578-1.578z" stroke="#fff" stroke-width="1.161" stroke-linecap="round" stroke-linejoin="round"/>
  <path d="M57.791 20.014h-1.577 1.577zm-4.146 0h-1.578z" fill="#fff"/>
  <path d="M53.645 20.014h-1.578m5.724 0h-1.577 1.577z" stroke="#fff" stroke-width="1.161" stroke-linecap="round" stroke-linejoin="round"/>
  <path d="M25.859 28.874l6.632 4.577a2.15 2.15 0 002.175 0l7.014-4.78a.682.682 0 00.335-.502.644.644 0 00-.335-.502l-6.62-4.577a1.924 1.924 0 00-1.088-.298 1.9 1.9 0 00-1.087.298l-7.002 4.84a.67.67 0 00-.347.502.645.645 0 00.323.442zm5.437-2.963a.573.573 0 01.812 0l1.518 1.35 4.78-.908a.572.572 0 01.68.466.573.573 0 01-.465.669l-5.067.968h-.107a.55.55 0 01-.383-.156l-1.768-1.6a.586.586 0 010-.79zm17.922-.526a7.174 7.174 0 011.84 0 21.868 21.868 0 00-6.87-4.78c-1.375-.526-3.06-.753-3.777-.251l-.096 1.338 5.318 3.836 3.585-.143z" fill="#fff"/>
  <path d="M23.789 33.797l5.496 3.836a.561.561 0 01.251.418l.096 1.195 2.545-1.971h.108a.286.286 0 01.107 0h.419a2.964 2.964 0 003.047 0l9.141-6.322a.885.885 0 000-1.6.681.681 0 01-.155-.168.586.586 0 01-.335-.227.574.574 0 01.18-.8l2.39-1.506h-1.566a.55.55 0 01-.346-.096l-5.844-4.075a.574.574 0 01-.239-.526v-.693l-2.15 1.661 5.353 3.693a1.685 1.685 0 010 2.915l-7.015 4.84a3.286 3.286 0 01-3.489 0l-6.584-4.54a1.949 1.949 0 01-.61-.646c-.37.418-.669.765-.729.86-.286.418-.143.884.37 1.195l.072.072.072.072a.263.263 0 01.06.131v.454l-.06.12a.62.62 0 01-.12.131l-2.114 1.446h1.35c.11.013.214.059.299.131zM25.53 44.84c.18-.371.371-.754.586-1.196a32.393 32.393 0 012.39-3.584l-.131-1.614-5.127-3.584H20.62c-1.278 1.04-3.43 5.221-3.668 8.974a6.07 6.07 0 001.195 4.78 13.348 13.348 0 007.456 4.17 2.998 2.998 0 01-.573-.526c-1.255-1.553-1.076-4.158.502-7.42z" fill="#fff"/>
  <path d="M49.37 26.532l-3.322 2.127a2.055 2.055 0 01.669 1.47 2.152 2.152 0 01-1.004 1.757l-1.948 1.338c-1.565 3.585-9.26 10.611-14.34 12.356a6.438 6.438 0 01-2.09.406 3.73 3.73 0 01-.932-.131c-1.136 2.545-1.303 4.552-.395 5.604.909 1.051 3.107 1.195 5.975.12 6.8-2.39 15.463-10.062 19.299-16.969 1.756-3.143 2.258-5.724 1.362-7.062a3.345 3.345 0 00-3.274-1.016z" fill="#fff"/>
  <path d="M44.546 19.577c-.573-.215-3.382-1.195-4.875-.083a.875.875 0 00-.227.083l-3.37 2.581a.96.96 0 00-.108.12l-.298-.203a3.286 3.286 0 00-3.49 0l-6.978 4.84a2.53 2.53 0 00-.37.334 24.642 24.642 0 00-1.9 2.15 1.924 1.924 0 000 2.283l-3.072 2.103a.561.561 0 00-.227.347c-1.637 1.553-3.585 5.855-3.931 9.56a6.966 6.966 0 001.625 5.675c3.585 3.585 6.871 4.59 9.392 4.59a9.285 9.285 0 003.753-.79 15.511 15.511 0 001.792-.525c7.026-2.522 15.965-10.373 19.92-17.483a12.679 12.679 0 001.924-6.046c.657-2.987-5.94-8.162-9.56-9.536zm-4.194.837c.717-.502 2.39-.275 3.776.25a21.868 21.868 0 016.87 4.78 7.172 7.172 0 00-1.84 0l-3.525.084-5.377-3.776.096-1.338zM25.869 27.87l7.002-4.84a1.9 1.9 0 011.088-.298c.384-.011.763.093 1.087.299l6.62 4.576a.644.644 0 01.335.502.681.681 0 01-.335.502l-7.014 4.78a2.15 2.15 0 01-2.175 0l-6.62-4.577a.645.645 0 01-.335-.502.67.67 0 01.347-.442zm-1.65 4.374a.62.62 0 00.12-.132l.06-.12v-.416a.263.263 0 00-.06-.132l-.071-.072-.072-.071c-.514-.359-.657-.825-.37-1.195 0-.096.358-.442.729-.86.15.259.359.48.609.645l6.62 4.576a3.286 3.286 0 003.49 0l7.014-4.84a1.685 1.685 0 000-2.915l-5.354-3.692 2.151-1.661v.693a.574.574 0 00.24.526l5.842 4.074a.55.55 0 00.347.096h1.565l-2.39 1.506a.573.573 0 00-.179.8c.081.113.2.194.335.227a.688.688 0 00.155.168.884.884 0 010 1.6l-9.14 6.321a2.964 2.964 0 01-3.047 0h-.42a.286.286 0 00-.107 0h-.108l-2.545 1.972-.095-1.195a.562.562 0 00-.252-.418l-5.496-3.836a.561.561 0 00-.335-.108h-1.35l2.115-1.541zm17.148 2.64c-2.748 3.514-8.448 8.258-12.38 9.56a4.65 4.65 0 01-2.126.311c.095-.203.191-.382.299-.586a30.764 30.764 0 012.222-3.37.46.46 0 00.12 0l3.083-2.39c.56.28 1.178.423 1.804.419a3.896 3.896 0 002.175-.633l4.803-3.31zM18.15 48.615a6.07 6.07 0 01-1.195-4.78c.286-3.727 2.39-7.91 3.716-8.961h2.653l5.126 3.585.131 1.613a32.4 32.4 0 00-2.39 3.585c-.214.394-.406.776-.585 1.195-1.577 3.262-1.757 5.867-.466 7.373.168.199.36.376.574.525a13.349 13.349 0 01-7.564-4.134zm34.426-21.066c.896 1.338.395 3.92-1.362 7.062-3.836 6.907-12.5 14.519-19.299 16.968-2.855 1.028-5.03.98-5.974-.12-.944-1.099-.741-3.058.394-5.604.304.083.617.127.932.132a6.428 6.428 0 002.091-.406c5.138-1.745 12.834-8.76 14.34-12.356l2.02-1.339a2.152 2.152 0 001.003-1.756 2.057 2.057 0 00-.67-1.47l3.323-2.127a3.345 3.345 0 013.202 1.016z" fill="#11253E"/>
  <path d="M33.05 28.23c.103.099.24.154.383.154h.107l5.067-.967a.574.574 0 00.466-.67.573.573 0 00-.681-.466l-4.78.909-1.518-1.35a.574.574 0 00-.8.07.585.585 0 000 .825l1.756 1.494z" fill="#11253E"/>
</svg>
