<svg xmlns="http://www.w3.org/2000/svg" fill="none" viewBox="0 0 113 113">
  <path d="M39.161 41.694v9l21.579-9v9l21.603-9v45.867H15.992V57.008L8.285 60.24v-5.668l30.876-12.878zm36.694 2.686v-22.1h-9.273v25.955l9.273-3.854z" fill="#F5F5F6" stroke="#3E7CB1" stroke-width="2.486" stroke-linecap="round" stroke-linejoin="round"/>
  <path d="M66.782 17.48s-6.662-5.917-12.43-2.088c0 0 .845-10.74-8.95-12.306m-.026 12.58s-11.784-2.81-15.14-10.516" stroke="#3E7CB1" stroke-width="2.486" stroke-linecap="round" stroke-linejoin="round"/>
  <path d="M99.97 85.795v11.287l-22.572 13.201L54.85 97.082V85.795" fill="#F5F5F6"/>
  <path d="M99.97 85.795v11.287l-22.572 13.201L54.85 97.082V85.795" stroke="#3E7CB1" stroke-width="2.486" stroke-linecap="round" stroke-linejoin="round"/>
  <path d="M77.398 55.541L99.97 68.718 77.398 81.943 54.85 68.717l22.548-13.175zm-.003 26.401l-4.872 14.195-22.548-13.2 4.872-14.22 22.548 13.225z" fill="#F5F5F6" stroke="#3E7CB1" stroke-width="2.486" stroke-linecap="round" stroke-linejoin="round"/>
  <path d="M77.398 81.942l4.873 14.195 22.573-13.2-4.873-14.22-22.573 13.225z" fill="#F5F5F6" stroke="#3E7CB1" stroke-width="2.486" stroke-linecap="round" stroke-linejoin="round"/>
</svg>
