<svg xmlns="http://www.w3.org/2000/svg" fill="none" viewBox="0 0 68 69">
  <rect x=".158" y=".463" width="67.698" height="67.698" rx="33.849" fill="#F5F6F6"/>
  <path d="M45.18 47.968l-2.999 1.733-2.986-1.733 2.986-5.176c1 1.734 1.999 3.459 2.998 5.176zm2.985 5.189l-4.462-2.577 2.225-1.289 2.237 3.866zm-2.25-21.512a13.184 13.184 0 01-20.75 10.07l18.373-18.407a13.103 13.103 0 012.377 8.337zm-9.722 21.512l2.226-3.866 2.237 1.289-4.463 2.577zM24.365 24.092a1.093 1.093 0 111.581-1.51c.68.667-.222 1.428.656 1.873a1201.3 1201.3 0 008.806 4.86l-4.262 4.263-4.884-8.83a.762.762 0 00-.854-.375 1.101 1.101 0 01-1.043-.28z" fill="#fff"/>
  <path d="M25.19 25.93l4.835 8.771-6.545 6.558a.75.75 0 00.105 1.17 14.59 14.59 0 009.965 3.127 14.77 14.77 0 006.3-1.791l-2.342 4.063-4.005 6.979a.76.76 0 001.007 1.077l7.67-4.473 7.67 4.426a.761.761 0 001.019-1.077l-3.982-6.862v-.082c-1.24-2.155-2.486-4.31-3.735-6.464a14.672 14.672 0 001.1-19.648.761.761 0 00-1.17-.07l-6.558 6.557-8.77-4.883a2.611 2.611 0 10-4.438 1.85c.5.49 1.172.768 1.873.773zm18.512 24.65l2.225-1.289 2.237 3.865-4.462-2.576zm-5.27-1.289l2.237 1.289-4.473 2.576 2.237-3.865zm3.748-6.498c1 1.733 1.998 3.458 2.998 5.175l-2.998 1.733-2.986-1.733 2.986-5.175zm1.358-19.485a13.185 13.185 0 01-18.372 18.407l18.372-18.407zm-18.126 1.03a1.1 1.1 0 01-1.042-.28 1.093 1.093 0 111.58-1.511c.68.667-.222 1.428.656 1.873a1199.4 1199.4 0 008.806 4.86l-4.262 4.262-4.883-8.83a.762.762 0 00-.855-.374zm-5.106-3.581a.737.737 0 11-1.476 0 3.714 3.714 0 013.713-3.725.75.75 0 010 1.488 2.237 2.237 0 00-2.237 2.237z" fill="#3E7CB1"/>
  <path d="M17.065 20.755a.75.75 0 01-1.487 0 7.027 7.027 0 017.027-6.967.738.738 0 110 1.475 5.482 5.482 0 00-5.481 5.492h-.059z" fill="#3E7CB1"/>
  <path d="M13.806 20.756a.738.738 0 11-1.476 0 10.21 10.21 0 0110.212-10.224.75.75 0 010 1.488 8.736 8.736 0 00-8.736 8.736z" fill="#3E7CB1"/>
</svg>
