<svg xmlns="http://www.w3.org/2000/svg" fill="none" viewBox="0 0 69 69">
  <rect x=".631" y=".432" width="67.698" height="67.698" rx="33.849" fill="#F5F6F6"/>
  <path d="M14.54 27.757v1.625-1.625zm0 4.206v1.578-1.578z" fill="#fff"/>
  <path d="M14.54 31.963v1.578m0-5.784v1.625-1.625z" stroke="#3E7CB1" stroke-width="1.161" stroke-linecap="round" stroke-linejoin="round"/>
  <path d="M17.392 30.673h-1.577 1.577zm-4.146 0h-1.578 1.578z" fill="#fff"/>
  <path d="M13.246 30.673h-1.578m5.724 0h-1.577 1.577z" stroke="#3E7CB1" stroke-width="1.161" stroke-linecap="round" stroke-linejoin="round"/>
  <path d="M54.404 16.439v1.577-1.577zm0 4.146v1.577-1.577z" fill="#fff"/>
  <path d="M54.404 20.585v1.577m0-5.723v1.577-1.577z" stroke="#3E7CB1" stroke-width="1.161" stroke-linecap="round" stroke-linejoin="round"/>
  <path d="M57.27 19.295h-1.577 1.578zm-4.146 0h-1.577 1.577z" fill="#fff"/>
  <path d="M53.124 19.295h-1.577m5.724 0h-1.578 1.578z" stroke="#3E7CB1" stroke-width="1.161" stroke-linecap="round" stroke-linejoin="round"/>
  <path d="M25.338 28.155l6.632 4.577a2.15 2.15 0 002.175 0l7.014-4.78a.68.68 0 00.335-.502.645.645 0 00-.334-.502l-6.62-4.576a1.924 1.924 0 00-1.088-.3 1.9 1.9 0 00-1.087.3l-7.003 4.84a.67.67 0 00-.346.501.646.646 0 00.322.442zm5.437-2.963a.574.574 0 01.813 0l1.517 1.35 4.78-.908a.574.574 0 01.681.466.573.573 0 01-.466.669l-5.066.968h-.108a.55.55 0 01-.382-.155l-1.769-1.602a.586.586 0 010-.788zm17.922-.526c.611-.08 1.23-.08 1.84 0a21.867 21.867 0 00-6.87-4.78c-1.375-.526-3.06-.753-3.776-.25l-.096 1.337 5.317 3.836 3.585-.143z" fill="#fff"/>
  <path d="M23.268 33.079l5.497 3.835a.56.56 0 01.25.419l.096 1.195 2.546-1.972h.107a.286.286 0 01.108 0h.419a2.964 2.964 0 003.046 0l9.142-6.321a.885.885 0 000-1.602.68.68 0 01-.156-.167.586.586 0 01-.334-.227.574.574 0 01.179-.8l2.39-1.506h-1.566a.55.55 0 01-.346-.096l-5.843-4.075a.573.573 0 01-.24-.526v-.692l-2.15 1.66 5.353 3.693a1.684 1.684 0 010 2.916l-7.014 4.84a3.285 3.285 0 01-3.49 0l-6.584-4.542a1.948 1.948 0 01-.61-.645c-.37.418-.668.765-.728.86-.287.419-.143.885.37 1.195l.072.072.072.072a.264.264 0 01.06.131v.454l-.06.12a.622.622 0 01-.12.131l-2.115 1.446h1.35a.57.57 0 01.3.132zM25.01 44.12c.18-.37.37-.752.586-1.194a32.393 32.393 0 012.39-3.585l-.132-1.614-5.126-3.584h-2.63c-1.278 1.04-3.429 5.221-3.668 8.974a6.072 6.072 0 001.195 4.78 13.347 13.347 0 007.457 4.17 2.995 2.995 0 01-.574-.526c-1.254-1.553-1.075-4.158.502-7.42z" fill="#fff"/>
  <path d="M48.85 25.813l-3.323 2.127a2.057 2.057 0 01.67 1.47 2.151 2.151 0 01-1.004 1.757l-1.948 1.338c-1.566 3.585-9.261 10.611-14.34 12.356-.67.25-1.376.388-2.09.406a3.726 3.726 0 01-.933-.131c-1.135 2.545-1.302 4.552-.394 5.604.908 1.052 3.107 1.195 5.975.12 6.799-2.39 15.462-10.062 19.298-16.969 1.757-3.142 2.259-5.724 1.362-7.062a3.346 3.346 0 00-3.274-1.016z" fill="#fff"/>
  <path d="M44.026 18.858c-.574-.215-3.382-1.195-4.876-.083a.872.872 0 00-.227.083l-3.37 2.581a.968.968 0 00-.107.12l-.299-.203a3.286 3.286 0 00-3.49 0l-6.978 4.84a2.44 2.44 0 00-.37.334 24.656 24.656 0 00-1.9 2.15 1.924 1.924 0 000 2.283l-3.071 2.103a.561.561 0 00-.227.347c-1.637 1.553-3.585 5.855-3.932 9.56a6.966 6.966 0 001.626 5.676c3.584 3.584 6.87 4.588 9.392 4.588a9.285 9.285 0 003.752-.788c.607-.14 1.206-.315 1.792-.526C38.768 49.4 47.706 41.55 51.662 34.44a12.68 12.68 0 001.924-6.047c.657-2.987-5.939-8.161-9.56-9.536zm-4.195.837c.717-.502 2.39-.275 3.776.25a21.868 21.868 0 016.871 4.78 7.174 7.174 0 00-1.84 0l-3.525.084-5.377-3.776.095-1.338zM25.348 27.15l7.003-4.84a1.9 1.9 0 011.087-.298 1.93 1.93 0 011.088.299l6.62 4.576a.646.646 0 01.334.502.682.682 0 01-.334.502l-7.015 4.78a2.152 2.152 0 01-2.174 0l-6.62-4.577a.646.646 0 01-.335-.502.67.67 0 01.346-.442zM23.7 31.525a.62.62 0 00.12-.131l.06-.12v-.418a.262.262 0 00-.06-.132l-.072-.071-.072-.072c-.513-.359-.657-.825-.37-1.195 0-.096.359-.442.729-.86.15.259.36.48.61.645l6.62 4.577a3.285 3.285 0 003.489 0l7.014-4.84a1.686 1.686 0 000-2.916L36.414 22.3l2.15-1.661v.693a.573.573 0 00.24.526l5.843 4.075a.55.55 0 00.346.095h1.566l-2.39 1.506a.573.573 0 00-.18.8c.082.113.2.194.335.227a.692.692 0 00.156.168.884.884 0 010 1.601l-9.142 6.321a2.964 2.964 0 01-3.047 0h-.418a.286.286 0 00-.108 0h-.107l-2.545 1.972-.096-1.195a.562.562 0 00-.251-.418l-5.497-3.836a.56.56 0 00-.334-.108h-1.35l2.114-1.541zm17.148 2.64c-2.748 3.514-8.448 8.258-12.38 9.56a4.647 4.647 0 01-2.127.311c.096-.203.192-.382.299-.585a30.773 30.773 0 012.223-3.37c.04.005.08.005.12 0l3.082-2.39c.56.278 1.179.422 1.804.418a3.895 3.895 0 002.175-.633l4.804-3.31zM17.63 47.895a6.07 6.07 0 01-1.195-4.779c.287-3.728 2.39-7.91 3.716-8.962h2.653l5.127 3.585.131 1.613a32.393 32.393 0 00-2.39 3.585c-.215.394-.406.777-.585 1.195-1.578 3.262-1.757 5.867-.466 7.373.167.199.36.376.573.525a13.348 13.348 0 01-7.564-4.134zM52.056 26.83c.896 1.338.394 3.92-1.362 7.062-3.836 6.907-12.5 14.519-19.3 16.968-2.855 1.028-5.03.98-5.974-.12-.944-1.098-.74-3.058.394-5.603.304.082.618.127.933.13a6.429 6.429 0 002.09-.405c5.139-1.745 12.835-8.76 14.34-12.356l2.02-1.339A2.152 2.152 0 0046.2 29.41a2.055 2.055 0 00-.669-1.47l3.322-2.127a3.345 3.345 0 013.203 1.016z" fill="#3E7CB1"/>
  <path d="M32.53 27.51c.102.1.24.155.382.156h.108l5.066-.968a.574.574 0 00.466-.67.572.572 0 00-.68-.465l-4.78.908-1.518-1.35a.574.574 0 00-.8.071.585.585 0 000 .825l1.756 1.493z" fill="#3E7CB1"/>
</svg>
