<svg xmlns="http://www.w3.org/2000/svg" data-name="Layer 1" viewBox="0 0 45 45">
  <path d="M15.5 16.47v3.62l8.68-3.62v3.62l8.69-3.62v18.45H6.18V22.63l-3.1 1.3v-2.28l12.42-5.18zm14.76 1.09v-8.9h-3.73v10.45l3.73-1.55z" fill="#fff" stroke="#000" stroke-linecap="round" stroke-linejoin="round"/>
  <path d="M26.61 6.73s-2.68-2.38-5-.84c0 0 .34-4.32-3.6-4.95M18 6s-4.74-1.13-6.09-4.23" fill="none" stroke="#000" stroke-linecap="round" stroke-linejoin="round"/>
  <path fill="#fff" stroke="#000" stroke-linecap="round" stroke-linejoin="round" d="M39.96 34.21v4.54l-9.08 5.31-9.07-5.31v-4.54m9.07-12.17l9.08 5.3-9.08 5.32-9.07-5.32 9.07-5.3h0z"/>
  <path fill="#fff" stroke="#000" stroke-linecap="round" stroke-linejoin="round" d="M30.88 32.66l-1.96 5.71-9.07-5.31 1.96-5.72 9.07 5.32h0z"/>
  <path fill="#fff" stroke="#000" stroke-linecap="round" stroke-linejoin="round" d="M30.88 32.66l1.96 5.71 9.08-5.31-1.96-5.72-9.08 5.32h0z"/>
</svg>
