<svg xmlns="http://www.w3.org/2000/svg" fill="none" viewBox="0 0 57 41">
  <path d="M23.85 5.687c-.321-.321-.321-.642-.642-.963C19.676 1.192 15.503-.092 10.688.87c-3.211.642-5.78 2.247-7.706 5.137-.32.32-.642.32-.963.963C.414 9.539-.228 12.428.414 15.639c.321 2.89 1.284 5.136 3.21 7.384 1.927 1.926 4.174 3.21 7.063 3.852.642 0 .963.321.642.963 0 .963-.32 1.926-.32 2.568-.643 2.248-1.606 4.495-3.211 6.742-.321.963-.963 1.605 0 2.569.963.963 1.605.32 2.568 0 1.926-.964 3.532-1.927 5.137-2.89 2.247-1.926 4.494-3.852 6.1-6.1a17.499 17.499 0 003.852-7.704c.963-2.569 1.284-5.458 1.605-8.347 0-3.532-.963-6.421-3.21-8.99zm32.747 5.136C54.992 4.08 48.25-.413 41.187.87c-5.136.963-9.631 5.136-10.594 9.952-.963 4.173 0 8.026 2.568 11.557 1.926 2.569 4.495 4.174 7.705 4.816.642 0 .642.32.642.963l-.963 3.852c-.963 1.926-1.605 3.853-2.89 5.779-.32.963-.641 1.605 0 2.247.643.642 1.606.321 2.569 0 1.926-.963 3.531-1.926 5.458-3.21a17.196 17.196 0 004.815-4.816c.642-.32.963-.963 1.284-1.605 1.927-2.568 3.21-5.457 4.174-8.347.642-1.284.963-2.89.963-4.494 0-2.248.32-4.495-.321-6.742z" fill="#FEBE10"/>
</svg>
