<svg width="123" height="39" viewBox="0 0 123 39" fill="none" xmlns="http://www.w3.org/2000/svg">
<path d="M19.3822 38.7645C30.0867 38.7645 38.7645 30.0867 38.7645 19.3822C38.7645 8.67772 30.0867 0 19.3822 0C8.67772 0 0 8.67772 0 19.3822C0 30.0867 8.67772 38.7645 19.3822 38.7645Z" fill="#FDBD10"/>
<path d="M25.6868 23.0041C24.4125 25.2173 22.0652 26.6257 19.3825 26.6257C15.3585 26.6257 12.1393 23.3394 12.1393 19.3825C12.1393 15.4256 15.4256 12.1393 19.3825 12.1393C22.0652 12.1393 24.4125 13.6148 25.6868 15.7609L29.8449 13.2124C27.6988 9.65788 23.876 7.31055 19.4496 7.31055C12.7429 7.31055 7.31055 12.7429 7.31055 19.4496C7.31055 26.1562 12.6759 31.5216 19.3825 31.5216C23.943 31.5216 27.9 29.0401 29.979 25.3514L25.6868 23.0041Z" fill="white"/>
<path d="M46.8125 20.9247C46.8125 16.8337 50.4341 13.3462 54.7263 13.3462C57.0737 13.3462 59.0186 14.2851 60.427 15.8277L57.6773 18.1079C56.9395 17.3031 55.7994 16.7666 54.6593 16.7666C52.5132 16.7666 50.7694 18.6444 50.7694 20.8576C50.7694 23.1379 52.5802 25.0158 54.7263 25.0158C55.8665 25.0158 57.0066 24.4792 57.8114 23.6074L60.4941 25.8876C59.0857 27.4302 57.0737 28.4362 54.7263 28.4362C50.4341 28.5032 46.8125 25.0158 46.8125 20.9247Z" fill="black"/>
<path d="M61.1641 20.9247C61.1641 16.8337 64.7857 13.3462 69.0779 13.3462C73.3702 13.3462 76.9247 16.7666 76.9247 20.9247C76.9247 25.0158 73.3702 28.5032 69.0779 28.5032C64.7857 28.5032 61.1641 25.0158 61.1641 20.9247ZM73.0348 20.9247C73.0348 18.7115 71.224 16.8337 69.0779 16.8337C66.8647 16.8337 65.0539 18.7115 65.0539 20.9247C65.0539 23.1379 66.8647 25.0828 69.0779 25.0828C71.224 25.0828 73.0348 23.1379 73.0348 20.9247Z" fill="black"/>
<path d="M91.8137 19.5163V28.1679H87.8568V26.6924C86.8508 27.8996 85.1741 28.5032 83.6316 28.5032C80.5465 28.5032 78.1992 26.6254 78.1992 23.8756C78.1992 20.9918 80.8819 19.0468 84.2352 19.0468C85.4424 19.0468 86.7167 19.3151 87.9239 19.7846V19.5163C87.9239 17.9738 86.9849 16.6325 84.5705 16.6325C83.2292 16.6325 81.9549 17.1019 80.8148 17.6384L79.4735 14.9558C81.4855 13.9498 83.4975 13.3462 85.5095 13.3462C89.2652 13.3462 91.8137 15.7606 91.8137 19.5163ZM87.8568 23.6074V22.266C86.9179 21.9307 85.8448 21.7295 84.7717 21.7295C83.2963 21.7295 82.0891 22.6014 82.0891 23.7415C82.0891 24.9487 83.0951 25.6194 84.5035 25.6194C86.1131 25.6864 87.5885 24.9487 87.8568 23.6074Z" fill="black"/>
<path d="M93.7578 20.9247C93.7578 16.8337 97.3794 13.3462 101.672 13.3462C104.019 13.3462 105.964 14.2851 107.372 15.8277L104.69 18.175C103.952 17.3702 102.812 16.8337 101.672 16.8337C99.5255 16.8337 97.7818 18.7115 97.7818 20.9247C97.7818 23.205 99.5926 25.0828 101.739 25.0828C102.879 25.0828 104.019 24.5463 104.824 23.6744L107.506 25.9547C106.098 27.4972 104.086 28.5032 101.739 28.5032C97.3794 28.5032 93.7578 25.0158 93.7578 20.9247Z" fill="black"/>
<path d="M122.999 18.9798V28.1679H119.042V19.8516C119.042 18.0409 117.902 16.8337 116.293 16.8337C114.616 16.8337 113.275 18.0409 113.275 19.6504V28.1679H109.184V8.58447H113.275V15.4253C114.147 14.151 115.756 13.3462 117.634 13.3462C120.719 13.3462 122.999 15.6935 122.999 18.9798Z" fill="black"/>
</svg>
