<svg id="Layer_1" data-name="Layer 1" xmlns="http://www.w3.org/2000/svg" viewBox="0 0 810 1560"><defs><style>.cls-1{fill:#fafafa;}.cls-2{fill:#eaeaea;}.cls-3{fill:#e0dfdf;}.cls-4{fill:#f4f4f3;}.cls-5{fill:#fff;}.cls-6{fill:none;stroke:#e0dfdf;stroke-linecap:round;stroke-miterlimit:10;stroke-width:7px;}</style></defs><path class="cls-1" d="M802.74,322.56V110.73c0-61-50.77-104.92-105-104.92H112.3c-54.27,0-105,43.95-105,104.92v78.13a5.09,5.09,0,0,0-3.39,4.78V236a5.07,5.07,0,0,0,3.39,4.78v41.2a5.1,5.1,0,0,0-3.39,4.79V368a5.09,5.09,0,0,0,3.39,4.79v31a5.07,5.07,0,0,0-3.39,4.79v81.23a5.1,5.1,0,0,0,3.39,4.79v954.65c0,61,50.77,104.92,105,104.92H697.7c54.27,0,105-44,105-104.92V472.51a5.07,5.07,0,0,0,3.39-4.78V327.34A5.07,5.07,0,0,0,802.74,322.56Zm-30.82,1123A77.88,77.88,0,0,1,694,1523.35H116a77.88,77.88,0,0,1-77.94-77.83v-1331c0-1.36,0-2.74.11-4.1A77.94,77.94,0,0,1,116,36.63H249c6,0,10,3.89,10,10.43,0,1.86.11,9.42.3,11.3C261.17,76.65,274,88.16,291,88.16H539.05c17.25,0,30.13-12.12,31.66-30.82.13-1.58.21-8.75.21-10.37a9.89,9.89,0,0,1,9.33-10.42c.23,0,.46,0,.69,0h113a77.88,77.88,0,0,1,77.93,77.34V1445.52Z"/><path class="cls-2" d="M697.7,12.59H112.3A98.2,98.2,0,0,0,14,110.73V1449.27a98.2,98.2,0,0,0,98.24,98.16H697.7A98.2,98.2,0,0,0,796,1449.29V110.73A98.2,98.2,0,0,0,697.7,12.59Zm75.11,1433a77.87,77.87,0,0,1-77.9,77.83h-578A77.87,77.87,0,0,1,39,1445.64V114.48c0-1.36,0-2.74.12-4.1a77.89,77.89,0,0,1,77.8-73.75h133c6,0,10,3.89,10,10.43,0,1.86,0,9.42.3,11.3,1.86,18.29,14.71,29.8,31.66,29.8H540c17.25,0,30.12-12.12,31.66-30.82.15-1.58.21-8.75.21-10.37a9.89,9.89,0,0,1,9.33-10.42c.24,0,.47,0,.71,0h113A77.88,77.88,0,0,1,772.74,114V1445.52Z"/><path class="cls-3" d="M478.9,56.18a4.32,4.32,0,1,0-4.32-4.32,4.32,4.32,0,0,0,4.32,4.32Z"/><path class="cls-3" d="M438.91,57.45H373.34a5.59,5.59,0,1,1,0-11.18h65.57a5.59,5.59,0,0,1,0,11.18Z"/><rect class="cls-4" x="30.99" y="144.36" width="749.75" height="1290"/><path class="cls-5" d="M780.74,1453.62l-.08-.1v-19.16H31v19.28a77.87,77.87,0,0,0,77.92,77.81H702.84A77.87,77.87,0,0,0,780.74,1453.62Z"/><line class="cls-6" x1="283.49" y1="1487.81" x2="528.24" y2="1487.81"/><path class="cls-5" d="M780.74,106a77.88,77.88,0,0,0-77.85-77.43h-121c-.24,0-.47,0-.71,0A9.89,9.89,0,0,0,571.83,39c0,1.62-.06,8.79-.21,10.37C570.08,68,557.21,80.16,540,80.16H291.88c-16.95,0-29.8-11.51-31.66-29.8-.3-1.88-.3-9.44-.3-11.3,0-6.54-4-10.43-10-10.43h-141A77.91,77.91,0,0,0,31.1,102.38c-.11,1.36-.11,2.74-.11,4.1v42.45H780.74Z"/></svg>