<?xml version="1.0" encoding="utf-8"?>
<!-- Generator: Adobe Illustrator 26.3.1, SVG Export Plug-In . SVG Version: 6.00 Build 0)  -->
<svg version="1.1" id="Layer_1" xmlns="http://www.w3.org/2000/svg" xmlns:xlink="http://www.w3.org/1999/xlink" x="0px" y="0px"
	 viewBox="0 0 31 30" style="enable-background:new 0 0 31 30;" xml:space="preserve">
<style type="text/css">
	.st0{fill:none;stroke:#11253E;stroke-width:1.5;stroke-linecap:round;stroke-linejoin:round;stroke-miterlimit:10;}
</style>
<g>
	<path class="st0" d="M21.2,22.1v2.4c0,0.9-0.7,1.6-1.6,1.6H7.4c-0.9,0-1.6-0.7-1.6-1.6V5.4c0-0.9,0.7-1.6,1.6-1.6h12.2
		c0.9,0,1.6,0.7,1.6,1.6v2.5"/>
	<path class="st0" d="M9.2,8h7.5"/>
	<path class="st0" d="M9.2,11.2h4.9"/>
	<path class="st0" d="M18.9,20.4l-4.6,1.4l1.4-4.6l7.4-7.4l1.2-1.2c0.7-0.7,1.7-0.7,2.4,0l0.7,0.7c0.7,0.7,0.7,1.7,0,2.4L26.3,13
		L18.9,20.4z"/>
	<path class="st0" d="M15.8,17.2l3.1,3.2"/>
	<path class="st0" d="M23.2,9.8l1.5,1.6"/>
</g>
</svg>
