<?xml version="1.0" encoding="utf-8"?>
<!-- Generator: Adobe Illustrator 24.1.0, SVG Export Plug-In . SVG Version: 6.00 Build 0)  -->
<svg version="1.1" id="Layer_1" xmlns="http://www.w3.org/2000/svg" xmlns:xlink="http://www.w3.org/1999/xlink" x="0px" y="0px"
	 viewBox="0 0 31 30" style="enable-background:new 0 0 31 30;" xml:space="preserve">
<style type="text/css">
	.st0{fill:#3E7CB1;}
</style>
<g>
	<path class="st0" d="M11.6,16.7H10V15c0-0.1,0-0.2,0-0.3c0-0.1-0.1-0.2-0.2-0.3c-0.1-0.1-0.2-0.2-0.3-0.2c-0.1,0-0.2-0.1-0.3-0.1
		s-0.2,0-0.3,0.1c-0.1,0-0.2,0.1-0.3,0.2c-0.1,0.1-0.1,0.2-0.2,0.3c0,0.1,0,0.2,0,0.3v1.6H6.7c-0.1,0-0.2,0-0.3,0
		c-0.1,0-0.2,0.1-0.3,0.2C6,16.9,5.9,17,5.9,17.1c0,0.1-0.1,0.2-0.1,0.3c0,0.1,0,0.2,0.1,0.3c0,0.1,0.1,0.2,0.2,0.3
		c0.1,0.1,0.2,0.1,0.3,0.2c0.1,0,0.2,0,0.3,0h1.6v1.6c0,0.1,0,0.2,0,0.3c0,0.1,0.1,0.2,0.2,0.3c0.1,0.1,0.2,0.2,0.3,0.2
		c0.1,0,0.2,0.1,0.3,0.1s0.2,0,0.3-0.1c0.1,0,0.2-0.1,0.3-0.2c0.1-0.1,0.1-0.2,0.2-0.3c0-0.1,0-0.2,0-0.3v-1.6h1.6
		c0.1,0,0.2,0,0.3,0c0.1,0,0.2-0.1,0.3-0.2c0.1-0.1,0.2-0.2,0.2-0.3s0.1-0.2,0.1-0.3c0-0.1,0-0.2-0.1-0.3c0-0.1-0.1-0.2-0.2-0.3
		c-0.1-0.1-0.2-0.1-0.3-0.2C11.8,16.7,11.7,16.6,11.6,16.7z"/>
	<path class="st0" d="M21.9,20.4c-0.6,0-1.2-0.2-1.7-0.5c-0.5-0.3-0.9-0.8-1.1-1.3c-0.2-0.5-0.3-1.2-0.2-1.7
		c0.1-0.6,0.4-1.1,0.8-1.5c0.4-0.4,1-0.7,1.5-0.8c0.6-0.1,1.2-0.1,1.7,0.2c0.5,0.2,1,0.6,1.3,1.1c0.3,0.5,0.5,1.1,0.5,1.7
		c0,0.8-0.3,1.6-0.9,2.1C23.5,20.1,22.7,20.4,21.9,20.4L21.9,20.4z M21.9,16.2c-0.3,0-0.5,0.1-0.7,0.2c-0.2,0.1-0.4,0.3-0.5,0.6
		c-0.1,0.2-0.1,0.5-0.1,0.8c0.1,0.3,0.2,0.5,0.4,0.7c0.2,0.2,0.4,0.3,0.7,0.4c0.3,0.1,0.5,0,0.8-0.1c0.2-0.1,0.4-0.3,0.6-0.5
		c0.1-0.2,0.2-0.5,0.2-0.7c0-0.3-0.1-0.7-0.4-0.9C22.6,16.3,22.2,16.2,21.9,16.2L21.9,16.2z"/>
	<path class="st0" d="M23.9,9.4h-7.6V5.2c0-0.1,0-0.2-0.1-0.3s-0.1-0.2-0.2-0.3c-0.1-0.1-0.2-0.1-0.3-0.2c-0.1,0-0.2-0.1-0.3-0.1
		c-0.1,0-0.2,0-0.3,0.1c-0.1,0-0.2,0.1-0.3,0.2c-0.1,0.1-0.1,0.2-0.2,0.3c0,0.1-0.1,0.2-0.1,0.3v4.2H7.1C6.4,9.4,5.6,9.5,5,9.8
		c-0.7,0.3-1.3,0.7-1.8,1.2c-0.5,0.5-0.9,1.1-1.2,1.8s-0.4,1.4-0.4,2.1v5.1c0,0.7,0.1,1.5,0.4,2.1c0.3,0.7,0.7,1.3,1.2,1.8
		c0.5,0.5,1.1,0.9,1.8,1.2c0.7,0.3,1.4,0.4,2.1,0.4h16.8c0.7,0,1.5-0.1,2.1-0.4c0.7-0.3,1.3-0.7,1.8-1.2c0.5-0.5,0.9-1.1,1.2-1.8
		c0.3-0.7,0.4-1.4,0.4-2.1v-5.1c0-0.7-0.2-1.5-0.4-2.1c-0.3-0.7-0.7-1.3-1.2-1.8c-0.5-0.5-1.1-0.9-1.8-1.2
		C25.4,9.5,24.6,9.4,23.9,9.4z M27.8,20.1c0,1-0.4,2-1.1,2.8c-0.7,0.7-1.7,1.1-2.8,1.2H7.1c-1,0-2-0.4-2.8-1.2
		c-0.7-0.7-1.1-1.7-1.1-2.8v-5.2c0-1,0.4-2,1.1-2.8C5.1,11.4,6.1,11,7.1,11h16.8c1,0,2,0.4,2.8,1.2c0.7,0.7,1.1,1.7,1.1,2.8V20.1z"
		/>
</g>
</svg>
