<?xml version="1.0" encoding="utf-8"?>
<!-- Generator: Adobe Illustrator 26.3.1, SVG Export Plug-In . SVG Version: 6.00 Build 0)  -->
<svg version="1.1" id="Layer_1" xmlns="http://www.w3.org/2000/svg" xmlns:xlink="http://www.w3.org/1999/xlink" x="0px" y="0px"
	 viewBox="0 0 30 30" style="enable-background:new 0 0 30 30;" xml:space="preserve">
<style type="text/css">
	.st0{fill:none;stroke:#11253E;stroke-width:1.5;stroke-linecap:round;stroke-miterlimit:10;}
</style>
<g>
	<path class="st0" d="M10.2,12.7c2.2,0,4.1-1.8,4.1-4.1c0-2.2-1.8-4.1-4.1-4.1C8,4.6,6.2,6.4,6.2,8.7C6.2,10.9,8,12.7,10.2,12.7z"/>
	<path class="st0" d="M19.5,14.1h4.8c1.9,0,3.3,1.4,3.3,3.3v3.7"/>
	<path class="st0" d="M21.8,11.6c1.3,0,2.4-1.1,2.4-2.4c0-1.3-1.1-2.4-2.4-2.4s-2.4,1.1-2.4,2.4C19.4,10.5,20.4,11.6,21.8,11.6z"/>
	<path class="st0" d="M2.4,25.4v-6.5c0-1.9,1.4-3.3,3.3-3.3h9.2c1.9,0,3.3,1.4,3.3,3.3v6.5"/>
</g>
</svg>
