<?xml version="1.0" encoding="utf-8"?>
<!-- Generator: Adobe Illustrator 26.3.1, SVG Export Plug-In . SVG Version: 6.00 Build 0)  -->
<svg version="1.1" id="Layer_1" xmlns="http://www.w3.org/2000/svg" xmlns:xlink="http://www.w3.org/1999/xlink" x="0px" y="0px"
	 viewBox="0 0 31 30" style="enable-background:new 0 0 31 30;" xml:space="preserve">
<style type="text/css">
	.st0{fill:#3E7CB1;stroke:#3E7CB1;stroke-width:0.6;}
</style>
<g>
	<path class="st0" d="M17.1,26.9c-5.9,0-10.6-4.7-10.6-10.6h1c0,5.2,4.3,9.5,9.5,9.5s9.5-4.3,9.5-9.5c0-5.2-4.3-9.5-9.5-9.5v-1
		c5.9,0,10.6,4.7,10.6,10.6C27.7,22.2,23,26.9,17.1,26.9z"/>
	<path class="st0" d="M14.9,14.2H3.8v-0.5c0-5.9,4.7-10.6,10.6-10.6h0.5V14.2z M4.9,13.1h9v-9C9,4.4,5.2,8.3,4.9,13.1z"/>
</g>
</svg>
