<?xml version="1.0" encoding="utf-8"?>
<!-- Generator: Adobe Illustrator 24.1.0, SVG Export Plug-In . SVG Version: 6.00 Build 0)  -->
<svg version="1.1" id="Layer_1" xmlns="http://www.w3.org/2000/svg" xmlns:xlink="http://www.w3.org/1999/xlink" x="0px" y="0px"
	 viewBox="0 0 30 30" style="enable-background:new 0 0 30 30;" xml:space="preserve">
<style type="text/css">
	.st0{fill:#11253E;}
</style>
<g>
	<path class="st0" d="M19.3,27.7h-8.5V23c-1.4-0.9-2.4-2.3-3-3.8c-0.6-1.6-0.6-3.3-0.1-4.9s1.5-3,2.8-4c1.3-1,2.9-1.5,4.6-1.5
		c1.7,0,3.3,0.5,4.6,1.5c1.3,1,2.3,2.4,2.8,4c0.5,1.6,0.4,3.3-0.1,4.9c-0.6,1.6-1.6,2.9-3,3.8l0,0L19.3,27.7z M12.4,26h5.2V23
		c0-0.3,0.1-0.5,0.2-0.8c0.1-0.2,0.3-0.5,0.5-0.6l0,0c1.1-0.7,1.9-1.8,2.3-3c0.4-1.2,0.5-2.6,0.1-3.8c-0.4-1.2-1.1-2.3-2.2-3.1
		c-1-0.8-2.3-1.2-3.6-1.2c-1.3,0-2.6,0.4-3.6,1.2c-1,0.8-1.8,1.9-2.2,3.1c-0.4,1.2-0.3,2.6,0.1,3.8s1.3,2.3,2.3,3
		c0.2,0.2,0.4,0.4,0.5,0.6c0.1,0.2,0.2,0.5,0.2,0.8V26z"/>
	<path class="st0" d="M15,6.6c-0.2,0-0.4-0.1-0.6-0.2S14.2,6,14.2,5.8V3.1c0-0.1,0-0.2,0.1-0.3c0-0.1,0.1-0.2,0.2-0.3
		c0.1-0.1,0.2-0.1,0.3-0.2c0.1,0,0.2-0.1,0.3-0.1c0.2,0,0.4,0.1,0.6,0.2c0.2,0.2,0.2,0.4,0.2,0.6v2.7c0,0.2-0.1,0.4-0.2,0.6
		C15.4,6.5,15.2,6.6,15,6.6L15,6.6z"/>
	<path class="st0" d="M7.6,9.6c-0.1,0-0.2,0-0.3-0.1C7.2,9.5,7.1,9.4,7,9.3L5.2,7.5C5.1,7.4,5,7.2,5,7c0-0.2,0.1-0.4,0.2-0.6
		s0.3-0.2,0.6-0.2c0.2,0,0.4,0.1,0.6,0.2l1.8,1.8c0.1,0.1,0.1,0.2,0.2,0.3c0,0.1,0.1,0.2,0.1,0.3c0,0.1,0,0.2-0.1,0.3
		c0,0.1-0.1,0.2-0.2,0.3C8,9.5,7.8,9.6,7.6,9.6L7.6,9.6z"/>
	<path class="st0" d="M4.7,17H2c-0.2,0-0.4-0.1-0.5-0.3c-0.1-0.2-0.2-0.3-0.2-0.6c0-0.2,0.1-0.4,0.2-0.6c0.1-0.2,0.3-0.2,0.5-0.3
		h2.7c0.2,0,0.4,0.1,0.5,0.3c0.1,0.2,0.2,0.3,0.2,0.6c0,0.2-0.1,0.4-0.2,0.6C5.1,16.8,4.9,16.9,4.7,17L4.7,17z"/>
	<path class="st0" d="M22.4,9.6c-0.2,0-0.4-0.1-0.6-0.2c-0.1-0.1-0.1-0.2-0.2-0.3c0-0.1-0.1-0.2-0.1-0.3c0-0.1,0-0.2,0.1-0.3
		c0-0.1,0.1-0.2,0.2-0.3l1.8-1.8c0.1-0.1,0.2-0.2,0.3-0.2c0.1-0.1,0.2-0.1,0.3-0.1c0.1,0,0.2,0,0.3,0.1c0.1,0,0.2,0.1,0.3,0.2
		C24.9,6.4,25,6.5,25,6.6c0,0.1,0.1,0.2,0.1,0.3c0,0.1,0,0.2-0.1,0.3c-0.1,0.1-0.1,0.2-0.2,0.3L23,9.3c-0.1,0.1-0.2,0.1-0.3,0.2
		C22.6,9.5,22.5,9.6,22.4,9.6L22.4,9.6z"/>
	<path class="st0" d="M28,17h-2.7c-0.2,0-0.4-0.1-0.5-0.3c-0.1-0.2-0.2-0.3-0.2-0.6c0-0.2,0.1-0.4,0.2-0.6c0.1-0.2,0.3-0.2,0.5-0.3
		H28c0.2,0,0.4,0.1,0.5,0.3c0.1,0.2,0.2,0.3,0.2,0.6c0,0.2-0.1,0.4-0.2,0.6C28.4,16.8,28.2,16.9,28,17L28,17z"/>
</g>
</svg>
