<?xml version="1.0" encoding="utf-8"?>
<!-- Generator: Adobe Illustrator 24.1.0, SVG Export Plug-In . SVG Version: 6.00 Build 0)  -->
<svg version="1.1" id="Layer_1" xmlns="http://www.w3.org/2000/svg" xmlns:xlink="http://www.w3.org/1999/xlink" x="0px" y="0px"
	 viewBox="0 0 30 30" style="enable-background:new 0 0 30 30;" xml:space="preserve">
<style type="text/css">
	.st0{fill:#3E7CB1;}
</style>
<g>
	<path class="st0" d="M24.2,11c-2.2-2.2-4.4-4.4-6.6-6.6c-0.5-0.5-1-0.8-1.7-0.9c-0.2,0-0.3,0-0.5-0.1c-0.3,0-0.5,0-0.8,0
		c0,0,0,0-0.1,0c-0.9,0.1-1.5,0.5-2.2,1.1C10.9,6,9.4,7.4,7.9,8.9c-0.7,0.7-1.5,1.4-2.2,2.2c-0.9,0.9-1.2,2.1-0.8,3.4
		c0.7,2.7,4.1,3.6,6.1,1.7c0.1-0.1,0.2-0.2,0.3-0.3c0,0.1,0,0.2,0,0.3c0,2.3,0,4.7,0,7c0,2.3,2.3,4.1,4.5,3.5
		c1.6-0.4,2.8-1.9,2.8-3.5c0-2.3,0-4.6,0-6.9c0-0.1,0-0.2,0-0.3c0.1,0.1,0.2,0.2,0.3,0.3c0.9,0.9,2,1.3,3.3,1.1
		c1.4-0.2,2.4-1.1,2.8-2.4C25.5,13.3,25.2,12,24.2,11z M23.6,14.4c-0.4,0.8-1.2,1.3-2.1,1.3c-0.6,0-1.1-0.3-1.5-0.7
		c-0.5-0.5-1-1-1.5-1.5c-0.4-0.4-1.1-0.2-1.3,0.3c0,0.1,0,0.2,0,0.3c0,1.5,0,3,0,4.4c0,1.5,0,2.9,0,4.4c0,1.2-0.9,2.2-2.1,2.2
		c-1.2,0-2.2-0.9-2.2-2.2c0-3,0-5.9,0-8.9c0-0.5-0.4-0.9-0.9-0.8c-0.2,0-0.3,0.1-0.4,0.2c-0.3,0.3-0.6,0.6-0.9,0.9
		c-0.3,0.3-0.7,0.6-1,0.9c-1.2,0.9-3,0.1-3.3-1.4c-0.1-0.8,0.1-1.5,0.7-2c1.8-1.8,3.5-3.5,5.3-5.3c0.4-0.4,0.8-0.8,1.1-1.1
		c0.9-0.9,2.3-0.9,3.2,0c2.2,2.2,4.3,4.3,6.5,6.5C23.8,12.7,23.9,13.6,23.6,14.4z"/>
</g>
</svg>
