<?xml version="1.0" encoding="utf-8"?>
<!-- Generator: Adobe Illustrator 26.3.1, SVG Export Plug-In . SVG Version: 6.00 Build 0)  -->
<svg version="1.1" id="Layer_1" xmlns="http://www.w3.org/2000/svg" xmlns:xlink="http://www.w3.org/1999/xlink" x="0px" y="0px"
	 viewBox="0 0 30 30" style="enable-background:new 0 0 30 30;" xml:space="preserve">
<style type="text/css">
	.st0{fill:none;stroke:#3E7CB1;stroke-width:1.5;stroke-linecap:round;stroke-linejoin:round;stroke-miterlimit:10;}
	.st1{fill:#3E7CB1;}
</style>
<g>
	<path class="st0" d="M25.3,14.7c0.4-0.9,0.7-1.9,0.7-2.9c0-4.9-5.4-8.9-12.1-8.9c-6.7,0-12.1,3.9-12.1,8.8c0,2.2,1,4.1,2.7,5.7
		l-2.3,6.2l7-3.6c0.9,0.3,1.8,0.5,2.7,0.6"/>
	<path class="st0" d="M21.7,14.7l2,4.1l4.5,0.6l-3.3,3.2l0.8,4.5l-4-2.1l-4,2.1l0.7-4.5l-3.2-3.2l4.5-0.6L21.7,14.7z"/>
	<path class="st1" d="M9.4,13c0.7,0,1.3-0.6,1.3-1.3c0-0.7-0.6-1.3-1.3-1.3c-0.7,0-1.3,0.6-1.3,1.3C8.1,12.4,8.7,13,9.4,13z"/>
	<path class="st1" d="M13.9,13c0.7,0,1.3-0.6,1.3-1.3c0-0.7-0.6-1.3-1.3-1.3c-0.7,0-1.3,0.6-1.3,1.3C12.6,12.4,13.2,13,13.9,13z"/>
	<path class="st1" d="M18.4,13c0.7,0,1.3-0.6,1.3-1.3c0-0.7-0.6-1.3-1.3-1.3c-0.7,0-1.3,0.6-1.3,1.3C17.1,12.4,17.7,13,18.4,13z"/>
</g>
</svg>
