<?xml version="1.0" encoding="utf-8"?>
<!-- Generator: Adobe Illustrator 24.1.0, SVG Export Plug-In . SVG Version: 6.00 Build 0)  -->
<svg version="1.1" id="Layer_1" xmlns="http://www.w3.org/2000/svg" xmlns:xlink="http://www.w3.org/1999/xlink" x="0px" y="0px"
	 viewBox="0 0 30 30" style="enable-background:new 0 0 30 30;" xml:space="preserve">
<style type="text/css">
	.st0{fill:none;stroke:#11253E;stroke-width:1.67;}
</style>
<g>
	<path class="st0" d="M24.8,7.2h-3.1V6.8c0-0.8-0.4-1.5-0.8-2.1l0,0l0,0c-0.7-0.7-1.4-0.8-2.1-0.8H11c-0.8,0-1.5,0.4-2.1,0.8l0,0
		l0,0C8.2,5.3,8,6,8,6.8v0.5H4.9c-0.5,0-1.1,0.2-1.5,0.6c-0.4,0.4-0.6,1-0.6,1.5v1.8c0,0.8,0.3,1.7,0.7,2.3c0.4,0.7,0.9,1.3,1.7,2
		l0,0l0,0c0.7,0.5,1.6,1.1,2.6,1.4c0.9,0.3,1.8,0.6,2.7,0.6c0.3,0.4,0.8,0.8,1.2,1.1c0.4,0.4,0.4,0.5,0.5,0.6
		c0.1,0.4,0.2,0.6,0.2,0.9c0,0.2,0,0.3-0.1,0.5c0,0.1,0,0.1,0,0.1C12.2,20.9,12.1,21,12,21c-0.1,0-0.3,0.1-0.6,0.1
		c-0.9,0-1.7,0.3-2.3,0.8c-0.6,0.5-1.2,1.3-1.2,2.2v0.8c0,0,0,0,0,0c0,0.1,0,0.6,0.4,0.9c0.4,0.4,0.8,0.4,0.9,0.4c0,0,0,0,0,0h11.3
		c0,0,0,0,0,0c0.1,0,0.6,0,0.9-0.4c0.4-0.4,0.4-0.8,0.4-0.9c0,0,0,0,0,0v-0.8c0-0.8-0.3-1.7-1.2-2.2c-0.6-0.4-1.4-0.7-2.3-0.7
		c-0.3,0-0.4,0-0.5-0.1c0,0-0.1,0-0.1,0c0,0,0,0,0,0c0,0,0,0,0,0c-0.1-0.2-0.2-0.4-0.2-0.7c0-0.3,0.1-0.6,0.2-0.9
		c0.1-0.2,0.2-0.4,0.4-0.5l0,0l0,0c0.4-0.3,0.9-0.7,1.2-1.2c1-0.1,2-0.3,2.8-0.6c1-0.4,1.8-0.9,2.5-1.4l0,0l0,0l0,0
		c0.6-0.5,1.3-1.2,1.8-2c0.4-0.7,0.7-1.5,0.7-2.3V9.4V9.1l-0.1-0.2C27,8.8,27,8.7,26.9,8.6c0,0,0-0.1-0.1-0.1
		c-0.1-0.2-0.2-0.4-0.4-0.6C26,7.4,25.4,7.2,24.8,7.2z M7.1,12.7c-0.8-0.7-1-1.2-1-1.5v-0.5h1.8c0.1,1,0.2,1.9,0.4,2.8
		C7.9,13.3,7.5,13,7.1,12.7z M23.6,10.6l0,0.5c0,0.3-0.3,0.8-1,1.5c-0.4,0.3-0.8,0.6-1.3,0.9c0.2-0.9,0.4-1.9,0.4-2.9H23.6z"/>
</g>
</svg>
