<?xml version="1.0" encoding="utf-8"?>
<!-- Generator: Adobe Illustrator 24.1.0, SVG Export Plug-In . SVG Version: 6.00 Build 0)  -->
<svg version="1.1" id="Layer_1" xmlns="http://www.w3.org/2000/svg" xmlns:xlink="http://www.w3.org/1999/xlink" x="0px" y="0px"
	 viewBox="0 0 30 30" style="enable-background:new 0 0 30 30;" xml:space="preserve">
<style type="text/css">
	.st0{fill:#11253E;}
</style>
<g>
	<path class="st0" d="M25.6,9.9c-0.5,0-1,0.1-1.4,0.4v-0.2c0-0.8-0.4-1.5-1-2.1c-0.6-0.5-1.3-0.8-2.1-0.8c-0.8,0-1.5,0.3-2.1,0.8
		c-0.6,0.5-0.9,1.3-1,2.1v4H12v-4c0-0.8-0.4-1.5-1-2.1c-0.6-0.5-1.3-0.8-2.1-0.8S7.4,7.5,6.8,8c-0.6,0.5-0.9,1.3-1,2.1v0.2
		c-0.4-0.2-0.9-0.4-1.4-0.4C4,9.9,3.6,10,3.2,10.2c-0.4,0.2-0.7,0.4-1,0.7c-0.3,0.3-0.5,0.6-0.7,1S1.3,12.6,1.3,13v3.8
		c0,0.8,0.3,1.6,0.9,2.2c0.6,0.6,1.4,0.9,2.2,0.9c0.5,0,1-0.1,1.4-0.4c0,0.8,0.3,1.6,0.9,2.3c0.6,0.6,1.3,1,2.2,1
		c0.9,0,1.7-0.4,2.3-1.1c0.6-0.6,0.9-1.5,0.9-2.3v-3.7h6.1v3.7c0,0.8,0.3,1.7,0.8,2.3s1.3,1,2.2,1.1c0.8-0.1,1.6-0.4,2.2-1
		c0.6-0.6,0.9-1.4,0.9-2.2c0.4,0.2,0.9,0.4,1.4,0.4c0.4,0,0.8-0.1,1.2-0.2c0.4-0.2,0.7-0.4,1-0.7s0.5-0.6,0.7-1
		c0.2-0.4,0.2-0.8,0.2-1.2V13c0-0.8-0.3-1.6-0.9-2.2C27.2,10.3,26.4,9.9,25.6,9.9z M4.4,18.2c-0.4,0-0.7-0.2-1-0.4S3,17.2,3,16.8V13
		c0-0.4,0.2-0.7,0.5-0.9s0.6-0.4,1-0.4c0.4,0,0.7,0.1,1,0.4c0.3,0.2,0.4,0.6,0.5,0.9v3.8c0,0.2,0,0.4-0.1,0.6
		c-0.1,0.2-0.2,0.3-0.3,0.5c-0.1,0.1-0.3,0.2-0.5,0.3C4.8,18.2,4.6,18.2,4.4,18.2z M10.3,19.4c0,0.4-0.1,0.8-0.4,1.1
		c-0.3,0.3-0.6,0.5-1,0.6c-0.8,0-1.4-0.9-1.4-1.7v-9.3c0-0.4,0.2-0.7,0.5-0.9c0.3-0.2,0.6-0.4,1-0.4s0.7,0.1,1,0.4
		c0.3,0.2,0.4,0.6,0.5,0.9V19.4z M22.5,19.4c0,0.8-0.7,1.7-1.4,1.7c-0.4-0.1-0.8-0.3-1-0.6c-0.3-0.3-0.4-0.7-0.4-1.1v-9.3
		c0-0.4,0.2-0.7,0.5-0.9c0.3-0.2,0.6-0.4,1-0.4c0.4,0,0.7,0.1,1,0.4c0.3,0.2,0.4,0.6,0.5,0.9V19.4z M27,16.8c0,0.4-0.2,0.7-0.5,0.9
		c-0.3,0.2-0.6,0.4-1,0.4c-0.4,0-0.7-0.1-1-0.4c-0.3-0.2-0.4-0.6-0.5-0.9V13c0-0.4,0.2-0.7,0.5-0.9c0.3-0.2,0.6-0.4,1-0.4
		c0.4,0,0.7,0.1,1,0.4c0.3,0.2,0.4,0.6,0.5,0.9V16.8z"/>
</g>
</svg>
